<?xml version="1.0" encoding="iso-8859-1"?>
<!-- Generator: Adobe Illustrator 22.1.0, SVG Export Plug-In . SVG Version: 6.00 Build 0)  -->
<svg version="1.1" xmlns="http://www.w3.org/2000/svg" xmlns:xlink="http://www.w3.org/1999/xlink" x="0px" y="0px"
	 viewBox="0 0 64 64" style="enable-background:new 0 0 64 64;" xml:space="preserve">
<g id="_x39_">
	<g>
		<path style="fill:#FFFFFF;" d="M32,0C18.192,0,6.426,8.746,1.941,21h60.119C57.574,8.746,45.808,0,32,0z"/>
		<path style="fill:#0547AF;" d="M0,32c0,3.865,0.685,7.57,1.941,11h60.119C63.315,39.57,64,35.865,64,32
			c0-3.865-0.685-7.57-1.941-11H1.941C0.685,24.43,0,28.135,0,32z"/>
		<path style="fill:#D82E25;" d="M32,64c13.808,0,25.574-8.746,30.059-21H1.941C6.426,55.254,18.192,64,32,64z"/>
	</g>
</g>
<g id="Layer_1">
</g>
</svg>
