<svg xmlns="http://www.w3.org/2000/svg" width="46" height="46" viewBox="0 0 46 46">
  <g fill="none" fill-rule="evenodd" transform="translate(-10 -9)">
    <rect width="64" height="64"/>
    <path fill="#1CE8B5" d="M22.6147922,20.6285436 C22.5647233,18.1618469 23.4291652,15.9901143 25.0150812,14.1205988 C26.4900013,12.3810367 28.2170753,10.91347 30.386927,10.167598 C33.7747187,9.00164413 37.9244017,9.55711931 40.4755006,12.5333541 C40.8941486,13.0217371 41.308574,13.3874199 41.9160359,13.6340291 C42.8450244,14.0105917 43.388543,14.8193249 43.7697902,15.7283942 C44.2903857,16.9699024 44.4647219,18.2803161 44.386904,19.6046318 C44.3084829,20.9434539 44.1160496,22.2756272 43.9537782,23.608405 C43.9193936,23.8900714 43.8922478,24.0889303 44.175167,24.2938336 C44.558224,24.5724778 44.6348353,25.0560253 44.6040701,25.4906136 C44.5546045,26.1820866 44.4954871,26.8922969 44.2946084,27.5499215 C43.9881628,28.5563047 43.6057091,29.5475771 43.161725,30.5013745 C42.8395953,31.1958696 42.5096234,31.3052722 41.9805825,31.2230692 C41.5788252,32.3829787 41.1812905,33.5229419 40.7897882,34.6659273 C40.7535939,34.7723078 40.7451485,34.8925902 40.7451485,35.0062239 C40.7415291,36.1594846 40.7511809,37.312141 40.7373064,38.4654017 C40.733687,38.7797076 40.8476992,38.9586202 41.1276022,39.1006623 C45.3333864,41.2252491 49.2948587,43.7451359 53.0439908,46.5980661 C54.8525021,47.9737588 55.802604,48.2481097 55.9485879,50.5117164 C56.011928,51.4927134 55.9980535,50.8791503 55.9998632,51.8631694 C56.0028794,53.4570629 55.0600164,54.3945406 53.4674648,54.3945406 C40.395873,54.395145 27.3242812,54.395145 14.2526894,54.3939361 C13.6584987,54.3939361 13.0594821,54.4217401 12.4713238,54.3582745 C11.3281854,54.2331566 10.5162253,53.4473919 10.4697759,52.3001755 C10.4064358,50.7262284 10.2857879,50.7371704 10.6628125,49.1813564 C11.1345456,47.2314511 12.2909553,47.36872 13.8883329,46.1888641 C17.4902746,43.5287484 21.2617265,41.1478815 25.2551705,39.1236308 C25.5724743,38.9622468 25.7281101,38.7549258 25.6979481,38.3940785 C25.6768347,38.1492826 25.6804542,37.90086 25.6961384,37.6560641 C25.7830048,36.2882292 25.6460695,34.995344 24.9632027,33.7399339 C24.5548097,32.9898308 24.4456234,32.0735083 24.2224248,31.2260913 C24.1530523,30.9631624 24.1162547,30.7461705 23.8176513,30.5986885 C23.5829912,30.4832415 23.3827158,30.2215214 23.254829,29.9785388 C22.4084843,28.3737656 21.8293746,26.6849759 21.8148969,24.846891 C21.807658,23.9583725 22.2172575,23.5352685 23.0147398,23.4651541 C22.8741851,22.5107522 22.6346991,21.5720656 22.6147922,20.6285436 Z"/>
    <path fill="#FFF" d="M33.0822,32.7129999 C32.1489889,32.7262974 31.4244985,32.0227358 31.4208791,31.0991601 C31.4172596,30.2052017 32.1628634,29.4665829 33.0737547,29.4617474 C33.9219091,29.4569119 34.688023,30.2372367 34.6892295,31.1082266 C34.6916424,31.9780077 33.9677553,32.7009112 33.0822,32.7129999 Z M29.6901856,17.3525093 C30.7428381,16.554656 31.9499199,16.2560654 33.5050708,16.2421634 C35.0053268,16.2862871 36.5984818,16.7353818 37.738604,18.1860243 C38.7249002,19.4396212 39.0886535,21.7304274 37.5135957,23.2511843 C36.7691985,23.9692523 36.009117,24.6722095 35.2472258,25.3715401 C34.7851445,25.795853 34.4587921,26.2860493 34.3646867,26.9194965 C34.3345248,27.121982 34.266962,27.3202365 34.2084478,27.5178865 C33.9906784,28.2456255 33.4942125,28.5647668 32.7401634,28.4644307 C32.1574342,28.3870631 31.6977659,27.8321924 31.6645877,27.1751722 C31.6048671,25.9814143 32.0060212,24.9568981 32.8415076,24.1227787 C33.4537954,23.5104867 34.1282169,22.9622647 34.7507599,22.3602481 C35.1476913,21.9758278 35.5470357,21.5756922 35.6272665,20.9803244 C35.8685622,19.1851543 34.2742008,18.4761528 32.9977465,18.6012707 C31.7960939,18.7191354 31.1928546,19.4807227 30.8170366,20.5209543 C30.7114697,20.8116872 30.6300324,21.1139044 30.4961133,21.3907353 C30.200526,22.0018185 29.5858252,22.2846938 28.950011,22.1323763 C28.2967029,21.9752234 27.770075,21.3871087 27.7948078,20.7506393 C27.8503058,19.3036235 28.5627314,18.2071795 29.6901856,17.3525093 Z"/>
  </g>
</svg>
