<svg width="56" height="56" viewBox="0 0 56 56" fill="none" xmlns="http://www.w3.org/2000/svg">
<path fill-rule="evenodd" clip-rule="evenodd" d="M0 28C0 43.464 12.536 56 28 56C43.464 56 56 43.464 56 28C56 12.536 43.464 0 28 0C12.536 0 0 12.536 0 28ZM39.4278 21.0533C39.9405 20.5409 39.9407 19.7099 39.4283 19.1972C38.9159 18.6845 38.0849 18.6843 37.5722 19.1967L23.6167 33.1449L18.4272 27.965C17.9142 27.4529 17.0832 27.4537 16.5711 27.9667C16.059 28.4798 16.0597 29.3108 16.5728 29.8229L23.618 36.8551L39.4278 21.0533Z" fill="#1CE8B5"/>
</svg>
