<svg width="148" height="230" viewBox="0 0 148 230" fill="none" xmlns="http://www.w3.org/2000/svg">
<circle cx="73.9523" cy="60.7842" r="60.3366" fill="#FFDD2A"/>
<path fill-rule="evenodd" clip-rule="evenodd" d="M28.8157 169.256C29.0702 160.933 34.9479 152.731 46.1958 152.731C57.4437 152.731 62.905 160.933 62.9424 169.256L62.9425 169.27V213.205C62.9112 221.532 57.45 229.744 46.1958 229.744C34.9416 229.744 29.064 221.532 28.8157 213.205V169.256ZM58.6821 169.27C58.451 162.914 54.1864 156.669 46.1958 156.669C37.645 156.669 33.4272 162.914 33.3312 169.27V213.205C33.4272 219.561 37.645 225.806 46.1958 225.806C54.1864 225.806 58.451 219.561 58.6821 213.205V169.27Z" fill="black"/>
<path d="M12.3805 187.932C10.5803 187.932 8.86454 187.651 7.23315 187.088C5.60175 186.526 4.18131 185.738 2.97183 184.726C1.76235 183.713 1.07324 182.855 0.510687 181.533C-0.728839 178.93 3.32344 177.314 4.44852 180.043C4.78605 180.746 5.33454 181.393 6.09398 181.983C6.88155 182.574 7.82382 183.052 8.9208 183.418C10.0178 183.783 11.171 183.966 12.3805 183.966C18.1607 183.966 22.1558 178.608 18.1607 174.515C16.3743 172.686 13.9598 172.304 11.4484 171.907C8.95274 171.512 6.36136 171.102 4.19538 169.242C2.19832 167.526 1.56546 165.444 1.56546 162.913C1.56546 156.681 7.23314 154.137 12.9712 154.179C15.5308 154.179 17.6263 154.7 19.2577 155.74C20.8891 156.781 22.2392 158.159 23.308 159.875C24.0675 161.094 23.7159 162.431 22.9705 162.913C22.2251 163.395 20.6502 163.406 19.8483 162.027C19.1451 160.817 18.231 159.875 17.1059 159.2C16.0089 158.525 14.5885 158.173 12.8446 158.145C10.0037 158.099 5.78459 159.2 5.78459 163.124C5.78459 165.05 6.83419 166.595 8.54108 167.427C10.1976 168.126 11.8895 168.397 13.5736 168.667C16.2646 169.098 18.9354 169.526 21.4094 171.689C27.0182 176.591 23.4266 185.514 16.7684 187.342C15.362 187.735 13.8994 187.932 12.3805 187.932Z" fill="black"/>
<path fill-rule="evenodd" clip-rule="evenodd" d="M71.5326 187.51C70.3675 187.51 69.423 186.566 69.423 185.401V156.57C69.423 155.405 70.3675 154.461 71.5326 154.461H82.0124C91.9408 154.461 94.9748 165.646 87.6797 169.652C97.1379 171.994 96.427 187.51 82.9209 187.51H71.5326ZM81.2913 168.044H73.9223V159.929C73.9223 159.153 74.552 158.523 75.3287 158.523H81.2913C89.567 158.523 89.567 168.044 81.2913 168.044ZM73.9223 183.448H82.9209C91.7301 183.448 92.0907 171.994 82.9209 172.107H75.3287C74.552 172.107 73.9223 172.737 73.9223 173.513V183.448Z" fill="black"/>
<path d="M100.763 186.878C101.185 187.299 101.705 187.51 102.324 187.51H118.582C119.229 187.51 119.749 187.328 120.143 186.962C120.537 186.568 120.734 186.062 120.734 185.443C120.734 184.852 120.537 184.374 120.143 184.009C119.749 183.643 119.229 183.46 118.582 183.46H104.518V174.319C104.518 173.542 105.148 172.912 105.924 172.912H113.814C114.461 172.912 114.981 172.729 115.375 172.364C115.769 171.97 115.966 171.478 115.966 170.887C115.966 170.296 115.769 169.818 115.375 169.453C114.981 169.059 114.461 168.862 113.814 168.862H104.518V160.016C104.518 159.239 105.148 158.609 105.924 158.609H118.582C119.229 158.609 119.749 158.427 120.143 158.061C120.537 157.695 120.734 157.217 120.734 156.626C120.734 156.008 120.537 155.515 120.143 155.15C119.749 154.756 119.229 154.559 118.582 154.559H102.324C101.705 154.559 101.185 154.77 100.763 155.192C100.341 155.586 100.13 156.106 100.13 156.753V185.316C100.13 185.935 100.341 186.456 100.763 186.878Z" fill="black"/>
<path fill-rule="evenodd" clip-rule="evenodd" d="M129.232 187.51C128.613 187.51 128.093 187.299 127.671 186.878C127.249 186.456 127.038 185.935 127.038 185.316V156.753C127.038 156.106 127.249 155.586 127.671 155.192C128.093 154.77 128.613 154.559 129.232 154.559H136.826C138.936 154.559 140.806 155.009 142.438 155.909C144.069 156.781 145.335 157.991 146.235 159.538C147.163 161.085 147.627 162.885 147.627 164.938C147.627 166.963 147.121 168.749 146.108 170.296C145.096 171.815 143.244 173.362 141.5 174.15L147.069 184.135C147.575 184.951 147.646 185.724 147.28 186.456C146.914 187.159 146.281 187.51 145.381 187.51C144.566 187.51 143.933 187.159 143.483 186.456L136.226 174.811H131.426V185.316C131.426 185.935 131.215 186.456 130.793 186.878C130.399 187.299 129.879 187.51 129.232 187.51ZM131.426 170.76H136.826C138.739 170.76 140.314 170.226 141.552 169.157C142.789 168.06 143.408 166.654 143.408 164.938C143.408 163.082 142.789 161.563 141.552 160.381C140.314 159.2 138.739 158.609 136.826 158.609H132.832C132.055 158.609 131.426 159.239 131.426 160.016V170.76Z" fill="black"/>
<path d="M100.763 226.993C101.185 227.415 101.705 227.626 102.324 227.626H118.582C119.229 227.626 119.749 227.443 120.143 227.078C120.537 226.684 120.734 226.178 120.734 225.559C120.734 224.968 120.537 224.49 120.143 224.124C119.749 223.759 119.229 223.576 118.582 223.576H104.518V214.434C104.518 213.658 105.148 213.028 105.924 213.028H113.814C114.461 213.028 114.981 212.845 115.375 212.479C115.769 212.086 115.966 211.593 115.966 211.003C115.966 210.412 115.769 209.934 115.375 209.568C114.981 209.174 114.461 208.978 113.814 208.978H104.518V200.131C104.518 199.355 105.148 198.725 105.924 198.725H118.582C119.229 198.725 119.749 198.542 120.143 198.177C120.537 197.811 120.734 197.333 120.734 196.742C120.734 196.123 120.537 195.631 120.143 195.265C119.749 194.872 119.229 194.675 118.582 194.675H102.324C101.705 194.675 101.185 194.886 100.763 195.308C100.341 195.701 100.13 196.222 100.13 196.869V225.432C100.13 226.051 100.341 226.571 100.763 226.993Z" fill="black"/>
<path d="M72.0215 227.468C71.4027 227.468 70.8823 227.257 70.4604 226.835C70.0666 226.413 69.8697 225.893 69.8697 225.274V196.682C69.8697 194.337 73.2622 193.715 74.2154 195.15L89.3408 217.889C89.3581 217.912 89.3735 217.936 89.3889 217.961L89.3955 217.971C89.3994 217.977 89.4033 217.984 89.4073 217.99C89.6277 218.328 90.136 218.327 90.136 217.684V196.711C90.136 196.064 90.347 195.543 90.7689 195.15C91.1908 194.728 91.7112 194.517 92.33 194.517C92.9769 194.517 93.4973 194.728 93.8911 195.15C94.2848 195.543 94.4817 196.064 94.4817 196.711V225.274C94.4817 225.893 94.2848 226.413 93.8911 226.835C93.4973 227.257 92.9769 227.468 92.33 227.468C91.6057 227.468 90.4215 227.101 89.8205 226.234L75.4807 204.979C74.7864 203.868 74.2154 204.304 74.2154 204.979V225.274C74.2154 225.893 74.0045 226.413 73.5826 226.835C73.1888 227.257 72.6684 227.468 72.0215 227.468Z" fill="black"/>
</svg>
