<svg xmlns="http://www.w3.org/2000/svg" width="32" height="20" viewBox="0 0 32 20">
  <g fill="none">
    <rect width="8.542" height="15.3" x="11.786" y="2.346" fill="#FF5F00"/>
    <path fill="#EB001B" d="M12.3281356,10 C12.3257755,7.01486526 13.7007753,4.19442667 16.0569492,2.35135135 C12.0541804,-0.783769789 6.30604402,-0.327112283 2.8521757,3.40039725 C-0.601692618,7.12790677 -0.601692618,12.8747959 2.8521757,16.6023055 C6.30604402,20.329815 12.0541804,20.7864725 16.0569492,17.6513514 C13.7000254,15.8076907 12.3249417,12.9860832 12.3281356,10 Z"/>
    <path fill="#F79E1B" d="M31.8535593 10C31.8534722 13.7252379 29.719165 17.123419 26.3570862 18.7513227 22.9950074 20.3792263 18.9954142 19.9510527 16.0569492 17.6486486 18.412095 15.8040086 19.7871982 12.983945 19.7871982 9.99864865 19.7871982 7.0133523 18.412095 4.1932887 16.0569492 2.34864865 18.9957988.0459430877 22.9960139-.382017221 26.358306 1.24656496 29.7205981 2.87514715 31.8545107 6.27427446 31.8535593 10zM30.9152542 16.0243243L30.9152542 15.7108108 31.0427119 15.7108108 31.0427119 15.6486486 30.7254237 15.6486486 30.7254237 15.7135135 30.8528814 15.7135135 30.8528814 16.027027 30.9152542 16.0243243zM31.5416949 16.0243243L31.5416949 15.6459459 31.4576271 15.6459459 31.3437288 15.9162162 31.2298305 15.6459459 31.1294915 15.6459459 31.1294915 16.0243243 31.1864407 16.0243243 31.1864407 15.7405405 31.2922034 15.9864865 31.3654237 15.9864865 31.4711864 15.7405405 31.4711864 16.027027 31.5416949 16.0243243z"/>
  </g>
</svg>
