<svg xmlns="http://www.w3.org/2000/svg" width="49" height="14" viewBox="0 0 49 14">
  <defs>
    <linearGradient id="mir-a" x1=".001%" y1="50.002%" y2="50.002%">
      <stop offset="0%" stop-color="#00A3E1"/>
      <stop offset="100%" stop-color="#0075CF"/>
    </linearGradient>
  </defs>
  <g fill="none" fill-rule="evenodd">
    <path fill="#319B42" d="M27.2534684 1.51769211L24.1777053 8.18187632 23.8656526 8.18187632 23.8656526.0672184211 19.4963632.0672184211 19.4963632 13.7995605 23.2045211 13.7995605C24.1782579 13.7995605 25.0633895 13.2332974 25.4714158 12.3490868L28.5471789 5.68490263 28.8592316 5.68490263 28.8592316 13.7995605 33.2285211 13.7995605 33.2285211.0672184211 29.5205474.0672184211C28.5466263.0672184211 27.6616789.633481579 27.2534684 1.51769211M10.8611079 1.87198421L9.04092368 8.18174737 8.72887105 8.18174737 6.90868684 1.87198421C6.60050263.803194737 5.62216053.0672736842 4.50971316.0672736842L.146134211.0672736842.146134211 13.7994316 4.51560789 13.7994316 4.51560789 5.68495789 4.82766053 5.68495789 7.32445 13.7994316 10.4453447 13.7994316 12.9421342 5.68495789 13.2543711 5.68495789 13.2543711 13.7994316 17.6236605 13.7994316 17.6236605.0672736842 13.2600816.0672736842C12.1476342.0672736842 11.1694763.803194737 10.8611079 1.87198421M35.1011868 6.30915526L35.1011868 13.7995237 39.4620026 13.7995237 39.4620026 9.43005 44.1520026 9.43005C46.1895553 9.43005 47.9180026 8.12620789 48.56145 6.30915526L35.1011868 6.30915526z"/>
    <path fill="url(#mir-a)" d="M34.4768421,0.0670526316 C35.0642895,3.26273684 37.8606053,5.68492105 41.2259474,5.68492105 L48.7395263,5.68492105 C48.8008684,5.38226316 48.8334737,5.06928947 48.8334737,4.74876316 C48.8334737,2.16318421 46.7375263,0.0670526316 44.1521316,0.0670526316 L34.4768421,0.0670526316 Z"/>
  </g>
</svg>
