<svg xmlns="http://www.w3.org/2000/svg" width="48" height="48" viewBox="0 0 48 48">
  <g fill="none" fill-rule="evenodd">
    <path fill="#0E1649" d="M13.9156368,24.0948018 C13.8419801,23.9988018 12.1240249,21.6919782 12.6052488,17.3338606 C12.6333085,17.0783312 12.2194279,15.8437429 9.99218908,13.2390371 C9.91151744,13.1606841 5.29569654,8.09527235 4.80184579,7.59833117 C4.51353236,7.60256647 4.25959206,7.57150764 4.01056221,7.45433117 C3.70821893,7.3131547 3.46550251,7.06891941 3.25154729,6.85362529 L1.01869654,4.60609588 C0.493278629,4.07739 0.613935346,3.04962529 1.08183087,2.57809588 L2.70368161,0.94680176 C3.01023385,0.637625289 3.49286072,0.519037054 3.63315923,0.490095878 C4.14033833,0.385625289 4.57105475,0.479507642 4.84463684,0.755507642 L7.07818908,3.00303705 C7.33493535,3.26139 7.53836818,3.60374294 7.63517415,3.94256647 C7.68918908,4.13033117 7.70953236,4.31244882 7.69690549,4.48186058 C8.60042788,5.39527235 13.2660547,9.85433117 13.3481294,9.93691941 C16.1849652,12.3905665 17.0485025,12.7265665 17.2989353,12.7068018 C21.6629204,12.2183312 23.765995,14.0995076 23.8529801,14.1799782 L44.2056045,34.1830588 C44.4798881,34.4583529 44.4798881,34.9058824 44.2056045,35.1811765 C44.1528509,35.2343963 42.7865327,39.0287876 40.6632471,41.1653603 C38.5399616,43.301933 35.5716343,43.8698824 35.2973507,44.1451765 C35.1605597,44.2828235 34.9809776,44.352 34.8013955,44.352 C34.6816741,44.352 27.7197546,37.5996006 13.9156368,24.0948018 Z"/>
    <path fill="#448AFF" fill-rule="nonzero" d="M25.5522388,48 C13.1546826,48 3.10447761,37.8869026 3.10447761,25.4117647 C3.10447761,12.9366268 13.1546826,2.82352941 25.5522388,2.82352941 C37.949795,2.82352941 48,12.9366268 48,25.4117647 C48,37.8869026 37.949795,48 25.5522388,48 Z M25.5522388,45.1764706 C36.4001005,45.1764706 45.1940299,36.3275103 45.1940299,25.4117647 C45.1940299,14.4960191 36.4001005,5.64705882 25.5522388,5.64705882 C14.7043772,5.64705882 5.91044776,14.4960191 5.91044776,25.4117647 C5.91044776,36.3275103 14.7043772,45.1764706 25.5522388,45.1764706 Z"/>
    <path fill="#0E1649" d="M13.9156368,24.0948018 C13.8419801,23.9988018 12.1240249,21.6919782 12.6052488,17.3338606 C12.6333085,17.0783312 12.2194279,15.8437429 9.99218908,13.2390371 C9.91151744,13.1606841 5.29569654,8.09527235 4.80184579,7.59833117 C4.51353236,7.60256647 4.25959206,7.57150764 4.01056221,7.45433117 C3.70821893,7.3131547 3.46550251,7.06891941 3.25154729,6.85362529 L1.01869654,4.60609588 C0.493278629,4.07739 0.613935346,3.04962529 1.08183087,2.57809588 L2.70368161,0.94680176 C3.01023385,0.637625289 3.49286072,0.519037054 3.63315923,0.490095878 C4.14033833,0.385625289 4.57105475,0.479507642 4.84463684,0.755507642 L7.07818908,3.00303705 C7.33493535,3.26139 7.53836818,3.60374294 7.63517415,3.94256647 C7.68918908,4.13033117 7.70953236,4.31244882 7.69690549,4.48186058 C8.60042788,5.39527235 13.2660547,9.85433117 13.3481294,9.93691941 C16.1849652,12.3905665 17.0485025,12.7265665 17.2989353,12.7068018 C21.6629204,12.2183312 23.765995,14.0995076 23.8529801,14.1799782 L41.5489996,31.6456969 C41.8232832,31.9209911 41.8232832,32.3685205 41.5489996,32.6438146 C41.496246,32.6970344 40.1299278,36.4914257 38.0066422,38.6279984 C35.8833567,40.7645712 32.9150294,41.3325205 32.6407458,41.6078146 C32.5039548,41.7454617 32.3243727,41.8146381 32.1447906,41.8146381 C32.0250692,41.8146381 25.9486846,35.908026 13.9156368,24.0948018 Z"/>
    <rect width="44.896" height="2.824" x="3.134" y="24.115" fill="#448AFF" transform="rotate(-45 25.581 25.527)"/>
  </g>
</svg>
