<svg xmlns="http://www.w3.org/2000/svg" width="152" height="152" viewBox="0 0 152 152">
  <g fill="none" fill-rule="evenodd">
    <ellipse cx="73" cy="126" fill="#C2C4D1" opacity=".3" rx="66" ry="14"/>
    <path fill="#EBECF0" d="M62,64.9193791 C59.6501507,64.5368871 57.2385661,64.3380282 54.7804878,64.3380282 C44.3017834,64.3380282 34.6680049,67.9518672 27.0599116,74 L19,74 C18.4477153,74 18,73.5522847 18,73 L18,27 C18,26.4477153 18.4477153,26 19,26 L61,26 C61.5522847,26 62,26.4477153 62,27 L62,64.9193791 Z"/>
    <path fill="#86869E" d="M40,12 C42.9611294,12 45.5465048,13.6087945 46.9297424,16 L62,16 C63.1045695,16 64,16.8954305 64,18 L64,74 C64,75.1045695 63.1045695,76 62,76 L18,76 C16.8954305,76 16,75.1045695 16,74 L16,18 C16,16.8954305 16.8954305,16 18,16 L33.0702576,16 C34.4534952,13.6087945 37.0388706,12 40,12 Z M40,22 C41.1045695,22 42,21.1045695 42,20 C42,18.8954305 41.1045695,18 40,18 C38.8954305,18 38,18.8954305 38,20 C38,21.1045695 38.8954305,22 40,22 Z M19,26 L61,26 C61.5522847,26 62,26.4477153 62,27 L62,73 C62,73.5522847 61.5522847,74 61,74 L19,74 C18.4477153,74 18,73.5522847 18,73 L18,27 C18,26.4477153 18.4477153,26 19,26 Z M34,36 C32.8954305,36 32,36.8954305 32,38 C32,39.1045695 32.8954305,40 34,40 L54,40 C55.1045695,40 56,39.1045695 56,38 C56,36.8954305 55.1045695,36 54,36 L34,36 Z M34,48 C32.8954305,48 32,48.8954305 32,50 C32,51.1045695 32.8954305,52 34,52 L54,52 C55.1045695,52 56,51.1045695 56,50 C56,48.8954305 55.1045695,48 54,48 L34,48 Z M34,60 C32.8954305,60 32,60.8954305 32,62 C32,63.1045695 32.8954305,64 34,64 L54,64 C55.1045695,64 56,63.1045695 56,62 C56,60.8954305 55.1045695,60 54,60 L34,60 Z M25,36 C24.4477153,36 24,36.4477153 24,37 L24,39 C24,39.5522847 24.4477153,40 25,40 L27,40 C27.5522847,40 28,39.5522847 28,39 L28,37 C28,36.4477153 27.5522847,36 27,36 L25,36 Z M25,48 C24.4477153,48 24,48.4477153 24,49 L24,51 C24,51.5522847 24.4477153,52 25,52 L27,52 C27.5522847,52 28,51.5522847 28,51 L28,49 C28,48.4477153 27.5522847,48 27,48 L25,48 Z M25,60 C24.4477153,60 24,60.4477153 24,61 L24,63 C24,63.5522847 24.4477153,64 25,64 L27,64 C27.5522847,64 28,63.5522847 28,63 L28,61 C28,60.4477153 27.5522847,60 27,60 L25,60 Z"/>
    <path fill="#C2C4D1" d="M50.3301906,117.746479 L32.8198951,117.746479 C33.4788254,122.348398 35.1444664,126.6259 37.5868112,130.349214 C34.1345552,131.064052 30.590406,131.277066 26.6757143,130.074707 C25.2849551,129.647502 23.965501,129.121169 22.7195292,128.507097 C19.8713269,125.636447 17.8868574,121.909168 17.1877717,117.746479 L12.1188606,117.746479 C11.5344355,114.870345 10.2276423,111.893499 10.2276423,108.84507 C10.2276423,84.2645097 30.1746307,64.3380282 54.7804878,64.3380282 C65.8595251,64.3380282 75.9940502,68.3778078 83.7885157,75.0632541 C83.0423083,70.4917058 84.2584178,64.8191705 86.5305111,63.341504 C89.4013055,61.4744695 92.8708002,67.0112878 95.1997956,71.5897326 C95.5990384,72.3745821 95.8756284,73.0972312 96.0454234,73.7653466 C105.86786,72.2672941 114.099037,73.8369044 120.738953,78.4741775 C123.53429,80.4264223 125.913857,82.8289491 127.877656,85.6817578 C128.382585,85.4771112 128.950943,85.299382 129.589353,85.1515456 C134.593695,83.9926921 141.42999,82.9589412 141.84507,86.3582039 C142.211672,89.360462 137.446745,94.8166107 132.880982,96.8485178 C134.803031,103.964493 135.306656,112.616636 134.391857,122.804946 C133.935559,122.937037 133.481376,123.064472 133.029305,123.187252 C130.300793,111.981033 125.330623,103.202557 118.118793,96.8518181 L96.1937901,122.224422 L93.924215,120.639366 L110.329734,91.4119908 C100.575577,86.116634 88.7952077,84.7274496 74.988625,87.2444376 C76.1967479,95.2988286 78.63579,102.152675 82.3057451,107.805978 L83.066201,107.831962 L83.8433147,110.008523 C85.4217363,112.113228 87.1919228,114.030899 89.1538742,115.761536 C89.1064962,116.418841 89.1416827,117.085314 89.2559982,117.746479 L86.6060541,117.746479 L88.195122,122.197183 L101.307688,125.210963 C102.277761,124.719095 103.53232,124.422535 104.902439,124.422535 C107.106803,124.422535 109.012038,125.190182 109.914634,126.303806 C110.817231,125.190182 112.722465,124.422535 114.926829,124.422535 C118.002561,124.422535 120.495935,125.917021 120.495935,127.760563 C120.495935,129.604105 118.002561,131.098592 114.926829,131.098592 C112.722465,131.098592 110.817231,130.330944 109.914634,129.217321 C109.012038,130.330944 107.106803,131.098592 104.902439,131.098592 C103.13849,131.098592 101.566083,130.607042 100.545696,129.840007 L77.229042,129.840007 L70.2027045,117.746479 L66.0752079,117.746479 C64.5588954,120.365036 63.6910569,123.405219 63.6910569,126.647887 C63.6910569,127.270374 63.723038,127.885398 63.7854484,128.49141 C60.8536289,127.400645 57.7223457,126.812468 54.5334948,126.805665 C53.5320328,126.803555 52.5542023,126.865477 51.5951668,126.975572 C50.7737964,124.273361 50.3252033,121.351737 50.3252033,118.302817 C50.3252033,118.116891 50.3268714,117.931438 50.3301906,117.746479 Z"/>
    <path fill="#EBECF0" d="M74.586092,84.100893 C74.7002061,85.1683089 74.8343835,86.2161572 74.988625,87.2444376 C88.7952077,84.7274496 100.575577,86.116634 110.329734,91.4119908 L93.924215,120.639366 L96.1937901,122.224422 L118.118793,96.8518181 C125.330623,103.202557 130.300793,111.981033 133.029305,123.187252 C128.132429,124.517215 123.483513,125.300917 119.082559,125.538357 C118.062674,124.853627 116.578744,124.422535 114.926829,124.422535 C113.440591,124.422535 112.090331,124.771492 111.091668,125.340168 C108.683939,125.076407 106.362151,124.623321 104.126302,123.980908 C101.274043,126.30489 96.8176992,126.388264 93.3028182,123.933494 C92.949146,123.686492 92.6164244,123.421766 92.3052548,123.141852 L88.195122,122.197183 L83.8433147,110.008523 C78.799252,103.282652 75.7135108,94.6467751 74.5860913,84.1008932 Z M134.626235,119.755426 C134.56267,120.756163 134.484544,121.772669 134.391857,122.804946 C133.935559,122.937037 133.481376,123.064472 133.029305,123.187252 Z"/>
    <path fill="#86869E" d="M119.082559,125.538357 C118.062674,124.853627 116.578744,124.422535 114.926829,124.422535 C113.440591,124.422535 112.090331,124.771492 111.091668,125.340168 C110.595617,125.285827 110.103213,125.22345 109.614458,125.153036 C109.206328,119.562725 107.577922,115.293984 104.729239,112.346815 L115.395542,100.003287 C121.281171,105.643063 124.746704,113.903824 125.792142,124.785572 C123.495,125.170034 121.258473,125.420962 119.082559,125.538357 Z M108.292045,95.0422517 L100.310917,109.261089 C95.9355761,107.322468 90.4339815,107.555059 83.8061338,109.958864 C80.6725713,105.766655 78.2976914,100.834483 76.6814941,95.1623468 C89.3691302,90.9759885 99.9059804,90.9359568 108.292045,95.0422517 Z M22.7195292,128.507097 C5.76644315,120.151848 2.41727283,95.5535717 18.1560965,83.4068479 C14.419967,89.8531068 17.9259798,96.7276141 23.9245229,99.1905404 C19.6312195,102.863844 16.9105691,108.318753 16.9105691,114.408451 C16.9105691,119.906896 19.1285666,124.887833 22.7195292,128.507097 Z M51.5951668,126.975572 C46.6467997,127.543636 42.1988075,129.394235 37.5868112,130.349214 C34.3730002,125.449812 32.504065,119.590826 32.504065,113.295775 C32.504065,108.620877 33.5347833,104.186469 35.3815855,100.206964 C37.9797278,100.177266 40.5793869,100.169231 43.1847713,100.458608 C46.8853554,100.870102 50.7827953,101.734435 54.5901976,103.04938 C51.9155639,107.272642 50.3252033,112.562081 50.3252033,118.302817 C50.3252033,121.351737 50.7737964,124.273361 51.5951668,126.975572 Z M63.7854484,128.49141 C63.723038,127.885398 63.6910569,127.270374 63.6910569,126.647887 C63.6910569,120.884066 66.4329766,115.759997 70.6848743,112.506354 C75.7140354,117.343932 79.0375599,123.598125 79.0375599,131.256369 C79.0375599,134.2172 78.5485924,137.17358 77.5806818,139.973073 C74.4312617,134.632205 69.4853021,130.612005 63.7854515,128.491411 Z M115.500955,75.5882668 C117.344975,76.3612703 119.090974,77.3232405 120.738953,78.4741775 C122.495901,79.7012187 124.088601,81.1061427 125.517052,82.6889497 C122.511742,82.9252706 118.92667,84.685464 114.761824,87.9695185 C116.320877,82.7711441 116.567254,78.6440602 115.500955,75.5882668 Z"/>
    <path fill="#414164" d="M98.7379156,101.141488 C100.16515,101.659238 102.250472,99.5368552 101.671558,101.122148 C101.092644,102.707441 99.4663398,103.572856 98.039105,103.055106 C96.6118702,102.537356 95.9241701,100.832503 96.5030837,99.2472102 C97.0819973,97.6619173 97.3106808,100.623738 98.7379156,101.141488 Z M113.550671,111.622951 C114.527551,112.784219 117.395776,111.987771 116.100959,113.071515 C114.806143,114.15526 112.96457,114.092415 111.987689,112.931147 C111.010809,111.769878 111.268547,109.949936 112.563363,108.866191 C113.858179,107.782447 112.57379,110.461683 113.550671,111.622951 Z M94.0052919,122.932854 C92.6778663,122.005789 92.9043704,119.39877 93.7091965,118.252334 C94.5140227,117.105898 96.0731562,117.169362 97.4005818,118.096428 C98.7280075,119.023493 99.2808082,120.52043 98.51623,121.609534 C97.7516518,122.698639 95.3327176,123.85992 94.0052919,122.932854 Z"/>
  </g>
</svg>
