<svg xmlns="http://www.w3.org/2000/svg" width="152" height="152" viewBox="0 0 152 152">
  <g fill="none" fill-rule="evenodd">
    <polygon fill="#86869E" points="120.8 80.4 120.8 138 31.2 138 31.2 80.4 44 48.4 108 48.4"/>
    <polygon fill="#EBECF0" points="105.833 51.6 46.167 51.6 35.927 77.2 116.073 77.2"/>
    <path fill="#C2C4D1" d="M95.6381426,77.1999995 L44.039303,77.2 C44.141595,75.1226722 44.4419739,73.0974313 44.921947,71.142771 L39.351116,70.0417862 L22.0187614,56.3947957 C20.787495,56.7258223 19.6151226,56.3659656 18.8330769,55.5757498 C18.006444,55.8768286 17.1243861,56.1608338 16.3181435,56.3768658 C13.7575062,57.0629865 12.931284,56.8036387 12.8169306,56.3768658 C12.7025771,55.9500929 13.3433958,55.5175052 15.9040331,54.8313845 C16.5840659,54.6491702 17.3311118,54.4673994 18.0637575,54.3066813 C18.047712,54.256674 18.0328006,54.2060194 18.01906,54.1547385 C17.9693922,53.9693757 17.937062,53.7834519 17.9210754,53.5986887 C17.1498852,53.4501384 16.3696723,53.2746807 15.6759411,53.088796 C13.1153038,52.4026753 12.7025771,51.834313 12.8169306,51.4075401 C12.931284,50.9807672 13.5294143,50.857194 16.0900516,51.5433147 C16.734086,51.7158832 17.4409269,51.9232362 18.1364205,52.1437498 C18.2505921,51.8573591 18.4055471,51.5885412 18.596137,51.346213 C18.1567501,50.9401838 17.7205595,50.5212801 17.3172808,50.1180014 C15.4427642,48.2434848 14.989174,47.4163973 15.3015934,47.1039779 C15.6140128,46.7915584 16.574135,47.1121139 18.4486516,48.9866305 C18.8921564,49.4301353 19.3471117,49.9208923 19.7791349,50.4158533 C19.9388262,50.3430672 20.1066613,50.2824836 20.2818017,50.2355549 C20.1699607,49.3902308 19.9220145,48.5534139 19.7222589,47.8079159 C19.0361382,45.2472786 19.1783828,44.7336685 19.6051557,44.619315 C20.0319286,44.5049616 20.5816195,44.8331681 21.2677402,47.3938054 C21.4988724,48.2564023 21.7160022,49.2622983 21.88602,50.2214316 C22.9761774,50.4949263 23.8894541,51.3356466 24.2009853,52.4982966 C24.223035,52.5805874 24.2416677,52.6629888 24.2569704,52.7453501 L42.1425535,62.6317642 L53.8440228,55.7107083 C54.0619589,55.5015279 54.3954352,55.1947099 54.8444515,54.7902545 C58.9758694,57.1235377 63.2599533,58.7326407 67.6967032,59.6175633 C69.0570017,62.1918295 72.2624387,64 76,64 C79.7375613,64 82.9429983,62.1918295 84.3032968,59.6175633 C88.7400467,58.7326407 93.0241306,57.1235377 97.1555485,54.7902545 C97.822227,55.3970737 98.3148388,55.8598393 98.6333837,56.1785513 L98.3153124,55.575492 L110.245393,62.6317642 L127.919475,52.8473225 C127.925942,52.6000452 127.961383,52.3495882 128.028221,52.1001473 C128.339752,50.9374973 129.253029,50.096777 130.343186,49.8232823 C130.513204,48.864149 130.730334,47.8582529 130.961466,46.9956561 C131.647587,44.4350188 132.197278,44.1068123 132.624051,44.2211657 C133.050823,44.3355192 133.193068,44.8491293 132.506947,47.4097665 C132.307192,48.1552646 132.059246,48.9920815 131.797569,49.8010333 C132.122545,49.8843343 132.29038,49.9449179 132.450071,50.017704 C132.882094,49.522743 133.33705,49.031986 133.780555,48.5884812 C135.655071,46.7139646 136.615193,46.3934091 136.927613,46.7058285 C137.240032,47.018248 136.786442,47.8453355 134.911925,49.7198521 C134.508647,50.1231308 134.072456,50.5420344 133.633069,50.9480637 C133.823659,51.1903919 133.978614,51.4592098 134.092786,51.7456004 C134.788279,51.5250869 135.49512,51.3177339 136.139155,51.1451654 C138.699792,50.4590447 139.297922,50.5826179 139.412276,51.0093908 C139.526629,51.4361637 139.113902,52.004526 136.553265,52.6906467 C135.859534,52.8765314 135.079321,53.0519891 134.308131,53.2005394 C134.292144,53.3853025 134.259814,53.5712264 134.210146,53.7565892 C134.196406,53.8078701 134.181494,53.8585247 134.165449,53.908532 C134.898094,54.06925 135.64514,54.2510209 136.325173,54.4332352 C138.88581,55.1193558 139.526629,55.5519436 139.412276,55.9787165 C139.297922,56.4054894 138.4717,56.6648372 135.911063,55.9787165 C135.10482,55.7626844 134.222762,55.4786793 133.396129,55.1776005 C132.714911,55.8659356 131.737525,56.2277285 130.736248,56.105781 L113.03683,70.0417862 L107.095921,71.215911 C107.565485,73.1479372 107.85968,75.1485702 107.960696,77.1999993 L95.6381426,77.1999995 C91.2949016,71.0306936 84.1181603,67 76,67 C67.8818394,67 60.7050978,71.0306939 56.361857,77.2 L95.638143,77.2 L95.6381426,77.1999995 Z M77.722378,58.1159551 C77.2420044,57.8815823 76.6458272,57.75 76,57.75 C75.3533046,57.75 74.7563928,57.8717886 74.2756853,58.0988353 L71.3334024,32.0901474 C61.2063861,33.1090981 51.5826046,37.4700235 42.4620579,45.1729235 C41.6341776,44.3398777 40.8134927,43.4727117 40,42.5714286 C44.4867175,35.612148 49.19222,30.105815 54.1165074,26.0524296 C51.1176031,22.54386 48.8099782,16.8725674 50.8726037,14.8263119 C53.1220236,12.5947445 59.717279,15.519571 63.0914089,18.8669221 C63.4700215,19.2425298 63.7919884,19.6074974 64.0620767,19.9626362 L64.0620665,19.9626405 C67.9213617,18.3684978 71.9006695,17.5714286 76,17.5714286 C80.2755205,17.5714286 84.4204794,18.4384866 88.4348765,20.1726026 C88.7387865,19.73928 89.1202502,19.2912311 89.5882724,18.8269234 C92.9624023,15.4795723 99.5576577,12.5547458 101.807078,14.7863132 C103.939691,16.9020016 101.400443,22.8929078 98.2556564,26.3618893 C103.044993,30.3844859 107.62644,35.7876656 112,42.5714286 C111.186507,43.4727116 110.365823,44.3398775 109.537945,45.1729264 C100.417395,37.4700235 90.7936139,33.1090981 80.6665976,32.0901474 L77.722378,58.1159551 Z"/>
    <path fill="#EBECF0" d="M42.4620579,45.1729235 C51.5826046,37.4700235 61.2063861,33.1090981 71.3334024,32.0901474 L74.6402474,61.3214286 L77.3597526,61.3214286 L80.6665976,32.0901474 C90.7936139,33.1090981 100.417395,37.4700235 109.537945,45.1729264 C101.761064,52.99839 93.3495141,57.813269 84.3032968,59.6175633 C82.9429983,62.1918295 79.7375613,64 76,64 C72.2624387,64 69.0570017,62.1918295 67.6967032,59.6175633 C58.650486,57.813269 50.2389366,52.9983901 42.4620548,45.1729266 L42.4620579,45.1729235 Z M61.542498,21.1253323 C59.6654612,22.0836197 57.8176062,23.2357042 55.9989333,24.5815856 C55.9343328,24.5221781 55.8691869,24.45992 55.8034829,24.3947374 C53.8508413,22.457593 52.144675,18.6711466 53.446436,17.379717 C54.7481971,16.0882874 58.564935,17.7809127 60.5175766,19.7180571 C61.0213103,20.217793 61.3517761,20.6849826 61.542498,21.1253323 Z M96.3386666,24.8339003 C94.5920755,23.5156863 92.8184625,22.3769245 91.0178276,21.4176148 C91.1703865,20.8815319 91.5297007,20.3054433 92.1621047,19.6780584 C94.1147463,17.740914 97.9314842,16.0482887 99.2332453,17.3397183 C100.535006,18.6311479 98.82884,22.4175943 96.8761984,24.3547387 C96.6927634,24.5367179 96.5136787,24.6959031 96.3386666,24.8339003 Z M56.361857,77.2 C60.7050978,71.0306939 67.8818394,67 76,67 C84.1181606,67 91.2949022,71.0306939 95.638143,77.2 L56.361857,77.2 Z M64,95 L88,95 C90.209139,95 92,96.790861 92,99 C92,101.209139 90.209139,103 88,103 L64,103 C61.790861,103 60,101.209139 60,99 C60,96.790861 61.790861,95 64,95 Z"/>
    <path fill="#86869E" d="M71.7441375,35.7208935 L73.3528858,49.9416306 C69.0361711,50.6928192 64.9997684,53.3055549 61.2436775,57.7798377 C56.5910001,56.0438527 52.118214,53.4545417 47.8253194,50.0119048 C55.2588692,41.6661564 63.2318086,36.902486 71.7441375,35.7208935 Z M80.2558625,35.7208935 C88.7681914,36.902486 96.7411308,41.6661564 104.174681,50.0119048 C99.881786,53.4545417 95.4089999,56.0438527 90.7563225,57.7798377 C87.0002316,53.3055549 82.9638289,50.6928192 78.6471142,49.9416306 L80.2558625,35.7208935 Z M70.1595105,18.1262906 C72.07849,17.7563826 74.0253198,17.5714286 76,17.5714286 C78.1052484,17.5714286 80.1788417,17.7816499 82.2207798,18.2020927 C79.937813,19.8798972 78.0488351,22.9434853 76.5538462,27.3928571 C74.8731455,22.8756238 72.7417003,19.7867683 70.1595105,18.1262906 Z"/>
    <path fill="#414164" d="M67,46.1428571 C65.5088312,46.1428571 64.3,44.9436199 64.3,43.4642857 C64.3,41.9849516 65.5088312,40.7857143 67,40.7857143 C68.4911688,40.7857143 69.7,41.9849516 69.7,43.4642857 C69.7,44.9436199 68.4911688,46.1428571 67,46.1428571 Z M85,46.1428571 C83.5088312,46.1428571 82.3,44.9436199 82.3,43.4642857 C82.3,41.9849516 83.5088312,40.7857143 85,40.7857143 C86.4911688,40.7857143 87.7,41.9849516 87.7,43.4642857 C87.7,44.9436199 86.4911688,46.1428571 85,46.1428571 Z M76,62.9285714 C74.4094199,62.9285714 73.12,60.9418244 73.12,59.7142857 C73.12,58.486747 74.4094199,57.75 76,57.75 C77.5905801,57.75 78.88,58.5481341 78.88,59.7142857 C78.88,60.8804374 77.5905801,62.9285714 76,62.9285714 Z"/>
    <path fill="#EBEBEF" d="M66.1,43.4642857 C65.6029437,43.4642857 65.2,43.06454 65.2,42.5714286 C65.2,42.0783172 65.6029437,41.6785714 66.1,41.6785714 C66.5970563,41.6785714 67,42.0783172 67,42.5714286 C67,43.06454 66.5970563,43.4642857 66.1,43.4642857 Z M84.1,43.4642857 C83.6029437,43.4642857 83.2,43.06454 83.2,42.5714286 C83.2,42.0783172 83.6029437,41.6785714 84.1,41.6785714 C84.5970563,41.6785714 85,42.0783172 85,42.5714286 C85,43.06454 84.5970563,43.4642857 84.1,43.4642857 Z"/>
  </g>
</svg>
