<svg xmlns="http://www.w3.org/2000/svg" width="152" height="152" viewBox="0 0 152 152">
  <g fill="none" fill-rule="evenodd">
    <ellipse cx="73.261" cy="144.011" fill="#C2C4D1" opacity=".3" rx="26" ry="4" transform="rotate(8 73.261 144.011)"/>
    <path fill="#C2C4D1" d="M139.941624,133.633639 C141.844778,131.859912 143.538796,129.87657 145.023677,127.683613 C147.226727,124.430024 148.82782,120.92415 149.826955,117.165989 C151.226572,120.498522 152,124.158939 152,128 C152,130.417301 151.693677,132.763056 151.117732,135.000566 C151.078533,135.000189 151.039288,135 151,135 C147.304774,135 143.999651,136.670231 141.798388,139.296937 C141.494653,137.280095 140.856282,135.37288 139.941626,133.633643 Z M135.199418,127.907516 C132.125653,125.461515 128.233504,124 124,124 L122.527022,124 C122.412792,121.293857 122.685525,118.556384 123.345223,115.787581 C124.664923,110.248692 127.35843,105.317934 131.425742,100.995306 C134.387961,101.808008 137.153941,103.095064 139.636918,104.76971 C140.125963,109.150873 139.815839,113.669349 138.706546,118.325138 C137.897194,121.722054 136.728151,124.91618 135.199418,127.907516 Z M42.2641109,55.4689695 C50.3096475,57.6292311 57.7839685,57.5507866 64.6870738,55.233636 C66.9158484,56.743678 70.0578375,57.0124753 72.9100088,55.6799314 C76.3984694,54.0501111 78.3340529,50.5477203 77.8056294,47.2856927 C80.1594979,45.0162589 82.2468088,42.3746073 84.067562,39.360738 L130.197442,56.5589731 C130.364912,56.4121064 130.551881,56.2820987 130.757114,56.1729746 C131.37786,55.842918 132.063563,55.7582086 132.7028,55.8848974 C133.918828,55.5581869 135.694796,55.2301849 137.112444,55.0811841 C139.526538,54.8274526 139.9874,55.1888753 140.029607,55.590453 C140.071815,55.9920306 139.679385,56.2816939 137.265291,56.5354254 C136.341408,56.6325294 135.255319,56.7102982 134.264125,56.7468 C134.438797,56.9322601 134.591877,57.1438001 134.717228,57.3795496 C134.735745,57.414376 134.753486,57.4494088 134.770457,57.484628 C135.691297,57.4187869 136.72497,57.3939086 137.656468,57.4264373 C140.082381,57.511152 140.896653,57.9531461 140.882561,58.3566898 C140.868469,58.7602335 140.031349,58.9725129 137.605436,58.8877982 C136.784669,58.8591363 135.887191,58.8001499 135.059407,58.7190107 C135.061121,58.8912933 135.047541,59.0627787 135.019287,59.2314557 C135.846567,59.3437569 136.709955,59.4857316 137.468248,59.6331287 C139.851041,60.0962968 140.293787,60.4376137 140.21674,60.8339846 C140.139693,61.2303555 139.57203,61.5316828 137.189237,61.0685147 C136.355709,60.9064933 135.410482,60.6723846 134.536998,60.4194817 C134.279111,60.7918444 133.930739,61.1099377 133.503056,61.337341 C133.376573,61.4045929 133.247394,61.4616586 133.11646,61.5088253 C133.337588,61.896334 133.551115,62.2834254 133.746998,62.651827 C134.886589,64.7950863 134.997465,65.4941603 134.64094,65.6837281 C134.284415,65.8732958 133.595497,65.4815718 132.455906,63.3383126 C132.174975,62.8099575 131.89288,62.2244813 131.632611,61.6393161 C130.892159,61.5124775 130.207596,61.1032831 129.749311,60.4636474 L111.00935,56.7638217 L108.150515,56.8603891 C113.99374,64.7711037 117.448935,74.559588 117.448935,85.1566265 C117.448935,94.9337768 114.50771,104.022648 109.463399,111.583492 C110.472701,115.11415 111.013245,118.843226 111.013245,122.698795 C111.013245,132.005104 107.86398,140.57445 102.574965,147.39538 C92.0398408,146.90251 83.2980464,139.535848 80.715921,129.670118 C78.6618863,129.903959 76.5734229,130.024096 74.4569536,130.024096 C69.937146,130.024096 65.5450604,129.476204 61.3432488,128.44309 C61.8647818,130.660859 62.5161229,132.828434 63.2887967,134.937321 C60.6393402,135.906023 57.7840539,136.433735 54.807947,136.433735 C40.927678,136.433735 29.6754967,124.954963 29.6754967,110.795181 C29.6754967,100.35257 35.79536,91.3681142 44.5759241,87.3706339 C46.3407085,82.3855143 47.5947752,77.1581965 48.2750874,71.7518383 L26.0045571,66.8389864 L12.0194166,53.5413133 C11.0289394,53.8590705 9.95254508,53.62136 9.19076622,52.9502167 C8.90221908,52.96103 8.61651082,52.956347 8.35834035,52.9337601 C7.1996414,52.832387 7.03441691,52.4087587 7.0696095,52.0065056 C7.10269167,51.6283748 7.3010982,51.4037359 8.28727099,51.462361 C8.25815308,51.3453453 8.23657616,51.2274771 8.22234234,51.1094017 C7.39657754,50.8915835 7.1540807,50.4891421 7.20919359,50.141173 C7.2633737,49.7990933 7.58757682,49.6207672 8.4036687,49.6917706 C8.42756632,49.630693 8.45351713,49.5703811 8.48148626,49.5109486 C7.66975867,49.2010394 7.57460377,48.8604927 7.70624919,48.4298999 C7.85382002,47.9472175 8.23050114,47.5341672 9.3428031,47.874232 C9.52911846,47.9311943 9.72425558,48.0056742 9.91933795,48.0924733 C9.92600182,48.0894307 9.93267187,48.0864151 9.93934796,48.0834265 C9.47915223,47.5291876 9.48682488,47.190245 9.74097888,46.9079784 C10.0787139,46.5328856 10.7238091,46.3999152 11.776086,47.3473896 C12.0541617,47.5977701 12.3328454,47.8985465 12.5861639,48.2125207 C13.0509637,48.4769765 13.4485983,48.871902 13.718075,49.378714 C13.9482354,49.8115828 14.058451,50.2763167 14.0603733,50.7349363 L28.7735894,59.9446097 L42.2641062,55.4689683 Z M67.6310742,37.5967008 L72.8775647,52.6641236 L70.6250495,53.7165062 L55.2411262,27.8269604 C46.7409182,33.0315163 40.3714109,41.5668117 36.1326042,53.4328467 C34.3934485,52.7485495 32.6293998,51.9666785 30.840456,51.0872389 C31.3858826,44.7469469 32.4148645,39.162555 33.9274016,34.3340629 C29.8302525,32.3127041 25.1690241,27.7491793 26.0152627,24.9695581 C26.9112252,22.0266103 33.6416092,22.1977991 37.8871228,24.0058141 C38.0818831,24.0887556 38.2680307,24.173701 38.4458596,24.2605759 C41.4218365,19.5264421 45.2212277,16.0794802 49.844033,13.9196903 C52.6193431,12.6230562 55.5585951,11.8524088 58.661789,11.6077481 C58.72919,11.1233311 58.8458909,10.6017407 59.0171606,10.0391749 C60.3611043,5.62475309 64.5561735,0.358941804 67.3865159,1.56428515 C69.8858761,2.62867478 70.4852533,8.38330166 69.6658124,12.7544352 C76.0479374,14.4644827 82.9849029,17.9546658 90.4767088,23.2249843 C90.3746845,23.6391248 90.2699853,24.04953 90.1626113,24.4562 C80.2156704,21.5419843 71.1520133,21.4616646 62.9716372,24.2152401 L67.6310742,37.5967008 Z"/>
    <path fill="#EBECF0" d="M37.2088243,26.3907083 C36.2658208,28.1489712 35.4204692,30.0598851 34.6727697,32.1234499 C34.5360249,32.0762016 34.3940143,32.0213468 34.2464962,31.958524 C31.7895765,30.9122083 28.7352963,28.051849 29.2537984,26.3487367 C29.7723006,24.6456243 33.6672388,24.7446929 36.1241585,25.7910087 C36.5555521,25.9747241 36.9139292,26.1754274 37.2088243,26.3907083 Z M67.4868747,12.2352791 C65.3526331,11.7914133 63.2829957,11.5548222 61.2779627,11.5255056 C61.2474753,11.0458236 61.3192771,10.4886138 61.5179106,9.83616682 C62.2956638,7.28149831 64.7233909,4.23412247 66.3613374,4.93166631 C67.9724341,5.61777576 68.2193419,9.67147842 67.4868747,12.2352791 Z M36.1326042,53.4328467 C40.3714109,41.5668117 46.7409182,33.0315163 55.2411262,27.8269604 L70.6250495,53.7165062 L72.8775647,52.6641236 L62.9716372,24.2152401 C71.1520133,21.4616646 80.2156704,21.5419843 90.1626113,24.4562 C87.5850543,34.2184742 83.4660603,41.8283051 77.8056294,47.2856927 C78.3340529,50.5477203 76.3984694,54.0501111 72.9100088,55.6799314 C70.0578375,57.0124753 66.9158484,56.743678 64.6870738,55.233636 C56.0608842,58.1291706 46.5427269,57.5289092 36.1326021,53.4328518 Z M75.3853277,120.885841 C62.1809324,119.730606 52.6472836,105.413756 54.0913272,88.9082622 C55.5353709,72.402768 67.4102769,59.9589242 80.6146723,61.1141591 C93.8190676,62.269394 103.352716,76.5862436 101.908673,93.0917378 C100.464629,109.597232 88.5897231,122.041076 75.3853277,120.885841 Z"/>
    <path fill="#86869E" d="M114.259271,102.342047 C114.550008,102.029258 114.84884,101.723737 115.155767,101.425485 C117.935759,100.500728 120.909404,100 124,100 C126.57089,100 129.060853,100.346485 131.425742,100.995306 C127.35843,105.317934 124.664923,110.248692 123.345223,115.787581 C122.685525,118.556384 122.412792,121.293857 122.527022,124 L120,124 C116.879984,124 113.864258,123.553482 111.013239,122.720862 L111.013245,122.698795 C111.013245,118.843226 110.472701,115.11415 109.463399,111.583492 C111.381453,108.708549 112.995437,105.612678 114.259271,102.342047 Z M139.636918,104.76971 C142.049251,106.396709 144.194455,108.389557 145.992962,110.668684 C147.546874,112.637852 148.841978,114.820726 149.826955,117.165989 C148.82782,120.92415 147.226727,124.430024 145.023677,127.683613 C143.538796,129.87657 141.844778,131.859912 139.941624,133.633639 C138.772001,131.409577 137.150594,129.460197 135.199418,127.907516 C136.728151,124.91618 137.897194,121.722054 138.706546,118.325138 C139.815839,113.669349 140.125963,109.150873 139.636918,104.76971 Z M151.117732,135.000566 C149.399734,141.674875 145.282687,147.386037 139.740658,151.159985 C139.70898,151.074277 139.678253,150.988108 139.64849,150.901492 C141.145017,148.276313 142,145.238003 142,142 C142,141.081278 141.931171,140.178632 141.798388,139.296937 C143.999651,136.670231 147.304774,135 151,135 C151.039288,135 151.078533,135.000189 151.117732,135.000566 Z M145.98202,23.0327844 L147.873631,16 L149,16.3006637 L146.585523,25.2774003 C146.252153,26.516829 144.973318,27.252361 143.729165,26.9202571 C142.485013,26.5881532 141.746677,25.3141743 142.080047,24.0747456 C142.413417,22.8353169 143.692251,22.0997849 144.936404,22.4318888 C145.346726,22.5414167 145.702031,22.7533906 145.98202,23.0327844 Z M19.5432855,15.5448478 L17.6908379,22.2774003 C17.3498117,23.516829 16.0416061,24.252361 14.768879,23.9202571 C13.4961519,23.5881532 12.7408591,22.3141743 13.0818853,21.0747456 C13.4229115,19.8353169 14.731117,19.0997849 16.0038441,19.4318888 C16.4235897,19.5414167 16.7870549,19.7533906 17.0734741,20.0327844 L19.00853,13 L20.1607681,13.3006637 L23,16.4468388 L22.3825174,18.691023 L19.5432855,15.5448478 Z M117.543286,3.54484782 L115.690838,10.2774003 C115.349812,11.516829 114.041606,12.252361 112.768879,11.9202571 C111.496152,11.5881532 110.740859,10.3141743 111.081885,9.07474563 C111.422911,7.83531694 112.731117,7.09978489 114.003844,7.4318888 C114.42359,7.54141671 114.787055,7.75339058 115.073474,8.03278435 L117.00853,1 L118.160768,1.30066367 L121,4.44683882 L120.382517,6.69102298 L117.543286,3.54484782 Z M3.97673608,8.34350553 L1.42678121,1.38242786 L2.60835769,1 L5.86315296,9.88520929 C6.31254641,11.1120007 5.61883216,12.4489492 4.31369882,12.8713673 C3.00856548,13.2937855 1.58624049,12.6417121 1.13684704,11.4149207 C0.687453592,10.1881293 1.38116784,8.85118085 2.68630118,8.4287627 C3.1167343,8.28944914 3.55991414,8.267006 3.97673608,8.34350553 Z M135,34.0714286 L135,43.7857143 L134.860906,43.7857143 C134.525336,44.4931525 133.619882,45 132.555556,45 C131.205526,45 130.111111,44.1845187 130.111111,43.1785714 C130.111111,42.1726242 131.205526,41.3571429 132.555556,41.3571429 C133.000795,41.3571429 133.418233,41.4458412 133.777778,41.6008176 L133.777778,35.4880952 L128.888889,31.4404762 L128.888889,38.9285714 L128.749795,38.9285714 C128.414225,39.6360097 127.508771,40.1428571 126.444444,40.1428571 C125.094415,40.1428571 124,39.3273758 124,38.3214286 C124,37.3154813 125.094415,36.5 126.444444,36.5 C126.889684,36.5 127.307121,36.5886984 127.666667,36.7436747 L127.666667,28 L135,34.0714286 Z M49.844033,13.9196903 C51.5877708,13.1050102 53.3962273,12.4979715 55.2694024,12.0985744 C54.1042517,14.5414741 53.8648997,18.1199357 54.5513464,22.8339593 C51.2051798,19.2857763 48.1035603,17.239636 45.2464881,16.6955384 C46.6759273,15.6091263 48.2084423,14.6838436 49.844033,13.9196903 Z M57.1519258,31.0426377 L64.6360564,43.6376527 C61.163063,46.1684439 58.8744014,50.5505982 57.7700715,56.7841157 C53.100492,57.336703 48.1955553,56.9668791 43.0552613,55.6746439 C45.4924519,43.9284595 50.19134,35.7177908 57.1519258,31.0426377 Z M64.2020283,27.7488065 C71.2337044,25.7069037 79.2189706,26.7244742 88.1578269,30.8015181 C86.3174402,35.7267035 83.9920277,39.9746048 81.1815892,43.5452221 C76.6472894,41.3504514 72.5938153,40.6983489 69.0211667,41.5889147 L64.2020283,27.7488065 Z M40.777527,135.17834 L60.89937,133.968727 C61.9766634,133.903966 63.0001057,134.445553 63.5524941,135.372711 C63.9242101,135.996619 63.7197682,136.803731 63.0958605,137.175447 C62.9880517,137.239678 62.8716036,137.288146 62.7500593,137.319376 L40.6494724,142.998035 C38.8583737,143.458251 37.0333228,142.379357 36.5731071,140.588258 C36.5031556,140.316016 36.4677622,140.036049 36.4677622,139.754964 C36.4677622,137.329651 38.3565846,135.323873 40.777527,135.17834 Z M91.6257138,143.574621 L102.721342,145.798009 C104.287598,146.111862 105.414786,147.487328 105.414786,149.084721 C105.414786,150.60184 104.184918,151.831709 102.667798,151.831709 L91.434743,151.831709 C89.0609664,151.831709 87.1366403,149.907383 87.1366403,147.533606 L87.1366403,147.253395 C87.1366403,145.181275 88.8164256,143.50149 90.8885458,143.50149 C91.1360793,143.50149 91.3830052,143.525986 91.6257138,143.574621 Z"/>
    <path fill="#414164" d="M56.9583312,40.9055251 C55.723224,41.4825713 55.748139,44.1552091 55.1082057,42.7802318 C54.4682724,41.4052545 54.9507562,39.8228269 56.1858634,39.2457807 C57.4209707,38.6687345 58.9409913,39.3155855 59.5809246,40.6905627 C60.2208579,42.06554 58.1934385,40.3284789 56.9583312,40.9055251 Z M71.8673944,33.9399614 C70.6322872,34.5170076 70.6572022,37.1896454 70.0172689,35.8146682 C69.3773356,34.4396909 69.8598194,32.8572632 71.0949266,32.2802171 C72.3300339,31.7031709 73.8500545,32.3500218 74.4899878,33.7249991 C75.1299211,35.0999763 73.1025017,33.3629153 71.8673944,33.9399614 Z M72.4465281,54.6840848 C71.1290804,55.2996008 69.2016471,53.9519794 68.670636,52.8110351 C68.1396248,51.6700909 68.8889237,50.486342 70.2063715,49.8708261 C71.5238192,49.2553102 72.93708,49.4981671 73.4415362,50.5820548 C73.9459924,51.6659424 73.7639758,54.0685689 72.4465281,54.6840848 Z"/>
  </g>
</svg>
