<svg xmlns="http://www.w3.org/2000/svg" xmlns:xlink="http://www.w3.org/1999/xlink" width="152" height="152" viewBox="0 0 152 152">
  <defs>
    <path id="img-loadingerror-a" d="M61.133758,35.168938 C60.6905231,35.168938 60.3312102,34.8139006 60.3312102,34.3759398 C60.3312102,33.9379791 60.6905231,33.5829417 61.133758,33.5829417 C61.5769929,33.5829417 61.9363057,33.9379791 61.9363057,34.3759398 C61.9363057,34.8139006 61.5769929,35.168938 61.133758,35.168938 Z M77.1847134,35.168938 C76.7414785,35.168938 76.3821656,34.8139006 76.3821656,34.3759398 C76.3821656,33.9379791 76.7414785,33.5829417 77.1847134,33.5829417 C77.6279483,33.5829417 77.9872611,33.9379791 77.9872611,34.3759398 C77.9872611,34.8139006 77.6279483,35.168938 77.1847134,35.168938 Z"/>
  </defs>
  <g fill="none" fill-rule="evenodd">
    <ellipse cx="72.87" cy="139.569" fill="#C2C4D1" opacity=".3" rx="23.185" ry="3.553"/>
    <path fill="#86869E" d="M100.00932,96.0104704 C99.1232953,94.7868852 98.3705568,93.4921385 97.7511047,92.1262303 C97.8191569,89.4889908 98.3084954,86.8166322 99.2610429,84.1995295 C100.043398,82.0500268 101.08908,80.0728234 102.348111,78.2913467 C104.714511,83.0073733 108.008859,86.7571714 112.231154,89.5407412 C114.343483,90.9333044 116.548108,91.9917781 118.845031,92.7161624 L118.071388,94.8417288 C116.708778,98.5854697 114.647228,101.871883 112.088906,104.606205 C106.915151,102.851981 102.888622,99.9867364 100.00932,96.0104704 Z M114.872626,69.0114961 C116.981956,68.3102536 119.189957,67.888656 121.438813,67.7738051 C124.298389,69.7532415 126.757825,72.1648857 128.817121,75.0087377 C130.195386,76.9120975 131.334756,78.9266847 132.235231,81.0524993 C130.010886,81.3525557 127.877971,82.1193394 125.977483,83.286759 C123.946656,81.100006 121.636468,79.1530431 119.04692,77.4458705 C115.493515,75.1032695 111.810121,73.4732746 107.996741,72.5558857 C110.094054,71.0237753 112.416445,69.8280486 114.872626,69.0114961 Z M146.759614,86.5505244 C146.678421,86.5510332 146.597134,86.5506054 146.515767,86.5492342 C144.781225,84.497786 142.506223,82.8584178 139.803801,81.8748166 C139.037039,81.5957383 138.262703,81.3792182 137.486348,81.2226519 C135.965466,78.5802113 135.579515,75.303346 136.706508,72.2069592 C136.71849,72.1740377 136.730617,72.1412106 136.742886,72.1084783 C141.789269,75.5755026 145.300137,80.7602194 146.759614,86.5505244 Z"/>
    <path fill="#C2C4D1" d="M105.462616,83.2682393 C105.573721,84.5716269 105.630573,85.8701344 105.630573,87.1578947 C105.630573,91.7192915 104.91727,95.7807907 103.606207,99.3499513 C103.729167,99.6338247 103.848549,99.9196019 103.964297,100.207227 C106.253321,102.079503 108.961524,103.545829 112.088906,104.606205 C110.362318,106.451573 108.409462,108.045476 106.292483,109.358783 C106.452065,110.728782 106.534104,112.122387 106.534104,113.535114 C106.534104,121.800586 103.725842,129.411518 99.0095226,135.469581 C89.1149312,135.008527 80.9943175,127.775015 79.1968851,118.30878 C76.2513311,118.85845 73.1555774,119.131579 69.9617834,119.131579 C68.2940858,119.131579 66.6531198,119.057108 65.0463115,118.90768 C63.088815,128.163341 55.0645331,135.186706 45.3194942,135.640792 C40.6031744,129.582729 37.7949129,121.971797 37.7949129,113.706325 C37.7949129,110.593853 38.1931238,107.574195 38.941478,104.695318 C35.9829374,100.01548 34.2929936,94.1788614 34.2929936,87.1578947 C34.2929936,71.9209311 42.2523015,55.1793747 53.8642179,46.6518762 C56.6850384,47.9700727 59.5828224,48.924647 62.5575697,49.515599 C63.7705748,51.8019539 66.6289263,53.4078947 69.9617834,53.4078947 C73.2946406,53.4078947 76.1529921,51.8019539 77.3659972,49.515599 C80.3407445,48.924647 83.2385284,47.9700727 86.059349,46.6518762 C94.8422614,53.1018256 101.535529,64.2510088 104.27557,75.8940006 C105.408168,74.651375 106.656498,73.534948 107.996741,72.5558857 C111.810121,73.4732746 115.493515,75.1032695 119.04692,77.4458705 C121.636468,79.1530431 123.946656,81.100006 125.977483,83.286759 C122.994321,85.1192361 120.583835,87.9388399 119.291333,91.4899589 L118.845031,92.7161624 C116.548108,91.9917781 114.343483,90.9333044 112.231154,89.5407412 C109.62012,87.8194031 107.36394,85.7285705 105.462616,83.2682435 L105.462616,83.2682393 Z M132.235231,81.0524993 C131.334756,78.9266847 130.195386,76.9120975 128.817121,75.0087377 C126.757825,72.1648857 124.298389,69.7532415 121.438813,67.7738051 C124.655132,67.6095449 127.955017,68.0727287 131.169326,69.2426415 C133.186794,69.9769398 135.051126,70.9461856 136.742886,72.1084783 C136.730617,72.1412106 136.71849,72.1740377 136.706508,72.2069592 C135.579515,75.303346 135.965466,78.5802113 137.486348,81.2226519 C135.724737,80.8673907 133.952729,80.8208148 132.235231,81.0524993 Z M59.3165015,14.2957624 C62.7579022,12.8799158 66.3063295,12.1719925 69.9617834,12.1719925 C73.7743495,12.1719925 77.4704911,12.9420769 81.0502084,14.4822457 C81.3212109,14.0973868 81.6613696,13.6994487 82.0787142,13.2870701 C85.0874925,10.3140938 90.9686119,7.71638611 92.9744641,9.69837029 C94.876158,11.5774356 92.6118604,16.8983062 89.8075917,19.9793096 C94.0783374,23.5520105 98.1637049,28.3508872 102.063694,34.3759398 C101.338287,35.1764215 100.606466,35.9466017 99.8682316,36.6864806 C91.7352571,29.8450866 83.1535411,25.9718963 74.1230807,25.0669072 L71.1743017,51.0289004 L68.7492652,51.0289004 L65.8004862,25.0669072 C56.7700258,25.9718963 48.1883098,29.8450866 40.0553383,36.6864781 C39.317101,35.9466019 38.5852801,35.1764215 37.8598726,34.3759398 C41.8607672,28.1949998 46.0567567,23.3045067 50.447841,19.7044605 C47.7736588,16.5882967 45.7159041,11.5512934 47.555188,9.73389546 C49.5610402,7.75191128 55.4421596,10.349619 58.4509379,13.3225953 C58.7885542,13.6561943 59.0756584,13.9803431 59.3165015,14.2957624 Z"/>
    <path fill="#EBECF0" d="M96.7133758,81.8289474 C96.7133758,96.5444292 43.2101911,96.5444292 43.2101911,81.8289474 C43.2101911,67.1134655 55.1872869,55.1842105 69.9617834,55.1842105 C84.7362799,55.1842105 96.7133758,67.1134655 96.7133758,81.8289474 Z M65.8004862,25.0669072 L68.7492652,51.0289004 L71.1743017,51.0289004 L74.1230807,25.0669072 C83.1535411,25.9718963 91.7352571,29.8450866 99.8682316,36.6864806 C92.9334325,43.636728 85.4326877,47.9131008 77.3659972,49.515599 C76.1529921,51.8019539 73.2946406,53.4078947 69.9617834,53.4078947 C66.6289263,53.4078947 63.7705748,51.8019539 62.5575697,49.515599 C54.4908793,47.9131008 46.9901345,43.6367281 40.0553355,36.6864809 C48.1883098,29.8450866 56.7700258,25.9718963 65.8004862,25.0669072 Z M83.3534769,15.5880132 C83.4895166,15.1118869 83.8099242,14.6002293 84.3738513,14.0430124 C86.1150604,12.3225223 89.518521,10.8192038 90.679327,11.9661972 C91.840133,13.1131906 90.3187108,16.4761528 88.5775018,18.1966429 C88.4139291,18.3582692 88.2542358,18.4996508 88.0981741,18.6222141 C86.5407043,17.451432 84.9591386,16.4400317 83.3534769,15.5880132 Z M52.1264373,18.3981188 C52.0688318,18.3453555 52.0107399,18.2900605 51.9521503,18.2321681 C50.2109413,16.511678 48.6895191,13.1487157 49.8503251,12.0017223 C51.0111311,10.8547289 54.4145918,12.3580475 56.1558008,14.0785376 C56.6049901,14.5223819 56.8996729,14.9373201 57.0697435,15.3284202 C55.3959526,16.1795307 53.7481839,17.2027636 52.1264373,18.3981188 Z"/>
    <path fill="#86869E" d="M89.2304838,132.073075 L99.1492754,134.052705 C100.540325,134.330336 101.541847,135.551498 101.541847,136.969982 C101.541847,138.317424 100.44953,139.409741 99.1020883,139.409741 L89.0681754,139.409741 C86.9555142,139.409741 85.2428639,137.697091 85.2428639,135.58443 L85.2428639,135.343476 C85.2428639,133.501661 86.7359499,132.008575 88.5777649,132.008575 C88.7969287,132.008575 89.0155588,132.03018 89.2304838,132.073075 Z M55.098533,132.244286 C55.313458,132.201391 55.532088,132.179786 55.7512518,132.179786 C57.5930668,132.179786 59.0861528,133.672872 59.0861528,135.514687 L59.0861528,135.755641 C59.0861528,137.868302 57.3735026,139.580952 55.2608414,139.580952 L45.2269284,139.580952 C43.8794867,139.580952 42.7871694,138.488635 42.7871694,137.141193 C42.7871694,135.722709 43.7886915,134.501547 45.1797413,134.223916 L55.098533,132.244286 Z M66.1667468,28.2915831 L67.6012995,40.921843 C63.7519997,41.5890171 60.1526597,43.9095389 56.8032793,47.8834085 C52.654395,46.3415797 48.6659233,44.0418627 44.8378645,40.9842575 C51.4665076,33.5719152 58.576135,29.3410237 66.1667468,28.2915831 Z M73.75682,28.2915831 C81.3474318,29.3410237 88.4570593,33.5719152 95.0857024,40.9842575 C91.2576435,44.0418627 87.2691719,46.3415797 83.1202875,47.8834085 C79.7709072,43.9095389 76.1715671,41.5890171 72.3222674,40.921843 L73.75682,28.2915831 Z M64.7537037,12.6647975 C66.4648955,12.3362608 68.2009221,12.1719925 69.9617834,12.1719925 C71.839075,12.1719925 73.6881391,12.3587023 75.5089756,12.7321218 C73.473209,14.2222771 71.7887701,16.9432271 70.455659,20.8949718 C68.956945,16.8829554 67.0562933,14.139564 64.7537037,12.6647975 Z M68,75 C68,73.8954305 68.8954305,73 70,73 L106,73 C107.104569,73 108,73.8954305 108,75 L108,127 C108,128.104569 107.104569,129 106,129 L70,129 C68.8954305,129 68,128.104569 68,127 C68,128.104569 67.1045695,129 66,129 L30,129 C28.8954305,129 28,128.104569 28,127 L28,75 C28,73.8954305 28.8954305,73 30,73 L66,73 C67.1045695,73 68,73.8954305 68,75 Z"/>
    <path fill="#414164" d="M61.9363057,37.5479323 C60.606601,37.5479323 59.5286624,36.4828203 59.5286624,35.168938 C59.5286624,33.8550557 60.606601,32.7899436 61.9363057,32.7899436 C63.2660104,32.7899436 64.343949,33.8550557 64.343949,35.168938 C64.343949,36.4828203 63.2660104,37.5479323 61.9363057,37.5479323 Z M77.9872611,37.5479323 C76.6575565,37.5479323 75.5796178,36.4828203 75.5796178,35.168938 C75.5796178,33.8550557 76.6575565,32.7899436 77.9872611,32.7899436 C79.3169658,32.7899436 80.3949045,33.8550557 80.3949045,35.168938 C80.3949045,36.4828203 79.3169658,37.5479323 77.9872611,37.5479323 Z M69.9617834,52.456297 C68.5434318,52.456297 67.3936306,50.6917519 67.3936306,49.6015038 C67.3936306,48.5112556 68.5434318,47.8569079 69.9617834,47.8569079 C71.3801351,47.8569079 72.5299363,48.565777 72.5299363,49.6015038 C72.5299363,50.6372305 71.3801351,52.456297 69.9617834,52.456297 Z"/>
    <use fill="#FFF" xlink:href="#img-loadingerror-a"/>
    <use fill="#080833" fill-opacity=".08" xlink:href="#img-loadingerror-a"/>
    <path fill="#777791" d="M69.2173913,73 L92.3478261,73 L96,78.0000031 L92.3478261,81.000005 L96,86.0000081 L92.3478261,89.00001 L96,94.0000131 L92.3478261,97.0000149 L96,102.000018 L92.3478261,105.00002 L96,110.000023 L92.3478261,113.000025 L96,118.000028 L92.3478261,121.00003 L96,126.000033 L92.3478261,129.000035 L72.8695652,129.000035 C70.9656203,129.006839 69.0968597,128.015656 68,127.000034 C68.1124514,126.440516 68,126.0992 68,126.000033 L68,74.0000006 C68,73.5885156 68.6657852,73.107804 69.2173913,73 Z"/>
    <path fill="#C2C4D1" d="M85.6281006,76.2562013 L76,81 L76,85 L84.0234172,81.0468344 L85.6281006,84.2562013 L76,89 L76,93 L84.0234172,89.0468344 L85.6281006,92.2562013 L76,97 L76,101 L84.0234172,97.0468344 L85.6281006,100.256201 L76,105 L76,109 L84.0234172,105.046834 L85.6281006,108.256201 L76,113 L76,117 L84.0234172,113.046834 L86,117 L84,121 L70.8944272,127.552786 C69.9064702,128.046765 68.7051241,127.646316 68.2111456,126.658359 C68.0722902,126.380648 68,126.074422 68,125.763932 L68,74.236068 C68,73.4785239 68.4280048,72.7859976 69.1055728,72.4472136 L84,65 L86,69 L84,73 L85.6281006,76.2562013 Z"/>
    <path fill="#EBECF0" d="M36,83 L60,83 L60,87 L36,87 L36,83 Z M36,91 L60,91 L60,95 L36,95 L36,91 Z M36,99 L60,99 L60,103 L36,103 L36,99 Z M36,107 L60,107 L60,111 L36,111 L36,107 Z M36,115 L60,115 L60,119 L36,119 L36,115 Z M85.6281006,76.2562013 L86,77 L84,81 L84.0234172,81.0468344 L76,85 L76,81 L85.6281006,76.2562013 Z M85.6281006,84.2562013 L86,85 L84,89 L84.0234172,89.0468344 L76,93 L76,89 L85.6281006,84.2562013 Z M85.6281006,92.2562013 L86,93 L84,97 L84.0234172,97.0468344 L76,101 L76,97 L85.6281006,92.2562013 Z M85.6281006,100.256201 L86,101 L84,105 L84.0234172,105.046834 L76,109 L76,105 L85.6281006,100.256201 Z M85.6281006,108.256201 L86,109 L84,113 L84.0234172,113.046834 L76,117 L76,113 L85.6281006,108.256201 Z"/>
    <path fill="#C2C4D1" d="M93.4500301,69.7467802 L99.0618248,65.1240912 L96.1325225,58.9088429 L86.1484959,46.782488 L109.879756,63.0732507 C110.190785,63.2867625 110.435083,63.5838912 110.584441,63.9303285 C111.02174,64.9446477 110.553972,66.1214167 109.539653,66.5587155 L96.8263424,72.039748 C97.0925902,72.8271793 97.0581773,73.6901203 96.7216741,74.4480649 C96.828718,74.7584717 96.9182271,75.0707924 96.9795158,75.3591328 C97.2555767,76.6578973 96.8545474,76.9783227 96.4099027,77.0728349 C95.9913222,77.1618069 95.6833062,77.0188577 95.4183293,75.9182959 C95.2967678,75.9909579 95.1714183,76.0550209 95.0431469,76.1104915 C95.0792506,77.0765522 94.7276372,77.4720459 94.3363448,77.5270384 C93.9496445,77.5813856 93.6499849,77.2854975 93.456044,76.3674768 C93.3753856,76.3606763 93.2948861,76.3509447 93.2147189,76.3382834 C93.1480518,77.3267944 92.8128122,77.5441501 92.3061248,77.5441501 C91.7379019,77.5441501 91.1692333,77.2707942 91.1692333,75.9430145 C91.1692333,75.7198597 91.185296,75.4811237 91.2147198,75.2383471 C91.2038351,75.2260753 91.1930549,75.213744 91.1823792,75.2013544 C90.7238299,75.9154933 90.3500518,76.027497 89.9571137,75.844267 C89.4421288,75.6041256 89.0892477,74.9478055 89.7723794,73.4828247 C89.9511348,73.0994825 90.1831148,72.6987552 90.437452,72.3202918 C90.5639887,71.7232418 90.8576749,71.156785 91.3191003,70.6953597 C91.9094503,70.1050097 92.6717238,69.7892281 93.4500301,69.7467802 Z M46.44683,69.7467802 C47.2251363,69.7892281 47.9874098,70.1050097 48.5777598,70.6953597 C49.0391851,71.156785 49.3328714,71.7232418 49.4594081,72.3202918 C49.7137453,72.6987552 49.9457252,73.0994825 50.1244807,73.4828247 C50.8076124,74.9478055 50.4547313,75.6041256 49.9397464,75.844267 C49.5468083,76.027497 49.1730301,75.9154933 48.7144809,75.2013544 C48.7038051,75.213744 48.693025,75.2260753 48.6821403,75.2383471 C48.711564,75.4811237 48.7276268,75.7198597 48.7276268,75.9430145 C48.7276268,77.2707942 48.1589582,77.5441501 47.5907352,77.5441501 C47.0840479,77.5441501 46.7488083,77.3267944 46.6821412,76.3382834 C46.6019739,76.3509447 46.5214744,76.3606763 46.4408161,76.3674768 C46.2468752,77.2854975 45.9472156,77.5813856 45.5605152,77.5270384 C45.1692229,77.4720459 44.8176094,77.0765522 44.8537132,76.1104915 C44.7254418,76.0550209 44.6000923,75.9909579 44.4785307,75.9182959 C44.2135539,77.0188577 43.9055378,77.1618069 43.4869574,77.0728349 C43.0423126,76.9783227 42.6412834,76.6578973 42.9173443,75.3591328 C42.9786329,75.0707924 43.0681421,74.7584717 43.1751859,74.4480649 C42.8386828,73.6901203 42.8042699,72.8271793 43.0705177,72.039748 L30.357207,66.5587155 C29.3428877,66.1214167 28.8751203,64.9446477 29.3124192,63.9303285 C29.4617772,63.5838912 29.7060748,63.2867625 30.0171042,63.0732507 L53.7483642,46.782488 L43.7643376,58.9088429 L40.8350352,65.1240912 L46.44683,69.7467802 Z"/>
  </g>
</svg>
