<svg xmlns="http://www.w3.org/2000/svg" width="90" height="64" viewBox="0 0 90 64">
  <g fill="none" fill-rule="evenodd" transform="translate(-19 -32)">
    <rect width="128" height="128"/>
    <g transform="translate(19 32.75)">
      <g transform="translate(0 24.148)">
        <path fill="#448AFF" d="M19.7820614,0.123096652 C8.63731823,1.1396786 0,8.32841742 0,17.0454545 C0,22.4283762 3.29364852,27.2285155 8.4375,30.3523529 L8.4375,30.3523529 L8.4375,38.3522727 L15.6132982,33.2776714 C17.7837708,33.8057471 20.0979273,34.0909091 22.5,34.0909091 C29.920998,34.0909091 36.5028818,31.3691859 40.6012367,27.1715082 C28.2373552,22.7292212 19.6875,13.1863628 19.6875,2.13068182 C19.6875,1.45557323 19.7193812,0.78610574 19.7820653,0.123096292 Z"/>
        <rect width="25" height="2.5" x="10" y="13.352" fill="#FFF" rx="1.25"/>
        <rect width="12.5" height="2.5" x="10" y="18.352" fill="#FFF" rx="1.25"/>
      </g>
      <g transform="translate(22.5)">
        <path fill="#FFD200" d="M53.4375,46.3378663 C61.9541361,41.6964819 67.5,34.1229781 67.5,25.5681818 C67.5,11.4472649 52.3896103,0 33.75,0 C15.1103897,0 0,11.4472649 0,25.5681818 C0,39.6890987 15.1103897,51.1363636 33.75,51.1363636 C37.4220629,51.1363636 40.9571559,50.6920923 44.2667321,49.8706304 L53.4375,56.8181818 L53.4375,46.3378663 Z"/>
        <path fill="#FFF" d="M28.4347038,12.3708955 L28.4347038,12.3708955 L33.0617323,7.81509951 L26.826023,6.89984537 L25.6566339,5.74845885 L30.2773175,5.07025215 L32.34375,0.840909091 L34.4101825,5.07025215 L39.0308661,5.74845885 L35.6873081,9.0405433 L36.4766151,13.6890412 L32.34375,11.4943182 L28.2108849,13.6890412 L28.4347038,12.3708955 Z M12.548977,6.89984537 L12.548977,6.89984537 L6.31326774,7.81509951 L10.9402962,12.3708955 L11.1641151,13.6890412 L7.03125,11.4943182 L2.89838494,13.6890412 L3.68769193,9.0405433 L0.34413387,5.74845885 L4.96481747,5.07025215 L7.03125,0.840909091 L9.09768253,5.07025215 L13.7183661,5.74845885 L12.548977,6.89984537 Z M19.6875,17.1761364 L13.9014889,20.2487485 L15.0065187,13.7408515 L10.3255374,9.13193329 L16.7944945,8.18244392 L19.6875,2.26136364 L22.5805055,8.18244392 L29.0494626,9.13193329 L24.3684813,13.7408515 L25.4735111,20.2487485 L19.6875,17.1761364 Z" transform="translate(14.063 16.205)"/>
      </g>
    </g>
  </g>
</svg>
