<svg width="16" height="16" viewBox="0 0 16 16" fill="none" xmlns="http://www.w3.org/2000/svg">
<path d="M8.62511 9.33329C8.62511 8.98811 8.34529 8.70829 8.00011 8.70829C7.65494 8.70829 7.37511 8.98811 7.37511 9.33329H8.62511ZM6.00011 12.7083C5.65494 12.7083 5.37511 12.9881 5.37511 13.3333C5.37511 13.6785 5.65494 13.9583 6.00011 13.9583V12.7083ZM10.0001 13.9583C10.3453 13.9583 10.6251 13.6785 10.6251 13.3333C10.6251 12.9881 10.3453 12.7083 10.0001 12.7083V13.9583ZM4.72064 7.54404C4.65293 7.88252 4.87244 8.21179 5.21091 8.27949C5.54939 8.34719 5.87866 8.12768 5.94636 7.78921L4.72064 7.54404ZM11.0002 6.62496C11.3453 6.62496 11.6252 6.34514 11.6252 5.99996C11.6252 5.65478 11.3453 5.37496 11.0002 5.37496V6.62496ZM11.2331 6.66663L10.6202 6.54408L11.2331 6.66663ZM7.33345 8.70829C6.59742 8.70829 5.56957 7.99387 5.27967 6.54408L4.05393 6.78918C4.43057 8.67272 5.86033 9.95829 7.33345 9.95829V8.70829ZM7.37511 9.33329V13.3333H8.62511V9.33329H7.37511ZM6.00011 13.9583H8.00011V12.7083H6.00011V13.9583ZM8.00011 13.9583H10.0001V12.7083H8.00011V13.9583ZM5.27967 6.54408C5.13259 5.80852 5.17271 4.91049 5.37473 4.21625C5.47583 3.8688 5.60553 3.6141 5.73573 3.45884C5.85943 3.31132 5.94665 3.29163 6.00011 3.29163V2.04163C5.47509 2.04163 5.06475 2.3136 4.77791 2.65567C4.49757 2.98998 4.30377 3.42279 4.17451 3.867C3.91579 4.7561 3.86775 5.85807 4.05393 6.78918L5.27967 6.54408ZM5.3335 7.66663C5.94636 7.78921 5.9463 7.78949 5.94624 7.78977C5.94623 7.78985 5.94617 7.79012 5.94614 7.79029C5.94607 7.79062 5.94601 7.79094 5.94595 7.79122C5.94583 7.7918 5.94573 7.79228 5.94565 7.79267C5.94549 7.79344 5.9454 7.79385 5.9454 7.79389C5.94538 7.79397 5.94567 7.79262 5.94629 7.78994C5.94755 7.78455 5.95013 7.7739 5.95425 7.75874C5.96252 7.72827 5.97673 7.68053 5.99842 7.62138C6.04247 7.50124 6.11355 7.34453 6.22053 7.19171C6.42447 6.90038 6.75027 6.62496 7.33353 6.62496V5.37496C6.25012 5.37496 5.57591 5.93287 5.1965 6.47487C5.0118 6.73872 4.89537 6.99868 4.82483 7.19104C4.78923 7.28814 4.76437 7.3706 4.7479 7.43128C4.73965 7.46169 4.73344 7.48685 4.729 7.50588C4.72678 7.5154 4.72499 7.52341 4.72361 7.5298C4.72292 7.533 4.72233 7.53579 4.72184 7.53817C4.72159 7.53936 4.72136 7.54044 4.72117 7.54142C4.72107 7.54191 4.72097 7.54237 4.72088 7.54281C4.72084 7.54303 4.72078 7.54334 4.72075 7.54345C4.72069 7.54375 4.72064 7.54404 5.3335 7.66663ZM7.33353 6.62496C7.33678 6.62496 7.34004 6.62496 7.3433 6.62496C7.34656 6.62496 7.34982 6.62496 7.35308 6.62496C7.35634 6.62496 7.3596 6.62496 7.36286 6.62496C7.36612 6.62496 7.36939 6.62496 7.37265 6.62496C7.37592 6.62496 7.37918 6.62496 7.38245 6.62496C7.38572 6.62496 7.38899 6.62496 7.39226 6.62496C7.39553 6.62496 7.3988 6.62496 7.40207 6.62496C7.40534 6.62496 7.40861 6.62496 7.41189 6.62496C7.41516 6.62496 7.41844 6.62496 7.42172 6.62496C7.42499 6.62496 7.42827 6.62496 7.43155 6.62496C7.43483 6.62496 7.43811 6.62496 7.44139 6.62496C7.44467 6.62496 7.44795 6.62496 7.45124 6.62496C7.45452 6.62496 7.4578 6.62496 7.46109 6.62496C7.46437 6.62496 7.46766 6.62496 7.47095 6.62496C7.47424 6.62496 7.47752 6.62496 7.48081 6.62496C7.4841 6.62496 7.48739 6.62496 7.49068 6.62496C7.49398 6.62496 7.49727 6.62496 7.50056 6.62496C7.50385 6.62496 7.50715 6.62496 7.51044 6.62496C7.51374 6.62496 7.51704 6.62496 7.52033 6.62496C7.52363 6.62496 7.52693 6.62496 7.53023 6.62496C7.53353 6.62496 7.53683 6.62496 7.54013 6.62496C7.54343 6.62496 7.54673 6.62496 7.55003 6.62496C7.55334 6.62496 7.55664 6.62496 7.55994 6.62496C7.56325 6.62496 7.56655 6.62496 7.56986 6.62496C7.57317 6.62496 7.57647 6.62496 7.57978 6.62496C7.58309 6.62496 7.5864 6.62496 7.58971 6.62496C7.59302 6.62496 7.59633 6.62496 7.59964 6.62496C7.60295 6.62496 7.60626 6.62496 7.60958 6.62496C7.61289 6.62496 7.6162 6.62496 7.61952 6.62496C7.62283 6.62496 7.62615 6.62496 7.62946 6.62496C7.63278 6.62496 7.63609 6.62496 7.63941 6.62496C7.64273 6.62496 7.64605 6.62496 7.64937 6.62496C7.65268 6.62496 7.656 6.62496 7.65932 6.62496C7.66264 6.62496 7.66596 6.62496 7.66929 6.62496C7.67261 6.62496 7.67593 6.62496 7.67925 6.62496C7.68258 6.62496 7.6859 6.62496 7.68922 6.62496C7.69255 6.62496 7.69587 6.62496 7.6992 6.62496C7.70252 6.62496 7.70585 6.62496 7.70918 6.62496C7.7125 6.62496 7.71583 6.62496 7.71916 6.62496C7.72249 6.62496 7.72582 6.62496 7.72914 6.62496C7.73247 6.62496 7.7358 6.62496 7.73913 6.62496C7.74246 6.62496 7.74579 6.62496 7.74913 6.62496C7.75246 6.62496 7.75579 6.62496 7.75912 6.62496C7.76245 6.62496 7.76579 6.62496 7.76912 6.62496C7.77245 6.62496 7.77579 6.62496 7.77912 6.62496C7.78246 6.62496 7.78579 6.62496 7.78913 6.62496C7.79246 6.62496 7.7958 6.62496 7.79913 6.62496C7.80247 6.62496 7.80581 6.62496 7.80914 6.62496C7.81248 6.62496 7.81582 6.62496 7.81916 6.62496C7.8225 6.62496 7.82583 6.62496 7.82917 6.62496C7.83251 6.62496 7.83585 6.62496 7.83919 6.62496C7.84253 6.62496 7.84587 6.62496 7.84921 6.62496C7.85255 6.62496 7.85589 6.62496 7.85923 6.62496C7.86257 6.62496 7.86592 6.62496 7.86926 6.62496C7.8726 6.62496 7.87594 6.62496 7.87928 6.62496C7.88263 6.62496 7.88597 6.62496 7.88931 6.62496C7.89266 6.62496 7.896 6.62496 7.89934 6.62496C7.90269 6.62496 7.90603 6.62496 7.90937 6.62496C7.91272 6.62496 7.91606 6.62496 7.91941 6.62496C7.92275 6.62496 7.9261 6.62496 7.92944 6.62496C7.93279 6.62496 7.93613 6.62496 7.93948 6.62496C7.94282 6.62496 7.94617 6.62496 7.94952 6.62496C7.95286 6.62496 7.95621 6.62496 7.95956 6.62496C7.9629 6.62496 7.96625 6.62496 7.9696 6.62496C7.97294 6.62496 7.97629 6.62496 7.97964 6.62496C7.98298 6.62496 7.98633 6.62496 7.98968 6.62496C7.99302 6.62496 7.99637 6.62496 7.99972 6.62496C8.00307 6.62496 8.00641 6.62496 8.00976 6.62496C8.01311 6.62496 8.01646 6.62496 8.01981 6.62496C8.02315 6.62496 8.0265 6.62496 8.02985 6.62496C8.0332 6.62496 8.03655 6.62496 8.03989 6.62496C8.04324 6.62496 8.04659 6.62496 8.04994 6.62496C8.05329 6.62496 8.05664 6.62496 8.05998 6.62496C8.06333 6.62496 8.06668 6.62496 8.07003 6.62496C8.07338 6.62496 8.07672 6.62496 8.08007 6.62496C8.08342 6.62496 8.08677 6.62496 8.09012 6.62496C8.09346 6.62496 8.09681 6.62496 8.10016 6.62496C8.10351 6.62496 8.10686 6.62496 8.1102 6.62496C8.11355 6.62496 8.1169 6.62496 8.12025 6.62496C8.12359 6.62496 8.12694 6.62496 8.13029 6.62496C8.13364 6.62496 8.13698 6.62496 8.14033 6.62496C8.14368 6.62496 8.14703 6.62496 8.15037 6.62496C8.15372 6.62496 8.15707 6.62496 8.16041 6.62496C8.16376 6.62496 8.16711 6.62496 8.17045 6.62496C8.1738 6.62496 8.17714 6.62496 8.18049 6.62496C8.18384 6.62496 8.18718 6.62496 8.19053 6.62496C8.19387 6.62496 8.19722 6.62496 8.20056 6.62496C8.20391 6.62496 8.20725 6.62496 8.2106 6.62496C8.21394 6.62496 8.21728 6.62496 8.22063 6.62496C8.22397 6.62496 8.22731 6.62496 8.23066 6.62496C8.234 6.62496 8.23734 6.62496 8.24069 6.62496C8.24403 6.62496 8.24737 6.62496 8.25071 6.62496C8.25406 6.62496 8.2574 6.62496 8.26074 6.62496C8.26408 6.62496 8.26742 6.62496 8.27076 6.62496C8.2741 6.62496 8.27744 6.62496 8.28078 6.62496C8.28412 6.62496 8.28746 6.62496 8.2908 6.62496C8.29414 6.62496 8.29748 6.62496 8.30082 6.62496C8.30416 6.62496 8.30749 6.62496 8.31083 6.62496C8.31417 6.62496 8.31751 6.62496 8.32084 6.62496C8.32418 6.62496 8.32751 6.62496 8.33085 6.62496C8.33419 6.62496 8.33752 6.62496 8.34086 6.62496C8.34419 6.62496 8.34752 6.62496 8.35086 6.62496C8.35419 6.62496 8.35753 6.62496 8.36086 6.62496C8.36419 6.62496 8.36752 6.62496 8.37085 6.62496C8.37419 6.62496 8.37752 6.62496 8.38085 6.62496C8.38418 6.62496 8.38751 6.62496 8.39084 6.62496C8.39417 6.62496 8.3975 6.62496 8.40082 6.62496C8.40415 6.62496 8.40748 6.62496 8.41081 6.62496C8.41413 6.62496 8.41746 6.62496 8.42079 6.62496C8.42411 6.62496 8.42744 6.62496 8.43076 6.62496C8.43409 6.62496 8.43741 6.62496 8.44073 6.62496C8.44406 6.62496 8.44738 6.62496 8.4507 6.62496C8.45402 6.62496 8.45735 6.62496 8.46067 6.62496C8.46399 6.62496 8.46731 6.62496 8.47063 6.62496C8.47394 6.62496 8.47726 6.62496 8.48058 6.62496C8.4839 6.62496 8.48722 6.62496 8.49053 6.62496C8.49385 6.62496 8.49716 6.62496 8.50048 6.62496C8.50379 6.62496 8.50711 6.62496 8.51042 6.62496C8.51373 6.62496 8.51705 6.62496 8.52036 6.62496C8.52367 6.62496 8.52698 6.62496 8.53029 6.62496C8.5336 6.62496 8.53691 6.62496 8.54022 6.62496C8.54353 6.62496 8.54683 6.62496 8.55014 6.62496C8.55345 6.62496 8.55675 6.62496 8.56006 6.62496C8.56336 6.62496 8.56667 6.62496 8.56997 6.62496C8.57327 6.62496 8.57658 6.62496 8.57988 6.62496C8.58318 6.62496 8.58648 6.62496 8.58978 6.62496C8.59308 6.62496 8.59638 6.62496 8.59968 6.62496C8.60297 6.62496 8.60627 6.62496 8.60957 6.62496C8.61286 6.62496 8.61616 6.62496 8.61945 6.62496C8.62274 6.62496 8.62604 6.62496 8.62933 6.62496C8.63262 6.62496 8.63591 6.62496 8.6392 6.62496C8.64249 6.62496 8.64578 6.62496 8.64907 6.62496C8.65236 6.62496 8.65564 6.62496 8.65893 6.62496C8.66222 6.62496 8.6655 6.62496 8.66878 6.62496C8.67207 6.62496 8.67535 6.62496 8.67863 6.62496C8.68191 6.62496 8.68519 6.62496 8.68847 6.62496C8.69175 6.62496 8.69503 6.62496 8.69831 6.62496C8.70159 6.62496 8.70486 6.62496 8.70814 6.62496C8.71141 6.62496 8.71469 6.62496 8.71796 6.62496C8.72123 6.62496 8.7245 6.62496 8.72777 6.62496C8.73105 6.62496 8.73431 6.62496 8.73758 6.62496C8.74085 6.62496 8.74412 6.62496 8.74738 6.62496C8.75065 6.62496 8.75391 6.62496 8.75718 6.62496C8.76044 6.62496 8.7637 6.62496 8.76696 6.62496C8.77022 6.62496 8.77348 6.62496 8.77674 6.62496C8.78 6.62496 8.78326 6.62496 8.78651 6.62496C8.78977 6.62496 8.79302 6.62496 8.79628 6.62496C8.79953 6.62496 8.80278 6.62496 8.80603 6.62496C8.80929 6.62496 8.81253 6.62496 8.81578 6.62496C8.81903 6.62496 8.82228 6.62496 8.82552 6.62496C8.82877 6.62496 8.83201 6.62496 8.83526 6.62496C8.8385 6.62496 8.84174 6.62496 8.84498 6.62496C8.84822 6.62496 8.85146 6.62496 8.8547 6.62496C8.85793 6.62496 8.86117 6.62496 8.8644 6.62496C8.86764 6.62496 8.87087 6.62496 8.8741 6.62496C8.87734 6.62496 8.88057 6.62496 8.88379 6.62496C8.88702 6.62496 8.89025 6.62496 8.89348 6.62496C8.8967 6.62496 8.89993 6.62496 8.90315 6.62496C8.90637 6.62496 8.90959 6.62496 8.91281 6.62496C8.91603 6.62496 8.91925 6.62496 8.92247 6.62496C8.92569 6.62496 8.9289 6.62496 8.93212 6.62496C8.93533 6.62496 8.93854 6.62496 8.94175 6.62496C8.94496 6.62496 8.94817 6.62496 8.95138 6.62496C8.95459 6.62496 8.9578 6.62496 8.961 6.62496C8.96421 6.62496 8.96741 6.62496 8.97061 6.62496C8.97381 6.62496 8.97701 6.62496 8.98021 6.62496C8.98341 6.62496 8.9866 6.62496 8.9898 6.62496C8.99299 6.62496 8.99619 6.62496 8.99938 6.62496C9.00257 6.62496 9.00576 6.62496 9.00895 6.62496C9.01214 6.62496 9.01533 6.62496 9.01851 6.62496C9.0217 6.62496 9.02488 6.62496 9.02806 6.62496C9.03124 6.62496 9.03442 6.62496 9.0376 6.62496C9.04078 6.62496 9.04396 6.62496 9.04713 6.62496C9.05031 6.62496 9.05348 6.62496 9.05665 6.62496C9.05982 6.62496 9.06299 6.62496 9.06616 6.62496C9.06933 6.62496 9.07249 6.62496 9.07566 6.62496C9.07882 6.62496 9.08198 6.62496 9.08514 6.62496C9.0883 6.62496 9.09146 6.62496 9.09462 6.62496C9.09778 6.62496 9.10093 6.62496 9.10409 6.62496C9.10724 6.62496 9.11039 6.62496 9.11354 6.62496C9.11669 6.62496 9.11984 6.62496 9.12298 6.62496C9.12613 6.62496 9.12927 6.62496 9.13242 6.62496C9.13556 6.62496 9.1387 6.62496 9.14184 6.62496C9.14498 6.62496 9.14811 6.62496 9.15125 6.62496C9.15438 6.62496 9.15751 6.62496 9.16064 6.62496C9.16377 6.62496 9.1669 6.62496 9.17003 6.62496C9.17316 6.62496 9.17628 6.62496 9.1794 6.62496C9.18253 6.62496 9.18565 6.62496 9.18877 6.62496C9.19189 6.62496 9.195 6.62496 9.19812 6.62496C9.20123 6.62496 9.20435 6.62496 9.20746 6.62496C9.21057 6.62496 9.21368 6.62496 9.21678 6.62496C9.21989 6.62496 9.22299 6.62496 9.2261 6.62496C9.2292 6.62496 9.2323 6.62496 9.2354 6.62496C9.2385 6.62496 9.24159 6.62496 9.24469 6.62496C9.24778 6.62496 9.25087 6.62496 9.25396 6.62496C9.25705 6.62496 9.26014 6.62496 9.26323 6.62496C9.26631 6.62496 9.2694 6.62496 9.27248 6.62496C9.27556 6.62496 9.27864 6.62496 9.28172 6.62496C9.28479 6.62496 9.28787 6.62496 9.29094 6.62496C9.29401 6.62496 9.29708 6.62496 9.30015 6.62496C9.30322 6.62496 9.30629 6.62496 9.30935 6.62496C9.31242 6.62496 9.31548 6.62496 9.31854 6.62496C9.3216 6.62496 9.32465 6.62496 9.32771 6.62496C9.33076 6.62496 9.33382 6.62496 9.33687 6.62496C9.33992 6.62496 9.34297 6.62496 9.34601 6.62496C9.34906 6.62496 9.3521 6.62496 9.35514 6.62496C9.35818 6.62496 9.36122 6.62496 9.36426 6.62496C9.3673 6.62496 9.37033 6.62496 9.37336 6.62496C9.37639 6.62496 9.37942 6.62496 9.38245 6.62496C9.38548 6.62496 9.3885 6.62496 9.39153 6.62496C9.39455 6.62496 9.39757 6.62496 9.40059 6.62496C9.4036 6.62496 9.40662 6.62496 9.40963 6.62496C9.41265 6.62496 9.41566 6.62496 9.41866 6.62496C9.42167 6.62496 9.42468 6.62496 9.42768 6.62496C9.43069 6.62496 9.43369 6.62496 9.43668 6.62496C9.43968 6.62496 9.44268 6.62496 9.44567 6.62496C9.44867 6.62496 9.45166 6.62496 9.45464 6.62496C9.45763 6.62496 9.46062 6.62496 9.4636 6.62496C9.46659 6.62496 9.46957 6.62496 9.47255 6.62496C9.47552 6.62496 9.4785 6.62496 9.48147 6.62496C9.48445 6.62496 9.48742 6.62496 9.49038 6.62496C9.49335 6.62496 9.49632 6.62496 9.49928 6.62496C9.50224 6.62496 9.5052 6.62496 9.50816 6.62496C9.51112 6.62496 9.51408 6.62496 9.51703 6.62496C9.51998 6.62496 9.52293 6.62496 9.52588 6.62496C9.52882 6.62496 9.53177 6.62496 9.53471 6.62496C9.53765 6.62496 9.54059 6.62496 9.54353 6.62496C9.54647 6.62496 9.5494 6.62496 9.55233 6.62496C9.55526 6.62496 9.55819 6.62496 9.56112 6.62496C9.56404 6.62496 9.56697 6.62496 9.56989 6.62496C9.57281 6.62496 9.57572 6.62496 9.57864 6.62496C9.58155 6.62496 9.58447 6.62496 9.58738 6.62496C9.59029 6.62496 9.59319 6.62496 9.5961 6.62496C9.599 6.62496 9.6019 6.62496 9.6048 6.62496C9.6077 6.62496 9.61059 6.62496 9.61349 6.62496C9.61638 6.62496 9.61927 6.62496 9.62216 6.62496C9.62504 6.62496 9.62793 6.62496 9.63081 6.62496C9.63369 6.62496 9.63657 6.62496 9.63944 6.62496C9.64232 6.62496 9.64519 6.62496 9.64806 6.62496C9.65093 6.62496 9.6538 6.62496 9.65666 6.62496C9.65953 6.62496 9.66239 6.62496 9.66525 6.62496C9.66811 6.62496 9.67096 6.62496 9.67381 6.62496C9.67667 6.62496 9.67952 6.62496 9.68236 6.62496C9.68521 6.62496 9.68805 6.62496 9.69089 6.62496C9.69373 6.62496 9.69657 6.62496 9.69941 6.62496C9.70224 6.62496 9.70507 6.62496 9.7079 6.62496C9.71073 6.62496 9.71356 6.62496 9.71638 6.62496C9.7192 6.62496 9.72202 6.62496 9.72484 6.62496C9.72766 6.62496 9.73047 6.62496 9.73328 6.62496C9.73609 6.62496 9.7389 6.62496 9.7417 6.62496C9.74451 6.62496 9.74731 6.62496 9.75011 6.62496C9.7529 6.62496 9.7557 6.62496 9.75849 6.62496C9.76128 6.62496 9.76407 6.62496 9.76686 6.62496C9.76964 6.62496 9.77243 6.62496 9.77521 6.62496C9.77799 6.62496 9.78076 6.62496 9.78354 6.62496C9.78631 6.62496 9.78908 6.62496 9.79185 6.62496C9.79461 6.62496 9.79738 6.62496 9.80014 6.62496C9.8029 6.62496 9.80565 6.62496 9.80841 6.62496C9.81116 6.62496 9.81391 6.62496 9.81666 6.62496C9.81941 6.62496 9.82215 6.62496 9.82489 6.62496C9.82764 6.62496 9.83037 6.62496 9.83311 6.62496C9.83584 6.62496 9.83857 6.62496 9.8413 6.62496C9.84403 6.62496 9.84676 6.62496 9.84948 6.62496C9.8522 6.62496 9.85492 6.62496 9.85763 6.62496C9.86035 6.62496 9.86306 6.62496 9.86577 6.62496C9.86847 6.62496 9.87118 6.62496 9.87388 6.62496C9.87658 6.62496 9.87928 6.62496 9.88198 6.62496C9.88467 6.62496 9.88736 6.62496 9.89005 6.62496C9.89274 6.62496 9.89542 6.62496 9.8981 6.62496C9.90079 6.62496 9.90346 6.62496 9.90614 6.62496C9.90881 6.62496 9.91148 6.62496 9.91415 6.62496C9.91682 6.62496 9.91948 6.62496 9.92214 6.62496C9.9248 6.62496 9.92746 6.62496 9.93012 6.62496C9.93277 6.62496 9.93542 6.62496 9.93807 6.62496C9.94071 6.62496 9.94336 6.62496 9.946 6.62496C9.94864 6.62496 9.95127 6.62496 9.95391 6.62496C9.95654 6.62496 9.95917 6.62496 9.96179 6.62496C9.96442 6.62496 9.96704 6.62496 9.96966 6.62496C9.97228 6.62496 9.97489 6.62496 9.9775 6.62496C9.98012 6.62496 9.98272 6.62496 9.98533 6.62496C9.98793 6.62496 9.99053 6.62496 9.99313 6.62496C9.99573 6.62496 9.99832 6.62496 10.0009 6.62496C10.0035 6.62496 10.0061 6.62496 10.0087 6.62496C10.0113 6.62496 10.0138 6.62496 10.0164 6.62496C10.019 6.62496 10.0216 6.62496 10.0241 6.62496C10.0267 6.62496 10.0293 6.62496 10.0318 6.62496C10.0344 6.62496 10.0369 6.62496 10.0395 6.62496C10.042 6.62496 10.0446 6.62496 10.0471 6.62496C10.0497 6.62496 10.0522 6.62496 10.0548 6.62496C10.0573 6.62496 10.0598 6.62496 10.0624 6.62496C10.0649 6.62496 10.0674 6.62496 10.0699 6.62496C10.0725 6.62496 10.075 6.62496 10.0775 6.62496C10.08 6.62496 10.0825 6.62496 10.085 6.62496C10.0875 6.62496 10.09 6.62496 10.0925 6.62496C10.095 6.62496 10.0975 6.62496 10.1 6.62496C10.1025 6.62496 10.105 6.62496 10.1075 6.62496C10.11 6.62496 10.1125 6.62496 10.1149 6.62496C10.1174 6.62496 10.1199 6.62496 10.1224 6.62496C10.1248 6.62496 10.1273 6.62496 10.1298 6.62496C10.1322 6.62496 10.1347 6.62496 10.1371 6.62496C10.1396 6.62496 10.142 6.62496 10.1445 6.62496C10.1469 6.62496 10.1494 6.62496 10.1518 6.62496C10.1542 6.62496 10.1567 6.62496 10.1591 6.62496C10.1615 6.62496 10.164 6.62496 10.1664 6.62496C10.1688 6.62496 10.1712 6.62496 10.1736 6.62496C10.176 6.62496 10.1785 6.62496 10.1809 6.62496C10.1833 6.62496 10.1857 6.62496 10.1881 6.62496C10.1905 6.62496 10.1929 6.62496 10.1952 6.62496C10.1976 6.62496 10.2 6.62496 10.2024 6.62496C10.2048 6.62496 10.2072 6.62496 10.2095 6.62496C10.2119 6.62496 10.2143 6.62496 10.2166 6.62496C10.219 6.62496 10.2214 6.62496 10.2237 6.62496C10.2261 6.62496 10.2284 6.62496 10.2308 6.62496C10.2331 6.62496 10.2355 6.62496 10.2378 6.62496C10.2402 6.62496 10.2425 6.62496 10.2448 6.62496C10.2471 6.62496 10.2495 6.62496 10.2518 6.62496C10.2541 6.62496 10.2564 6.62496 10.2588 6.62496C10.2611 6.62496 10.2634 6.62496 10.2657 6.62496C10.268 6.62496 10.2703 6.62496 10.2726 6.62496C10.2749 6.62496 10.2772 6.62496 10.2795 6.62496C10.2818 6.62496 10.284 6.62496 10.2863 6.62496C10.2886 6.62496 10.2909 6.62496 10.2932 6.62496C10.2954 6.62496 10.2977 6.62496 10.3 6.62496C10.3022 6.62496 10.3045 6.62496 10.3067 6.62496C10.309 6.62496 10.3112 6.62496 10.3135 6.62496C10.3157 6.62496 10.318 6.62496 10.3202 6.62496C10.3224 6.62496 10.3247 6.62496 10.3269 6.62496C10.3291 6.62496 10.3313 6.62496 10.3336 6.62496C10.3358 6.62496 10.338 6.62496 10.3402 6.62496C10.3424 6.62496 10.3446 6.62496 10.3468 6.62496C10.349 6.62496 10.3512 6.62496 10.3534 6.62496C10.3556 6.62496 10.3578 6.62496 10.36 6.62496C10.3622 6.62496 10.3643 6.62496 10.3665 6.62496C10.3687 6.62496 10.3709 6.62496 10.373 6.62496C10.3752 6.62496 10.3774 6.62496 10.3795 6.62496C10.3817 6.62496 10.3838 6.62496 10.386 6.62496C10.3881 6.62496 10.3903 6.62496 10.3924 6.62496C10.3945 6.62496 10.3967 6.62496 10.3988 6.62496C10.4009 6.62496 10.403 6.62496 10.4052 6.62496C10.4073 6.62496 10.4094 6.62496 10.4115 6.62496C10.4136 6.62496 10.4157 6.62496 10.4178 6.62496C10.4199 6.62496 10.422 6.62496 10.4241 6.62496C10.4262 6.62496 10.4283 6.62496 10.4304 6.62496C10.4325 6.62496 10.4345 6.62496 10.4366 6.62496C10.4387 6.62496 10.4407 6.62496 10.4428 6.62496C10.4449 6.62496 10.4469 6.62496 10.449 6.62496C10.451 6.62496 10.4531 6.62496 10.4551 6.62496C10.4572 6.62496 10.4592 6.62496 10.4613 6.62496C10.4633 6.62496 10.4653 6.62496 10.4673 6.62496C10.4694 6.62496 10.4714 6.62496 10.4734 6.62496C10.4754 6.62496 10.4774 6.62496 10.4794 6.62496C10.4814 6.62496 10.4834 6.62496 10.4854 6.62496C10.4874 6.62496 10.4894 6.62496 10.4914 6.62496C10.4934 6.62496 10.4954 6.62496 10.4974 6.62496C10.4993 6.62496 10.5013 6.62496 10.5033 6.62496C10.5052 6.62496 10.5072 6.62496 10.5092 6.62496C10.5111 6.62496 10.5131 6.62496 10.515 6.62496C10.517 6.62496 10.5189 6.62496 10.5208 6.62496C10.5228 6.62496 10.5247 6.62496 10.5266 6.62496C10.5286 6.62496 10.5305 6.62496 10.5324 6.62496C10.5343 6.62496 10.5362 6.62496 10.5382 6.62496C10.5401 6.62496 10.542 6.62496 10.5439 6.62496C10.5458 6.62496 10.5476 6.62496 10.5495 6.62496C10.5514 6.62496 10.5533 6.62496 10.5552 6.62496C10.5571 6.62496 10.5589 6.62496 10.5608 6.62496C10.5627 6.62496 10.5645 6.62496 10.5664 6.62496C10.5682 6.62496 10.5701 6.62496 10.5719 6.62496C10.5738 6.62496 10.5756 6.62496 10.5775 6.62496C10.5793 6.62496 10.5811 6.62496 10.583 6.62496C10.5848 6.62496 10.5866 6.62496 10.5884 6.62496C10.5902 6.62496 10.5921 6.62496 10.5939 6.62496C10.5957 6.62496 10.5975 6.62496 10.5993 6.62496C10.6011 6.62496 10.6028 6.62496 10.6046 6.62496C10.6064 6.62496 10.6082 6.62496 10.61 6.62496C10.6117 6.62496 10.6135 6.62496 10.6153 6.62496C10.617 6.62496 10.6188 6.62496 10.6206 6.62496C10.6223 6.62496 10.6241 6.62496 10.6258 6.62496C10.6275 6.62496 10.6293 6.62496 10.631 6.62496C10.6327 6.62496 10.6345 6.62496 10.6362 6.62496C10.6379 6.62496 10.6396 6.62496 10.6413 6.62496C10.6431 6.62496 10.6448 6.62496 10.6465 6.62496C10.6482 6.62496 10.6499 6.62496 10.6516 6.62496C10.6532 6.62496 10.6549 6.62496 10.6566 6.62496C10.6583 6.62496 10.66 6.62496 10.6616 6.62496C10.6633 6.62496 10.665 6.62496 10.6666 6.62496C10.6683 6.62496 10.6699 6.62496 10.6716 6.62496C10.6732 6.62496 10.6749 6.62496 10.6765 6.62496C10.6781 6.62496 10.6798 6.62496 10.6814 6.62496C10.683 6.62496 10.6846 6.62496 10.6862 6.62496C10.6879 6.62496 10.6895 6.62496 10.6911 6.62496C10.6927 6.62496 10.6943 6.62496 10.6959 6.62496C10.6975 6.62496 10.699 6.62496 10.7006 6.62496C10.7022 6.62496 10.7038 6.62496 10.7053 6.62496C10.7069 6.62496 10.7085 6.62496 10.71 6.62496C10.7116 6.62496 10.7131 6.62496 10.7147 6.62496C10.7162 6.62496 10.7178 6.62496 10.7193 6.62496C10.7209 6.62496 10.7224 6.62496 10.7239 6.62496C10.7254 6.62496 10.727 6.62496 10.7285 6.62496C10.73 6.62496 10.7315 6.62496 10.733 6.62496C10.7345 6.62496 10.736 6.62496 10.7375 6.62496C10.739 6.62496 10.7405 6.62496 10.7419 6.62496C10.7434 6.62496 10.7449 6.62496 10.7464 6.62496C10.7478 6.62496 10.7493 6.62496 10.7507 6.62496C10.7522 6.62496 10.7537 6.62496 10.7551 6.62496C10.7565 6.62496 10.758 6.62496 10.7594 6.62496C10.7608 6.62496 10.7623 6.62496 10.7637 6.62496C10.7651 6.62496 10.7665 6.62496 10.7679 6.62496C10.7694 6.62496 10.7708 6.62496 10.7722 6.62496C10.7736 6.62496 10.775 6.62496 10.7763 6.62496C10.7777 6.62496 10.7791 6.62496 10.7805 6.62496C10.7819 6.62496 10.7832 6.62496 10.7846 6.62496C10.786 6.62496 10.7873 6.62496 10.7887 6.62496C10.79 6.62496 10.7914 6.62496 10.7927 6.62496C10.794 6.62496 10.7954 6.62496 10.7967 6.62496C10.798 6.62496 10.7994 6.62496 10.8007 6.62496C10.802 6.62496 10.8033 6.62496 10.8046 6.62496C10.8059 6.62496 10.8072 6.62496 10.8085 6.62496C10.8098 6.62496 10.8111 6.62496 10.8124 6.62496C10.8136 6.62496 10.8149 6.62496 10.8162 6.62496C10.8175 6.62496 10.8187 6.62496 10.82 6.62496C10.8212 6.62496 10.8225 6.62496 10.8237 6.62496C10.825 6.62496 10.8262 6.62496 10.8274 6.62496C10.8287 6.62496 10.8299 6.62496 10.8311 6.62496C10.8323 6.62496 10.8336 6.62496 10.8348 6.62496C10.836 6.62496 10.8372 6.62496 10.8384 6.62496C10.8396 6.62496 10.8408 6.62496 10.8419 6.62496C10.8431 6.62496 10.8443 6.62496 10.8455 6.62496C10.8466 6.62496 10.8478 6.62496 10.849 6.62496C10.8501 6.62496 10.8513 6.62496 10.8524 6.62496C10.8536 6.62496 10.8547 6.62496 10.8558 6.62496C10.857 6.62496 10.8581 6.62496 10.8592 6.62496C10.8604 6.62496 10.8615 6.62496 10.8626 6.62496C10.8637 6.62496 10.8648 6.62496 10.8659 6.62496C10.867 6.62496 10.8681 6.62496 10.8692 6.62496C10.8702 6.62496 10.8713 6.62496 10.8724 6.62496C10.8735 6.62496 10.8745 6.62496 10.8756 6.62496C10.8767 6.62496 10.8777 6.62496 10.8788 6.62496C10.8798 6.62496 10.8808 6.62496 10.8819 6.62496C10.8829 6.62496 10.8839 6.62496 10.885 6.62496C10.886 6.62496 10.887 6.62496 10.888 6.62496C10.889 6.62496 10.89 6.62496 10.891 6.62496C10.892 6.62496 10.893 6.62496 10.894 6.62496C10.895 6.62496 10.8959 6.62496 10.8969 6.62496C10.8979 6.62496 10.8988 6.62496 10.8998 6.62496C10.9008 6.62496 10.9017 6.62496 10.9026 6.62496C10.9036 6.62496 10.9045 6.62496 10.9055 6.62496C10.9064 6.62496 10.9073 6.62496 10.9082 6.62496C10.9092 6.62496 10.9101 6.62496 10.911 6.62496C10.9119 6.62496 10.9128 6.62496 10.9137 6.62496C10.9146 6.62496 10.9154 6.62496 10.9163 6.62496C10.9172 6.62496 10.9181 6.62496 10.9189 6.62496C10.9198 6.62496 10.9207 6.62496 10.9215 6.62496C10.9224 6.62496 10.9232 6.62496 10.9241 6.62496C10.9249 6.62496 10.9257 6.62496 10.9266 6.62496C10.9274 6.62496 10.9282 6.62496 10.929 6.62496C10.9298 6.62496 10.9306 6.62496 10.9314 6.62496C10.9322 6.62496 10.933 6.62496 10.9338 6.62496C10.9346 6.62496 10.9354 6.62496 10.9362 6.62496C10.9369 6.62496 10.9377 6.62496 10.9385 6.62496C10.9392 6.62496 10.94 6.62496 10.9407 6.62496C10.9415 6.62496 10.9422 6.62496 10.9429 6.62496C10.9437 6.62496 10.9444 6.62496 10.9451 6.62496C10.9458 6.62496 10.9465 6.62496 10.9473 6.62496C10.948 6.62496 10.9487 6.62496 10.9494 6.62496C10.95 6.62496 10.9507 6.62496 10.9514 6.62496C10.9521 6.62496 10.9528 6.62496 10.9534 6.62496C10.9541 6.62496 10.9547 6.62496 10.9554 6.62496C10.956 6.62496 10.9567 6.62496 10.9573 6.62496C10.958 6.62496 10.9586 6.62496 10.9592 6.62496C10.9598 6.62496 10.9605 6.62496 10.9611 6.62496C10.9617 6.62496 10.9623 6.62496 10.9629 6.62496C10.9635 6.62496 10.9641 6.62496 10.9647 6.62496C10.9652 6.62496 10.9658 6.62496 10.9664 6.62496C10.9669 6.62496 10.9675 6.62496 10.9681 6.62496C10.9686 6.62496 10.9692 6.62496 10.9697 6.62496C10.9703 6.62496 10.9708 6.62496 10.9713 6.62496C10.9718 6.62496 10.9724 6.62496 10.9729 6.62496C10.9734 6.62496 10.9739 6.62496 10.9744 6.62496C10.9749 6.62496 10.9754 6.62496 10.9759 6.62496C10.9763 6.62496 10.9768 6.62496 10.9773 6.62496C10.9778 6.62496 10.9782 6.62496 10.9787 6.62496C10.9791 6.62496 10.9796 6.62496 10.98 6.62496C10.9805 6.62496 10.9809 6.62496 10.9813 6.62496C10.9818 6.62496 10.9822 6.62496 10.9826 6.62496C10.983 6.62496 10.9834 6.62496 10.9838 6.62496C10.9842 6.62496 10.9846 6.62496 10.985 6.62496C10.9854 6.62496 10.9858 6.62496 10.9861 6.62496C10.9865 6.62496 10.9869 6.62496 10.9872 6.62496C10.9876 6.62496 10.9879 6.62496 10.9883 6.62496C10.9886 6.62496 10.9889 6.62496 10.9893 6.62496C10.9896 6.62496 10.9899 6.62496 10.9902 6.62496C10.9905 6.62496 10.9908 6.62496 10.9911 6.62496C10.9914 6.62496 10.9917 6.62496 10.992 6.62496C10.9923 6.62496 10.9926 6.62496 10.9928 6.62496C10.9931 6.62496 10.9934 6.62496 10.9936 6.62496C10.9939 6.62496 10.9941 6.62496 10.9944 6.62496C10.9946 6.62496 10.9948 6.62496 10.9951 6.62496C10.9953 6.62496 10.9955 6.62496 10.9957 6.62496C10.9959 6.62496 10.9961 6.62496 10.9963 6.62496C10.9965 6.62496 10.9967 6.62496 10.9969 6.62496C10.9971 6.62496 10.9973 6.62496 10.9974 6.62496C10.9976 6.62496 10.9977 6.62496 10.9979 6.62496C10.998 6.62496 10.9982 6.62496 10.9983 6.62496C10.9985 6.62496 10.9986 6.62496 10.9987 6.62496C10.9988 6.62496 10.9989 6.62496 10.999 6.62496C10.9992 6.62496 10.9993 6.62496 10.9993 6.62496C10.9994 6.62496 10.9995 6.62496 10.9996 6.62496C10.9997 6.62496 10.9997 6.62496 10.9998 6.62496C10.9999 6.62496 10.9999 6.62496 11 6.62496C11 6.62496 11 6.62496 11.0001 6.62496C11.0001 6.62496 11.0001 6.62496 11.0001 6.62496C11.0002 6.62496 11.0002 6.62496 11.0002 5.99996C11.0002 5.37496 11.0002 5.37496 11.0001 5.37496C11.0001 5.37496 11.0001 5.37496 11.0001 5.37496C11 5.37496 11 5.37496 11 5.37496C10.9999 5.37496 10.9999 5.37496 10.9998 5.37496C10.9997 5.37496 10.9997 5.37496 10.9996 5.37496C10.9995 5.37496 10.9994 5.37496 10.9993 5.37496C10.9993 5.37496 10.9992 5.37496 10.999 5.37496C10.9989 5.37496 10.9988 5.37496 10.9987 5.37496C10.9986 5.37496 10.9985 5.37496 10.9983 5.37496C10.9982 5.37496 10.998 5.37496 10.9979 5.37496C10.9977 5.37496 10.9976 5.37496 10.9974 5.37496C10.9973 5.37496 10.9971 5.37496 10.9969 5.37496C10.9967 5.37496 10.9965 5.37496 10.9963 5.37496C10.9961 5.37496 10.9959 5.37496 10.9957 5.37496C10.9955 5.37496 10.9953 5.37496 10.9951 5.37496C10.9948 5.37496 10.9946 5.37496 10.9944 5.37496C10.9941 5.37496 10.9939 5.37496 10.9936 5.37496C10.9934 5.37496 10.9931 5.37496 10.9928 5.37496C10.9926 5.37496 10.9923 5.37496 10.992 5.37496C10.9917 5.37496 10.9914 5.37496 10.9911 5.37496C10.9908 5.37496 10.9905 5.37496 10.9902 5.37496C10.9899 5.37496 10.9896 5.37496 10.9893 5.37496C10.9889 5.37496 10.9886 5.37496 10.9883 5.37496C10.9879 5.37496 10.9876 5.37496 10.9872 5.37496C10.9869 5.37496 10.9865 5.37496 10.9861 5.37496C10.9858 5.37496 10.9854 5.37496 10.985 5.37496C10.9846 5.37496 10.9842 5.37496 10.9838 5.37496C10.9834 5.37496 10.983 5.37496 10.9826 5.37496C10.9822 5.37496 10.9818 5.37496 10.9813 5.37496C10.9809 5.37496 10.9805 5.37496 10.98 5.37496C10.9796 5.37496 10.9791 5.37496 10.9787 5.37496C10.9782 5.37496 10.9778 5.37496 10.9773 5.37496C10.9768 5.37496 10.9763 5.37496 10.9759 5.37496C10.9754 5.37496 10.9749 5.37496 10.9744 5.37496C10.9739 5.37496 10.9734 5.37496 10.9729 5.37496C10.9724 5.37496 10.9718 5.37496 10.9713 5.37496C10.9708 5.37496 10.9703 5.37496 10.9697 5.37496C10.9692 5.37496 10.9686 5.37496 10.9681 5.37496C10.9675 5.37496 10.9669 5.37496 10.9664 5.37496C10.9658 5.37496 10.9652 5.37496 10.9647 5.37496C10.9641 5.37496 10.9635 5.37496 10.9629 5.37496C10.9623 5.37496 10.9617 5.37496 10.9611 5.37496C10.9605 5.37496 10.9598 5.37496 10.9592 5.37496C10.9586 5.37496 10.958 5.37496 10.9573 5.37496C10.9567 5.37496 10.956 5.37496 10.9554 5.37496C10.9547 5.37496 10.9541 5.37496 10.9534 5.37496C10.9528 5.37496 10.9521 5.37496 10.9514 5.37496C10.9507 5.37496 10.95 5.37496 10.9494 5.37496C10.9487 5.37496 10.948 5.37496 10.9473 5.37496C10.9465 5.37496 10.9458 5.37496 10.9451 5.37496C10.9444 5.37496 10.9437 5.37496 10.9429 5.37496C10.9422 5.37496 10.9415 5.37496 10.9407 5.37496C10.94 5.37496 10.9392 5.37496 10.9385 5.37496C10.9377 5.37496 10.9369 5.37496 10.9362 5.37496C10.9354 5.37496 10.9346 5.37496 10.9338 5.37496C10.933 5.37496 10.9322 5.37496 10.9314 5.37496C10.9306 5.37496 10.9298 5.37496 10.929 5.37496C10.9282 5.37496 10.9274 5.37496 10.9266 5.37496C10.9257 5.37496 10.9249 5.37496 10.9241 5.37496C10.9232 5.37496 10.9224 5.37496 10.9215 5.37496C10.9207 5.37496 10.9198 5.37496 10.9189 5.37496C10.9181 5.37496 10.9172 5.37496 10.9163 5.37496C10.9154 5.37496 10.9146 5.37496 10.9137 5.37496C10.9128 5.37496 10.9119 5.37496 10.911 5.37496C10.9101 5.37496 10.9092 5.37496 10.9082 5.37496C10.9073 5.37496 10.9064 5.37496 10.9055 5.37496C10.9045 5.37496 10.9036 5.37496 10.9026 5.37496C10.9017 5.37496 10.9008 5.37496 10.8998 5.37496C10.8988 5.37496 10.8979 5.37496 10.8969 5.37496C10.8959 5.37496 10.895 5.37496 10.894 5.37496C10.893 5.37496 10.892 5.37496 10.891 5.37496C10.89 5.37496 10.889 5.37496 10.888 5.37496C10.887 5.37496 10.886 5.37496 10.885 5.37496C10.8839 5.37496 10.8829 5.37496 10.8819 5.37496C10.8808 5.37496 10.8798 5.37496 10.8788 5.37496C10.8777 5.37496 10.8767 5.37496 10.8756 5.37496C10.8745 5.37496 10.8735 5.37496 10.8724 5.37496C10.8713 5.37496 10.8702 5.37496 10.8692 5.37496C10.8681 5.37496 10.867 5.37496 10.8659 5.37496C10.8648 5.37496 10.8637 5.37496 10.8626 5.37496C10.8615 5.37496 10.8604 5.37496 10.8592 5.37496C10.8581 5.37496 10.857 5.37496 10.8558 5.37496C10.8547 5.37496 10.8536 5.37496 10.8524 5.37496C10.8513 5.37496 10.8501 5.37496 10.849 5.37496C10.8478 5.37496 10.8466 5.37496 10.8455 5.37496C10.8443 5.37496 10.8431 5.37496 10.8419 5.37496C10.8408 5.37496 10.8396 5.37496 10.8384 5.37496C10.8372 5.37496 10.836 5.37496 10.8348 5.37496C10.8336 5.37496 10.8323 5.37496 10.8311 5.37496C10.8299 5.37496 10.8287 5.37496 10.8274 5.37496C10.8262 5.37496 10.825 5.37496 10.8237 5.37496C10.8225 5.37496 10.8212 5.37496 10.82 5.37496C10.8187 5.37496 10.8175 5.37496 10.8162 5.37496C10.8149 5.37496 10.8136 5.37496 10.8124 5.37496C10.8111 5.37496 10.8098 5.37496 10.8085 5.37496C10.8072 5.37496 10.8059 5.37496 10.8046 5.37496C10.8033 5.37496 10.802 5.37496 10.8007 5.37496C10.7994 5.37496 10.798 5.37496 10.7967 5.37496C10.7954 5.37496 10.794 5.37496 10.7927 5.37496C10.7914 5.37496 10.79 5.37496 10.7887 5.37496C10.7873 5.37496 10.786 5.37496 10.7846 5.37496C10.7832 5.37496 10.7819 5.37496 10.7805 5.37496C10.7791 5.37496 10.7777 5.37496 10.7763 5.37496C10.775 5.37496 10.7736 5.37496 10.7722 5.37496C10.7708 5.37496 10.7694 5.37496 10.7679 5.37496C10.7665 5.37496 10.7651 5.37496 10.7637 5.37496C10.7623 5.37496 10.7608 5.37496 10.7594 5.37496C10.758 5.37496 10.7565 5.37496 10.7551 5.37496C10.7537 5.37496 10.7522 5.37496 10.7507 5.37496C10.7493 5.37496 10.7478 5.37496 10.7464 5.37496C10.7449 5.37496 10.7434 5.37496 10.7419 5.37496C10.7405 5.37496 10.739 5.37496 10.7375 5.37496C10.736 5.37496 10.7345 5.37496 10.733 5.37496C10.7315 5.37496 10.73 5.37496 10.7285 5.37496C10.727 5.37496 10.7254 5.37496 10.7239 5.37496C10.7224 5.37496 10.7209 5.37496 10.7193 5.37496C10.7178 5.37496 10.7162 5.37496 10.7147 5.37496C10.7131 5.37496 10.7116 5.37496 10.71 5.37496C10.7085 5.37496 10.7069 5.37496 10.7053 5.37496C10.7038 5.37496 10.7022 5.37496 10.7006 5.37496C10.699 5.37496 10.6975 5.37496 10.6959 5.37496C10.6943 5.37496 10.6927 5.37496 10.6911 5.37496C10.6895 5.37496 10.6879 5.37496 10.6862 5.37496C10.6846 5.37496 10.683 5.37496 10.6814 5.37496C10.6798 5.37496 10.6781 5.37496 10.6765 5.37496C10.6749 5.37496 10.6732 5.37496 10.6716 5.37496C10.6699 5.37496 10.6683 5.37496 10.6666 5.37496C10.665 5.37496 10.6633 5.37496 10.6616 5.37496C10.66 5.37496 10.6583 5.37496 10.6566 5.37496C10.6549 5.37496 10.6532 5.37496 10.6516 5.37496C10.6499 5.37496 10.6482 5.37496 10.6465 5.37496C10.6448 5.37496 10.6431 5.37496 10.6413 5.37496C10.6396 5.37496 10.6379 5.37496 10.6362 5.37496C10.6345 5.37496 10.6327 5.37496 10.631 5.37496C10.6293 5.37496 10.6275 5.37496 10.6258 5.37496C10.6241 5.37496 10.6223 5.37496 10.6206 5.37496C10.6188 5.37496 10.617 5.37496 10.6153 5.37496C10.6135 5.37496 10.6117 5.37496 10.61 5.37496C10.6082 5.37496 10.6064 5.37496 10.6046 5.37496C10.6028 5.37496 10.6011 5.37496 10.5993 5.37496C10.5975 5.37496 10.5957 5.37496 10.5939 5.37496C10.5921 5.37496 10.5902 5.37496 10.5884 5.37496C10.5866 5.37496 10.5848 5.37496 10.583 5.37496C10.5811 5.37496 10.5793 5.37496 10.5775 5.37496C10.5756 5.37496 10.5738 5.37496 10.5719 5.37496C10.5701 5.37496 10.5682 5.37496 10.5664 5.37496C10.5645 5.37496 10.5627 5.37496 10.5608 5.37496C10.5589 5.37496 10.5571 5.37496 10.5552 5.37496C10.5533 5.37496 10.5514 5.37496 10.5495 5.37496C10.5476 5.37496 10.5458 5.37496 10.5439 5.37496C10.542 5.37496 10.5401 5.37496 10.5382 5.37496C10.5362 5.37496 10.5343 5.37496 10.5324 5.37496C10.5305 5.37496 10.5286 5.37496 10.5266 5.37496C10.5247 5.37496 10.5228 5.37496 10.5208 5.37496C10.5189 5.37496 10.517 5.37496 10.515 5.37496C10.5131 5.37496 10.5111 5.37496 10.5092 5.37496C10.5072 5.37496 10.5052 5.37496 10.5033 5.37496C10.5013 5.37496 10.4993 5.37496 10.4974 5.37496C10.4954 5.37496 10.4934 5.37496 10.4914 5.37496C10.4894 5.37496 10.4874 5.37496 10.4854 5.37496C10.4834 5.37496 10.4814 5.37496 10.4794 5.37496C10.4774 5.37496 10.4754 5.37496 10.4734 5.37496C10.4714 5.37496 10.4694 5.37496 10.4673 5.37496C10.4653 5.37496 10.4633 5.37496 10.4613 5.37496C10.4592 5.37496 10.4572 5.37496 10.4551 5.37496C10.4531 5.37496 10.451 5.37496 10.449 5.37496C10.4469 5.37496 10.4449 5.37496 10.4428 5.37496C10.4407 5.37496 10.4387 5.37496 10.4366 5.37496C10.4345 5.37496 10.4325 5.37496 10.4304 5.37496C10.4283 5.37496 10.4262 5.37496 10.4241 5.37496C10.422 5.37496 10.4199 5.37496 10.4178 5.37496C10.4157 5.37496 10.4136 5.37496 10.4115 5.37496C10.4094 5.37496 10.4073 5.37496 10.4052 5.37496C10.403 5.37496 10.4009 5.37496 10.3988 5.37496C10.3967 5.37496 10.3945 5.37496 10.3924 5.37496C10.3903 5.37496 10.3881 5.37496 10.386 5.37496C10.3838 5.37496 10.3817 5.37496 10.3795 5.37496C10.3774 5.37496 10.3752 5.37496 10.373 5.37496C10.3709 5.37496 10.3687 5.37496 10.3665 5.37496C10.3643 5.37496 10.3622 5.37496 10.36 5.37496C10.3578 5.37496 10.3556 5.37496 10.3534 5.37496C10.3512 5.37496 10.349 5.37496 10.3468 5.37496C10.3446 5.37496 10.3424 5.37496 10.3402 5.37496C10.338 5.37496 10.3358 5.37496 10.3336 5.37496C10.3313 5.37496 10.3291 5.37496 10.3269 5.37496C10.3247 5.37496 10.3224 5.37496 10.3202 5.37496C10.318 5.37496 10.3157 5.37496 10.3135 5.37496C10.3112 5.37496 10.309 5.37496 10.3067 5.37496C10.3045 5.37496 10.3022 5.37496 10.3 5.37496C10.2977 5.37496 10.2954 5.37496 10.2932 5.37496C10.2909 5.37496 10.2886 5.37496 10.2863 5.37496C10.284 5.37496 10.2818 5.37496 10.2795 5.37496C10.2772 5.37496 10.2749 5.37496 10.2726 5.37496C10.2703 5.37496 10.268 5.37496 10.2657 5.37496C10.2634 5.37496 10.2611 5.37496 10.2588 5.37496C10.2564 5.37496 10.2541 5.37496 10.2518 5.37496C10.2495 5.37496 10.2471 5.37496 10.2448 5.37496C10.2425 5.37496 10.2402 5.37496 10.2378 5.37496C10.2355 5.37496 10.2331 5.37496 10.2308 5.37496C10.2284 5.37496 10.2261 5.37496 10.2237 5.37496C10.2214 5.37496 10.219 5.37496 10.2166 5.37496C10.2143 5.37496 10.2119 5.37496 10.2095 5.37496C10.2072 5.37496 10.2048 5.37496 10.2024 5.37496C10.2 5.37496 10.1976 5.37496 10.1952 5.37496C10.1929 5.37496 10.1905 5.37496 10.1881 5.37496C10.1857 5.37496 10.1833 5.37496 10.1809 5.37496C10.1785 5.37496 10.176 5.37496 10.1736 5.37496C10.1712 5.37496 10.1688 5.37496 10.1664 5.37496C10.164 5.37496 10.1615 5.37496 10.1591 5.37496C10.1567 5.37496 10.1542 5.37496 10.1518 5.37496C10.1494 5.37496 10.1469 5.37496 10.1445 5.37496C10.142 5.37496 10.1396 5.37496 10.1371 5.37496C10.1347 5.37496 10.1322 5.37496 10.1298 5.37496C10.1273 5.37496 10.1248 5.37496 10.1224 5.37496C10.1199 5.37496 10.1174 5.37496 10.1149 5.37496C10.1125 5.37496 10.11 5.37496 10.1075 5.37496C10.105 5.37496 10.1025 5.37496 10.1 5.37496C10.0975 5.37496 10.095 5.37496 10.0925 5.37496C10.09 5.37496 10.0875 5.37496 10.085 5.37496C10.0825 5.37496 10.08 5.37496 10.0775 5.37496C10.075 5.37496 10.0725 5.37496 10.0699 5.37496C10.0674 5.37496 10.0649 5.37496 10.0624 5.37496C10.0598 5.37496 10.0573 5.37496 10.0548 5.37496C10.0522 5.37496 10.0497 5.37496 10.0471 5.37496C10.0446 5.37496 10.042 5.37496 10.0395 5.37496C10.0369 5.37496 10.0344 5.37496 10.0318 5.37496C10.0293 5.37496 10.0267 5.37496 10.0241 5.37496C10.0216 5.37496 10.019 5.37496 10.0164 5.37496C10.0138 5.37496 10.0113 5.37496 10.0087 5.37496C10.0061 5.37496 10.0035 5.37496 10.0009 5.37496C9.99832 5.37496 9.99573 5.37496 9.99313 5.37496C9.99053 5.37496 9.98793 5.37496 9.98533 5.37496C9.98272 5.37496 9.98012 5.37496 9.9775 5.37496C9.97489 5.37496 9.97228 5.37496 9.96966 5.37496C9.96704 5.37496 9.96442 5.37496 9.96179 5.37496C9.95917 5.37496 9.95654 5.37496 9.95391 5.37496C9.95127 5.37496 9.94864 5.37496 9.946 5.37496C9.94336 5.37496 9.94071 5.37496 9.93807 5.37496C9.93542 5.37496 9.93277 5.37496 9.93012 5.37496C9.92746 5.37496 9.9248 5.37496 9.92214 5.37496C9.91948 5.37496 9.91682 5.37496 9.91415 5.37496C9.91148 5.37496 9.90881 5.37496 9.90614 5.37496C9.90346 5.37496 9.90079 5.37496 9.8981 5.37496C9.89542 5.37496 9.89274 5.37496 9.89005 5.37496C9.88736 5.37496 9.88467 5.37496 9.88198 5.37496C9.87928 5.37496 9.87658 5.37496 9.87388 5.37496C9.87118 5.37496 9.86847 5.37496 9.86577 5.37496C9.86306 5.37496 9.86035 5.37496 9.85763 5.37496C9.85492 5.37496 9.8522 5.37496 9.84948 5.37496C9.84676 5.37496 9.84403 5.37496 9.8413 5.37496C9.83857 5.37496 9.83584 5.37496 9.83311 5.37496C9.83037 5.37496 9.82764 5.37496 9.82489 5.37496C9.82215 5.37496 9.81941 5.37496 9.81666 5.37496C9.81391 5.37496 9.81116 5.37496 9.80841 5.37496C9.80565 5.37496 9.8029 5.37496 9.80014 5.37496C9.79738 5.37496 9.79461 5.37496 9.79185 5.37496C9.78908 5.37496 9.78631 5.37496 9.78354 5.37496C9.78076 5.37496 9.77799 5.37496 9.77521 5.37496C9.77243 5.37496 9.76964 5.37496 9.76686 5.37496C9.76407 5.37496 9.76128 5.37496 9.75849 5.37496C9.7557 5.37496 9.7529 5.37496 9.75011 5.37496C9.74731 5.37496 9.74451 5.37496 9.7417 5.37496C9.7389 5.37496 9.73609 5.37496 9.73328 5.37496C9.73047 5.37496 9.72766 5.37496 9.72484 5.37496C9.72202 5.37496 9.7192 5.37496 9.71638 5.37496C9.71356 5.37496 9.71073 5.37496 9.7079 5.37496C9.70507 5.37496 9.70224 5.37496 9.69941 5.37496C9.69657 5.37496 9.69373 5.37496 9.69089 5.37496C9.68805 5.37496 9.68521 5.37496 9.68236 5.37496C9.67952 5.37496 9.67667 5.37496 9.67381 5.37496C9.67096 5.37496 9.66811 5.37496 9.66525 5.37496C9.66239 5.37496 9.65953 5.37496 9.65666 5.37496C9.6538 5.37496 9.65093 5.37496 9.64806 5.37496C9.64519 5.37496 9.64232 5.37496 9.63944 5.37496C9.63657 5.37496 9.63369 5.37496 9.63081 5.37496C9.62793 5.37496 9.62504 5.37496 9.62216 5.37496C9.61927 5.37496 9.61638 5.37496 9.61349 5.37496C9.61059 5.37496 9.6077 5.37496 9.6048 5.37496C9.6019 5.37496 9.599 5.37496 9.5961 5.37496C9.59319 5.37496 9.59029 5.37496 9.58738 5.37496C9.58447 5.37496 9.58155 5.37496 9.57864 5.37496C9.57572 5.37496 9.57281 5.37496 9.56989 5.37496C9.56697 5.37496 9.56404 5.37496 9.56112 5.37496C9.55819 5.37496 9.55526 5.37496 9.55233 5.37496C9.5494 5.37496 9.54647 5.37496 9.54353 5.37496C9.54059 5.37496 9.53765 5.37496 9.53471 5.37496C9.53177 5.37496 9.52882 5.37496 9.52588 5.37496C9.52293 5.37496 9.51998 5.37496 9.51703 5.37496C9.51408 5.37496 9.51112 5.37496 9.50816 5.37496C9.5052 5.37496 9.50224 5.37496 9.49928 5.37496C9.49632 5.37496 9.49335 5.37496 9.49038 5.37496C9.48742 5.37496 9.48445 5.37496 9.48147 5.37496C9.4785 5.37496 9.47552 5.37496 9.47255 5.37496C9.46957 5.37496 9.46659 5.37496 9.4636 5.37496C9.46062 5.37496 9.45763 5.37496 9.45464 5.37496C9.45166 5.37496 9.44867 5.37496 9.44567 5.37496C9.44268 5.37496 9.43968 5.37496 9.43668 5.37496C9.43369 5.37496 9.43069 5.37496 9.42768 5.37496C9.42468 5.37496 9.42167 5.37496 9.41866 5.37496C9.41566 5.37496 9.41265 5.37496 9.40963 5.37496C9.40662 5.37496 9.4036 5.37496 9.40059 5.37496C9.39757 5.37496 9.39455 5.37496 9.39153 5.37496C9.3885 5.37496 9.38548 5.37496 9.38245 5.37496C9.37942 5.37496 9.37639 5.37496 9.37336 5.37496C9.37033 5.37496 9.3673 5.37496 9.36426 5.37496C9.36122 5.37496 9.35818 5.37496 9.35514 5.37496C9.3521 5.37496 9.34906 5.37496 9.34601 5.37496C9.34297 5.37496 9.33992 5.37496 9.33687 5.37496C9.33382 5.37496 9.33076 5.37496 9.32771 5.37496C9.32465 5.37496 9.3216 5.37496 9.31854 5.37496C9.31548 5.37496 9.31242 5.37496 9.30935 5.37496C9.30629 5.37496 9.30322 5.37496 9.30015 5.37496C9.29708 5.37496 9.29401 5.37496 9.29094 5.37496C9.28787 5.37496 9.28479 5.37496 9.28172 5.37496C9.27864 5.37496 9.27556 5.37496 9.27248 5.37496C9.2694 5.37496 9.26631 5.37496 9.26323 5.37496C9.26014 5.37496 9.25705 5.37496 9.25396 5.37496C9.25087 5.37496 9.24778 5.37496 9.24469 5.37496C9.24159 5.37496 9.2385 5.37496 9.2354 5.37496C9.2323 5.37496 9.2292 5.37496 9.2261 5.37496C9.22299 5.37496 9.21989 5.37496 9.21678 5.37496C9.21368 5.37496 9.21057 5.37496 9.20746 5.37496C9.20435 5.37496 9.20123 5.37496 9.19812 5.37496C9.195 5.37496 9.19189 5.37496 9.18877 5.37496C9.18565 5.37496 9.18253 5.37496 9.1794 5.37496C9.17628 5.37496 9.17316 5.37496 9.17003 5.37496C9.1669 5.37496 9.16377 5.37496 9.16064 5.37496C9.15751 5.37496 9.15438 5.37496 9.15125 5.37496C9.14811 5.37496 9.14498 5.37496 9.14184 5.37496C9.1387 5.37496 9.13556 5.37496 9.13242 5.37496C9.12927 5.37496 9.12613 5.37496 9.12298 5.37496C9.11984 5.37496 9.11669 5.37496 9.11354 5.37496C9.11039 5.37496 9.10724 5.37496 9.10409 5.37496C9.10093 5.37496 9.09778 5.37496 9.09462 5.37496C9.09146 5.37496 9.0883 5.37496 9.08514 5.37496C9.08198 5.37496 9.07882 5.37496 9.07566 5.37496C9.07249 5.37496 9.06933 5.37496 9.06616 5.37496C9.06299 5.37496 9.05982 5.37496 9.05665 5.37496C9.05348 5.37496 9.05031 5.37496 9.04713 5.37496C9.04396 5.37496 9.04078 5.37496 9.0376 5.37496C9.03442 5.37496 9.03124 5.37496 9.02806 5.37496C9.02488 5.37496 9.0217 5.37496 9.01851 5.37496C9.01533 5.37496 9.01214 5.37496 9.00895 5.37496C9.00576 5.37496 9.00257 5.37496 8.99938 5.37496C8.99619 5.37496 8.99299 5.37496 8.9898 5.37496C8.9866 5.37496 8.98341 5.37496 8.98021 5.37496C8.97701 5.37496 8.97381 5.37496 8.97061 5.37496C8.96741 5.37496 8.96421 5.37496 8.961 5.37496C8.9578 5.37496 8.95459 5.37496 8.95138 5.37496C8.94817 5.37496 8.94496 5.37496 8.94175 5.37496C8.93854 5.37496 8.93533 5.37496 8.93212 5.37496C8.9289 5.37496 8.92569 5.37496 8.92247 5.37496C8.91925 5.37496 8.91603 5.37496 8.91281 5.37496C8.90959 5.37496 8.90637 5.37496 8.90315 5.37496C8.89993 5.37496 8.8967 5.37496 8.89348 5.37496C8.89025 5.37496 8.88702 5.37496 8.88379 5.37496C8.88057 5.37496 8.87734 5.37496 8.8741 5.37496C8.87087 5.37496 8.86764 5.37496 8.8644 5.37496C8.86117 5.37496 8.85793 5.37496 8.8547 5.37496C8.85146 5.37496 8.84822 5.37496 8.84498 5.37496C8.84174 5.37496 8.8385 5.37496 8.83526 5.37496C8.83201 5.37496 8.82877 5.37496 8.82552 5.37496C8.82228 5.37496 8.81903 5.37496 8.81578 5.37496C8.81253 5.37496 8.80929 5.37496 8.80603 5.37496C8.80278 5.37496 8.79953 5.37496 8.79628 5.37496C8.79302 5.37496 8.78977 5.37496 8.78651 5.37496C8.78326 5.37496 8.78 5.37496 8.77674 5.37496C8.77348 5.37496 8.77022 5.37496 8.76696 5.37496C8.7637 5.37496 8.76044 5.37496 8.75718 5.37496C8.75391 5.37496 8.75065 5.37496 8.74738 5.37496C8.74412 5.37496 8.74085 5.37496 8.73758 5.37496C8.73431 5.37496 8.73105 5.37496 8.72777 5.37496C8.7245 5.37496 8.72123 5.37496 8.71796 5.37496C8.71469 5.37496 8.71141 5.37496 8.70814 5.37496C8.70486 5.37496 8.70159 5.37496 8.69831 5.37496C8.69503 5.37496 8.69175 5.37496 8.68847 5.37496C8.68519 5.37496 8.68191 5.37496 8.67863 5.37496C8.67535 5.37496 8.67207 5.37496 8.66878 5.37496C8.6655 5.37496 8.66222 5.37496 8.65893 5.37496C8.65564 5.37496 8.65236 5.37496 8.64907 5.37496C8.64578 5.37496 8.64249 5.37496 8.6392 5.37496C8.63591 5.37496 8.63262 5.37496 8.62933 5.37496C8.62604 5.37496 8.62274 5.37496 8.61945 5.37496C8.61616 5.37496 8.61286 5.37496 8.60957 5.37496C8.60627 5.37496 8.60297 5.37496 8.59968 5.37496C8.59638 5.37496 8.59308 5.37496 8.58978 5.37496C8.58648 5.37496 8.58318 5.37496 8.57988 5.37496C8.57658 5.37496 8.57327 5.37496 8.56997 5.37496C8.56667 5.37496 8.56336 5.37496 8.56006 5.37496C8.55675 5.37496 8.55345 5.37496 8.55014 5.37496C8.54683 5.37496 8.54353 5.37496 8.54022 5.37496C8.53691 5.37496 8.5336 5.37496 8.53029 5.37496C8.52698 5.37496 8.52367 5.37496 8.52036 5.37496C8.51705 5.37496 8.51373 5.37496 8.51042 5.37496C8.50711 5.37496 8.50379 5.37496 8.50048 5.37496C8.49716 5.37496 8.49385 5.37496 8.49053 5.37496C8.48722 5.37496 8.4839 5.37496 8.48058 5.37496C8.47726 5.37496 8.47394 5.37496 8.47063 5.37496C8.46731 5.37496 8.46399 5.37496 8.46067 5.37496C8.45735 5.37496 8.45402 5.37496 8.4507 5.37496C8.44738 5.37496 8.44406 5.37496 8.44073 5.37496C8.43741 5.37496 8.43409 5.37496 8.43076 5.37496C8.42744 5.37496 8.42411 5.37496 8.42079 5.37496C8.41746 5.37496 8.41413 5.37496 8.41081 5.37496C8.40748 5.37496 8.40415 5.37496 8.40082 5.37496C8.3975 5.37496 8.39417 5.37496 8.39084 5.37496C8.38751 5.37496 8.38418 5.37496 8.38085 5.37496C8.37752 5.37496 8.37419 5.37496 8.37085 5.37496C8.36752 5.37496 8.36419 5.37496 8.36086 5.37496C8.35753 5.37496 8.35419 5.37496 8.35086 5.37496C8.34752 5.37496 8.34419 5.37496 8.34086 5.37496C8.33752 5.37496 8.33419 5.37496 8.33085 5.37496C8.32751 5.37496 8.32418 5.37496 8.32084 5.37496C8.31751 5.37496 8.31417 5.37496 8.31083 5.37496C8.30749 5.37496 8.30416 5.37496 8.30082 5.37496C8.29748 5.37496 8.29414 5.37496 8.2908 5.37496C8.28746 5.37496 8.28412 5.37496 8.28078 5.37496C8.27744 5.37496 8.2741 5.37496 8.27076 5.37496C8.26742 5.37496 8.26408 5.37496 8.26074 5.37496C8.2574 5.37496 8.25406 5.37496 8.25071 5.37496C8.24737 5.37496 8.24403 5.37496 8.24069 5.37496C8.23734 5.37496 8.234 5.37496 8.23066 5.37496C8.22731 5.37496 8.22397 5.37496 8.22063 5.37496C8.21728 5.37496 8.21394 5.37496 8.2106 5.37496C8.20725 5.37496 8.20391 5.37496 8.20056 5.37496C8.19722 5.37496 8.19387 5.37496 8.19053 5.37496C8.18718 5.37496 8.18384 5.37496 8.18049 5.37496C8.17714 5.37496 8.1738 5.37496 8.17045 5.37496C8.16711 5.37496 8.16376 5.37496 8.16041 5.37496C8.15707 5.37496 8.15372 5.37496 8.15037 5.37496C8.14703 5.37496 8.14368 5.37496 8.14033 5.37496C8.13698 5.37496 8.13364 5.37496 8.13029 5.37496C8.12694 5.37496 8.12359 5.37496 8.12025 5.37496C8.1169 5.37496 8.11355 5.37496 8.1102 5.37496C8.10686 5.37496 8.10351 5.37496 8.10016 5.37496C8.09681 5.37496 8.09346 5.37496 8.09012 5.37496C8.08677 5.37496 8.08342 5.37496 8.08007 5.37496C8.07672 5.37496 8.07338 5.37496 8.07003 5.37496C8.06668 5.37496 8.06333 5.37496 8.05998 5.37496C8.05664 5.37496 8.05329 5.37496 8.04994 5.37496C8.04659 5.37496 8.04324 5.37496 8.03989 5.37496C8.03655 5.37496 8.0332 5.37496 8.02985 5.37496C8.0265 5.37496 8.02315 5.37496 8.01981 5.37496C8.01646 5.37496 8.01311 5.37496 8.00976 5.37496C8.00641 5.37496 8.00307 5.37496 7.99972 5.37496C7.99637 5.37496 7.99302 5.37496 7.98968 5.37496C7.98633 5.37496 7.98298 5.37496 7.97964 5.37496C7.97629 5.37496 7.97294 5.37496 7.9696 5.37496C7.96625 5.37496 7.9629 5.37496 7.95956 5.37496C7.95621 5.37496 7.95286 5.37496 7.94952 5.37496C7.94617 5.37496 7.94282 5.37496 7.93948 5.37496C7.93613 5.37496 7.93279 5.37496 7.92944 5.37496C7.9261 5.37496 7.92275 5.37496 7.91941 5.37496C7.91606 5.37496 7.91272 5.37496 7.90937 5.37496C7.90603 5.37496 7.90269 5.37496 7.89934 5.37496C7.896 5.37496 7.89266 5.37496 7.88931 5.37496C7.88597 5.37496 7.88263 5.37496 7.87928 5.37496C7.87594 5.37496 7.8726 5.37496 7.86926 5.37496C7.86592 5.37496 7.86257 5.37496 7.85923 5.37496C7.85589 5.37496 7.85255 5.37496 7.84921 5.37496C7.84587 5.37496 7.84253 5.37496 7.83919 5.37496C7.83585 5.37496 7.83251 5.37496 7.82917 5.37496C7.82583 5.37496 7.8225 5.37496 7.81916 5.37496C7.81582 5.37496 7.81248 5.37496 7.80914 5.37496C7.80581 5.37496 7.80247 5.37496 7.79913 5.37496C7.7958 5.37496 7.79246 5.37496 7.78913 5.37496C7.78579 5.37496 7.78246 5.37496 7.77912 5.37496C7.77579 5.37496 7.77245 5.37496 7.76912 5.37496C7.76579 5.37496 7.76245 5.37496 7.75912 5.37496C7.75579 5.37496 7.75246 5.37496 7.74913 5.37496C7.74579 5.37496 7.74246 5.37496 7.73913 5.37496C7.7358 5.37496 7.73247 5.37496 7.72914 5.37496C7.72582 5.37496 7.72249 5.37496 7.71916 5.37496C7.71583 5.37496 7.7125 5.37496 7.70918 5.37496C7.70585 5.37496 7.70252 5.37496 7.6992 5.37496C7.69587 5.37496 7.69255 5.37496 7.68922 5.37496C7.6859 5.37496 7.68258 5.37496 7.67925 5.37496C7.67593 5.37496 7.67261 5.37496 7.66929 5.37496C7.66596 5.37496 7.66264 5.37496 7.65932 5.37496C7.656 5.37496 7.65268 5.37496 7.64937 5.37496C7.64605 5.37496 7.64273 5.37496 7.63941 5.37496C7.63609 5.37496 7.63278 5.37496 7.62946 5.37496C7.62615 5.37496 7.62283 5.37496 7.61952 5.37496C7.6162 5.37496 7.61289 5.37496 7.60958 5.37496C7.60626 5.37496 7.60295 5.37496 7.59964 5.37496C7.59633 5.37496 7.59302 5.37496 7.58971 5.37496C7.5864 5.37496 7.58309 5.37496 7.57978 5.37496C7.57647 5.37496 7.57317 5.37496 7.56986 5.37496C7.56655 5.37496 7.56325 5.37496 7.55994 5.37496C7.55664 5.37496 7.55334 5.37496 7.55003 5.37496C7.54673 5.37496 7.54343 5.37496 7.54013 5.37496C7.53683 5.37496 7.53353 5.37496 7.53023 5.37496C7.52693 5.37496 7.52363 5.37496 7.52033 5.37496C7.51704 5.37496 7.51374 5.37496 7.51044 5.37496C7.50715 5.37496 7.50385 5.37496 7.50056 5.37496C7.49727 5.37496 7.49398 5.37496 7.49068 5.37496C7.48739 5.37496 7.4841 5.37496 7.48081 5.37496C7.47752 5.37496 7.47424 5.37496 7.47095 5.37496C7.46766 5.37496 7.46437 5.37496 7.46109 5.37496C7.4578 5.37496 7.45452 5.37496 7.45124 5.37496C7.44795 5.37496 7.44467 5.37496 7.44139 5.37496C7.43811 5.37496 7.43483 5.37496 7.43155 5.37496C7.42827 5.37496 7.42499 5.37496 7.42172 5.37496C7.41844 5.37496 7.41516 5.37496 7.41189 5.37496C7.40861 5.37496 7.40534 5.37496 7.40207 5.37496C7.3988 5.37496 7.39553 5.37496 7.39226 5.37496C7.38899 5.37496 7.38572 5.37496 7.38245 5.37496C7.37918 5.37496 7.37592 5.37496 7.37265 5.37496C7.36939 5.37496 7.36612 5.37496 7.36286 5.37496C7.3596 5.37496 7.35634 5.37496 7.35308 5.37496C7.34982 5.37496 7.34656 5.37496 7.3433 5.37496C7.34004 5.37496 7.33678 5.37496 7.33353 5.37496V6.62496ZM8.56641 9.95829C10.0395 9.95829 11.4693 8.67272 11.8459 6.78918L10.6202 6.54408C10.3303 7.99387 9.30243 8.70829 8.56641 8.70829V9.95829ZM11.8459 6.78918C12.0321 5.85807 11.9841 4.7561 11.7253 3.867C11.5961 3.42279 11.4023 2.98998 11.1219 2.65567C10.8351 2.3136 10.4248 2.04163 9.89974 2.04163V3.29163C9.9532 3.29163 10.0404 3.31132 10.1641 3.45884C10.2943 3.6141 10.424 3.8688 10.5251 4.21625C10.7271 4.91049 10.7673 5.80852 10.6202 6.54408L11.8459 6.78918ZM9.89974 2.04163H6.00011V3.29163H9.89974V2.04163ZM8.56641 8.70829H7.33345V9.95829H8.56641V8.70829Z" fill="#7A7D85"/>
</svg>
