<svg width="24" height="24" viewBox="0 0 24 24" fill="none" xmlns="http://www.w3.org/2000/svg">
<path d="M9.05822 20.363C6.15502 20.3462 3.75354 14.4198 3.75354 11.4016C3.75354 6.47141 7.45203 5.39205 8.8774 5.39205C9.51976 5.39205 10.2057 5.64431 10.8106 5.86753C11.2337 6.02324 11.6712 6.18399 11.9146 6.18399C12.0602 6.18399 12.4035 6.04725 12.7065 5.92727C13.3528 5.66999 14.157 5.35022 15.0935 5.35022C15.0951 5.35022 15.0974 5.35022 15.099 5.35022C15.7983 5.35022 17.9185 5.50368 19.1932 7.41795L19.4918 7.86664L19.0621 8.19091C18.4482 8.65412 17.3281 9.49908 17.3281 11.1728C17.3281 13.1552 18.5966 13.9175 19.2061 14.2842C19.4751 14.4461 19.7535 14.6129 19.7535 14.9779C19.7535 15.2162 17.8515 20.3334 15.0895 20.3334C14.4137 20.3334 13.936 20.1302 13.5146 19.9511C13.0882 19.7697 12.7204 19.6135 12.1126 19.6135C11.8046 19.6135 11.415 19.7591 11.0026 19.9137C10.439 20.1241 9.80105 20.363 9.0772 20.363H9.05822Z" fill="#7A7A91"/>
<path d="M15.386 0.856079C15.458 3.44973 13.6031 5.24908 11.7504 5.13623C11.4451 3.06641 13.6029 0.856079 15.386 0.856079Z" fill="#7A7A91"/>
</svg>
