<svg xmlns="http://www.w3.org/2000/svg" width="24" height="24" viewBox="0 0 24 24">
  <path fill="#080833" fill-opacity=".54" d="M10,18 C14.418278,18 18,14.418278 18,10 C18,5.581722 14.418278,2 10,2 C5.581722,2 2,5.581722 2,10 C2,14.418278 5.581722,18 10,18 Z M10,-1.97215226e-31 C12.6521649,-2.22044605e-16 15.195704,1.0535684 17.0710678,2.92893219 C18.9464316,4.80429597 20,7.3478351 20,10 C20,15.5228475 15.5228475,20 10,20 C4.47,20 0,15.5 0,10 C-8.8817842e-16,4.4771525 4.4771525,8.8817842e-16 10,-4.4408921e-16 Z M10.5,5 L10.5,10.25 L15,12.92 L14.25,14.15 L9,11 L9,5 L10.5,5 Z" transform="translate(2 2)"/>
</svg>
