<svg width="24" height="24" viewBox="0 0 24 24" fill="none" xmlns="http://www.w3.org/2000/svg">
<path d="M19 9H14V11H19V9Z" fill="#080833" fill-opacity="0.54"/>
<path d="M19 13H14V15H19V13Z" fill="#080833" fill-opacity="0.54"/>
<path fill-rule="evenodd" clip-rule="evenodd" d="M3 4C1.89543 4 1 4.89543 1 6V18C1 19.1046 1.89543 20 3 20H21C22.1046 20 23 19.1046 23 18V6C23 4.89543 22.1046 4 21 4H3ZM12 6H20C20.5523 6 21 6.44772 21 7V17C21 17.5523 20.5523 18 20 18H12V6Z" fill="#080833" fill-opacity="0.54"/>
</svg>
