<svg width="24" height="24" viewBox="0 0 24 24" fill="none" xmlns="http://www.w3.org/2000/svg">
<g clip-path="url(#clip0_2336_21278)">
<path d="M8.49641 1.56903C7.86838 1.65807 7.30765 1.95797 6.82317 2.45468C6.07402 3.21849 5.76001 3.9823 5.76001 5.01789C5.76001 6.60643 6.59887 8.17623 8.49641 10.149C8.82837 10.4958 9.30387 10.9597 9.5506 11.1752C10.0799 11.6345 11.2104 12.5295 11.6679 12.8434L11.9954 13.0684L12.2421 12.909C12.5965 12.6841 13.7315 11.7938 14.3595 11.2455C15.0458 10.6504 16.1808 9.46018 16.6608 8.83695C17.7329 7.43116 18.2353 6.23156 18.2398 5.04132C18.2443 4.44152 18.1546 4.02916 17.9168 3.51839C17.4727 2.55777 16.7325 1.88768 15.8533 1.63932C15.2432 1.47063 14.4582 1.55498 13.8616 1.85488C13.3322 2.11729 12.5696 2.82487 12.2063 3.38718C12.1031 3.54651 12.0044 3.6824 11.9864 3.6824C11.973 3.6824 11.9057 3.58399 11.8384 3.46684C11.5603 2.97013 10.6586 2.11729 10.1427 1.85956C9.64032 1.61121 9.00332 1.49875 8.49641 1.56903Z" fill="#FF3366"/>
<path d="M7.2449 15.0432C6.19354 15.2051 5.60684 15.502 4.14244 16.6267C3.52758 17.1035 3.01597 17.4994 3.01128 17.5039C3.01128 17.5084 2.42458 17.5219 1.71585 17.5354C0.584692 17.5579 0.406335 17.5714 0.293689 17.6434C0.00268576 17.8233 0.0120729 17.7603 0.00268576 19.9602C-0.00670143 22.106 -0.00200783 22.1555 0.227978 22.3939C0.284301 22.4524 0.415722 22.5379 0.518981 22.5829C0.697338 22.6638 1.00712 22.6683 7.92078 22.6683C12.7411 22.6683 15.2522 22.6503 15.5009 22.6189C15.9797 22.5604 16.6884 22.3264 17.1202 22.088C17.5567 21.8496 23.5129 17.2925 23.7194 17.0406C24.2451 16.3928 24.0057 15.466 23.2219 15.1197C22.9027 14.9802 22.4146 14.9892 22.0861 15.1466C21.9687 15.2006 20.9878 15.9249 19.9035 16.7571C18.8193 17.5894 17.8055 18.3497 17.6506 18.4486C17.5004 18.5431 17.2235 18.6646 17.0404 18.7185C16.7213 18.8175 16.6509 18.8175 13.9427 18.822C11.3612 18.822 11.1641 18.8175 11.0186 18.741C10.5727 18.5071 10.5727 17.8773 11.0186 17.6434C11.1594 17.5714 11.3612 17.5624 13.0743 17.5399C14.8814 17.5174 14.9846 17.5129 15.1912 17.4229C15.7121 17.189 15.9844 16.7931 15.9844 16.2533C15.9844 15.727 15.7075 15.3221 15.1912 15.0927C14.9799 14.9982 14.9283 14.9982 11.3142 14.9892C8.423 14.9847 7.56876 14.9982 7.2449 15.0432Z" fill="#7A7D85"/>
</g>
</svg>
