<svg width="24" height="24" viewBox="0 0 24 24" fill="none" xmlns="http://www.w3.org/2000/svg">
<path d="M19 5H5V9H3V5C3 3.89543 3.89543 3 5 3H19C20.1046 3 21 3.89543 21 5V19C21 20.1046 20.1046 21 19 21H5C3.89543 21 3 20.1046 3 19V15H5V19H19V5Z" fill="#080833" fill-opacity="0.54"/>
<path d="M11.7071 7.29289C11.3166 6.90237 10.6834 6.90237 10.2929 7.29289C9.90237 7.68342 9.90237 8.31658 10.2929 8.70711L12.5858 11H2C1.44772 11 1 11.4477 1 12C1 12.5523 1.44772 13 2 13H12.5858L10.2929 15.2929C9.90237 15.6834 9.90237 16.3166 10.2929 16.7071C10.6834 17.0976 11.3166 17.0976 11.7071 16.7071L16.4142 12L11.7071 7.29289Z" fill="#080833" fill-opacity="0.54"/>
</svg>
