<svg width="24" height="24" viewBox="0 0 24 24" fill="none" xmlns="http://www.w3.org/2000/svg">
<path fill-rule="evenodd" clip-rule="evenodd" d="M4.35135 3.08716L7.29117 6.02697C8.56822 5.40794 10.1222 4.99991 12 4.99991C19.7778 4.99991 22 11.9999 22 11.9999C22 11.9999 21.0642 14.9477 18.2817 17.0175L20.8023 19.5381L19.3384 21.0021L18.3751 20.0389L18.4142 19.9999L2.92643 4.51208L4.35135 3.08716ZM9.15315 7.88896L10.6066 9.34244C11.023 9.12369 11.497 8.99992 12 8.99992C13.6569 8.99992 15 10.3431 15 11.9999C15 12.5029 14.8762 12.9769 14.6575 13.3933L16.111 14.8468C16.6715 14.0388 17 13.0577 17 11.9999C17 9.23849 14.7614 6.99991 12 6.99991C10.9422 6.99991 9.96108 7.32841 9.15315 7.88896Z" fill="white" fill-opacity="0.7"/>
<path d="M14.3536 18.7677L12.5553 16.9694C12.373 16.9896 12.1877 16.9999 12 16.9999C9.23858 16.9999 7 14.7613 7 11.9999C7 11.8122 7.01034 11.6269 7.03049 11.4446L4.0845 8.49858C2.55584 10.249 2 11.9999 2 11.9999C2 11.9999 4.22222 18.9999 12 18.9999C12.8493 18.9999 13.6324 18.9164 14.3536 18.7677Z" fill="white" fill-opacity="0.7"/>
</svg>
