<?xml version="1.0" encoding="UTF-8" standalone="no"?>
<svg width="24px" height="24px" viewBox="0 0 24 24" version="1.1" xmlns="http://www.w3.org/2000/svg" xmlns:xlink="http://www.w3.org/1999/xlink">
    <!-- Generator: Sketch 42 (36781) - http://www.bohemiancoding.com/sketch -->
    <title>uEA03-gplus</title>
    <desc>Created with Sketch.</desc>
    <defs></defs>
    <g id="Icons" stroke="none" stroke-width="1" fill="none" fill-rule="evenodd">
        <g id="uEA03-gplus" fill="#5D6874">
            <path d="M1.01761829,12.0059069 C1.07471244,8.58643042 4.21511652,5.59164944 7.63106194,5.70572988 C9.26761054,5.62982686 10.806219,6.34277313 12.059808,7.34419609 C11.5249734,7.9525498 10.970957,8.53899103 10.3788027,9.08725485 C8.87201351,8.04449186 6.72861326,7.7467532 5.22182409,8.95103603 C3.0657864,10.4435696 2.96784623,13.9676387 5.04128922,15.5742527 C7.05786373,17.4060909 10.8696319,16.4963841 11.4268076,13.6918125 C10.1635148,13.6728367 8.89728839,13.6918125 7.6342213,13.6506984 C7.63106194,12.896412 7.62790258,12.1421257 7.63106194,11.3878394 C9.74264292,11.3815142 11.8542239,11.3783515 13.9689642,11.3941647 C14.0955643,13.1688497 13.8613203,15.0576152 12.7722437,16.5250736 C11.122832,18.8480225 7.81137114,19.5261799 5.22814281,18.5310822 C2.6354364,17.5423097 0.799171098,14.8009906 1.01761829,12.0059069 Z M18.0099798,9.5 L19.9933468,9.5 C19.9966734,10.164105 20,10.8313023 20.0066532,11.4954073 C20.6700725,11.5020674 21.3365807,11.5020674 22,11.5087275 L22,13.4941447 C21.3365807,13.5008048 20.6733991,13.5041348 20.0066532,13.5107949 C20,14.17823 19.9966734,14.842335 19.9933468,15.5062022 L18.0066532,15.5062022 C18,14.842335 18,14.17823 17.9933468,13.5141249 C17.3299275,13.5074648 16.6631817,13.5008048 16,13.4941447 L16,11.5087275 C16.6631817,11.5020674 17.3266009,11.4987374 17.9933468,11.4954073 C17.9966734,10.8279722 18.0033266,10.164105 18.0099798,9.5 Z"></path>
        </g>
    </g>
</svg>
