<svg width="25" height="24" viewBox="0 0 25 24" fill="none" xmlns="http://www.w3.org/2000/svg">
<path fill-rule="evenodd" clip-rule="evenodd" d="M7.6001 12C7.6001 13.6569 6.25695 15 4.6001 15C2.94324 15 1.6001 13.6569 1.6001 12C1.6001 10.3431 2.94324 9 4.6001 9C6.25695 9 7.6001 10.3431 7.6001 12ZM15.6001 12C15.6001 13.6569 14.257 15 12.6001 15C10.9432 15 9.6001 13.6569 9.6001 12C9.6001 10.3431 10.9432 9 12.6001 9C14.257 9 15.6001 10.3431 15.6001 12ZM20.6001 15C22.257 15 23.6001 13.6569 23.6001 12C23.6001 10.3431 22.257 9 20.6001 9C18.9432 9 17.6001 10.3431 17.6001 12C17.6001 13.6569 18.9432 15 20.6001 15Z" fill="#5D52D4"/>
</svg>
