<svg xmlns="http://www.w3.org/2000/svg" width="24" height="24" viewBox="0 0 24 24">
  <g fill="#1BDEAD" fill-rule="evenodd">
    <path fill-rule="nonzero" d="M11.5,19.5 C16.1421356,19.5 19.5,16.1421356 19.5,11.5 C19.5,7.67431577 15.9390381,4.5 11.5,4.5 C7.85786438,4.5 4.5,7.85786438 4.5,11.5 C4.5,15.9390381 7.67431577,19.5 11.5,19.5 Z M11.5,20.5 C7.09478885,20.5 3.5,16.4673495 3.5,11.5 C3.5,7.30557963 7.30557963,3.5 11.5,3.5 C16.4673495,3.5 20.5,7.09478885 20.5,11.5 C20.5,16.6944204 16.6944204,20.5 11.5,20.5 Z"/>
    <path d="M7,11.5 C7,14.6138937 9.31231441,17 12.5,17 C14.8613343,17 17,14.4261648 17,11.5 C17,11.2238576 16.7761424,11 16.5,11 C16.2238576,11 16,11.2238576 16,11.5 C16,13.9105912 14.2638566,16 12.5,16 C9.87175105,16 8,14.0685166 8,11.5 C8,11.2238576 7.77614237,11 7.5,11 C7.22385763,11 7,11.2238576 7,11.5 Z"/>
    <ellipse cx="10" cy="9.014" rx="1" ry="1.014"/>
    <ellipse cx="14" cy="9.014" rx="1" ry="1.014"/>
  </g>
</svg>
