<svg xmlns="http://www.w3.org/2000/svg" width="24" height="24" viewBox="0 0 24 24">
  <g fill="#2FCBEB" fill-rule="evenodd">
    <path fill-rule="nonzero" d="M12,20.5 C7.30557963,20.5 3.5,16.6944204 3.5,12 C3.5,7.30557963 7.30557963,3.5 12,3.5 C16.6944204,3.5 20.5,7.30557963 20.5,12 C20.5,16.6944204 16.6944204,20.5 12,20.5 Z M12,19.5 C16.1421356,19.5 19.5,16.1421356 19.5,12 C19.5,7.85786438 16.1421356,4.5 12,4.5 C7.85786438,4.5 4.5,7.85786438 4.5,12 C4.5,16.1421356 7.85786438,19.5 12,19.5 Z"/>
    <path d="M7,11.5 C7,11.2238576 7.22385763,11 7.5,11 C7.77614237,11 8,11.2238576 8,11.5 C8,13.9852814 10.0147186,16 12.5,16 C12.7761424,16 13,16.2238576 13,16.5 C13,16.7761424 12.7761424,17 12.5,17 C9.46243388,17 7,14.5375661 7,11.5 Z M10,10.0277778 C9.44771525,10.0277778 9,9.57384426 9,9.01388889 C9,8.45393352 9.44771525,8 10,8 C10.5522847,8 11,8.45393352 11,9.01388889 C11,9.57384426 10.5522847,10.0277778 10,10.0277778 Z M14,10.0277778 C13.4477153,10.0277778 13,9.57384426 13,9.01388889 C13,8.45393352 13.4477153,8 14,8 C14.5522847,8 15,8.45393352 15,9.01388889 C15,9.57384426 14.5522847,10.0277778 14,10.0277778 Z"/>
  </g>
</svg>
