<svg xmlns="http://www.w3.org/2000/svg" width="24" height="24" viewBox="0 0 24 24">
  <g fill="#23D96F" fill-rule="evenodd">
    <path fill-rule="nonzero" d="M11.9780822,3.5 C16.5955061,3.5 20.3465753,7.30316739 20.3465753,11.9777778 C20.3465753,16.6523882 16.5955061,20.4555556 11.9780822,20.4555556 C7.36065825,20.4555556 3.60958904,16.6523882 3.60958904,11.9777778 C3.60958904,7.30316739 7.36065825,3.5 11.9780822,3.5 Z M11.9780822,4.5 C7.91605408,4.5 4.60958904,7.85238816 4.60958904,11.9777778 C4.60958904,16.1031674 7.91605408,19.4555556 11.9780822,19.4555556 C16.0401103,19.4555556 19.3465753,16.1031674 19.3465753,11.9777778 C19.3465753,7.85238816 16.0401103,4.5 11.9780822,4.5 Z"/>
    <path d="M10,10.0277778 C9.44771525,10.0277778 9,9.57384426 9,9.01388889 C9,8.45393352 9.44771525,8 10,8 C10.5522847,8 11,8.45393352 11,9.01388889 C11,9.57384426 10.5522847,10.0277778 10,10.0277778 Z M14,10.0277778 C13.4477153,10.0277778 13,9.57384426 13,9.01388889 C13,8.45393352 13.4477153,8 14,8 C14.5522847,8 15,8.45393352 15,9.01388889 C15,9.57384426 14.5522847,10.0277778 14,10.0277778 Z M12,17 C9.58104209,17 7.56328845,15.2822403 7.10001812,13 L16.8999819,13 C16.4367116,15.2822403 14.4189579,17 12,17 Z"/>
  </g>
</svg>
