<svg xmlns="http://www.w3.org/2000/svg" width="24" height="24" viewBox="0 0 24 24">
  <g fill="none" fill-rule="evenodd">
    <path fill="#F0A511" fill-rule="nonzero" d="M12,20.5 C7.30557963,20.5 3.5,16.6944204 3.5,12 C3.5,7.30557963 7.30557963,3.5 12,3.5 C16.6944204,3.5 20.5,7.30557963 20.5,12 C20.5,16.6944204 16.6944204,20.5 12,20.5 Z M12,19.5 C16.1421356,19.5 19.5,16.1421356 19.5,12 C19.5,7.85786438 16.1421356,4.5 12,4.5 C7.85786438,4.5 4.5,7.85786438 4.5,12 C4.5,16.1421356 7.85786438,19.5 12,19.5 Z"/>
    <path fill="#F2A600" d="M16,15 C16.0691605,15.5010992 15.9878198,15.8010403 16,16 C15.5208099,16.0697876 15.2235642,15.9877094 15,16 C14.4802429,14.6724869 13.299965,13.9822672 12,14 C10.6893855,13.9822672 9.52352613,14.6568434 9,16 C8.77316039,15.9635563 8.47536213,16.043569 8,16 C8.01019562,15.7715858 7.93090192,15.4710872 8,15 C8.85576117,13.8605053 10.3429589,13 12,13 C13.6492125,13 15.1524502,13.8790847 16,15 Z M10,10 C9.44771525,10 9,9.55228475 9,9 C9,8.44771525 9.44771525,8 10,8 C10.5522847,8 11,8.44771525 11,9 C11,9.55228475 10.5522847,10 10,10 Z M14,10 C13.4477153,10 13,9.55228475 13,9 C13,8.44771525 13.4477153,8 14,8 C14.5522847,8 15,8.44771525 15,9 C15,9.55228475 14.5522847,10 14,10 Z"/>
  </g>
</svg>
