<svg xmlns="http://www.w3.org/2000/svg" width="24" height="24" viewBox="0 0 24 24">
  <g fill="#FF1744" fill-rule="evenodd">
    <path fill-rule="nonzero" d="M12,20.5 C7.30557963,20.5 3.5,16.6944204 3.5,12 C3.5,7.30557963 7.30557963,3.5 12,3.5 C16.6944204,3.5 20.5,7.30557963 20.5,12 C20.5,16.6944204 16.6944204,20.5 12,20.5 Z M12,19.5 C16.1421356,19.5 19.5,16.1421356 19.5,12 C19.5,7.85786438 16.1421356,4.5 12,4.5 C7.85786438,4.5 4.5,7.85786438 4.5,12 C4.5,16.1421356 7.85786438,19.5 12,19.5 Z"/>
    <path d="M13.5743259,9.09617992 C13.2349151,9.25829967 13,9.60827958 13,10.0138889 C13,10.5738443 13.4477153,11.0277778 14,11.0277778 C14.5522847,11.0277778 15,10.5738443 15,10.0138889 C15,9.93966531 14.9921335,9.86730456 14.9771998,9.79761691 L15.2763932,9.9472136 C15.5233825,10.0707082 15.823719,9.97059605 15.9472136,9.7236068 C16.0707082,9.47661755 15.970596,9.17628103 15.7236068,9.0527864 L13.7236068,8.0527864 C13.4766175,7.92929178 13.176281,8.02940395 13.0527864,8.2763932 C12.9292918,8.52338245 13.029404,8.82371897 13.2763932,8.9472136 L13.5743259,9.09617992 Z M9.02280017,9.79761691 C9.00786645,9.86730456 9,9.93966531 9,10.0138889 C9,10.5738443 9.44771525,11.0277778 10,11.0277778 C10.5522847,11.0277778 11,10.5738443 11,10.0138889 C11,9.60827958 10.7650849,9.25829967 10.4256741,9.09617992 L10.7236068,8.9472136 C10.970596,8.82371897 11.0707082,8.52338245 10.9472136,8.2763932 C10.823719,8.02940395 10.5233825,7.92929178 10.2763932,8.0527864 L8.2763932,9.0527864 C8.02940395,9.17628103 7.92929178,9.47661755 8.0527864,9.7236068 C8.17628103,9.97059605 8.47661755,10.0707082 8.7236068,9.9472136 L9.02280017,9.79761691 Z M8,17 C8,14.790861 9.790861,13 12,13 C14.209139,13 16,14.790861 16,17 C16,17.0092417 16.0000626,17.2308999 16,17.2401268 C16.0000014,17.2250662 15.5217358,17.4435442 15.5,17 C15.4434527,15.8460859 13.1889255,15.5 12,15.5 C10.9378764,15.5 8.57970217,15.9500899 8.5,17 C8.4678108,17.4240257 8.00012648,17.383917 8.00009392,17.0277029 C8.00003134,17.018476 8,17.0092417 8,17 Z"/>
  </g>
</svg>
