<svg xmlns="http://www.w3.org/2000/svg" width="24" height="24" viewBox="0 0 24 24">
  <g fill="none" fill-rule="evenodd">
    <path fill="#448AFF" fill-rule="nonzero" d="M11.5,19.5 C16.1421356,19.5 19.5,16.1421356 19.5,11.5 C19.5,7.67431577 15.9390381,4.5 11.5,4.5 C7.85786438,4.5 4.5,7.85786438 4.5,11.5 C4.5,15.9390381 7.67431577,19.5 11.5,19.5 Z M11.5,20.5 C7.09478885,20.5 3.5,16.4673495 3.5,11.5 C3.5,7.30557963 7.30557963,3.5 11.5,3.5 C16.4673495,3.5 20.5,7.09478885 20.5,11.5 C20.5,16.6944204 16.6944204,20.5 11.5,20.5 Z"/>
    <path fill="#3F87FF" d="M10,10 C9.44771525,10 9,9.55228475 9,9 C9,8.44771525 9.44771525,8 10,8 C10.5522847,8 11,8.44771525 11,9 C11,9.55228475 10.5522847,10 10,10 Z M14,10 C13.4477153,10 13,9.55228475 13,9 C13,8.44771525 13.4477153,8 14,8 C14.5522847,8 15,8.44771525 15,9 C15,9.55228475 14.5522847,10 14,10 Z M9.41326858,15.1826416 C9.18742259,15.0237448 9.13314957,14.7118491 9.29204639,14.4860031 C9.45094321,14.2601571 9.76283888,14.2058841 9.98868487,14.3647809 C10.5732446,14.7760554 11.2691691,15 12,15 C12.7340496,15 13.4328645,14.7740696 14.0189221,14.3594138 C14.244346,14.1999187 14.5563845,14.2533645 14.7158796,14.4787884 C14.8753747,14.7042123 14.8219289,15.0162508 14.596505,15.1757459 C13.8429074,15.7089419 12.9426491,16 12,16 C11.0614905,16 10.1649543,15.7114996 9.41326858,15.1826416 Z"/>
  </g>
</svg>
