<svg xmlns="http://www.w3.org/2000/svg" width="24" height="24" viewBox="0 0 24 24">
  <g fill="#F04826" fill-rule="evenodd">
    <path fill-rule="nonzero" d="M12,20.5 C7.30557963,20.5 3.5,16.6944204 3.5,12 C3.5,7.30557963 7.30557963,3.5 12,3.5 C16.6944204,3.5 20.5,7.30557963 20.5,12 C20.5,16.6944204 16.6944204,20.5 12,20.5 Z M12,19.5 C16.1421356,19.5 19.5,16.1421356 19.5,12 C19.5,7.85786438 16.1421356,4.5 12,4.5 C7.85786438,4.5 4.5,7.85786438 4.5,12 C4.5,16.1421356 7.85786438,19.5 12,19.5 Z"/>
    <path d="M10,10.0277778 C9.44771525,10.0277778 9,9.57384426 9,9.01388889 C9,8.45393352 9.44771525,8 10,8 C10.5522847,8 11,8.45393352 11,9.01388889 C11,9.57384426 10.5522847,10.0277778 10,10.0277778 Z M14,10.0277778 C13.4477153,10.0277778 13,9.57384426 13,9.01388889 C13,8.45393352 13.4477153,8 14,8 C14.5522847,8 15,8.45393352 15,9.01388889 C15,9.57384426 14.5522847,10.0277778 14,10.0277778 Z M8,14 C7.72385763,14 7.5,13.7761424 7.5,13.5 C7.5,13.2238576 7.72385763,13 8,13 C8.53218383,13 8.80250564,13.2027414 9.19043457,13.6876526 C9.40250557,13.9527414 9.46551707,14 9.6,14 C9.73448296,14 9.7974945,13.9527413 10.0095656,13.6876525 C10.3974945,13.2027413 10.6678163,13 11.2,13 C11.7321837,13 12.0025055,13.2027413 12.3904344,13.6876525 C12.6025055,13.9527413 12.665517,14 12.8,14 C12.934483,14 12.9974945,13.9527413 13.2095656,13.6876525 C13.5974945,13.2027413 13.8678163,13 14.4,13 C14.9251106,13 15.2216348,13.2093112 15.6184697,13.6761758 C15.6433979,13.705547 15.6433979,13.705547 15.6671366,13.7334913 C15.8534442,13.9523702 15.9194909,14 16,14 C16.2761424,14 16.5,14.2238576 16.5,14.5 C16.5,14.7761424 16.2761424,15 16,15 C15.5344739,15 15.2690173,14.808565 14.9056448,14.381666 C14.8805669,14.3521455 14.8805669,14.3521455 14.8565304,14.3238242 C14.6346153,14.0627477 14.5457228,14 14.4,14 C14.265517,14 14.2025055,14.0472587 13.9904344,14.3123475 C13.6025055,14.7972587 13.3321837,15 12.8,15 C12.2678163,15 11.9974945,14.7972587 11.6095656,14.3123475 C11.3974945,14.0472587 11.334483,14 11.2,14 C11.065517,14 11.0025055,14.0472587 10.7904344,14.3123475 C10.4025055,14.7972587 10.1321837,15 9.6,15 C9.06781633,15 8.79749452,14.7972586 8.40956572,14.3123476 C8.19749459,14.0472586 8.13448306,14 8,14 Z"/>
  </g>
</svg>
