<svg xmlns="http://www.w3.org/2000/svg" width="24" height="24" viewBox="0 0 24 24">
  <path fill="#080833" fill-opacity=".54" fill-rule="evenodd" d="M14.3634,2.28096 L15.4379,6.04521 L19.2324,5.09419 C20.3218,6.23473 21.144,7.63251 21.5989,9.18716 L18.8759,12 L21.5989,14.8128 C21.144,16.3675 20.3218,17.7653 19.2324,18.9058 L15.4379,17.9548 L14.3634,21.719 C13.6056,21.9027 12.8141,22 11.9999,22 C11.1857,22 10.3942,21.9027 9.63635,21.719 L8.56189,17.9548 L4.76733,18.9058 C3.67798,17.7653 2.85571,16.3675 2.40088,14.8128 L5.1239,12 L2.40088,9.18716 C2.85571,7.63251 3.67798,6.23473 4.76733,5.09419 L8.56189,6.04521 L9.63635,2.28096 C10.3942,2.09732 11.1857,2 11.9999,2 C12.8141,2 13.6056,2.09732 14.3634,2.28096 Z M15.9999,12 C15.9999,9.79086 14.209,8 11.9999,8 C9.79077,8 7.99988,9.79086 7.99988,12 C7.99988,14.2091 9.79077,16 11.9999,16 C14.209,16 15.9999,14.2091 15.9999,12 Z"/>
</svg>
