<?xml version="1.0" encoding="utf-8"?>
<!-- Generator: Adobe Illustrator 23.0.3, SVG Export Plug-In . SVG Version: 6.00 Build 0)  -->
<svg version="1.1" id="Layer_1" xmlns="http://www.w3.org/2000/svg" xmlns:xlink="http://www.w3.org/1999/xlink" x="0px" y="0px"
	 viewBox="0 0 24 24" style="enable-background:new 0 0 24 24;" xml:space="preserve">
<style type="text/css">
	.st0{fill-rule:evenodd;clip-rule:evenodd;fill:#080833;fill-opacity:0.54;}
</style>
<path class="st0" d="M17,10c0,2.2-1.8,4-4,4v6h2c0.6,0,1,0.4,1,1s-0.4,1-1,1H9c-0.6,0-1-0.4-1-1s0.4-1,1-1h2v-6c-2.2,0-4-1.8-4-4V3
	c0-0.6,0.4-1,1-1h8c0.6,0,1,0.4,1,1V10z M9,10c0,1.1,0.9,2,2,2h2c1.1,0,2-0.9,2-2V4H9v3h3c0.6,0,1,0.4,1,1c0,0.6-0.4,1-1,1H9V10z
	 M19,3.6v2.8l4.3-4.3c0.4-0.4,0.4-1,0-1.4c-0.4-0.4-1-0.4-1.4,0L19,3.6z M7.6,15c0.6,0.4,1.2,0.7,2,0.9l-7.5,7.5
	c-0.4,0.4-1,0.4-1.4,0c-0.4-0.4-0.4-1,0-1.4L7.6,15z"/>
</svg>
