<svg width="16" height="16" viewBox="0 0 16 16" fill="none" xmlns="http://www.w3.org/2000/svg">
<path d="M12.9739 6.82987C12.9085 6.62738 12.7289 6.48357 12.5164 6.46442L9.6301 6.20234L8.48879 3.531C8.40464 3.33522 8.21298 3.2085 8.00004 3.2085C7.7871 3.2085 7.59544 3.33522 7.51129 3.53146L6.36998 6.20234L3.48326 6.46442C3.27115 6.48402 3.09201 6.62738 3.02617 6.82987C2.96032 7.03236 3.02113 7.25446 3.18158 7.39446L5.36326 9.3078L4.71993 12.1417C4.67286 12.35 4.75373 12.5654 4.92662 12.6904C5.01955 12.7575 5.12827 12.7917 5.23791 12.7917C5.33244 12.7917 5.4262 12.7662 5.51036 12.7159L8.00004 11.2279L10.4888 12.7159C10.6709 12.8254 10.9005 12.8154 11.073 12.6904C11.246 12.565 11.3268 12.3496 11.2797 12.1417L10.6364 9.3078L12.818 7.39484C12.9785 7.25446 13.0398 7.03274 12.9739 6.82987V6.82987Z" fill="#7A7D85"/>
</svg>
