<svg width="24" height="24" viewBox="0 0 24 24" fill="none" xmlns="http://www.w3.org/2000/svg">
<path fill-rule="evenodd" clip-rule="evenodd" d="M14.8293 4H19C20.1046 4 21 4.89543 21 6V20C21 21.1046 20.1046 22 19 22H5C3.89543 22 3 21.1046 3 20V6C3 4.89543 3.89543 4 5 4H9.17071C9.58254 2.83481 10.6938 2 12 2C13.3062 2 14.4175 2.83481 14.8293 4ZM13 5C13 5.55228 12.5523 6 12 6C11.4477 6 11 5.55228 11 5C11 4.44772 11.4477 4 12 4C12.5523 4 13 4.44772 13 5ZM16.7682 10.6402C17.1218 10.2159 17.0645 9.58537 16.6402 9.2318C16.2159 8.87824 15.5853 8.93556 15.2318 9.35984L10.9328 14.5186L8.70711 12.2929C8.31658 11.9024 7.68342 11.9024 7.29289 12.2929C6.90237 12.6834 6.90237 13.3166 7.29289 13.7071L10.2929 16.7071C10.4916 16.9058 10.7646 17.0117 11.0453 16.999C11.326 16.9863 11.5884 16.856 11.7682 16.6402L16.7682 10.6402Z" fill="#080833" fill-opacity="0.54"/>
</svg>
