<svg xmlns="http://www.w3.org/2000/svg" width="24" height="24" viewBox="0 0 24 24">
  <path d="M8,14 C8,14.5522847 8.44771525,15 9,15 C9.55228475,15 10,14.5522847 10,14 C10,13.4477153 9.55228475,13 9,13 C8.44771525,13 8,13.4477153 8,14 L8,14 Z M8,-1.18215803e-17 L8,4 L10,4 L10,2.08 C13.39,2.57 16,5.47 16,9 C16,12.8659932 12.8659932,16 9,16 C5.13400675,16 2,12.8659932 2,9 C2,7.32 2.59,5.78 3.58,4.58 L9,10 L10.41,8.59 L3.61,1.79 L3.61,1.81 C1.42,3.45 0,6.05 0,9 C0,13.9705627 4.02943725,18 9,18 C13.9705627,18 18,13.9705627 18,9 C18,4.02943725 13.9705627,2.65271368e-15 9,-9e-16 L8,-1.18215803e-17 Z M15,9 C15,8.44771525 14.5522847,8 14,8 C13.4477153,8 13,8.44771525 13,9 C13,9.55228475 13.4477153,10 14,10 C14.5522847,10 15,9.55228475 15,9 L15,9 Z M3,9 C3,9.55228475 3.44771525,10 4,10 C4.55228475,10 5,9.55228475 5,9 C5,8.44771525 4.55228475,8 4,8 C3.44771525,8 3,8.44771525 3,9 Z" transform="translate(3 3)"/>
</svg>
