<svg width="24" height="24" viewBox="0 0 24 24" fill="none" xmlns="http://www.w3.org/2000/svg">
<path d="M13 11C14.1046 11 15 10.1046 15 9C15 7.89543 14.1046 7 13 7C11.8954 7 11 7.89543 11 9C11 10.1046 11.8954 11 13 11Z" fill="#080833" fill-opacity="0.54"/>
<path fill-rule="evenodd" clip-rule="evenodd" d="M18.7236 14.6017C18.2986 15.0349 18.0121 15.5985 18.0121 16.2054V23H9.01207V20L7.49714 20.3787C6.23484 20.6943 5.01207 19.7396 5.01207 18.4384V16.5H3.80163C3.01931 16.5 2.53996 15.6422 2.94997 14.9759L4.84677 11.8936C5.1385 11.4195 5.20644 10.8473 5.11682 10.2979C5.0479 9.87548 5.01207 9.44192 5.01207 9C5.01207 4.58172 8.59379 1 13.0121 1C17.4303 1 21.0121 4.58172 21.0121 9C21.0121 11.1812 20.1391 13.1585 18.7236 14.6017ZM11.068 5.49667L9.85872 5.10975C9.58346 5.33229 9.33229 5.58346 9.10975 5.85872L9.49667 7.06801C9.35428 7.32565 9.23949 7.60067 9.15628 7.88908L8.0277 8.47053C8.00939 8.64452 8 8.82116 8 9C8 9.17884 8.00939 9.35548 8.0277 9.52947L9.15628 10.1109C9.23949 10.3993 9.35428 10.6743 9.49667 10.932L9.10975 12.1413C9.33229 12.4165 9.58346 12.6677 9.85872 12.8903L11.068 12.5033C11.3257 12.6457 11.6007 12.7605 11.8891 12.8437L12.4705 13.9723C12.6445 13.9906 12.8212 14 13 14C13.1788 14 13.3555 13.9906 13.5295 13.9723L14.1109 12.8437C14.3993 12.7605 14.6743 12.6457 14.932 12.5033L16.1413 12.8903C16.4165 12.6677 16.6677 12.4165 16.8903 12.1413L16.5033 10.932C16.6457 10.6743 16.7605 10.3993 16.8437 10.1109L17.9723 9.52947C17.9906 9.35548 18 9.17884 18 9C18 8.82116 17.9906 8.64452 17.9723 8.47053L16.8437 7.88908C16.7605 7.60067 16.6457 7.32565 16.5033 7.06801L16.8903 5.85872C16.6677 5.58346 16.4165 5.33229 16.1413 5.10975L14.932 5.49667C14.6743 5.35428 14.3993 5.23949 14.1109 5.15628L13.5295 4.0277C13.3555 4.00939 13.1788 4 13 4C12.8212 4 12.6445 4.00939 12.4705 4.0277L11.8891 5.15628C11.6007 5.23949 11.3257 5.35428 11.068 5.49667Z" fill="#080833" fill-opacity="0.54"/>
</svg>
