<?xml version="1.0" encoding="UTF-8" standalone="no"?>
<svg width="24px" height="24px" viewBox="0 0 24 24" version="1.1" xmlns="http://www.w3.org/2000/svg" xmlns:xlink="http://www.w3.org/1999/xlink">
    <!-- Generator: Sketch 42 (36781) - http://www.bohemiancoding.com/sketch -->
    <title>uEA06-vk</title>
    <desc>Created with Sketch.</desc>
    <defs></defs>
    <g id="Icons" stroke="none" stroke-width="1" fill="none" fill-rule="evenodd">
        <g id="uEA06-vk" fill="#5D6874">
            <path d="M11.806885,16.777007 L12.8827638,16.777007 C12.8827638,16.777007 13.2076698,16.7427669 13.3737991,16.5718697 C13.526491,16.4147897 13.5216104,16.1200224 13.5216104,16.1200224 C13.5216104,16.1200224 13.500567,14.7397548 14.1704717,14.5364962 C14.8311224,14.3361465 15.6792627,15.870464 16.5781736,16.4604835 C17.2579662,16.9068161 17.7745453,16.8091259 17.7745453,16.8091259 L20.1783808,16.777007 C20.1783808,16.777007 21.4357911,16.7028303 20.8395385,15.7575628 C20.7907329,15.680356 20.4921946,15.0583387 19.0521751,13.780367 C17.5447785,12.4427632 17.7468465,12.6591724 19.5624791,10.3454546 C20.6682118,8.93640118 21.1101879,8.07621863 20.9720743,7.70782003 C20.8404893,7.35681415 20.0271467,7.44953497 20.0271467,7.44953497 L17.3206529,7.46553386 C17.3206529,7.46553386 17.1198527,7.43941447 16.971154,7.52449945 C16.8256878,7.60770578 16.7323233,7.80211649 16.7323233,7.80211649 C16.7323233,7.80211649 16.3037846,8.89240424 15.7326954,9.81979424 C14.5275134,11.7763853 14.045542,11.8799539 13.8485447,11.7582654 C13.3902155,11.475073 13.5047503,10.6208294 13.5047503,10.0137807 C13.5047503,8.11754908 13.8055704,7.32693745 12.918956,7.12228502 C12.6247912,7.05441096 12.4080816,7.009505 11.6556509,7.00217217 C10.68987,6.99277889 9.87266103,7.00502046 9.40983158,7.22179325 C9.10191246,7.36596503 8.86434949,7.6871548 9.00911839,7.70563836 C9.18805122,7.72842465 9.59307452,7.81017654 9.80781927,8.08955103 C10.0852507,8.450435 10.075553,9.26056043 10.075553,9.26056043 C10.075553,9.26056043 10.2349636,11.4927081 9.70336256,11.7699009 C9.33858805,11.9600695 8.83810855,11.5718541 7.76362419,9.79670493 C7.21319815,8.88743489 6.79746296,7.88223213 6.79746296,7.88223213 C6.79746296,7.88223213 6.71740906,7.69442702 6.57441492,7.59388856 C6.40099649,7.47207886 6.15867973,7.43347549 6.15867973,7.43347549 L3.58668668,7.44953497 C3.58668668,7.44953497 3.20067855,7.45983729 3.05882532,7.62037157 C2.93262792,7.76327071 3.04874727,8.05846229 3.04874727,8.05846229 C3.04874727,8.05846229 5.06220115,12.5625124 7.34224783,14.8322938 C9.43309348,16.9136035 11.806885,16.777007 11.806885,16.777007"></path>
        </g>
    </g>
</svg>