<svg width="318" height="289" viewBox="0 0 318 289" fill="none" xmlns="http://www.w3.org/2000/svg">
<ellipse cx="162" cy="144.5" rx="156" ry="144.5" fill="#C0EDE7"/>
<ellipse cx="78.5" cy="84" rx="78.5" ry="70" fill="#FF9F1C"/>
<path d="M280 164C280 173.749 272.353 190.295 267 198.5C272.5 208 279.837 223.591 267 231C259.582 235.281 246.526 253.636 229 254.5C219.811 254.953 223.265 274.687 212.5 272C182 239.5 174.5 247.209 168.5 244.5C153.5 237.727 149.461 243 137.5 243C122.679 243 111 228 107 216C100.642 212.092 89.5293 223.609 83 220.5C55.2866 207.305 52 193 44.5 174C44.5 139.594 79.5 115.5 114.5 99C127.634 95.0815 134.794 88 150.5 88C207.354 88 256.778 106.583 264 147.5C264.635 151.099 280 160.271 280 164Z" fill="white"/>
<path d="M170.809 180.706C166.908 182.777 164.009 176.341 167.911 174.266C170.048 173.128 172.113 172.408 174.105 172.112C175.63 158.461 186.218 150.64 198.482 151.781C202.159 141.514 213.72 138.384 223.173 143.875C227.008 146.102 223.893 152.423 220.068 150.202C215.596 147.603 210.01 147.628 206.594 151.18C202.779 155.147 203.704 161.301 206.201 166.389C208.245 170.555 202.423 173.928 200.379 169.764C198.472 165.877 197.56 162.215 197.436 158.892C189.02 158.258 181.921 163.254 180.696 172.761C184.083 174.013 187.049 176.694 189.589 180.811C192.008 184.732 186.525 188.728 184.104 184.803C180.553 179.047 176.515 177.666 170.809 180.706ZM217.015 226.554L217.003 226.584C219.975 230.177 221.398 234.864 219.569 239.154C217.748 243.446 211.748 240.434 213.569 236.147C215.215 232.277 205.676 223.61 201.498 230.046C198.989 233.911 193.597 229.77 196.098 225.915C200.114 219.73 206.439 219.505 211.628 222.217C212.057 221.446 212.653 220.618 213.45 219.74C218.789 213.858 229.088 212.52 234.808 218.641C237.908 221.961 233.27 227.07 230.176 223.758C226.664 220 218.806 222.111 217.015 226.554ZM128.918 139.254C122.333 134.295 107.63 143.925 111.838 153.708C113.678 157.985 107.7 161.02 105.86 156.747C98.5783 139.818 121.263 124.19 132.911 133.506C133.934 132.469 135.016 131.582 136.105 130.794C134.932 126.446 131.931 123.88 127.647 122.303C123.526 120.788 125.645 113.983 129.769 115.5C135.558 117.63 139.895 121.426 141.949 127.196C145.19 125.584 148.649 124.915 152.077 125.409C152.331 120.084 154.975 115.311 158.114 111.477C161.008 107.944 165.952 112.72 163.056 116.257C160.158 119.797 157.581 124.41 159.162 129.251L159.154 129.255C160.132 132.27 157.224 135.095 154.569 133.652C150.878 131.645 147.109 132.234 143.468 134.41C139.921 136.534 135.409 139.233 133.888 145.134C132.714 149.686 126.348 147.747 127.523 143.194C127.898 141.744 128.37 140.438 128.918 139.254ZM79.4426 160.108C77.5025 164.949 68.8024 161.088 75.8773 153.294C81.2158 147.413 91.5151 146.075 97.2347 152.197C100.335 155.514 95.6983 160.626 92.603 157.314C89.0907 153.553 81.2337 155.663 79.4426 160.108ZM70.32 175.382C73.4377 172.086 78.0434 177.238 74.9257 180.527C72.1102 183.498 78.1501 195.308 84.1756 190.934C87.7938 188.307 91.4586 194.275 87.8494 196.894C75.2127 206.071 61.6845 184.479 70.32 175.382ZM86.939 178.308C84.4877 174.406 89.9428 170.355 92.3985 174.262C96.0687 180.098 107.061 179.16 113.585 178.716C116.171 173.734 119.545 166.714 118.844 161.396C118.228 156.72 124.773 155.696 125.391 160.384C125.983 164.873 124.849 169.626 123.072 174.18C125.878 173.576 128.943 173.676 132.185 174.899C136.969 168.019 143.059 164.591 150.459 166.137C151.957 164.011 153.645 162.13 155.49 160.454C153.406 154.166 151.239 149.725 143.939 150.035C139.595 150.22 139.337 143.05 143.68 142.866C153.486 142.448 158.119 148.02 161.091 156.222C163.039 154.994 165.094 153.907 167.229 152.925C168.088 150.792 169.648 149.178 171.401 147.362L174.263 144.161C176.578 141.289 179.219 138.008 177.982 129.499C176.825 128.496 175.704 127.345 174.617 126.051C171.688 122.559 176.572 117.716 179.508 121.215C185.597 128.474 192.092 129.159 200.364 122.764C201.85 121.615 203.912 121.992 204.97 123.608C206.027 125.223 205.679 127.463 204.193 128.613C197.671 133.653 191.207 135.543 184.964 133.555C185.073 141.843 181.84 145.648 178.903 149.309C177.304 151.302 173.387 154.851 173.178 156.193L173.172 156.191C172.987 157.388 172.248 158.455 171.133 158.934C164.84 161.647 158.361 165.74 154.666 172.084C153.899 173.453 152.35 174.138 150.876 173.645C148.244 172.76 145.742 172.686 143.419 173.729C140.973 174.828 138.573 177.178 136.23 181.117C135.361 182.788 133.425 183.426 131.841 182.541C125.167 178.802 119.097 182.546 115.009 187.859C111.872 191.937 109.421 196.279 108.2 201.296C107.396 204.598 100.826 203.657 101.737 199.759C102.898 194.8 105.011 190.31 107.8 186.192C100.101 186.349 91.472 185.503 86.939 178.308ZM179.582 196.771C177.896 196.026 177.085 193.937 177.771 192.103C178.457 190.272 180.38 189.391 182.066 190.136C184.364 191.154 186.186 192.609 187.622 194.316C188.85 195.773 188.762 198.048 187.424 199.388C186.09 200.724 184.004 200.644 182.762 199.205C182.749 199.189 182.734 199.173 182.721 199.155C181.896 198.173 180.865 197.339 179.582 196.771ZM212.112 169.224C209.218 165.689 214.156 160.909 217.054 164.445C220.634 168.806 222.784 173.197 222.946 177.623C225.28 178.116 227.309 178.941 229.013 180.114C232.312 174.483 237.221 171.387 243.523 171.791C247.867 172.069 247.478 179.238 243.135 178.959C238.52 178.664 235.68 181.325 233.647 185.776C233.781 186.08 233.906 186.393 234.021 186.71C234.236 187.306 234.161 187.928 233.81 188.442C232.766 189.971 228.036 188.992 226.818 187.481C225.681 186.072 223.931 185.109 221.426 184.623C220.001 187.475 217.54 190.173 213.872 192.686C210.195 195.203 206.673 189.132 210.353 186.612C217.927 181.428 218.084 176.501 212.112 169.224ZM125.207 200.539C123.699 199.422 123.312 197.187 124.34 195.548C125.368 193.909 127.425 193.488 128.933 194.606C136.425 200.177 144.471 201.583 149.601 192.009C147.862 191.523 146.003 191.38 144.071 191.687C139.761 192.372 138.804 185.259 143.114 184.574C154.087 182.83 164.04 191.023 167.319 201.41C168.733 205.889 162.471 208.223 161.057 203.744C160.066 200.607 158.111 197.555 155.502 195.279C151.652 202.629 145.823 206.621 138.611 206.133C138.385 207.995 138.002 209.788 137.458 211.516C145.784 210.939 152.843 214.031 155.755 219.934C157.706 223.887 151.138 225.193 149.511 222.646C148.362 220.847 146.247 219.6 143.152 218.978C140.222 218.388 136.841 218.536 133.528 219.398C132.128 221.361 130.449 223.194 128.489 224.89C127.06 226.126 124.981 225.866 123.845 224.313C122.708 222.762 122.946 220.5 124.375 219.267C128.78 215.458 131.544 210.691 132.136 204.558C129.718 203.564 127.423 202.192 125.207 200.539Z" fill="black"/>
<path d="M248.02 158.116C246.416 160.091 243.518 160.391 241.547 158.785C239.575 157.179 239.277 154.277 240.88 152.303C244.41 147.955 253.327 144.721 258.445 143.844C254.46 132.475 245.92 123.648 238.789 117.507C222.492 103.475 199.311 99.6129 179.593 94.2359C159.246 88.6869 140.141 90.0749 127.999 95.5499C119.151 99.5379 109.416 105.91 109.593 116.236C109.635 118.619 107.821 126.236 106.258 128.131C104.769 129.934 101.866 129.203 101.407 126.909C100.197 120.854 102.748 109.089 106.258 103.21C92.9423 106.624 75.7693 119.14 69.2893 131.834C70.2873 131.921 76.4373 131.622 77.4203 131.834C78.6173 132.09 79.4753 133.053 79.5953 134.273C79.7153 135.495 79.1473 136.905 77.9363 137.092C72.1623 137.984 59.3673 142.702 55.7893 146.308C45.4883 156.684 44.0103 182.359 57.2893 195.71C51.9683 195.71 61.3513 193.173 61.4853 192.837C63.1263 188.728 69.8213 194.372 69.3213 198.816C69.1633 200.216 64.2643 204.478 64.7103 205.71C66.3063 210.113 74.9363 217.087 79.5953 217.856C87.2903 219.124 100.756 213.198 107.289 209.71C109.973 208.276 110.646 206.392 111.327 209.306L111.338 209.302C112.619 214.796 111.77 223.445 115.289 227.21C122.8 235.243 129.289 240.676 140.289 241.676C159.289 242.667 156.564 232.933 160.146 229.668C162.623 227.409 163.789 229.21 163.789 232.21C161.289 240.71 168.224 243.135 170.289 243.71C172.825 244.416 178.789 241.21 180.905 236.21C182.789 234.21 182.529 240.866 183.789 242.21L211.093 270.736L218.593 266.836L216.593 255.236C212.703 254.15 204.813 250.375 200.831 248.224C198.59 247.019 196.888 245.481 198.093 243.236C199.298 240.993 206.352 245.232 208.593 246.439C227.368 256.565 246.337 249.009 260.593 234.236C263.379 231.349 267.181 219.364 268.593 214.236C270.029 209.027 265.155 202.183 261.093 201.236C248.593 195.557 240.895 196.858 231.563 198.736C216.556 201.756 198.728 210.017 187.593 218.236C185.551 219.742 182.409 222.72 180.905 220.674C179.402 218.63 179.838 215.753 181.879 214.247C194.185 205.164 215.081 196.1 231.563 192.784C240.377 191.01 248.887 190.611 256.03 192.42C265.593 195.736 271.647 186.607 274.093 182.236C276.641 177.685 277.541 170.905 274.093 162.236C270.003 151.957 254.93 149.61 248.02 158.116ZM158.818 241.676C155.996 243.632 153.145 244.782 149.483 245.038C135.069 246.047 118.871 242.806 108.645 231.869C105.048 228.02 103.457 224.198 102.267 219.474C89.9433 224.088 74.8293 225.397 64.7103 215.484C61.9983 212.828 60.2523 209.949 59.0993 206.426C52.4813 202.064 47.6753 195.948 44.8523 188.517C39.7823 175.17 41.7473 158.697 48.5623 146.308C51.7083 140.591 56.2373 135.193 62.0463 132.053C66.2613 121.154 73.0553 112.346 82.9383 106.013C92.4683 99.9049 103.618 96.9409 114.752 95.5499C117.722 93.4059 120.929 91.5909 124.267 90.0869C142.022 82.0829 162.888 82.7009 181.355 87.7359C203.465 93.7659 225.135 97.5769 243.141 113.08C244.862 114.562 246.607 116.016 248.32 117.507C252.086 120.787 255.539 124.161 258.445 128.25C261.831 133.017 264.118 138.238 265.667 143.844C271.841 146.667 276.108 152.221 278.593 158.467C284.911 174.351 282.822 187.808 269.129 197.557C270.586 199.026 271.872 200.694 272.896 202.463C276.416 208.546 274.919 217.223 272.762 223.525C270.986 228.716 267.931 234.744 264.097 238.719C257.012 246.062 248.413 251.949 238.555 254.811C234.018 256.129 229.356 256.757 224.653 256.683L226.666 266.836C227.416 270.316 225.191 273.764 221.721 274.523L210.75 276.919L210.692 276.641C209.118 276.516 207.621 275.814 206.505 274.628L180.013 246.439C172.202 248.698 164.189 248.131 158.818 241.676Z" fill="black"/>
</svg>
