<svg width="156" height="40" viewBox="0 0 156 40" fill="none" xmlns="http://www.w3.org/2000/svg">
<g clip-path="url(#clip0)">
<path d="M50.4913 29.6985C45.024 35.1659 36.1596 35.1659 30.6923 29.6985C25.225 24.2312 25.225 15.3669 30.6923 9.89954C36.1596 4.4322 45.024 4.4322 50.4913 9.89954C55.9586 15.3669 55.9586 24.2312 50.4913 29.6985Z" stroke="#252A33" stroke-width="7"/>
<path d="M25.7388 4.94828L20.7891 -0.00146484L5.98828 14.7993V24.7957L20.7891 39.5965L25.7388 34.6468L10.8896 19.7975L25.7388 4.94828Z" fill="#252A33"/>
</g>
<path d="M50.5918 24.0128C50.5918 30.4628 55.2358 35.1498 61.5998 35.1498C67.8348 35.1498 70.8878 30.9788 71.8338 26.9798L67.8348 26.2058C67.2758 28.9148 65.6418 31.4518 61.5998 31.4518C57.4718 31.4518 54.6338 28.4848 54.6338 24.0128C54.6338 19.5408 57.4718 16.5738 61.5138 16.5738C65.2548 16.5738 67.4478 18.8958 67.7918 21.8628L71.7478 21.0458C70.8878 16.3588 67.1898 12.8758 61.5138 12.8758C55.2358 12.8758 50.5918 17.5628 50.5918 24.0128Z" fill="#252A33"/>
<path d="M73.7473 19.0248L77.2303 20.6158C78.2193 18.1648 80.2403 16.4878 83.6803 16.4878C87.1203 16.4878 89.1413 18.2078 89.1413 21.0888V21.6478L81.3583 22.3788C75.9403 22.8948 73.3173 24.9588 73.3173 28.7858C73.3173 32.5698 76.3703 35.1498 81.1003 35.1498C85.4433 35.1498 87.6363 33.1288 88.5393 31.2368H89.1413V34.5478H93.0973V21.2608C93.0973 16.1868 89.4423 12.8758 83.7663 12.8758C78.6063 12.8758 75.2523 15.7568 73.7473 19.0248ZM77.4023 28.6138C77.4023 26.4638 79.3373 25.7328 81.7883 25.5178L89.1413 24.8298V25.1738C89.1413 28.8288 86.7333 31.7958 81.7883 31.7958C78.9933 31.7958 77.4023 30.5918 77.4023 28.6138Z" fill="#252A33"/>
<path d="M101.025 13.4778H97.1548V34.5478H101.197V22.2498C101.197 19.0678 102.831 17.3478 105.841 17.3478H109.539V13.3918H107.131C104.078 13.3918 102.358 14.6818 101.627 16.9178H101.025V13.4778Z" fill="#252A33"/>
<path d="M109.134 24.0128C109.134 30.5488 113.778 35.1498 119.97 35.1498C126.162 35.1498 130.806 30.5488 130.806 24.0128C130.806 17.4768 126.162 12.8758 119.97 12.8758C113.778 12.8758 109.134 17.4768 109.134 24.0128ZM113.176 24.0128C113.176 19.3688 115.928 16.5738 119.97 16.5738C124.012 16.5738 126.764 19.3688 126.764 24.0128C126.764 28.6568 124.012 31.4518 119.97 31.4518C115.928 31.4518 113.176 28.6568 113.176 24.0128Z" fill="#252A33"/>
<path d="M133.733 4.44775V34.5478H137.689V31.2368H138.291C139.452 33.1718 141.387 35.1498 145.515 35.1498C151.062 35.1498 155.405 30.5488 155.405 24.0128C155.405 17.4768 151.062 12.8758 145.515 12.8758C141.387 12.8758 139.452 14.8538 138.291 16.7888H137.775V4.44775H133.733ZM144.483 16.4878C148.525 16.4878 151.363 19.1968 151.363 24.0128C151.363 28.8288 148.525 31.5378 144.483 31.5378C140.355 31.5378 137.775 28.6568 137.775 24.0128C137.775 19.3688 140.355 16.4878 144.483 16.4878Z" fill="#252A33"/>
<defs>
<clipPath id="clip0">
<rect width="28" height="28" fill="white" transform="translate(20.793) rotate(45)"/>
</clipPath>
</defs>
</svg>
