<svg width="1397" height="1063" viewBox="0 0 1397 1063" fill="none" xmlns="http://www.w3.org/2000/svg">
<path d="M751.533 447.777C748.845 498.029 745.517 559.137 745.517 559.137C750.495 575.26 752.577 592.137 751.661 608.985C784.577 613.538 833.349 658.249 853.025 683.786C883.363 723.14 909.713 775.585 928.002 842.103C946.288 908.623 965.177 938.984 974.028 938.638C982.879 938.289 996.703 925.44 1004.02 894.2C1011.33 862.962 1010.91 834.078 1012.27 806.933C1012.8 796.296 1010.8 778.197 1018.83 769.881C1021.3 767.442 1024.45 765.81 1027.87 765.201L1026.22 764.89C1026.22 764.89 1019.36 713.964 1032.66 703.088C1033.57 702.353 1034.54 701.699 1035.56 701.132L1034.61 695.466V672.085C1001.7 653.35 986.099 608.529 1004.62 575.205V559.648C995.557 562.155 986.34 564.081 977.027 565.407C952.378 568.824 926.52 567.819 903.222 557.236C881.462 547.366 862.734 531.865 844.576 515.704C825.504 498.741 806.741 481.212 785.766 467.009C774.896 459.681 763.447 453.25 751.533 447.777Z" fill="#EFFBF9"/>
<path d="M358.058 578.513C357.325 578.744 356.593 578.964 355.863 579.172C359.064 596.391 361.11 612.697 361.11 612.697C385.047 611.581 399.514 641.029 376.655 676.675C400.427 680.441 412.461 710.563 418.367 740.543C432.666 707.161 454.165 677.349 481.327 653.239C495.3 640.937 512.087 633.571 528.765 625.984C548.642 616.954 584.869 608.984 584.869 608.984C600.85 588.566 604.015 560.838 607.745 534.714C610.122 518.135 610.396 501.338 612.921 484.738C613.378 481.833 613.817 477.994 614.218 473.935L613.907 473.752C613.373 474.188 612.751 474.504 612.086 474.682C611.419 474.86 610.722 474.895 610.042 474.785C609.362 474.675 608.713 474.422 608.136 474.043C607.562 473.662 607.073 473.166 606.704 472.584C602.814 465.088 599.749 457.193 597.559 449.04H597.853C588.49 447.32 578.485 443.043 575.596 432.789C528.655 445.457 489.356 473.369 452.49 506.785C432.575 524.844 413.045 543.544 391.576 559.411C381.152 567.234 370.31 574.564 358.058 578.513Z" fill="#EFFBF9"/>
<path d="M1380.88 609.445C1374.74 582.629 1367.06 554.478 1351.35 532.195C1335.64 509.912 1314.21 495.398 1290 486.899C1240.46 469.478 1187.5 482.622 1140.18 502.017C1143.46 503.835 1146.46 506.131 1149.06 508.834C1152.61 512.336 1155.28 516.633 1156.85 521.367C1158.42 526.102 1158.84 531.142 1158.08 536.071L1159.27 536.437C1175.32 540.879 1179.24 553.6 1176.88 567.512L1178.21 567.931C1192.84 570.455 1194.78 587.546 1191.75 602.664L1195.57 604.271C1205.72 613.685 1204.11 636.241 1194.89 646.021C1191.04 649.799 1185.91 651.993 1180.52 652.163L1181.36 654.758C1177.32 674.208 1163.49 682.744 1150.4 684.427L1148.7 709.36C1151.33 710.683 1153.82 712.278 1156.12 714.113C1165.38 721.662 1162.41 738.68 1162.41 750.944V790.704L1158.75 789.99C1192.99 812.548 1184.36 850.022 1185.87 877.073C1187.53 902.041 1187.25 927.097 1185.03 952.019L1259.68 951.124L1303.88 950.595C1317.7 950.43 1332.53 951.947 1346.14 949.186C1361.41 946.08 1367.63 933.613 1372.09 918.788C1376.15 905.225 1379.69 891.484 1382.71 877.567C1389.05 848.056 1393.21 818.119 1395.17 787.999C1399.2 728.103 1394.39 667.94 1380.88 609.445Z" fill="#EFFBF9"/>
<path d="M214.144 908.587C210.578 883.177 198.143 859.413 196.662 833.312C195.851 813.724 196.407 794.106 198.326 774.596C200.776 745.842 204.25 721.586 220.379 696.543C223.842 691.233 227.89 686.327 232.449 681.919C232.449 681.919 208.676 601.49 217.728 596.373C216.052 595.899 214.451 595.192 212.973 594.27C198.88 600.254 185.406 607.602 172.742 616.204C130.152 645.05 96.8154 688.117 74.8531 737.05C63.781 761.975 55.2585 787.954 49.4162 814.591C43.93 839.527 38.4441 867.092 40.2728 892.937C42.1014 920.357 55.1216 943.773 80.394 951.305C92.7924 954.96 106.233 954.283 118.942 954.376L163.526 954.742L208.091 955.108C211.785 938.619 216.173 922.533 214.144 908.587Z" fill="#EFFBF9"/>
<path d="M751.669 608.984C784.585 613.537 833.357 658.248 853.033 683.765C883.371 723.142 909.723 775.585 928.009 842.102C946.296 908.623 965.187 938.986 974.038 938.637C982.889 938.289 996.693 925.44 1004.03 894.199C1011.36 862.961 1010.92 834.08 1012.28 806.933C1012.81 796.295 1010.81 778.197 1018.84 769.881C1027.65 760.74 1046.14 765.586 1057.5 767.504C1089.24 772.897 1128.27 771.673 1156.1 788.343C1193.4 810.664 1184.26 849.343 1185.83 877.071C1189.49 941.453 1187.37 957.5 1182.96 972.801C1179.54 984.609 1174.77 1025.1 1148.35 1026.27C1121.92 1027.44 1150.98 987.991 1164.09 1012.83C1171.52 1026.89 1155.57 1050.76 1146.32 1057.98" stroke="#252A33" stroke-width="4" stroke-linecap="round" stroke-linejoin="round"/>
<path d="M207.793 1011.19C193.621 978.288 218.344 938.493 214.139 908.586C210.573 883.18 198.138 859.415 196.656 833.311C195.846 813.726 196.402 794.108 198.32 774.598C200.771 745.845 204.245 721.589 220.374 696.545C235.589 672.781 261.793 660.627 284.762 645.271C306.121 630.995 337.153 613.794 361.11 612.696C385.065 611.601 399.511 641.031 376.653 676.674C421.457 683.767 424.382 783.94 423.669 801.324C423.01 817.482 421.841 861.426 403.462 868.957C387.937 875.317 388.193 862.835 389.527 850.222C391.995 826.841 400.334 802.163 405.601 779.279C416.574 731.404 444.261 685.925 481.363 653.278C495.335 640.976 512.122 633.608 528.8 626.024C548.677 616.993 584.904 609.023 584.904 609.023" stroke="#252A33" stroke-width="4" stroke-linecap="round" stroke-linejoin="round"/>
<path d="M1026.29 764.893C1026.29 764.893 1019.43 713.967 1032.73 703.089C1046.02 692.213 1076.83 697.954 1103.92 699.617C1131 701.279 1146.93 706.564 1156.2 714.112C1165.47 721.661 1162.49 738.679 1162.49 750.946V790.704" stroke="#252A33" stroke-width="4" stroke-linecap="round" stroke-linejoin="round"/>
<path d="M1034.62 672.089C1001.09 652.97 985.43 606.632 1005.82 573.143C1022.02 546.545 1082.35 516.568 1103.25 554.515C1119.02 583.178 1073.3 586.523 1056.84 580.912C1069.75 583.344 1082.44 604.839 1082.44 624.984" stroke="#252A33" stroke-width="4" stroke-linecap="round" stroke-linejoin="round"/>
<path d="M1044.86 519.872C1061.77 512.551 1079.1 506.236 1096.76 500.954C1115.41 495.799 1134.72 494.082 1149.06 508.833C1172.32 532.778 1147.23 566.669 1127.7 586.52C1110.88 603.739 1091.29 602.971 1086.68 586.665" stroke="#252A33" stroke-width="4" stroke-linecap="round" stroke-linejoin="round"/>
<path d="M1004.63 571.129C1004.63 513.642 1004.48 457.634 1019.97 402.721C1023.03 391.936 1028.97 354.994 1054.72 367.991C1069.15 375.301 1060.59 419.446 1059.71 433.797C1058.52 453.246 1058.21 493.204 1058.21 511.995" stroke="#252A33" stroke-width="4" stroke-linecap="round" stroke-linejoin="round"/>
<path d="M1107.19 538.008C1103.93 541.169 1101.26 544.882 1099.29 548.974" stroke="#252A33" stroke-width="4" stroke-linecap="round" stroke-linejoin="round"/>
<path d="M1159.27 536.436C1189.44 544.789 1176.73 582.353 1160.11 602.387C1143.49 622.421 1127.08 628.38 1115.89 623.208C1106.75 618.986 1099.67 608.053 1109.15 598.202" stroke="#252A33" stroke-width="4" stroke-linecap="round" stroke-linejoin="round"/>
<path d="M1178.21 568.059C1200.55 571.935 1193.29 609.809 1183.91 622.404C1177.38 631.159 1165.62 642.11 1152.82 639.019C1143.46 636.772 1138.49 628.053 1143.39 618.528" stroke="#252A33" stroke-width="4" stroke-linecap="round" stroke-linejoin="round"/>
<path d="M1195.57 604.255C1205.71 613.666 1204.11 636.225 1194.89 646.005C1185.38 656.076 1162.21 654.284 1167.28 637.047" stroke="#252A33" stroke-width="4" stroke-linecap="round" stroke-linejoin="round"/>
<path d="M1181.35 654.738C1176.58 677.681 1158.22 685.467 1143.48 684.698" stroke="#252A33" stroke-width="4" stroke-linecap="round" stroke-linejoin="round"/>
<path d="M1150.37 684.7L1148.8 707.861" stroke="#252A33" stroke-width="4" stroke-linecap="round" stroke-linejoin="round"/>
<path d="M232.383 681.919C232.383 681.919 208.61 601.49 217.662 596.373C226.714 591.253 267.273 569.903 289.859 559.173C300.683 554.018 333.161 535.556 342.889 539.467C352.618 543.378 361.178 612.696 361.178 612.696" stroke="#252A33" stroke-width="4" stroke-linecap="round" stroke-linejoin="round"/>
<path d="M341.916 534.865C350.604 509.421 339.32 464.396 357.095 445.129C379.898 420.417 422.378 394.642 407.951 378.995C389.755 359.234 366.713 382.104 350.145 390.896C332.004 400.528 314.488 410.637 293.841 422.884C207.637 387.752 171.447 407.2 122.603 417.767C104.115 421.824 62.5675 436.447 93.1979 454.619C117.684 469.132 157.202 471.764 171.831 497.008C180.883 512.565 187.357 533.439 191.691 550.677C194.672 562.541 200.724 591.678 217.676 596.376" stroke="#252A33" stroke-width="4" stroke-linecap="round" stroke-linejoin="round"/>
<path d="M89.4678 432.333C105.652 427.763 146.65 441.474 156.727 447.852" stroke="#252A33" stroke-width="4" stroke-linecap="round" stroke-linejoin="round"/>
<path d="M132.047 416.556C149.84 419.755 170.138 429.352 184.128 435.494" stroke="#252A33" stroke-width="4" stroke-linecap="round" stroke-linejoin="round"/>
<path d="M179.396 408.678C193.733 412.99 208.18 422.131 221.986 427.596" stroke="#252A33" stroke-width="4" stroke-linecap="round" stroke-linejoin="round"/>
<path d="M584.907 608.983C600.891 588.566 604.054 560.835 607.783 534.714C610.161 518.134 610.437 501.337 612.96 484.738C614.623 473.88 616.233 449.914 616.233 449.914C616.233 449.914 569.108 454.723 575.434 420.504C578.928 401.693 602.519 380.052 622.505 387.967C627.296 349.195 626.473 310.095 663.412 286.827C704.923 260.705 750.53 309.4 779.644 337.093C800.12 356.556 818.845 377.781 835.602 400.525C811.316 403.559 753.986 400.999 753.986 400.999C751.702 445.968 745.519 559.135 745.519 559.135C756.893 596.37 752.946 638.853 735.351 639.474C717.76 640.096 707.667 608.948 694.043 593.683C687.076 612.11 664.124 641.851 640.17 641.886C616.215 641.924 593.392 623.808 584.907 608.983Z" stroke="#252A33" stroke-width="4" stroke-linecap="round" stroke-linejoin="round"/>
<path d="M607.005 547.473C636.262 579.079 704.727 574.765 739.547 556.942" stroke="#252A33" stroke-width="4" stroke-linecap="round" stroke-linejoin="round"/>
<path d="M594.375 419.722C596.454 419.534 598.548 419.867 600.465 420.695C602.381 421.522 604.059 422.816 605.348 424.455" stroke="#252A33" stroke-width="4" stroke-linecap="round" stroke-linejoin="round"/>
<path d="M673.782 417.398C678.297 425.516 687.642 427.344 695.871 423.706" stroke="#252A33" stroke-width="4" stroke-linecap="round" stroke-linejoin="round"/>
<path d="M684.313 367.425V360.864" stroke="#252A33" stroke-width="4" stroke-linecap="round" stroke-linejoin="round"/>
<path d="M719.054 362.947V355.05" stroke="#252A33" stroke-width="4" stroke-linecap="round" stroke-linejoin="round"/>
<path d="M688.558 657.955C690.387 676.144 680.879 703.108 677.588 720.893C672.429 748.659 663.322 774.928 663.232 797.08C663.141 819.235 667.932 830.424 680.274 839.124C692.619 847.826 697.392 853.838 696.552 869.632C695.38 891.421 686.547 915.331 677.513 934.944C671.862 947.229 661.238 960.537 673.6 971.101C688.375 983.604 706.516 972.618 712.167 998.521C715.495 1013.97 710.193 1034.18 706.115 1048.7" stroke="#252A33" stroke-width="4" stroke-linecap="round" stroke-linejoin="round"/>
<path d="M756.891 766.46C780.336 766.46 800.596 764.304 823.144 767.611" stroke="#252A33" stroke-width="4" stroke-linecap="round" stroke-linejoin="round"/>
<path d="M806.333 754.11L804.74 787.234" stroke="#252A33" stroke-width="4" stroke-linecap="round" stroke-linejoin="round"/>
<path d="M787.388 750.947C787.388 765.571 790.405 783.083 785.812 796.646" stroke="#252A33" stroke-width="4" stroke-linecap="round" stroke-linejoin="round"/>
<path d="M685.882 780.483L692.21 777.321" stroke="#252A33" stroke-width="4" stroke-linecap="round" stroke-linejoin="round"/>
<path d="M715.724 886.071L721.246 884.699" stroke="#252A33" stroke-width="4" stroke-linecap="round" stroke-linejoin="round"/>
<path d="M737.165 1005.72L732.447 1006.05" stroke="#252A33" stroke-width="4" stroke-linecap="round" stroke-linejoin="round"/>
<path d="M597.638 449.04C599.827 457.196 602.895 465.09 606.782 472.584C607.171 473.198 607.693 473.717 608.31 474.106C608.924 474.494 609.619 474.74 610.341 474.828C611.063 474.916 611.796 474.843 612.488 474.612C613.178 474.382 613.807 474.003 614.334 473.499C615.43 462.531 616.273 449.918 616.273 449.918C610.05 450.429 603.785 450.133 597.638 449.04Z" fill="#252A33"/>
<path d="M729.537 271.93L689.069 267.56C677.111 266.264 665.039 264.344 653.081 266.628C636.916 269.719 613.874 282.44 612.008 300.829C611.489 304.424 612.302 308.085 614.293 311.121C614.567 311.497 614.86 311.858 615.171 312.199C595.149 325.434 594.143 356.875 592.882 379.14C592.588 384.257 592.388 389.412 592.26 394.566C597.497 390.234 603.82 387.414 610.546 386.413C613.363 392.689 616.545 398.791 620.072 404.695C620.616 405.56 621.426 406.229 622.379 406.603C623.332 406.976 624.381 407.032 625.369 406.763C626.357 406.495 627.232 405.916 627.864 405.111C628.499 404.309 628.858 403.321 628.888 402.298C628.634 390.833 631.356 379.499 636.788 369.395C641.195 361.353 647.119 354.225 650.247 345.505C653.374 336.786 652.459 325.672 646.59 318.617C656.08 316.22 665.425 308.326 671.495 301.506C680.236 291.671 687.953 285.403 701.705 285.456C712.294 285.456 722.517 286.609 731.915 280.795C736.176 278.183 734.036 272.479 729.537 271.93Z" fill="#252A33"/>
<path d="M1034.61 695.468V672.087" stroke="#252A33" stroke-width="4" stroke-linecap="round" stroke-linejoin="round"/>
<path d="M282.016 512.78C279.312 512.569 276.598 513.035 274.123 514.139C271.645 515.239 269.481 516.939 267.825 519.088" stroke="#252A33" stroke-width="4" stroke-linecap="round" stroke-linejoin="round"/>
<path d="M431.35 342.892C437.276 347.863 443.494 351.884 449.638 356.635C445.796 364.204 440.494 371.735 438.116 379.761" stroke="#252A33" stroke-width="4" stroke-linecap="round" stroke-linejoin="round"/>
<path d="M253.642 355.305L292.095 345.255C291.772 344.185 315.381 314.565 315.167 313.642C315.151 313.596 316.768 313.118 316.752 313.072C315.106 306.274 313.455 299.473 311.801 292.669C306.553 271.113 301.311 249.56 296.076 228.009C292.628 213.805 289.195 199.587 285.778 185.356C283.883 177.503 276.805 142.326 274.499 132.736C240.607 134.468 178.856 137.3 167.455 137.847C162.925 138.07 160.541 138.419 154.97 138.442C154.868 138.438 154.765 138.441 154.663 138.45C154.153 138.474 153.641 138.52 153.147 138.572C152.928 138.605 152.771 138.626 152.503 138.659C152.236 138.692 151.935 138.743 151.707 138.784C151.479 138.825 151.303 138.856 151.02 138.918C150.737 138.981 150.46 139.04 150.188 139.117L149.512 139.296C149.148 139.405 148.788 139.52 148.44 139.646C148.231 139.711 148.022 139.788 147.828 139.87C147.432 140.019 147.049 140.184 146.68 140.366C146.495 140.451 146.305 140.552 146.132 140.635C145.959 140.718 145.784 140.824 145.603 140.916C145.421 141.008 145.255 141.116 145.084 141.211C144.912 141.307 144.748 141.41 144.584 141.514C144.475 141.575 144.37 141.641 144.269 141.714C138.456 145.558 135.302 153.914 134.243 157.199C136.148 170.347 139.961 188.739 141.1 193.658C142.813 201.081 145.223 208.385 146.992 215.77L160.246 271.173L174.689 331.587L175.834 336.382L175.872 336.533L177.241 342.282L178.615 345.557L188.231 358.421L202.434 361.34L253.642 355.305Z" fill="#C0EDE7"/>
<path d="M274.425 132.303L274.367 132.071C274.288 131.745 274.192 131.437 274.108 131.11C272.699 132.341 270.493 132.591 269.309 130.54C268.125 128.49 267.76 125.863 266.566 123.764C265.545 121.965 263.691 118.753 261.511 118.788C260.912 118.811 260.326 118.661 259.815 118.355C259.71 118.318 259.615 118.285 259.519 118.206C257.347 116.88 255.807 114.918 253.497 113.727C250.225 112.019 246.421 111.273 242.84 110.513C236.361 109.183 229.637 107.562 222.947 108.149C203.26 142.885 195.336 136.61 178.827 125.025C177.465 124.071 173.889 121.145 170.126 118.418C167.874 118.721 165.652 119.297 163.503 120.135C159.623 121.765 155.986 124.293 152.417 126.61C143.294 132.535 137.9 139.838 134.287 150.408C134.123 150.898 133.868 151.352 133.536 151.741C133.611 152.341 133.679 152.978 133.76 153.636C133.905 154.759 134.062 155.937 134.243 157.17C135.302 153.885 138.456 145.529 144.268 141.685C144.37 141.612 144.475 141.545 144.584 141.485C144.748 141.381 144.912 141.278 145.083 141.182C145.255 141.087 145.421 140.978 145.603 140.886C145.784 140.795 145.959 140.689 146.132 140.606C146.305 140.522 146.495 140.422 146.679 140.337C147.048 140.155 147.431 139.99 147.828 139.841C148.022 139.759 148.23 139.682 148.44 139.617C148.788 139.491 149.148 139.375 149.512 139.266L150.187 139.088C150.46 139.01 150.737 138.952 151.02 138.889C151.303 138.827 151.479 138.796 151.707 138.755C151.935 138.714 152.235 138.663 152.503 138.63C152.771 138.596 152.928 138.576 153.147 138.543C153.64 138.491 154.153 138.445 154.663 138.421C154.765 138.412 154.868 138.409 154.97 138.413C160.541 138.39 162.925 138.041 167.455 137.818C178.856 137.271 240.607 134.439 274.499 132.707C274.486 132.577 274.455 132.434 274.425 132.303Z" fill="#7373E5"/>
<path d="M165.46 135.43C169.741 128.767 174.161 122.301 178.732 115.911C178.861 115.542 179.04 115.192 179.262 114.873C180.91 112.538 182.578 110.209 184.248 107.887C180.099 108.552 175.969 109.345 171.807 110.172C170.561 110.422 169.327 110.671 168.086 110.94L167.994 110.96C165.183 111.567 162.364 112.247 159.606 113.102C159.528 113.127 159.42 113.146 159.342 113.171C155.386 114.35 151.56 116.033 147.952 118.182C141.514 122.153 137.22 128.869 134.703 136.127C134.541 136.593 134.529 137.104 134.406 137.583C134.282 138.062 134.282 138.509 134.174 138.959C133.871 140.265 133.622 141.583 133.434 142.894C133.351 143.473 133.269 144.047 133.209 144.622C133.018 146.373 133.257 149.61 133.773 153.631C133.918 154.753 134.075 155.931 134.256 157.164C135.316 153.879 138.47 145.523 144.282 141.679C144.383 141.606 144.489 141.539 144.597 141.479C144.751 141.372 144.925 141.272 145.097 141.176C145.269 141.081 145.434 140.972 145.616 140.881C145.797 140.789 145.973 140.683 146.146 140.6C146.319 140.517 146.508 140.416 146.693 140.331C147.062 140.149 147.445 139.984 147.842 139.835C148.036 139.753 148.244 139.676 148.453 139.611C148.801 139.485 149.162 139.37 149.525 139.261L150.201 139.082C150.473 139.005 150.75 138.946 151.033 138.883C151.316 138.821 151.492 138.79 151.72 138.749C151.948 138.708 152.249 138.657 152.517 138.624C152.784 138.59 152.944 138.56 153.16 138.537C153.654 138.485 154.166 138.439 154.676 138.415C154.78 138.407 154.884 138.405 154.988 138.409L165.047 137.884C164.934 137.477 164.912 137.044 164.984 136.618C165.056 136.192 165.218 135.786 165.46 135.43V135.43Z" fill="#E6E6E6"/>
<path d="M274.518 132.714C240.626 134.446 178.877 137.273 167.474 137.825C162.93 138.043 160.545 138.392 154.989 138.42C154.887 138.416 154.784 138.419 154.682 138.428C154.172 138.452 153.659 138.498 153.166 138.55C152.946 138.583 152.732 138.601 152.522 138.637C152.312 138.673 151.992 138.717 151.726 138.762C151.459 138.807 151.264 138.848 151.039 138.896C150.814 138.944 150.463 139.018 150.206 139.095C149.95 139.172 149.749 139.212 149.531 139.273C149.167 139.382 148.811 139.5 148.459 139.624C148.259 139.692 148.051 139.769 147.847 139.848C147.441 139.994 147.058 140.159 146.698 140.344C146.509 140.427 146.334 140.516 146.151 140.613C145.968 140.71 145.788 140.797 145.621 140.893C145.454 140.99 145.265 141.091 145.102 141.189C144.94 141.288 144.765 141.393 144.602 141.492C144.494 141.552 144.389 141.619 144.287 141.692C144.298 141.461 144.321 141.257 144.335 141.061C144.389 140.506 144.478 139.912 144.561 139.333C144.969 136.547 145.653 133.801 146.601 131.142C148.496 125.569 151.774 120.583 156.08 116.724C158.308 114.822 160.783 113.28 163.42 112.154L163.449 112.164L167.995 111L168.083 110.978C176.679 108.813 185.393 107.362 194.145 106.64C195.199 106.541 196.256 106.449 197.314 106.369C216.374 104.872 235.783 105.864 248.884 108.016L249.107 108.053C249.873 108.182 250.618 108.314 251.379 108.457C256.19 109.38 260.776 110.719 264.469 113.324C265.117 113.773 265.733 114.27 266.312 114.812C267.71 116.071 268.897 117.567 269.831 119.243C269.962 119.466 270.082 119.691 270.192 119.942C270.374 120.28 270.534 120.634 270.696 120.999C272.213 124.563 273.441 128.269 274.365 132.077L274.423 132.309C274.455 132.434 274.485 132.577 274.518 132.714Z" fill="white"/>
<path d="M311.319 334.312C304.137 339.084 303.375 340.922 296.212 345.7C296.212 345.7 295.504 345.711 291.218 348.555C277.371 351.969 275.522 348.171 271.891 350.573L206.313 364.147L189.456 360.279L178.19 348.631L187.348 328.781L192.228 330.473L189.679 322.061L188.618 318.562C188.618 318.562 188.565 318.085 188.532 317.271C188.503 316.647 188.503 315.816 188.514 314.845C188.558 312.698 188.797 310.552 189.226 308.435C189.938 308.343 190.653 308.29 191.368 308.278C193.517 308.238 196.739 307.985 200.833 307.587L200.999 307.57C221.448 305.563 262.723 299.781 290.92 295.707C299.346 294.501 306.591 293.436 311.785 292.669C313.44 299.473 315.09 306.274 316.737 313.072C316.753 313.118 316.749 313.174 316.765 313.22C316.979 314.143 317.281 315.119 317.604 316.188L311.319 334.312Z" fill="white"/>
<path d="M189.186 308.583C188.564 311.473 188.338 314.425 188.517 317.347C188.53 317.768 188.562 318.187 188.615 318.602L189.682 322.085L192.166 330.315L192.217 330.476C189.102 337.549 185.436 344.333 180.632 350.396L177.456 344.851L175.833 336.37L174.772 332.872C174.709 332.47 174.671 332.062 174.662 331.652C174.474 326.868 174.935 310.005 189.186 308.583Z" fill="#F7F5F5"/>
<path d="M191.39 308.28C190.676 308.292 189.961 308.345 189.248 308.437C189.923 308.332 190.602 308.266 191.281 308.242C193.433 308.192 196.697 307.924 200.8 307.501L200.766 307.598C196.724 307.985 193.511 308.23 191.39 308.28Z" fill="#A0A0E5"/>
<path d="M257.708 333.667C258.843 330.396 253.66 328.822 250.61 327.765C247.965 326.847 246.487 322.476 243.487 322.519C236.619 322.62 240.518 331.374 243.118 334.128C246.595 337.788 255.348 340.474 257.708 333.667Z" fill="#E6E6E6"/>
<path d="M229.366 113.591L190.535 114.492C184.496 114.634 185.47 124.478 191.489 124.347L230.303 123.434C236.34 123.297 235.344 113.439 229.366 113.591Z" fill="#E6E6E6"/>
<path d="M231.873 131.686L150.915 135.763L150.919 135.765C150.587 135.793 150.272 135.957 150.042 136.221C149.811 136.485 149.682 136.828 149.681 137.18C149.681 137.531 149.809 137.863 150.04 138.106C150.27 138.348 150.584 138.483 150.917 138.482L231.823 135.034L252.039 134.173L257.094 133.96L259.625 133.851C260.499 133.81 261.238 133.82 262.35 133.69C264.349 133.376 266.253 132.497 267.858 131.146C269.464 129.795 270.711 128.023 271.465 126.02C271.846 125.027 272.1 123.991 272.218 122.938C272.36 121.859 272.339 120.77 272.158 119.712C271.774 117.634 270.844 115.736 269.472 114.234C266.858 111.332 263.578 109.724 260.317 108.49C258.683 107.896 257.013 107.407 255.315 107.025C253.601 106.642 251.967 106.397 250.307 106.073C248.647 105.75 246.968 105.54 245.295 105.27C243.646 105.003 241.993 104.807 240.336 104.611L240.263 104.602C226.814 103.059 213.215 102.732 199.613 103.623C192.827 104.039 186.039 104.741 179.276 105.646C175.886 106.092 172.507 106.598 169.139 107.165C165.703 107.674 162.29 108.405 158.92 109.355C155.453 110.315 152.094 111.725 148.922 113.553C145.682 115.439 142.776 117.931 140.352 120.902C135.529 126.895 132.826 134.352 131.893 141.815C131.834 142.323 131.799 142.834 131.789 143.344L131.759 144.125L131.764 144.832C131.792 145.782 131.834 146.725 131.923 147.622C132.06 149.458 132.282 151.221 132.497 153.016C132.939 156.575 133.496 160.082 134.056 163.591C135.209 170.58 136.478 177.549 137.862 184.497L138.921 189.663L139.492 192.327L140.125 194.92C140.996 198.364 141.92 201.752 142.839 205.121C143.758 208.49 144.523 211.823 145.304 215.282L147.652 225.568L157.043 266.714L166.425 307.885L171.127 328.437L173.475 338.723L174.066 341.313C174.278 342.241 174.542 343.158 174.832 344.062C176.004 347.688 177.767 351.045 180.043 353.988C181.184 355.474 182.457 356.84 183.844 358.07C186.674 360.479 189.943 362.265 193.471 363.329C196.892 364.366 200.442 364.938 204.037 365.033C207.502 365.141 210.979 365.032 214.449 364.705C217.889 364.407 221.297 363.972 224.655 363.525L234.751 362.228C241.599 361.366 248.404 360.013 255.118 358.18C268.676 354.367 278.841 356.678 296.423 346.634C304.192 342.195 308.67 341.599 311.899 334.812C312.698 333.11 313.382 331.352 314.106 329.619C314.688 327.832 315.356 326.062 315.86 324.253L316.567 321.523C316.809 320.609 317.039 319.714 317.206 318.786C317.598 316.929 317.891 315.055 318.085 313.173C318.837 305.638 310.505 280.739 308.45 273.612C306.418 266.632 305.298 257.675 301.641 251.544C298.039 245.352 278.5 145.064 273.937 139.95C273.482 135.704 271.253 140.59 271.361 146.436C275.808 151.47 293.471 249.117 296.816 254.864C299.118 258.818 301.146 269.058 303.042 275.55C304.891 281.929 313.16 306.038 312.491 312.787C312.317 314.464 312.053 316.134 311.701 317.788C311.555 318.626 311.336 319.473 311.116 320.292L310.474 322.775C310 324.417 309.399 326.026 308.878 327.652C307.087 344.885 273.256 347.241 253.914 352.601C247.442 354.395 240.883 355.725 234.28 356.583L224.206 357.923L224.111 357.936C220.788 358.385 217.503 358.829 214.228 359.124C210.958 359.447 207.682 359.565 204.416 359.477C201.274 359.398 198.17 358.905 195.177 358.01C192.274 357.156 189.58 355.708 187.244 353.745C186.1 352.737 185.05 351.616 184.107 350.398C182.185 347.943 180.691 345.138 179.691 342.106C179.443 341.343 179.217 340.577 179.036 339.792L178.442 337.241L176.054 326.963L171.254 306.429L161.698 265.329L152.135 224.233L149.745 213.961C148.964 210.565 148.122 207.051 147.199 203.646C146.277 200.241 145.322 196.883 144.459 193.522L143.83 191.01C143.625 190.125 143.476 189.46 143.268 188.522L142.182 183.34C140.832 176.456 139.499 169.526 138.349 162.62C137.784 159.155 137.22 155.686 136.776 152.224L136.746 151.985C136.538 150.337 136.328 148.678 136.204 147.054C136.118 146.193 136.079 145.353 136.049 144.529L136.02 143.905L136.045 143.341C136.044 142.965 136.064 142.589 136.105 142.215C136.907 135.515 139.33 128.867 143.457 123.71C145.531 121.143 148.024 118.987 150.807 117.355C153.667 115.695 156.697 114.412 159.825 113.533C163.041 112.62 166.299 111.915 169.579 111.423C172.912 110.855 176.247 110.337 179.583 109.87C186.264 108.941 192.954 108.229 199.649 107.781C213.033 106.843 226.417 107.104 239.658 108.561C241.307 108.749 242.963 108.945 244.602 109.192C246.241 109.439 247.913 109.652 249.524 109.947C251.135 110.242 252.838 110.489 254.38 110.829C255.946 111.17 257.487 111.611 258.995 112.148C261.964 113.224 264.86 114.71 266.817 116.885C267.765 117.887 268.416 119.164 268.694 120.569C268.822 121.255 268.843 121.964 268.757 122.667C268.682 123.39 268.514 124.103 268.257 124.787C267.75 126.169 266.904 127.396 265.809 128.337C264.713 129.278 263.41 129.897 262.037 130.129C261.477 130.204 260.515 130.238 259.699 130.282L257.168 130.407L252.109 130.677L231.873 131.686Z" fill="#252A33"/>
<path d="M261.398 330.479C261.12 331.283 260.921 332.131 260.597 332.942L260.018 334.151L259.722 334.76L259.336 335.331C258.31 336.986 256.863 338.311 255.174 339.145C253.468 339.972 251.615 340.352 249.778 340.25C248.899 340.211 248.028 340.088 247.177 339.881C246.75 339.79 246.336 339.658 245.921 339.532C245.473 339.385 245.034 339.212 244.606 339.013L244.958 339.169C243.234 338.636 241.664 337.692 240.366 336.405C239.068 335.119 238.076 333.525 237.465 331.742C236.868 329.932 236.702 327.976 236.981 326.042C237.127 325.088 237.37 324.15 237.706 323.243C237.861 322.797 238.073 322.401 238.262 321.979C238.45 321.554 238.67 321.146 238.921 320.757C239.89 319.071 241.246 317.66 242.855 316.663C244.435 315.717 246.201 315.206 247.982 315.179C251.133 315.234 254.164 316.236 256.724 318.067C256.973 318.25 257.148 318.525 257.217 318.841C257.286 319.157 257.244 319.494 257.099 319.791C256.954 320.087 256.716 320.324 256.428 320.457C256.139 320.591 255.819 320.612 255.526 320.518L255.483 320.504C253.026 319.6 250.416 319.09 248.145 319.512C247.098 319.673 246.097 320.116 245.238 320.798C244.444 321.475 243.812 322.344 243.401 323.325C243.174 323.852 242.986 324.394 242.838 324.948C242.704 325.462 242.622 325.987 242.593 326.514C242.533 327.55 242.65 328.581 242.937 329.558C243.23 330.557 243.723 331.469 244.385 332.234C245.047 332.998 245.862 333.597 246.775 333.991L247.071 334.093L247.137 334.116C247.365 334.253 247.6 334.377 247.842 334.487C248.128 334.586 248.393 334.73 248.685 334.825C249.249 335.029 249.83 335.183 250.421 335.284C251.531 335.504 252.687 335.439 253.792 335.094L254.196 334.976L254.573 334.78C254.826 334.674 255.068 334.539 255.295 334.377C255.529 334.194 255.773 334.015 256.017 333.836L256.687 333.151L257.032 332.801L257.327 332.381L257.928 331.54L258.971 329.643L259.072 329.46C259.233 329.163 259.49 328.936 259.793 328.822C260.097 328.708 260.424 328.715 260.712 328.842C261.001 328.969 261.229 329.207 261.354 329.51C261.479 329.813 261.49 330.159 261.387 330.481L261.398 330.479Z" fill="#252A33"/>
<path d="M1093.51 100C1093.57 100.939 1093.44 171.657 1093.51 172.458C1095.35 198.8 1101.96 317.848 1101.99 319.023C1102.05 320.091 1101.72 321.143 1101.06 321.981C1100.4 322.82 1099.45 323.388 1098.4 323.578L878.064 363.925C877.804 363.975 877.276 366.5 877.276 364C876.194 364 873.723 316.225 872.919 315.5C1050.42 318.5 1089.22 107.746 1093.51 100Z" fill="#FF9F1C"/>
<path d="M1136 316.03C1136 316.03 1039.74 329.293 1018.87 332.687C984.49 338.276 877.675 359 877.675 359C877.675 359 858.943 184.327 854.397 143.927C853.148 132.611 851 105 851 105" stroke="#252A33" stroke-width="4" stroke-linecap="round" stroke-linejoin="round"/>
<path d="M838 120C842.234 114.741 851.289 105 851.289 105L868 115.069" stroke="#252A33" stroke-width="4" stroke-linecap="round" stroke-linejoin="round"/>
<path d="M1136 316.03C1136 316.03 1039.74 329.293 1018.87 332.687C984.49 338.276 877.675 359 877.675 359C877.675 359 858.943 184.327 854.397 143.927C853.148 132.611 851 105 851 105" stroke="#252A33" stroke-width="4" stroke-linecap="round" stroke-linejoin="round"/>
<path d="M838 120C842.234 114.741 851.289 105 851.289 105L868 115.069" stroke="#252A33" stroke-width="4" stroke-linecap="round" stroke-linejoin="round"/>
<path d="M1075.44 108.14C1081.06 104.399 1092.62 97.8324 1092.62 97.8324L1105.53 112.461" stroke="#252A33" stroke-width="4" stroke-linecap="round" stroke-linejoin="round"/>
<path d="M1127 305C1131.21 308.371 1135.63 311.098 1140 314.319C1137.27 319.452 1133.5 324.558 1131.81 330" stroke="#252A33" stroke-width="4" stroke-linecap="round" stroke-linejoin="round"/>
<path d="M843 170H836" stroke="#252A33" stroke-width="4" stroke-linecap="round" stroke-linejoin="round"/>
<path d="M856 286H849" stroke="#252A33" stroke-width="4" stroke-linecap="round" stroke-linejoin="round"/>
<path d="M850 223H843" stroke="#252A33" stroke-width="4" stroke-linecap="round" stroke-linejoin="round"/>
<path d="M878 334C878 334 1033 348 1092 100.5" stroke="#252A33" stroke-width="4" stroke-linecap="round" stroke-linejoin="round"/>
</svg>
