<svg width="189" height="30" viewBox="0 0 189 30" fill="none" xmlns="http://www.w3.org/2000/svg">
<path d="M5.58625 16.6304V27.6564H0.40625V1.75642H15.4283V6.41843H5.58625V12.1904H15.0583V16.6304H5.58625Z" fill="#252A33"/>
<path d="M34.7093 16.1124V23.1424H46.0313V27.6564H29.5293V1.75642H46.0313V6.27043H34.7093V11.7094H45.2913V16.1124H34.7093Z" fill="#252A33"/>
<path d="M60.4951 1.75642H65.8231V22.9944H76.1461V27.6564H60.4951V1.75642Z" fill="#252A33"/>
<path d="M88.3896 1.75642H93.7177V22.9944H104.041V27.6564H88.3896V1.75642Z" fill="#252A33"/>
<path d="M113.684 14.7064C113.684 12.7454 114.017 10.9324 114.72 9.30443C115.386 7.67642 116.348 6.23342 117.606 5.04943C118.827 3.86543 120.27 2.90343 121.935 2.23742C123.6 1.57142 125.413 1.23842 127.374 1.23842C129.335 1.23842 131.148 1.57142 132.813 2.23742C134.441 2.90343 135.884 3.86543 137.142 5.04943C138.4 6.23342 139.362 7.67642 140.028 9.30443C140.694 10.9324 141.064 12.7454 141.064 14.7064C141.064 16.6674 140.694 18.4804 140.028 20.1454C139.362 21.8104 138.4 23.2534 137.179 24.4744C135.958 25.6954 134.515 26.6574 132.85 27.3234C131.185 27.9894 129.372 28.3224 127.374 28.3224C125.376 28.3224 123.526 27.9894 121.861 27.3234C120.196 26.6574 118.753 25.6954 117.532 24.4744C116.311 23.2534 115.349 21.8104 114.683 20.1454C114.017 18.4804 113.684 16.6674 113.684 14.7064ZM119.308 14.7064C119.308 16.3714 119.641 17.8514 120.344 19.1094C121.01 20.4044 121.972 21.4034 123.193 22.1434C124.377 22.8834 125.783 23.2164 127.374 23.2164C128.928 23.2164 130.334 22.8834 131.555 22.1434C132.739 21.4034 133.701 20.4044 134.404 19.1094C135.07 17.8514 135.44 16.3714 135.44 14.7064C135.44 13.0784 135.107 11.5984 134.441 10.3034C133.775 9.04543 132.813 8.04643 131.629 7.30643C130.408 6.56642 129.002 6.19642 127.374 6.19642C125.783 6.19642 124.377 6.56642 123.193 7.30643C121.972 8.04643 121.01 9.04543 120.344 10.3034C119.641 11.5984 119.308 13.0784 119.308 14.7064Z" fill="#252A33"/>
<path d="M177.223 18.2584L182.588 1.75642H188.804L177.926 29.1364L169.749 12.1534L161.572 29.1364L150.694 1.75642H156.947L162.275 18.2214L169.749 0.461426L177.223 18.2584Z" fill="#252A33"/>
</svg>
