<svg width="241" height="267" viewBox="0 0 241 267" fill="none" xmlns="http://www.w3.org/2000/svg">
<path d="M206.427 147.88C204.823 149.855 201.925 150.155 199.954 148.549C197.982 146.943 197.684 144.041 199.287 142.067C202.817 137.719 211.734 134.485 216.852 133.608C212.867 122.239 204.327 113.412 197.196 107.271C180.899 93.239 157.718 89.377 138 84C117.653 78.451 98.548 79.839 86.406 85.314C77.558 89.302 67.823 95.674 68 106C68.042 108.383 66.228 116 64.665 117.895C63.176 119.698 60.273 118.967 59.814 116.673C58.604 110.618 61.155 98.853 64.665 92.974C51.349 96.388 34.176 108.904 27.696 121.598C28.694 121.685 34.844 121.386 35.827 121.598C37.024 121.854 37.882 122.817 38.002 124.037C38.122 125.259 37.554 126.669 36.343 126.856C30.569 127.748 17.774 132.466 14.196 136.072C3.895 146.448 2.417 172.123 15.696 185.474C10.375 185.474 19.758 182.937 19.892 182.601C21.533 178.492 28.228 184.136 27.728 188.58C27.57 189.98 22.671 194.242 23.117 195.474C24.713 199.877 33.343 206.851 38.002 207.62C45.697 208.888 59.163 202.962 65.696 199.474C68.38 198.04 69.053 196.156 69.734 199.07L69.745 199.066C71.026 204.56 70.177 213.209 73.696 216.974C81.207 225.007 87.696 230.44 98.696 231.44C117.696 232.431 114.971 222.697 118.553 219.432C121.03 217.173 122.196 218.974 122.196 221.974C119.696 230.474 126.631 232.899 128.696 233.474C131.232 234.18 137.196 230.974 139.312 225.974C141.196 223.974 140.936 230.63 142.196 231.974L169.5 260.5L177 256.6L175 245C171.11 243.914 163.22 240.139 159.238 237.988C156.997 236.783 155.295 235.245 156.5 233C157.705 230.757 164.759 234.996 167 236.203C185.775 246.329 204.744 238.773 219 224C221.786 221.113 225.588 209.128 227 204C228.436 198.791 223.562 191.947 219.5 191C207 185.321 199.302 186.622 189.97 188.5C174.963 191.52 157.135 199.781 146 208C143.958 209.506 140.816 212.484 139.312 210.438C137.809 208.394 138.245 205.517 140.286 204.011C152.592 194.928 173.488 185.864 189.97 182.548C198.784 180.774 207.294 180.375 214.437 182.184C224 185.5 230.054 176.371 232.5 172C235.048 167.449 235.948 160.669 232.5 152C228.41 141.721 213.337 139.374 206.427 147.88ZM117.225 231.44C114.403 233.396 111.552 234.546 107.89 234.802C93.476 235.811 77.278 232.57 67.052 221.633C63.455 217.784 61.864 213.962 60.674 209.238C48.35 213.852 33.236 215.161 23.117 205.248C20.405 202.592 18.659 199.713 17.506 196.19C10.888 191.828 6.08201 185.712 3.25901 178.281C-1.81099 164.934 0.154009 148.461 6.96901 136.072C10.115 130.355 14.644 124.957 20.453 121.817C24.668 110.918 31.462 102.11 41.345 95.777C50.875 89.669 62.025 86.705 73.159 85.314C76.129 83.17 79.336 81.355 82.674 79.851C100.429 71.847 121.295 72.465 139.762 77.5C161.872 83.53 183.542 87.341 201.548 102.844C203.269 104.326 205.014 105.78 206.727 107.271C210.493 110.551 213.946 113.925 216.852 118.014C220.238 122.781 222.525 128.002 224.074 133.608C230.248 136.431 234.515 141.985 237 148.231C243.318 164.115 241.229 177.572 227.536 187.321C228.993 188.79 230.279 190.458 231.303 192.227C234.823 198.31 233.326 206.987 231.169 213.289C229.393 218.48 226.338 224.508 222.504 228.483C215.419 235.826 206.82 241.713 196.962 244.575C192.425 245.893 187.763 246.521 183.06 246.447L185.073 256.6C185.823 260.08 183.598 263.528 180.128 264.287L169.157 266.683L169.099 266.405C167.525 266.28 166.028 265.578 164.912 264.392L138.42 236.203C130.609 238.462 122.596 237.895 117.225 231.44Z" fill="#252A33"/>
<path d="M129.216 170.47C125.315 172.541 122.416 166.105 126.318 164.03C128.455 162.892 130.52 162.172 132.512 161.876C134.037 148.225 144.625 140.404 156.889 141.545C160.566 131.278 172.127 128.148 181.58 133.639C185.415 135.866 182.3 142.187 178.475 139.966C174.003 137.367 168.417 137.392 165.001 140.944C161.186 144.911 162.111 151.065 164.608 156.153C166.652 160.319 160.83 163.692 158.786 159.528C156.879 155.641 155.967 151.979 155.843 148.656C147.427 148.022 140.328 153.018 139.103 162.525C142.49 163.777 145.456 166.458 147.996 170.575C150.415 174.496 144.932 178.492 142.511 174.567C138.96 168.811 134.922 167.43 129.216 170.47ZM175.422 216.318L175.41 216.348C178.382 219.941 179.805 224.628 177.976 228.918C176.155 233.21 170.155 230.198 171.976 225.911C173.622 222.041 164.083 213.374 159.905 219.81C157.396 223.675 152.004 219.534 154.505 215.679C158.521 209.494 164.846 209.269 170.035 211.981C170.464 211.21 171.06 210.382 171.857 209.504C177.196 203.622 187.495 202.284 193.215 208.405C196.315 211.725 191.677 216.834 188.583 213.522C185.071 209.764 177.213 211.875 175.422 216.318ZM87.3252 129.018C80.74 124.059 66.0368 133.689 70.2452 143.472C72.0847 147.749 66.1068 150.784 64.2672 146.511C56.9851 129.582 79.67 113.954 91.3174 123.27C92.3408 122.233 93.4224 121.346 94.5122 120.558C93.339 116.21 90.3379 113.644 86.0534 112.067C81.9329 110.552 84.0514 103.747 88.1755 105.264C93.9651 107.394 98.3017 111.19 100.356 116.96C103.597 115.348 107.056 114.679 110.484 115.173C110.738 109.848 113.382 105.075 116.521 101.241C119.415 97.7077 124.359 102.484 121.463 106.021C118.565 109.561 115.988 114.174 117.569 119.015L117.561 119.019C118.539 122.034 115.631 124.859 112.976 123.416C109.285 121.409 105.516 121.998 101.875 124.174C98.3277 126.298 93.8162 128.997 92.295 134.898C91.121 139.45 84.7546 137.511 85.9296 132.958C86.3045 131.508 86.7772 130.202 87.3252 129.018ZM37.8494 149.872C35.9093 154.713 27.2092 150.852 34.2841 143.058C39.6226 137.177 49.9219 135.839 55.6415 141.961C58.7422 145.278 54.1051 150.39 51.0098 147.078C47.4975 143.317 39.6405 145.427 37.8494 149.872ZM28.7268 165.146C31.8445 161.85 36.4502 167.002 33.3325 170.291C30.517 173.262 36.5569 185.072 42.5824 180.698C46.2006 178.071 49.8654 184.039 46.2562 186.658C33.6195 195.835 20.0913 174.243 28.7268 165.146ZM45.3458 168.072C42.8945 164.17 48.3496 160.119 50.8053 164.026C54.4755 169.862 65.4682 168.924 71.9915 168.48C74.5773 163.498 77.9515 156.478 77.251 151.16C76.6348 146.484 83.1796 145.46 83.7976 150.148C84.3896 154.637 83.2559 159.39 81.4791 163.944C84.2846 163.34 87.3494 163.44 90.5918 164.663C95.3759 157.783 101.466 154.355 108.866 155.901C110.364 153.775 112.052 151.894 113.897 150.218C111.813 143.93 109.646 139.489 102.346 139.799C98.0021 139.984 97.7438 132.814 102.087 132.63C111.893 132.212 116.526 137.784 119.498 145.986C121.446 144.758 123.501 143.671 125.636 142.689C126.495 140.556 128.055 138.942 129.808 137.126L132.67 133.925C134.985 131.053 137.626 127.772 136.389 119.263C135.232 118.26 134.111 117.109 133.024 115.815C130.095 112.323 134.979 107.48 137.915 110.979C144.004 118.238 150.499 118.923 158.771 112.528C160.257 111.379 162.319 111.756 163.377 113.372C164.434 114.987 164.086 117.227 162.6 118.377C156.078 123.417 149.614 125.307 143.371 123.319C143.48 131.607 140.247 135.412 137.31 139.073C135.711 141.066 131.794 144.615 131.585 145.957L131.579 145.955C131.394 147.152 130.655 148.219 129.54 148.698C123.247 151.411 116.768 155.504 113.073 161.848C112.306 163.217 110.757 163.902 109.283 163.409C106.651 162.524 104.149 162.45 101.826 163.493C99.3798 164.592 96.9796 166.942 94.6369 170.881C93.7678 172.552 91.8313 173.19 90.2473 172.305C83.5734 168.566 77.5039 172.31 73.4158 177.623C70.2784 181.701 67.828 186.043 66.6064 191.06C65.8027 194.362 59.2328 193.421 60.1441 189.523C61.3047 184.564 63.4178 180.074 66.2063 175.956C58.5081 176.113 49.8788 175.267 45.3458 168.072ZM137.989 186.535C136.303 185.79 135.492 183.701 136.178 181.867C136.864 180.036 138.787 179.155 140.473 179.9C142.771 180.918 144.593 182.373 146.029 184.08C147.257 185.537 147.169 187.812 145.831 189.152C144.497 190.488 142.411 190.408 141.169 188.969C141.156 188.953 141.141 188.937 141.128 188.919C140.303 187.937 139.272 187.103 137.989 186.535ZM170.519 158.988C167.625 155.453 172.563 150.673 175.461 154.209C179.041 158.57 181.191 162.961 181.353 167.387C183.687 167.88 185.716 168.705 187.42 169.878C190.719 164.247 195.628 161.151 201.93 161.555C206.274 161.833 205.885 169.002 201.542 168.723C196.927 168.428 194.087 171.089 192.054 175.54C192.188 175.844 192.313 176.157 192.428 176.474C192.643 177.07 192.568 177.692 192.217 178.206C191.173 179.735 186.443 178.756 185.225 177.245C184.088 175.836 182.338 174.873 179.833 174.387C178.408 177.239 175.947 179.937 172.279 182.45C168.602 184.967 165.08 178.896 168.76 176.376C176.334 171.192 176.491 166.265 170.519 158.988ZM83.6137 190.303C82.106 189.186 81.7185 186.951 82.7464 185.312C83.7752 183.673 85.8318 183.252 87.3395 184.37C94.8315 189.941 102.878 191.347 108.008 181.773C106.269 181.287 104.41 181.144 102.478 181.451C98.168 182.136 97.211 175.023 101.521 174.338C112.494 172.594 122.447 180.787 125.726 191.174C127.14 195.653 120.878 197.987 119.464 193.508C118.473 190.371 116.518 187.319 113.909 185.043C110.059 192.393 104.23 196.385 97.0173 195.897C96.7913 197.759 96.4083 199.552 95.8648 201.28C104.191 200.703 111.25 203.795 114.162 209.698C116.113 213.651 109.545 214.957 107.918 212.41C106.769 210.611 104.654 209.364 101.559 208.742C98.6291 208.152 95.2477 208.3 91.9345 209.162C90.5344 211.125 88.8562 212.958 86.8956 214.654C85.4668 215.89 83.3877 215.63 82.2513 214.077C81.1149 212.526 81.3526 210.264 82.7814 209.031C87.1871 205.222 89.9505 200.455 90.5424 194.322C88.1243 193.328 85.83 191.956 83.6137 190.303Z" fill="#252A33"/>
</svg>
