<svg width="207" height="30" viewBox="0 0 207 30" fill="none" xmlns="http://www.w3.org/2000/svg">
<path d="M23.3883 14.7876C23.4283 11.7476 23.7083 4.18764 23.9483 1.02764L23.7483 0.827637C22.1883 1.02764 20.6683 1.02764 19.1083 0.827637L18.9083 1.02764C19.2283 3.70764 19.4283 9.74764 19.4683 13.3476C14.7883 14.9076 8.50828 11.6676 5.46828 16.1076V14.7876C5.50828 11.7476 5.78828 4.18764 6.02828 1.02764L5.82828 0.827637C4.26828 0.987637 2.74828 0.987637 1.18828 0.827637L0.988281 1.02764C1.34828 4.10764 1.54828 11.7076 1.54828 14.7876C1.54828 17.9876 1.34828 25.5876 0.988281 28.8276L1.18828 29.0276H5.82828L6.02828 28.8276C5.78828 26.4276 5.58828 21.5476 5.50828 17.9076C8.54828 13.8276 14.7883 16.7076 19.4683 15.1476C19.4683 18.5076 19.2683 25.7076 18.9083 28.8276L19.1083 29.0276H23.7483L23.9483 28.8276C23.6283 25.5876 23.3483 17.9876 23.3883 14.7876Z" fill="#252A33"/>
<path d="M49.9664 1.02764L49.7664 0.827637C48.7664 1.02764 46.7664 1.02764 45.7664 0.827637L45.5664 1.02764C45.3664 2.10764 36.8064 25.5476 35.5664 28.8276L35.7664 29.0276H37.4064L37.6064 28.8676C37.9264 27.7876 39.0064 24.3476 40.3664 20.2676C42.4864 17.5076 48.1664 17.7476 51.6464 17.7476L55.7664 29.0276H59.7664L59.9664 28.8276C58.7264 25.5476 50.1664 2.10764 49.9664 1.02764ZM41.4464 17.0276C43.2064 11.8676 45.1264 6.34764 46.4064 3.38764L50.7664 15.3476C48.0864 15.3476 43.6064 15.1476 41.4464 17.0276Z" fill="#252A33"/>
<path d="M83.2127 14.1476C83.0527 14.1476 82.8127 14.1476 82.6927 14.1076C82.1327 13.9876 82.4927 13.6676 82.6927 13.5076C82.9327 13.3076 83.0527 13.2276 83.2527 13.1076C87.6127 10.7076 88.2127 9.14764 88.2127 6.62764C88.2127 3.30764 85.4527 1.02764 80.0927 1.02764H71.1727L70.9727 1.22764C71.3327 4.30764 71.5327 11.7076 71.5327 14.7876C71.5327 17.9876 71.3327 25.5876 70.9727 28.8276L71.1727 29.0276C71.6527 29.0276 72.4927 29.0276 73.3727 29.0276H81.2927C87.1327 29.0276 90.2127 27.0276 90.2127 21.4676C90.2127 17.8676 89.0127 13.8676 83.2127 14.1476ZM80.0927 2.62764C82.2927 2.62764 83.8127 4.22764 83.8127 6.62764C83.8127 9.66764 83.3727 11.1476 75.4527 14.3476L75.6527 3.02764V2.62764H80.0927ZM81.2927 27.4276H75.4527V15.5876C82.5327 13.3076 85.8127 16.2676 85.8127 21.4676C85.8127 25.6676 83.9727 27.4276 81.2927 27.4276Z" fill="#252A33"/>
<path d="M102.395 29.0276H107.035L107.235 28.8276C106.875 25.5876 106.675 18.1476 106.675 14.9076C106.675 11.8676 106.875 3.98764 107.235 1.06764L107.035 0.867636C106.035 1.06764 103.395 1.06764 102.395 0.867636L102.195 1.06764C102.555 4.26764 102.755 11.9876 102.755 14.9076C102.755 18.1076 102.555 25.5876 102.195 28.8276L102.395 29.0276Z" fill="#252A33"/>
<path d="M144.615 1.22764L144.415 1.02764H120.455L120.255 1.22764L119.855 5.42764H120.455C121.255 3.42764 125.175 2.62764 127.135 2.62764C128.135 2.62764 129.175 2.62764 130.215 2.58764C130.495 5.94764 130.655 12.1476 130.655 14.9076C130.655 18.1076 130.455 25.5876 130.095 28.8276L130.295 29.0276H134.535L134.735 28.8276C134.375 25.5476 134.175 18.1476 134.175 14.9076C134.175 12.1876 134.335 5.94764 134.615 2.62764H137.735C139.695 2.62764 143.615 3.42764 144.415 5.42764H145.015L144.615 1.22764Z" fill="#252A33"/>
<path d="M165.834 1.02764L165.634 0.827637C164.634 1.02764 162.634 1.02764 161.634 0.827637L161.434 1.02764C161.234 2.10764 152.674 25.5476 151.434 28.8276L151.634 29.0276H153.274L153.474 28.8676C153.794 27.7876 154.874 24.3476 156.234 20.2676C158.354 17.5076 164.034 17.7476 167.514 17.7476L171.634 29.0276H175.634L175.834 28.8276C174.594 25.5476 166.034 2.10764 165.834 1.02764ZM157.314 17.0276C159.074 11.8676 160.994 6.34764 162.274 3.38764L166.634 15.3476C163.954 15.3476 159.474 15.1476 157.314 17.0276Z" fill="#252A33"/>
<path d="M206.397 1.22764L206.197 1.02764H182.237L182.037 1.22764L181.637 5.42764H182.237C183.037 3.42764 186.957 2.62764 188.917 2.62764C189.917 2.62764 190.957 2.62764 191.997 2.58764C192.277 5.94764 192.437 12.1476 192.437 14.9076C192.437 18.1076 192.237 25.5876 191.877 28.8276L192.077 29.0276H196.317L196.517 28.8276C196.157 25.5476 195.957 18.1476 195.957 14.9076C195.957 12.1876 196.117 5.94764 196.397 2.62764H199.517C201.477 2.62764 205.397 3.42764 206.197 5.42764H206.797L206.397 1.22764Z" fill="#252A33"/>
</svg>
