<svg width="155" height="156" viewBox="0 0 155 156" fill="none" xmlns="http://www.w3.org/2000/svg">
<path d="M74.5069 2C53.6569 2 33.8769 9.23 20.9169 25.91C13.7469 35.15 9.08688 46 5.70688 57.11C2.5874 67.7456 1.42189 78.8586 2.26689 89.91C3.26689 105.74 10.2669 119.31 20.9869 130.8C28.2369 138.54 36.3469 143.67 46.5069 147.8C58.8822 152.792 72.3964 154.266 85.5569 152.06C125.347 145.83 155.257 115.45 152.047 74.06C150.537 54.6 144.607 35.76 129.857 22.06C115.997 9.23 97.0869 3.98 74.5069 2Z" stroke="#252A33" stroke-width="4" stroke-linecap="round" stroke-linejoin="round"/>
<path d="M37.8253 123.44C25.8253 114.28 16.3853 92.5496 18.0653 71.2996C19.4953 53.1896 36.0653 26.7696 53.8153 21.4896C64.9353 18.1896 78.6253 17.3296 90.1353 18.6396C107.725 20.6396 118.725 29.7296 127.135 44.7396C139.955 67.7396 140.625 95.2696 122.515 115.95C110.125 130.1 96.7753 134.95 78.0653 136.95C68.9553 137.85 49.8753 132.59 37.8253 123.44Z" stroke="#252A33" stroke-width="4" stroke-linecap="round" stroke-linejoin="round"/>
<path d="M116.656 68.4595C119.596 67.6595 122.533 66.8462 125.466 66.0195" stroke="#252A33" stroke-width="4" stroke-linecap="round" stroke-linejoin="round"/>
<path d="M28.8477 89.0401C31.9777 88.4201 35.0977 87.8002 38.2277 87.1602" stroke="#252A33" stroke-width="4" stroke-linecap="round" stroke-linejoin="round"/>
<path d="M85.7461 115.29C86.7061 118.81 87.6794 122.327 88.6661 125.84" stroke="#252A33" stroke-width="4" stroke-linecap="round" stroke-linejoin="round"/>
<path d="M65.6484 29.2197C66.3151 32.7397 67.0218 36.2564 67.7684 39.7697" stroke="#252A33" stroke-width="4" stroke-linecap="round" stroke-linejoin="round"/>
<path d="M109.406 39.7695C107.316 66.5295 88.1563 93.4395 63.5263 106.94C57.6301 110.369 51.389 113.168 44.9062 115.29C45.4262 109.49 47.9762 104.29 50.4962 99.0295C56.6162 86.2295 61.4963 80.2195 70.8363 69.5195C75.0963 64.5995 90.4662 48.1395 109.406 39.7695Z" stroke="#252A33" stroke-width="4" stroke-linecap="round" stroke-linejoin="round"/>
<path d="M85.7462 89.6298C79.2844 96.5197 71.7877 102.36 63.5263 106.94C57.6301 110.369 51.389 113.168 44.9062 115.29C45.4262 109.49 47.9762 104.29 50.4962 99.0298C55.9062 87.7198 60.3863 81.7098 67.7663 73.0298C68.7362 71.9398 86.7462 88.5798 85.7462 89.6298Z" fill="#252A33" stroke="#252A33" stroke-width="4" stroke-linecap="round" stroke-linejoin="round"/>
</svg>
