<svg width="584" height="366" viewBox="0 0 584 366" fill="none" xmlns="http://www.w3.org/2000/svg">
<path d="M524.439 144.672C520.93 146.71 517.557 147.75 515.402 147.707C517.901 151.315 516.048 152.749 512.09 157.2C509.012 160.678 500.916 170.177 500.916 170.177C498.866 181.726 490.279 193.971 485.384 205.268C480.557 216.206 475.089 226.85 469.009 237.145C466.86 240.838 464.613 244.477 462.169 248.035C460.187 250.922 446.163 276.969 436.781 294.422C457.934 292.144 479.296 287.736 497.881 276.938C514.269 267.415 528.047 253.286 535.028 235.482C543.092 214.865 539.485 190.875 534.221 170.005C532.042 161.182 528.755 152.67 524.439 144.672Z" fill="#EFFBF9"/>
<path d="M91.0784 123.883L91.854 124.542L92.0203 124.388C96.8036 120.922 99.9125 123.772 103.04 126.549C107.669 130.692 108.74 133.635 114.484 136.91C118.03 138.929 121.158 139.046 124.334 142.863C127.147 146.242 129.376 150.386 131.888 154.024C136.234 160.297 141.965 165.068 147.444 170.406C162.564 185.15 181.168 209.313 198.165 225.614C215.163 241.916 231.686 251.021 234.813 251.113C237.94 251.206 241.437 244.705 241.437 244.705C241.489 244.781 241.544 244.855 241.603 244.926C241.932 244.562 242.309 244.245 242.724 243.984C243.506 233.519 243.875 226.162 242.908 219.766C242.398 216.343 241.856 212.914 241.135 209.528C241.033 209.496 240.932 209.456 240.834 209.411C240.44 210.956 233.188 206.475 230.812 204.603C227.007 207.38 222.809 208.789 216.886 206.955C208.157 204.246 212.54 195.301 218.296 188.954C218.296 188.856 218.241 188.763 218.216 188.671C218.136 188.757 218.044 188.837 217.964 188.923C215.646 184.15 214.516 178.887 214.67 173.582C213.704 168.005 214.504 158.98 220.906 158.598C218.61 149.684 224.84 145.787 231.021 142.844C235.453 140.733 241.948 140.788 246.818 140.253C251.687 139.717 258.317 138.806 260.805 133.733C261.74 131.831 264.652 133.327 264.086 135.235C263.014 138.987 261.401 142.563 259.296 145.848C265.237 144.697 271.239 143.657 276.706 142.715C288.649 140.665 310.042 139.594 310.042 139.594C304.501 146.489 296.498 160.433 293.42 166.478C306.256 187.92 312.56 213.961 315.416 230.053C315.909 230.26 316.368 230.54 316.777 230.884C316.906 230.73 317.035 230.582 317.152 230.428L323.475 238.739C330.099 236.892 344.646 231.259 365.337 219.827C386.028 208.395 399.867 192.057 406.946 185.771C417.917 176.032 428.019 167.303 434.538 164.139C440.313 161.319 441.704 162.963 444.887 156.135C450.754 143.558 463.355 143.14 469.475 144.771L469.69 144.156C474.141 139.101 481.172 128.076 488.3 127.214C488.495 127.234 488.688 127.265 488.879 127.306L488.916 127.214C490.194 121.92 492.368 116.883 495.343 112.322C481.935 102.669 466.895 95.5647 451.597 89.3224C410.763 72.6576 367.688 61.4102 323.789 56.8731C280.301 52.3791 235.823 54.9523 193.554 66.4706C158.183 76.1727 124.79 92.0087 94.8952 113.258C91.9115 114.899 89.0037 116.648 86.1719 118.503C88.9422 121.458 91.0784 123.883 91.0784 123.883Z" fill="#EFFBF9"/>
<path d="M102.305 232.484C93.9631 216.435 86.2247 199.856 76.3256 184.712C72.0655 178.205 63.4714 169.322 64.8812 161.485C64.9551 161.06 65.0536 160.629 65.1644 160.192C60.9782 156.258 57.5615 152.842 55.1729 149.788C52.9572 153.435 51.0206 157.244 49.3799 161.183C42.5158 177.706 40.7612 196.932 45.9817 214.176C48.5889 222.905 53.0537 230.968 59.0698 237.809C66.3649 246.065 75.9131 252.073 85.0735 258.02C94.3755 264.059 103.838 269.951 113.977 274.494C118.409 276.471 122.951 278.189 127.582 279.641C116.975 259.738 105.143 237.908 102.305 232.484Z" fill="#EFFBF9"/>
<path d="M242.664 244.742C243.482 233.864 243.895 226.316 242.904 219.766C241.814 212.477 240.638 205.151 237.733 198.293C231.576 204.388 226.448 209.929 216.882 206.955C204.114 202.991 219.406 185.679 226.005 182.669C221.289 178.975 222.927 169.532 224.632 164.674C227.433 156.807 235.96 151.223 243.643 149.284C253.825 146.698 266.248 144.525 276.701 142.728C288.644 140.678 310.037 139.606 310.037 139.606C304.496 146.501 296.493 160.445 293.415 166.491C306.787 188.825 313.072 216.159 315.756 232.035" stroke="#333333" stroke-width="3" stroke-linecap="round" stroke-linejoin="round"/>
<path d="M250.557 177.787C250.277 176.927 250.237 176.007 250.439 175.126C250.642 174.245 251.08 173.435 251.707 172.783C252.334 172.131 253.127 171.662 254 171.426C254.873 171.189 255.793 171.194 256.664 171.44" stroke="#333333" stroke-width="3" stroke-linecap="round" stroke-linejoin="round"/>
<path d="M268.523 166.214C270.112 161.997 273.227 160.803 276.656 163.216" stroke="#333333" stroke-width="3" stroke-linecap="round" stroke-linejoin="round"/>
<path d="M265.184 194.317C270.17 198.626 282.747 196.927 283.037 187.225" stroke="#333333" stroke-width="3" stroke-linecap="round" stroke-linejoin="round"/>
<path d="M469.455 144.796C463.33 143.164 450.734 143.565 444.867 156.16C441.684 162.963 440.293 161.319 434.519 164.163C427.999 167.346 417.897 176.057 406.927 185.796C399.847 192.082 385.996 208.426 365.317 219.852C344.638 231.278 330.097 236.923 323.455 238.764L317.157 230.428C313.74 234.861 305.67 239.903 300.535 242.285C292.73 245.992 284.362 248.372 275.775 249.328C269.182 250.085 262.164 251.409 255.392 250.171C251.908 249.556 242.907 247.007 241.467 244.705C241.467 244.705 237.939 251.206 234.812 251.113C231.685 251.021 215.161 241.916 198.164 225.614C181.167 209.313 162.563 185.15 147.443 170.406C141.964 165.068 136.233 160.297 131.887 154.024C129.375 150.386 127.146 146.243 124.333 142.863C121.162 139.046 118.035 138.929 114.483 136.91C108.739 133.635 107.668 130.692 103.039 126.549C99.9113 123.754 96.8024 120.922 92.019 124.388C83.7882 131.831 67.0372 149.628 64.9318 161.504C63.522 169.322 72.1161 178.224 76.3761 184.731C86.2507 199.857 93.989 216.479 102.306 232.485C107.329 242.144 141.09 304.173 145.467 314.134" stroke="#333333" stroke-width="3" stroke-linecap="round" stroke-linejoin="round"/>
<path d="M242.047 258.083C245.802 264.689 250.081 273.381 265.336 273.83C276.94 274.175 282.856 265.766 286.969 255.11C292.368 261.426 299.897 265.2 308.571 263.993C315.256 263.063 319.923 254.839 320.206 245.303" stroke="#333333" stroke-width="3" stroke-linecap="round" stroke-linejoin="round"/>
<path d="M289.674 269.108C293.645 273.529 286.325 291.006 285.648 296.411C284.94 302.056 281.727 319.251 290.228 320.863C296.471 322.039 301.18 313.125 299.709 324.779C299.333 327.771 297.043 332.739 300.164 334.629C303.286 336.519 307.336 332.203 310.698 334.592C317.47 339.412 315.056 356.612 314.841 364" stroke="#333333" stroke-width="3" stroke-linecap="round" stroke-linejoin="round"/>
<path d="M343.418 298.917C350.922 299.132 362.262 299.434 369.754 299.686" stroke="#333333" stroke-width="3" stroke-linecap="round" stroke-linejoin="round"/>
<path d="M291.23 304.334L292.339 301.779" stroke="#333333" stroke-width="3" stroke-linecap="round" stroke-linejoin="round"/>
<path d="M323.73 343.056L324.34 339.972" stroke="#333333" stroke-width="3" stroke-linecap="round" stroke-linejoin="round"/>
<path d="M469.667 144.186C474.136 139.101 481.167 128.076 488.296 127.214C494.803 127.829 511.892 142.081 515.42 147.726C517.919 151.334 516.066 152.768 512.108 157.219C509.03 160.697 500.934 170.196 500.934 170.196C498.884 181.745 490.296 193.99 485.402 205.287C480.575 216.225 475.107 226.869 469.027 237.163C466.878 240.857 464.631 244.495 462.187 248.054C459.177 252.437 428.328 310.231 428.328 310.231" stroke="#333333" stroke-width="3" stroke-linecap="round" stroke-linejoin="round"/>
<path d="M65.1891 160.205C55.6531 151.242 50.1064 144.944 51.6455 139.656C53.7289 132.509 56.904 125.727 61.0583 119.55C65.8847 112.532 70.9082 109.084 73.8262 108.364C76.7442 107.644 91.0635 123.884 91.0635 123.884" stroke="#333333" stroke-width="3" stroke-linecap="round" stroke-linejoin="round"/>
<path d="M469.453 144.796C475.899 144.987 482.381 150.146 486.167 153.07C489.953 155.994 497.248 162.87 500.942 170.178" stroke="#333333" stroke-width="3" stroke-linecap="round" stroke-linejoin="round"/>
<path d="M172.946 49.3756C172.127 48.76 170.484 47.5657 152.551 53.4018C150.765 35.2841 148.457 34.1267 147.564 33.702C147.161 33.4964 146.712 33.3985 146.26 33.4179C145.808 33.4374 145.369 33.5734 144.985 33.8128C144.117 34.3422 142.664 35.2348 138.872 47.5534C137.573 51.7827 136.409 55.9381 135.917 57.8712C110.178 66.7607 110.153 69.297 110.141 70.7992C110.141 74.0558 114.185 74.616 119.375 75.324C121.888 75.5885 124.376 76.0601 126.812 76.7337C125.894 79.6764 124.214 83.5055 122.705 86.9345C119.012 95.3808 117.904 98.2804 119.178 100.25C119.43 100.632 119.775 100.945 120.179 101.16C120.583 101.375 121.035 101.486 121.493 101.482H121.61C122.909 101.482 124.903 101.1 135.535 87.7041C138.97 83.3947 142.251 79.0054 144.055 76.5798C145.902 78.2543 149.035 81.0061 152.224 83.6656C161.188 91.133 164.21 92.7644 166.267 91.2377C167.719 90.1604 168.569 88.3812 164.297 77.4478C162.61 73.1385 160.566 68.5768 159.255 65.985C160.27 65.0985 161.674 63.935 163.133 62.7222C171.506 55.7842 173.937 53.4448 173.962 51.3456C173.962 50.96 173.87 50.5801 173.693 50.2374C173.516 49.8948 173.26 49.5993 172.946 49.3756Z" fill="#FF9F1C"/>
<path d="M225.126 32.3418L223.993 32.8158C223.082 30.0209 222.3 26.4995 221.598 23.3168C219.844 15.4061 218.877 11.0536 215.676 11.0044C213.952 11.0044 211.367 10.9613 207.014 35.5614C204.693 35.6907 200.366 35.9678 196.075 36.4233C183.892 37.7284 181.608 39.366 181.657 41.9269C181.657 43.3921 181.749 46.7472 201.936 48.8034C201.178 51.5491 199.922 56.1908 198.747 60.9126C194.819 76.6786 195.545 77.6452 196.284 78.6671C196.501 78.9619 196.784 79.2022 197.11 79.3689C197.435 79.5356 197.796 79.6241 198.162 79.6274H198.193C200.039 79.6274 201.505 77.9099 207.901 69.3035C211.114 64.9942 216.427 57.8407 218.323 56.708C220.053 57.3236 224.72 62.1377 227.268 64.7726C231.984 69.6421 233.72 71.3289 235.499 71.2797C235.841 71.2716 236.177 71.1924 236.487 71.0472C236.796 70.902 237.072 70.6939 237.297 70.4363C238.86 68.6448 237.832 66.1269 232.335 55.1689C230.654 51.8076 228.789 48.0893 227.921 45.8546C230.346 44.2724 234.859 41.3236 238.719 38.4179C245.287 33.493 247.22 30.895 246.106 28.5311C244.462 24.9789 238.571 26.7458 225.126 32.3418Z" fill="#FF9F1C"/>
<path d="M306.635 18.6438C302.786 18.307 298.916 18.2741 295.062 18.5453C294.674 16.7353 294.034 13.8542 293.289 10.9485C291.085 2.37294 289.767 -0.095689 287.379 0.00280999C284.99 0.101309 283.464 2.46529 279.801 15.6642C279.77 15.7688 279.745 15.8796 279.714 15.9843C276.155 15.8672 272.592 15.9309 269.04 16.1751C258.075 16.8831 256.056 18.4714 255.385 18.9947C255 19.27 254.683 19.6291 254.457 20.045C254.23 20.4609 254.102 20.9227 254.08 21.3956C253.957 25.2124 259.694 26.7761 269.169 28.8938L270.573 29.2139C267.842 32.7905 265.387 36.5689 263.228 40.5167C260.458 45.4786 257.238 52.0041 257.632 54.9099C257.676 55.3861 257.84 55.8433 258.11 56.2385C258.379 56.6338 258.744 56.954 259.171 57.1692C260.821 57.9757 262.619 57.1199 266.559 53.654C268.8 51.6902 271.724 48.8706 275.245 45.2693C279.025 41.4032 282.712 37.4448 284.91 35.05C286.222 37.5125 288.272 41.2431 290.389 44.9738C297.672 57.8279 298.922 58.5851 300.295 58.5851H300.572C300.964 58.5677 301.346 58.4583 301.689 58.2658C302.031 58.0733 302.323 57.8031 302.542 57.477C304.555 54.5774 302 40.0858 299.913 32.5321C305.934 30.7838 314.54 26.6961 315.784 23.8334C315.963 23.4485 316.045 23.0255 316.022 22.6014C316 22.1774 315.873 21.7654 315.654 21.4017C315.236 20.6753 314.417 19.3332 306.635 18.6438Z" fill="#FF9F1C"/>
<path d="M382.597 42.1172C379.95 39.8825 370.112 37.8079 364.584 37.5001C364.695 36.195 364.83 34.7544 364.972 33.2646C366.277 19.6163 366.351 15.1038 364.301 13.4725C363.944 13.1856 363.52 12.9944 363.068 12.9169C362.617 12.8393 362.154 12.878 361.721 13.0292C359.419 13.7926 357.332 17.3385 353.54 24.1104C351.693 27.3485 349.686 30.9622 347.698 33.8433C345.235 33.0614 341.449 32.2242 339.337 31.8117C330.294 30.0449 329.217 30.9129 328.509 31.4855C328.125 31.7844 327.84 32.1926 327.693 32.6564C327.546 33.1202 327.543 33.6177 327.684 34.0834C327.868 34.699 328.41 36.5459 339.214 44.2596C337.417 46.2111 334.431 49.4923 331.507 52.8782C321.448 64.4519 321.866 65.6215 322.346 66.9759C322.496 67.3983 322.76 67.7709 323.109 68.0524C323.458 68.3338 323.878 68.5131 324.323 68.5704C326.299 68.8412 329.303 67.0559 337.398 61.8909C341.572 59.2253 347.082 55.7347 349.809 54.6574C351.539 56.9598 353.792 60.8874 355.818 64.4088C360.398 72.4118 362.097 75.1575 364.233 75.1575C364.44 75.1555 364.647 75.1307 364.849 75.0836C367.274 74.5357 367.693 71.8516 366.794 62.605C366.369 58.2957 365.692 53.2845 365.101 49.4246C366.788 49.203 368.912 49.0306 370.993 48.8582C379.347 48.1687 383.921 47.7932 383.767 44.3396C383.743 43.9069 383.626 43.4844 383.424 43.1009C383.222 42.7174 382.94 42.3819 382.597 42.1172Z" fill="#FF9F1C"/>
<path d="M435.749 62.5749C436.211 60.2355 436.98 56.1663 437.627 51.9924C439.597 39.2737 438.716 36.9713 437.744 35.8139C437.476 35.4911 437.139 35.2335 436.757 35.0607C436.375 34.8879 435.959 34.8044 435.54 34.8166C434.185 34.8658 432.339 34.9336 423.548 48.5941C420.691 53.0389 418.007 57.5145 416.653 59.8107C397.87 52.8912 396.214 55.1628 395.401 56.2709C395.166 56.5995 394.998 56.9719 394.908 57.3662C394.818 57.7605 394.808 58.1689 394.878 58.5672C395.285 61.1035 398.775 63.7507 404.463 67.8015C405.19 68.3247 405.898 68.8234 406.532 69.2913C389.812 84.7433 389.91 87.1935 389.91 88.1353C389.921 88.5567 390.04 88.9681 390.256 89.3303C390.471 89.6925 390.776 89.9932 391.141 90.2038C392.988 91.2812 395.451 90.1731 406.249 84.5278C410.964 82.0654 416.24 79.2951 420.112 77.756C422.489 81.3328 424.668 87.0211 426.459 91.6936C429.285 99.0503 430.529 102.054 432.911 102.412C433.044 102.42 433.178 102.42 433.311 102.412C433.982 102.409 434.627 102.156 435.121 101.704C436.765 100.201 436.722 97.0434 436.174 87.649C435.952 83.8568 435.706 79.646 435.798 76.2724C437.824 76.1739 440.262 76.1862 442.644 76.1985C450.179 76.2416 454.199 76.1985 455.923 74.4009C456.206 74.1173 456.427 73.7786 456.573 73.4058C456.719 73.033 456.787 72.6341 456.773 72.2339C456.748 70.898 456.643 68.0723 435.749 62.5749Z" fill="#FF9F1C"/>
<path d="M488.914 127.215C490.638 120.018 494.356 112.44 499.503 107.072C503.813 102.517 509.107 99.0073 514.979 96.8094C519.393 95.2395 528.363 93.4789 532.438 96.7663C536.009 99.6412 534.47 104.308 531.207 106.315C527.637 108.506 523.463 109.005 519.51 109.867C515.558 110.729 508.251 113.462 507.931 119.15" stroke="#333333" stroke-width="3" stroke-linecap="round" stroke-linejoin="round"/>
<path d="M558.891 74.8129C561.821 74.776 564.998 75.4593 565.281 79.0853C565.564 82.7113 563.791 85.0691 561.15 86.4727" stroke="#333333" stroke-width="3" stroke-linecap="round" stroke-linejoin="round"/>
<path d="M553.727 98.7782C549.491 96.9314 552.304 90.3442 554.434 88.4666C557.002 86.2011 562.376 85.1792 564.463 88.7867C565.694 90.886 565.922 93.6378 563.367 96.0018C560.812 98.3657 555.801 99.677 553.727 98.7782Z" stroke="#333333" stroke-width="3" stroke-linecap="round" stroke-linejoin="round"/>
<path d="M564.743 94.6792C565.777 95.5103 566.288 96.9262 566.239 99.0439C566.222 100.441 565.868 101.813 565.208 103.045C564.548 104.276 563.601 105.33 562.447 106.117C560.027 107.792 555.152 109.983 552.646 107.503C550.682 105.557 550.879 100.515 552.646 98.0774" stroke="#333333" stroke-width="3" stroke-linecap="round" stroke-linejoin="round"/>
<path d="M561.6 106.659C564.734 106.819 565.054 111.122 563.626 114.471C562.198 117.82 558.153 121.083 554.453 119.433" stroke="#333333" stroke-width="3" stroke-linecap="round" stroke-linejoin="round"/>
<path d="M513.094 96.0271C513.094 96.0271 515.501 69.4447 515.889 65.991C516.141 63.8117 516.172 60.9183 517.963 59.6994C520.173 58.1973 528.429 57.9449 539.479 58.9668C550.53 59.9887 557.609 62.0449 558.563 63.6086C559.518 65.1723 558.508 72.6089 558.139 75.7855C558.04 76.6536 557.671 81.283 557.24 86.9036" stroke="#333333" stroke-width="3" stroke-linecap="round" stroke-linejoin="round"/>
<path d="M511.692 113.67C511.692 113.67 509.962 124.21 510.578 125.804C512.246 130.163 522.422 129.793 526.239 130.415C532.026 131.357 538.053 131.646 543.907 131.991C548.475 132.256 551.978 131.991 552.785 126.949C553.302 123.748 555.426 110.728 555.426 110.728" stroke="#333333" stroke-width="3" stroke-linecap="round" stroke-linejoin="round"/>
<path d="M536.314 132.312C531.567 142.162 520.308 147.85 515.383 147.702" stroke="#333333" stroke-width="3" stroke-linecap="round" stroke-linejoin="round"/>
<path d="M502.001 74.7205L497.273 73.4277" stroke="#333333" stroke-width="3" stroke-linecap="round" stroke-linejoin="round"/>
<path d="M506.055 46.9003L504.055 44.29" stroke="#333333" stroke-width="3" stroke-linecap="round" stroke-linejoin="round"/>
<path d="M510.525 41.8588L509.559 39.0146" stroke="#333333" stroke-width="3" stroke-linecap="round" stroke-linejoin="round"/>
<path d="M564.906 43.5337L568.939 39.5137" stroke="#333333" stroke-width="3" stroke-linecap="round" stroke-linejoin="round"/>
<path d="M577.223 69.8451L581.815 68.7739" stroke="#333333" stroke-width="3" stroke-linecap="round" stroke-linejoin="round"/>
<path d="M577.594 78.7466L580.844 79.5407" stroke="#333333" stroke-width="3" stroke-linecap="round" stroke-linejoin="round"/>
<path d="M47.786 87.7714C41.5683 80.027 25.6237 78.4448 18.6241 85.5121C17.2409 86.9043 16.2031 88.6011 15.5937 90.4666C14.9843 92.3321 14.8204 94.3144 15.1151 96.2547C15.6322 99.3328 19.0735 104.947 22.8473 103.026" stroke="#333333" stroke-width="3" stroke-linecap="round" stroke-linejoin="round"/>
<path d="M28.3789 90.3389C28.3789 91.3115 28.9268 92.2719 28.8591 93.3492C29.21 93.4108 29.6225 93.2877 29.9487 93.3492" stroke="#333333" stroke-width="3" stroke-linecap="round" stroke-linejoin="round"/>
<path d="M15.5002 88.3872C7.44173 92.4749 2.44906 101.272 6.67221 109.361C8.74113 113.006 11.7855 116.001 15.4632 118.011C19.8157 120.159 26.5444 119.211 25.3132 113.88" stroke="#333333" stroke-width="3" stroke-linecap="round" stroke-linejoin="round"/>
<path d="M3.80489 105.569C-1.2124 112.033 5.28854 121.606 10.429 125.331C13.6302 127.652 17.9518 129.745 21.5901 127.042C24.4035 124.955 25.3331 119.556 20.5436 118.904" stroke="#333333" stroke-width="3" stroke-linecap="round" stroke-linejoin="round"/>
<path d="M3.64471 119.679C0.486586 124.037 3.12144 129.806 8.24954 132.354C13.3777 134.903 17.8655 133.555 19.4107 129.128" stroke="#333333" stroke-width="3" stroke-linecap="round" stroke-linejoin="round"/>
<path d="M19.4258 129.744C28.2845 139.219 42.5669 138.554 49.8805 126.506" stroke="#333333" stroke-width="3" stroke-linecap="round" stroke-linejoin="round"/>
<path d="M50.0531 138.449C46.8457 135.987 43.6445 133.18 43.6445 133.18" stroke="#333333" stroke-width="3" stroke-linecap="round" stroke-linejoin="round"/>
<path d="M36.0871 116.571C33.2122 110.938 41.9047 102.726 41.9047 102.726C37.9524 106.013 32.5412 113.647 26.8097 113.622C19.5454 113.585 23.3746 102.892 25.8371 99.1488C33.3107 87.8152 53.2013 82.8903 61.9924 95.2027C64.8181 99.1611 70.5803 108.432 70.5803 108.432" stroke="#333333" stroke-width="3" stroke-linecap="round" stroke-linejoin="round"/>
<path d="M230.684 204.487C232.937 206.334 240.78 211.197 240.872 209.307C240.872 208.975 240.872 208.649 240.872 208.322C240.127 204.893 239.076 201.536 237.732 198.294C235.58 200.573 233.22 202.646 230.684 204.487Z" fill="#333333"/>
<path d="M260.827 133.734C258.364 138.806 251.783 139.711 246.84 140.253C241.896 140.795 235.475 140.733 231.043 142.845C224.887 145.788 218.632 149.684 220.928 158.599C214.526 158.98 213.726 168.005 214.692 173.583C214.538 178.887 215.668 184.15 217.986 188.924C219.216 187.67 220.519 186.49 221.889 185.39C224.984 187.798 228.68 189.31 232.576 189.761C234.336 189.977 234.767 187.816 233.949 186.683C230.12 181.413 230.169 176.156 230.587 169.981C230.793 167.859 230.385 165.722 229.412 163.825C229.546 163.759 229.686 163.705 229.83 163.665C237.082 162.434 242.758 159.46 247.683 156.653C256.148 151.851 261.258 144.79 264.096 135.242C264.674 133.327 261.75 131.831 260.827 133.734Z" fill="#333333"/>
<path d="M222.129 198.096L225.564 195.609" stroke="#333333" stroke-width="3" stroke-linecap="round" stroke-linejoin="round"/>
<path d="M363.68 294.497C363.68 294.497 365.083 303.885 364.763 308.557" stroke="#333333" stroke-width="3" stroke-linecap="round" stroke-linejoin="round"/>
<path d="M357.688 292.231C357.915 299.526 359.534 307.166 358.198 314.479" stroke="#333333" stroke-width="3" stroke-linecap="round" stroke-linejoin="round"/>
</svg>
