<svg width="74" height="92" viewBox="0 0 74 92" fill="none" xmlns="http://www.w3.org/2000/svg">
<path d="M42.1719 66.0098C49.2846 73.4883 56.5458 80.8183 63.9555 87.9998" stroke="#252A33" stroke-width="7" stroke-linecap="round" stroke-linejoin="round"/>
<path d="M11.8627 66.819C7.40277 63.4292 3.92065 55.3785 4.54537 47.5125C5.0886 40.8036 11.3955 31.9271 17.9849 29.9715C22.1081 28.7492 26.9483 27.7497 31.2344 28.0104C37.7532 28.407 41.822 32.1173 44.9238 37.6745C49.6717 46.187 49.9216 56.3889 43.2126 64.0485C38.6223 69.2907 33.6789 71.0779 26.7527 71.8058C23.4118 72.1535 16.3498 70.2087 11.8627 66.819Z" fill="#C0EDE7" stroke="#C0EDE7" stroke-width="7" stroke-linecap="round" stroke-linejoin="round"/>
<path d="M12.4531 45.9537C13.0726 43.9551 14.095 42.1045 15.4572 40.5162C16.8194 38.9279 18.4926 37.6355 20.3735 36.7188" stroke="white" stroke-width="7" stroke-linecap="round" stroke-linejoin="round"/>
<path d="M26.0234 35.0891L27.5608 34.5459" stroke="white" stroke-width="7" stroke-linecap="round" stroke-linejoin="round"/>
<path d="M40.7344 13.7782L44.9118 4" stroke="#252A33" stroke-width="7" stroke-linecap="round" stroke-linejoin="round"/>
<path d="M56.8906 23.7904L64.925 18.4287" stroke="#252A33" stroke-width="7" stroke-linecap="round" stroke-linejoin="round"/>
<path d="M62.6836 42.6732L69.5175 42.6025" stroke="#252A33" stroke-width="7" stroke-linecap="round" stroke-linejoin="round"/>
</svg>
