<svg width="94" height="88" viewBox="0 0 94 88" fill="none" xmlns="http://www.w3.org/2000/svg">
<path d="M45.5717 2.05776C33.6427 1.57087 22.4753 4.09274 14.9409 12.2701C7.56256 20.2789 5.29663 26.827 2.7373 37.7572C0.976985 45.2479 2.69985 52.0457 4.44768 59.3679C6.42648 67.6014 12.1631 73.2757 19.916 78.7439C27.6689 84.2121 42.101 86.2346 48.3869 85.9786C55.4157 85.704 61.2709 85.4356 68.05 83.1696C73.1624 81.4655 81.1962 76.5591 84.2175 72.1084C90.8793 62.1025 93.3949 49.9004 91.2338 38.0756C89.1925 27.3826 84.0052 17.2514 75.497 10.2101C69.2673 5.06029 57.5006 2.5509 45.5717 2.05776Z" fill="#FF9F1C" stroke="#FF9F1C" stroke-width="3" stroke-linecap="round" stroke-linejoin="round"/>
<path d="M37.418 2.23926C43.3731 2.00205 53.086 3.95588 57.1997 6.4403C61.3133 8.92472 67.0624 12.9759 71.276 18.7438C74.7467 23.5004 78.4171 32.5454 78.9165 38.2508C79.6281 46.4157 77.3372 58.2261 73.0987 65.2673C71.1449 68.507 65.4769 75.4172 59.1036 79.7743C52.7302 84.1314 46.9998 85.5796 39.7526 85.3923" stroke="#252A33" stroke-width="3" stroke-linecap="round" stroke-linejoin="round"/>
<path d="M25.5078 37.6507C27.8861 36.4023 30.2769 35.1039 32.5366 33.6807C32.4242 40.6533 31.4629 47.6321 31.4629 54.6671" stroke="#252A33" stroke-width="3" stroke-linecap="round" stroke-linejoin="round"/>
<path d="M25.5078 54.2432C27.2119 55.4542 31.1258 55.2482 33.2108 55.4916C34.7339 55.6539 36.051 56.0784 37.6303 55.9598" stroke="#252A33" stroke-width="3" stroke-linecap="round" stroke-linejoin="round"/>
<path d="M53.1609 33.3882C49.7963 30.9974 45.6701 32.8514 45.5016 37.0087C45.3206 40.829 49.634 44.9988 52.9486 41.2597" stroke="#252A33" stroke-width="3" stroke-linecap="round" stroke-linejoin="round"/>
<path d="M44.4414 50.6289C47.3565 50.6289 50.9209 50.6289 53.8048 51.2531" stroke="#252A33" stroke-width="3" stroke-linecap="round" stroke-linejoin="round"/>
<path d="M11.6809 48.4999C9.55232 41.0654 11.7683 33.3125 15.9319 27.0765C18.2166 23.6495 21.5499 19.3985 25.339 17.6569C28.6599 16.1401 32.2055 15.7843 35.7136 15.5283" stroke="#252A33" stroke-width="3" stroke-linecap="round" stroke-linejoin="round"/>
<path d="M48.6914 15.7402C52.8115 16.1738 56.716 17.7985 59.9275 20.4157C63.8726 23.4681 66.357 28.4807 67.749 33.231C69.2006 38.2962 69.5242 43.618 68.697 48.8217C67.8698 54.0254 65.9119 58.9846 62.9612 63.3499C61.0511 66.1402 56.85 69.5922 53.7976 70.8406" stroke="#252A33" stroke-width="3" stroke-linecap="round" stroke-linejoin="round"/>
<path d="M42.5454 73.3937C40.1109 73.9742 37.4517 73.3126 35.0547 72.7383" stroke="#252A33" stroke-width="3" stroke-linecap="round" stroke-linejoin="round"/>
<path d="M24.9661 68.3448C20.1346 65.4921 17.2008 62.3148 15.2969 57.2148" stroke="#252A33" stroke-width="3" stroke-linecap="round" stroke-linejoin="round"/>
<path d="M62.9453 9.36133C66.8155 9.36133 70.5921 9.57356 74.4311 9.57356" stroke="#252A33" stroke-width="3" stroke-linecap="round" stroke-linejoin="round"/>
<path d="M78.2617 30.417C80.5152 31.1036 86.5077 31.4158 88.8736 30.417" stroke="#252A33" stroke-width="3" stroke-linecap="round" stroke-linejoin="round"/>
<path d="M78.8984 51.0534C82.881 51.0534 87.0134 50.8849 90.8087 51.0534" stroke="#252A33" stroke-width="3" stroke-linecap="round" stroke-linejoin="round"/>
<path d="M70.6172 70.167C73.4387 71.0284 76.5973 70.4729 79.5499 70.5915C81.2727 70.6601 83.4825 70.2107 85.0805 70.8037" stroke="#252A33" stroke-width="3" stroke-linecap="round" stroke-linejoin="round"/>
<path d="M62.7305 77.6387C67.2873 77.6387 71.9003 77.9258 76.3448 78.0632" stroke="#252A33" stroke-width="3" stroke-linecap="round" stroke-linejoin="round"/>
</svg>
