<svg width="298" height="218" viewBox="0 0 298 218" fill="none" xmlns="http://www.w3.org/2000/svg">
<path d="M50.9923 79.2279C56.0145 82.0312 60.1236 85.0217 61.0002 90.8109C66.4104 90.6693 72.4142 90.6145 77.6646 90.683C81.5408 90.7333 85.4536 90.7652 89.307 91.1898C90.1242 91.2766 92.5714 91.1898 93.1877 91.7925C93.7128 92.313 93.8132 93.2398 93.7082 94.299H93.8269C104.83 94.299 124.106 95.3125 126.581 95.2806C129.055 95.2486 133.886 87.2634 138.515 84.6427C143.145 82.0221 149.769 81.7983 154.23 83.2137C155.857 83.7442 157.395 84.5136 158.796 85.4965L158.891 85.4189C166.954 81.1592 177.2 81.9855 188.207 90.2539C192.723 90.2995 202.018 90.4045 204.643 90.3771C211.181 90.3086 242.241 88.7244 250.893 88.2769L250.925 87.9117C252.171 82.0905 254.819 77.7623 260.828 75.653C262.978 74.8951 266.521 74.3336 268.229 76.5205C269.288 77.8902 269.242 81.4148 269.63 82.5288C269.685 82.3143 269.754 82.1042 269.818 81.8942C268.904 77.1369 267.991 73.9272 267.229 73.288C267.197 73.0761 267.144 72.868 267.069 72.6671C251.423 31.9236 203.297 2.67629 159.572 0.178902C112.829 -2.48742 65.8351 24.8332 50.1568 69.873C49.2894 72.3612 48.4676 74.8951 47.6914 77.4701C48.778 78.0089 49.8738 78.607 50.9923 79.2279Z" fill="white"/>
<path d="M266.569 142.717C261.058 141.087 256.584 136.544 256.584 131.239L255.799 130.056C255.351 130.378 254.852 130.623 254.324 130.782C252.302 131.408 242.234 131.668 239.299 131.485C234.436 131.179 229.515 131.718 224.602 131.449C224.771 131.056 224.922 130.654 225.059 130.252H224.798C221.689 130.545 215.818 130.809 212.7 131.001L211.554 131.056C211.496 131.464 211.415 131.868 211.312 132.266C210.481 135.448 205.764 141.612 201.966 139.785L201.989 139.575C201.586 140.611 201.049 141.589 200.391 142.484C199.395 143.821 196.076 146.885 192.675 145.986C191.205 148.857 184.813 153.592 179.183 151.464C176.444 153.898 171.536 161.696 163.542 155.162C163.542 155.162 158.433 156.436 157.118 156.354C154.26 156.167 150.621 155.596 149.247 152.702C142.07 154.984 133.413 156.158 130.528 147.994V147.972C126.907 149.264 122.794 149.223 119.447 147.515C118.269 146.908 115.406 145.26 115.283 143.68C110.717 144.063 95.514 143.625 89.8252 143.579C90.0718 144.566 90.2818 145.524 90.1083 145.753C89.0673 147.319 81.3058 146.173 79.4476 146.068C73.147 145.716 66.8374 145.771 60.5231 145.789L60.3542 146.04C60.4044 149.885 58.1992 154.026 55.332 157.285C64.9198 173.959 76.6534 187.094 89.428 195.856C106.234 207.357 127.907 217.478 159.652 217.478C191.396 217.478 226.483 203.247 244.376 185.93C261.054 169.768 268.158 154.56 271.153 143.675C269.599 143.495 268.065 143.174 266.569 142.717Z" fill="white"/>
<path d="M93.8359 94.308C104.839 94.308 124.115 95.3215 126.59 95.2896C129.064 95.2576 133.895 87.2723 138.524 84.6517C143.154 82.031 149.778 81.8073 154.239 83.2226C160.462 85.1904 164.178 90.4957 168.351 95.0932C172.031 99.1475 175.433 103.54 178.692 107.904C181.085 111.1 183.815 116.059 182.226 119.912C180.505 124.099 173.784 124.099 168.936 120.898C164.05 117.632 159.583 113.779 155.636 109.425C154.047 112.598 147.728 116.109 144.555 117.186C141.382 118.264 135.556 118.346 132.228 117.186" stroke="#252A33" stroke-width="3" stroke-linecap="round" stroke-linejoin="round"/>
<path d="M110.825 120.897C110.898 121.986 110.73 123.077 110.332 124.093" stroke="#252A33" stroke-width="3" stroke-linecap="round" stroke-linejoin="round"/>
<path d="M89.8984 143.548C94.7517 143.548 110.471 144.06 115.283 143.653" stroke="#252A33" stroke-width="3" stroke-linecap="round" stroke-linejoin="round"/>
<path d="M143.812 117.415C140.438 121.455 136.58 124.893 132.617 128.472C128.088 132.559 123.427 135.517 118.697 139.476C117.514 140.466 115.163 142.16 115.282 143.639C115.405 145.219 118.268 146.867 119.446 147.475C123.623 149.62 129.001 149.164 133.11 146.744C136.85 144.539 151.487 131.988 151.487 131.988" stroke="#252A33" stroke-width="3" stroke-linecap="round" stroke-linejoin="round"/>
<path d="M130.527 148.004C133.417 156.167 142.074 154.994 149.246 152.711C150.616 155.619 154.269 156.19 157.117 156.364C159.085 156.491 165.249 154.903 166.961 153.898" stroke="#252A33" stroke-width="3" stroke-linecap="round" stroke-linejoin="round"/>
<path d="M167.212 154.396C169.243 149.904 168.627 145.265 169.864 140.553C170.476 138.234 171.234 136.234 174.106 136.901C175.905 137.33 177.649 139.047 178.215 140.896C178.941 143.179 178.767 150.972 178.767 150.972C179.722 146.014 178.343 138.038 180.183 132.71C180.941 130.504 181.671 128.107 184.178 128.085C186.894 128.085 189.099 130.865 190.063 133.084C191.318 135.969 191.569 141.402 191.569 141.402C191.569 141.402 189.857 131.888 191.2 126.409C191.656 124.501 192.546 122.008 194.395 121.387C197.331 120.387 200.646 122.843 201.746 125.322C203.974 130.345 203.773 137.96 200.376 142.494C199.381 143.831 196.062 146.895 192.661 145.995C191.19 148.867 184.799 153.602 179.169 151.474C176.43 153.908 171.522 161.706 163.527 155.172" stroke="#252A33" stroke-width="3" stroke-linecap="round" stroke-linejoin="round"/>
<path d="M149.25 152.688C152.473 151.392 163.805 141.649 165.732 140.051" stroke="#252A33" stroke-width="3" stroke-linecap="round" stroke-linejoin="round"/>
<path d="M158.902 85.4091C166.965 81.1494 177.21 81.9758 188.218 90.2441C192.734 90.2898 202.029 90.3948 204.654 90.3674C212.27 90.2898 253.15 88.1485 253.15 88.1485" stroke="#252A33" stroke-width="3" stroke-linecap="round" stroke-linejoin="round"/>
<path d="M212.727 131.001C215.845 130.809 221.716 130.545 224.825 130.252" stroke="#252A33" stroke-width="3" stroke-linecap="round" stroke-linejoin="round"/>
<path d="M228.555 89.5912C228.979 92.9606 229.577 96.1429 229.751 99.5716C229.997 104.32 229.564 109.086 229.011 113.771C228.299 119.816 226.934 126.038 224.605 131.449C229.518 131.718 234.44 131.179 239.302 131.485C242.238 131.668 252.305 131.408 254.328 130.782C257.688 129.737 257.811 126.632 258.277 123.568C259.226 116.826 259.318 109.99 258.551 103.224C257.93 98.2248 256.834 94.0336 253.264 88.395" stroke="#252A33" stroke-width="3" stroke-linecap="round" stroke-linejoin="round"/>
<path d="M247.355 125.943L249.693 125.82" stroke="#252A33" stroke-width="3" stroke-linecap="round" stroke-linejoin="round"/>
<path d="M256.586 131.239C256.586 136.544 261.06 141.087 266.571 142.717C269.639 143.63 273.538 144.333 276.515 143.137C279.893 141.767 281.135 138.48 282.692 135.517C284.062 138.799 285.523 141.516 289.381 142.52C292.577 143.356 297.092 142.676 296.193 137.886" stroke="#252A33" stroke-width="3" stroke-linecap="round" stroke-linejoin="round"/>
<path d="M250.926 87.9027C252.172 82.0816 254.82 77.7534 260.829 75.6441C262.979 74.8862 266.526 74.3246 268.229 76.5115C269.289 77.8812 269.243 81.4059 269.631 82.5199C271.225 76.5846 275.676 71.0328 281.552 68.5993C285.939 66.7731 289.341 68.3482 290.811 72.6399" stroke="#252A33" stroke-width="3" stroke-linecap="round" stroke-linejoin="round"/>
<path d="M61.0376 90.8609C66.8907 90.6829 71.8398 90.6052 77.693 90.6829C81.5692 90.7331 85.4819 90.765 89.3353 91.1896C90.1525 91.2764 92.5997 91.1896 93.216 91.7923C94.7501 93.3081 92.7047 98.207 92.3029 100.115C90.8237 107.151 89.4905 114.47 88.728 121.61C87.9674 128.106 88.1211 134.676 89.1846 141.128C89.2485 141.516 90.4538 145.237 90.1251 145.726C89.0842 147.292 81.3226 146.146 79.4644 146.041C72.2873 145.639 65.0964 145.767 57.9102 145.767" stroke="#252A33" stroke-width="3" stroke-linecap="round" stroke-linejoin="round"/>
<path d="M2 74.402C9.05844 72.5757 16.0986 72.8816 23.4218 72.8862C28.6034 72.8709 33.7738 73.3664 38.8582 74.3654C43.4238 75.2786 46.9667 76.9678 51.0027 79.2278C56.0888 82.0722 60.2709 85.1038 61.0471 91.0573C56.6504 95.0431 55.8149 110.196 55.8149 121.154C55.8149 132.111 55.9107 138.827 57.1435 145.274" stroke="#252A33" stroke-width="3" stroke-linecap="round" stroke-linejoin="round"/>
<path d="M60.3524 146.014C60.4209 151.47 55.9557 157.533 51.5362 160.811C42.6972 167.367 33.4473 165.08 24.2065 161.313C22.6633 163.806 19.7367 165.491 16.9015 166.559C12.3359 168.294 6.68366 168.604 2.00391 168.417" stroke="#252A33" stroke-width="3" stroke-linecap="round" stroke-linejoin="round"/>
<path d="M116.629 180.662L112.383 185.017" stroke="#252A33" stroke-width="3" stroke-linecap="round" stroke-linejoin="round"/>
<path d="M179.738 188.948L181.505 194.418" stroke="#252A33" stroke-width="3" stroke-linecap="round" stroke-linejoin="round"/>
<path d="M205.449 179.091L208.86 182.091" stroke="#252A33" stroke-width="3" stroke-linecap="round" stroke-linejoin="round"/>
<path d="M116.154 55.4687L111.141 50.9351" stroke="#252A33" stroke-width="3" stroke-linecap="round" stroke-linejoin="round"/>
<path d="M158.383 39.3195L159.214 34.8589" stroke="#252A33" stroke-width="3" stroke-linecap="round" stroke-linejoin="round"/>
<path d="M172.758 38.3334L175.397 32.5762" stroke="#252A33" stroke-width="3" stroke-linecap="round" stroke-linejoin="round"/>
<path d="M201.91 59.3256L207.083 56.8647" stroke="#252A33" stroke-width="3" stroke-linecap="round" stroke-linejoin="round"/>
<path d="M203.485 126.701C208.854 124.099 212.821 126.701 211.333 132.267C210.484 135.449 205.767 141.612 201.969 139.786" stroke="#252A33" stroke-width="3" stroke-linecap="round" stroke-linejoin="round"/>
</svg>
