<svg width="375" height="421" viewBox="0 0 375 421" fill="none" xmlns="http://www.w3.org/2000/svg">
<path d="M354.297 90.3137C335.69 60.4225 309.869 34.5616 278.783 17.6142C246.802 0.149698 197.331 -2.53715 161.085 1.86257C142.902 4.07922 118.579 8.95586 102.062 16.8955C84.5031 25.3389 69.0134 37.4499 55.7134 51.5962C28.7912 80.2515 7.09486 115.362 2.06374 154.402C-2.68528 191.225 0.250108 230.366 16.2503 264.093C23.3241 279.029 32.8817 292.657 44.516 304.395C46.4841 301.292 49.668 297.007 52.5765 297.551L45.1004 266.692C43.3078 259.295 44.5271 251.488 48.49 244.989C52.453 238.49 58.8351 233.832 66.2325 232.038L104.91 222.668C108.94 217.294 113.084 212.075 115.429 208.79C120.625 201.605 126.327 194.799 132.49 188.424C137.36 183.299 142.673 178.449 147.503 173.29C149.814 170.825 150.485 170.496 150.667 166.822C150.815 163.799 150.942 160.85 151.097 157.854C151.372 152.629 151.822 147.571 152.064 142.472L153.051 142.412L152.89 140.162C152.89 130.932 150.875 121.475 149.532 112.4C148.893 108.148 147.812 100.779 146.845 94.0216C140.477 90.663 136.406 84.9064 133.881 78.3237C131.389 78.196 129.098 78.0483 127.835 77.9206C120.91 77.1952 114.488 71.3782 118.875 63.7676C120.802 60.4091 125.498 58.629 130.415 57.7222C130.448 51.1126 131.187 43.9118 133.807 38.0142C135.244 34.7832 138.254 32.0091 141.592 31.297C142.714 30.6656 143.144 30.5716 143.694 29.1744C144.01 28.3885 144.238 27.569 144.588 26.7898C147.987 19.2264 156.343 15.3707 164.276 15.0886C168.904 14.9207 173.579 15.8745 177.992 17.1978C183.03 18.7091 188.236 21.4228 193.562 19.7772C196.001 19.0248 197.485 21.7386 196.599 23.7268C195.337 26.5242 193.523 29.0375 191.265 31.1157C199.722 33.957 209.475 37.6985 213.317 39.5255C221.64 43.4534 229.587 48.1299 237.063 53.4971C234.685 55.5862 219.289 62.7735 214.224 64.4729C208.75 66.3134 203.141 69.2152 197.734 70.4579C198.862 81.8098 207.05 123.214 208.481 131.671L208.642 132.773C209.088 132.955 209.501 133.21 209.865 133.525C212.202 135.433 213.828 143.5 214.688 146.408C216.233 151.621 216.804 157.048 217.885 162.127C226.402 163.577 237.593 170.315 244.458 175.198C247.474 177.341 252.666 181.855 257.167 185.865L297.832 176.011C301.495 175.123 305.296 174.966 309.02 175.548C312.743 176.129 316.315 177.439 319.533 179.401C322.75 181.363 325.549 183.94 327.771 186.984C329.992 190.028 331.592 193.48 332.479 197.143L337.181 216.435C345.443 219.249 354.417 225.093 359.576 232.274C361.994 235.632 364.359 240.73 365.904 245.003C370.698 233.24 373.512 220.766 374.233 208.085C376.517 169.448 374.549 122.852 354.297 90.3137Z" fill="#C0EDE7"/>
<path d="M358.387 303.86L364.345 328.424C365.232 332.088 365.39 335.89 364.807 339.614C364.225 343.338 362.916 346.911 360.953 350.129C358.99 353.347 356.412 356.147 353.367 358.369C350.322 360.591 346.869 362.191 343.206 363.078L111.593 419.193C104.2 420.984 96.3979 419.766 89.9023 415.808C83.4067 411.849 78.7488 405.473 76.9523 398.081L73.5938 384.177" stroke="#252A33" stroke-width="2" stroke-linecap="round" stroke-linejoin="round"/>
<path d="M59.1559 324.627L45.1238 266.705C43.3312 259.308 44.5505 251.501 48.5134 245.002C52.4764 238.503 58.8585 233.845 66.2559 232.051L297.863 175.937C301.525 175.049 305.327 174.892 309.05 175.473C312.773 176.055 316.346 177.364 319.563 179.327C322.78 181.289 325.579 183.866 327.801 186.91C330.022 189.954 331.622 193.406 332.51 197.069L344.05 244.686" stroke="#252A33" stroke-width="2" stroke-linecap="round" stroke-linejoin="round"/>
<path d="M320.26 256.629C319.911 255.333 319.588 254.217 319.474 253.546C318.48 248.803 316.834 245.848 314.295 244.256C310.607 241.932 306.12 243.04 300.438 244.437C299.282 244.719 298.066 245.022 296.783 245.311C288.656 247.131 280.273 249.294 271.883 251.732L271.352 251.887C264.071 253.996 261.76 255.044 261.619 262.97C261.223 284.606 264.837 296.556 272.367 298.457C272.969 298.603 273.587 298.673 274.207 298.665C277.203 298.665 281.347 297.402 285.982 295.884C287.326 295.454 288.421 295.085 289.166 294.89C297.71 292.66 307.813 289.516 317.466 286.433C327.407 283.269 322.759 265.939 320.26 256.629Z" fill="#FF9F1C"/>
<path d="M276.674 253.299L287.045 262.864L263.871 270.045" stroke="#252A33" stroke-width="2" stroke-linecap="round" stroke-linejoin="round"/>
<path d="M265.66 279.737C283.051 274.505 299.918 268.728 317.248 264.866" stroke="#252A33" stroke-width="2" stroke-linecap="round" stroke-linejoin="round"/>
<path d="M289.218 273.049C288.996 279.873 284.569 288.236 284.764 293.489" stroke="#252A33" stroke-width="2" stroke-linecap="round" stroke-linejoin="round"/>
<path d="M301.857 269.131L297.336 290.183" stroke="#252A33" stroke-width="2" stroke-linecap="round" stroke-linejoin="round"/>
<path d="M291.234 250.303C291.234 250.303 295.721 256.577 296.87 259.842C303.251 257.954 310.472 257.625 316.988 255.603" stroke="#252A33" stroke-width="2" stroke-linecap="round" stroke-linejoin="round"/>
<path d="M97.3944 281.659C89.3338 263.1 116.726 245.635 130.409 260.366C143.172 274.116 137.254 294.623 117.895 295.584C108.444 296.041 101.304 292.205 97.3944 281.659Z" stroke="#252A33" stroke-width="2" stroke-linecap="round" stroke-linejoin="round"/>
<path d="M127.473 269.957C127.473 260.963 130.374 255.032 141.29 251.418C149.29 248.771 157.848 249.362 162.039 257.705C169.515 272.57 156.121 289.988 139.429 285.561C134.606 284.285 127.473 278.958 127.473 269.957Z" stroke="#252A33" stroke-width="2" stroke-linecap="round" stroke-linejoin="round"/>
<path d="M129.012 347.755C129.012 347.755 153.234 339.48 167.299 335.664C183.535 331.238 201.671 324.735 217.846 320.215" stroke="#252A33" stroke-width="2" stroke-linecap="round" stroke-linejoin="round"/>
<path d="M129.012 365.24C153.381 355.762 175.461 351.443 200.388 343.88" stroke="#252A33" stroke-width="2" stroke-linecap="round" stroke-linejoin="round"/>
<path d="M138.648 378.862C155.643 373.387 217.4 355.573 217.4 355.573" stroke="#252A33" stroke-width="2" stroke-linecap="round" stroke-linejoin="round"/>
<path d="M104.938 222.681C108.968 217.308 113.112 212.088 115.45 208.804C120.651 201.62 126.354 194.814 132.518 188.437C137.388 183.312 142.701 178.456 147.531 173.304C149.842 170.838 150.513 170.509 150.695 166.835C150.842 163.812 150.97 160.864 151.124 157.868C151.4 152.642 151.85 147.584 152.092 142.485C157.311 142.23 162.167 141.713 167.34 141.075C179.048 139.611 192.139 138.764 203.095 134.23C206.286 132.887 207.562 131.543 209.899 133.451C212.237 135.359 213.862 143.426 214.722 146.334C216.267 151.547 216.838 156.974 217.92 162.052C226.437 163.503 237.628 170.241 244.493 175.124C247.509 177.267 252.701 181.781 257.201 185.791" stroke="#252A33" stroke-width="2" stroke-linecap="round" stroke-linejoin="round"/>
<path d="M56.6376 326.24C59.9962 325.091 76.2852 308.352 80.4028 311.556C85.743 315.721 71.59 329.585 70.3271 332.285C68.7755 335.509 68.3993 337.424 71.8922 339.459C74.8276 341.172 79.4423 342.489 82.7337 343.382C86.596 344.43 102.885 346.741 103.261 351.543C103.933 359.604 81.8269 357.656 77.4003 357.367C82.632 357.307 87.8489 357.934 92.9169 359.234C97.4576 360.477 105.485 362.022 107.023 366.986C109.945 376.35 87.2745 370.076 82.7874 367.181C88.4029 368.578 108.883 372.42 109.925 379.997C110.731 385.854 99.8489 382.348 96.5575 381.522C91.7145 380.319 84.4667 379.641 80.0737 377.048C83.7278 378.022 96.8665 381.609 95.9933 386.842C94.717 393.411 74.4985 385.438 66.1692 380.293C56.9265 374.563 50.881 364.729 48.7047 354.25C46.9515 345.814 44.9565 338.714 46.7836 330.136C47.7038 325.844 52.426 317.635 57.0944 316.614" stroke="#252A33" stroke-width="2" stroke-linecap="round" stroke-linejoin="round"/>
<path d="M155.156 170.631C160.255 171.652 169.014 175.79 174.582 172.814C180.728 169.53 181.434 153.516 182.576 147.376C184.833 153.032 190.334 167.817 197.024 169.778C204.588 171.988 207.274 165.204 213.817 163.464" stroke="#252A33" stroke-width="2" stroke-linecap="round" stroke-linejoin="round"/>
<path d="M346.148 243.397C342.79 247.206 327.952 244.694 328.973 249.362C329.799 253.923 336.684 255.911 340.586 258.518C344.885 261.386 347.236 262.474 344.576 267.357C341.466 273.06 333.735 279.206 330.027 284.594C327.643 288.046 325.493 295.959 332.714 293.548C339.068 291.425 345.087 284.385 349.104 279.623C345.181 284.439 339.942 288.355 336.341 293.326C334.205 296.275 326.904 302.508 330.296 306.25C335.609 310.119 346.612 295.401 351.119 291.123C345.201 294.911 332.895 309.259 336.099 311.63C341.003 314.263 350.205 303.287 352.892 299.741C348.862 304.093 343.643 313.927 345.503 315.157C355.223 320.994 365.91 284.795 366.844 279.636C369.336 265.853 361.134 236.459 340.741 231.085" stroke="#252A33" stroke-width="2" stroke-linecap="round" stroke-linejoin="round"/>
<path d="M50.8161 360.949C38.4298 346.977 32.5859 324.213 43.0914 306.762C44.5088 304.404 48.7808 296.847 52.6029 297.566" stroke="#252A33" stroke-width="2" stroke-linecap="round" stroke-linejoin="round"/>
<path d="M365.547 261.385C368.113 258.073 367.777 250.671 366.689 247.205C365.238 242.604 362.451 236.202 359.582 232.199C354.424 225.018 345.476 219.174 337.188 216.36" stroke="#252A33" stroke-width="2" stroke-linecap="round" stroke-linejoin="round"/>
<path d="M152.917 140.176C152.917 130.946 150.902 121.489 149.558 112.414C148.161 103.097 144.628 78.8283 144.628 78.8283C144.628 78.8283 131.644 78.3312 127.835 77.9349C120.91 77.2094 114.488 71.3924 118.874 63.7819C122.408 57.6492 135.204 56.7356 141.645 56.8162C139.872 45.5718 143.298 33.7899 154.677 29.0073C162.025 25.9242 170.361 26.5287 178.187 27.3885C183.97 28.0132 206.889 36.4029 213.304 39.4793C221.626 43.4072 229.574 48.0837 237.049 53.451C234.671 55.54 219.275 62.7273 214.211 64.4268C208.729 66.2672 203.127 69.169 197.72 70.4117C198.848 81.7637 207.037 123.168 208.467 131.625" stroke="#252A33" stroke-width="2" stroke-linecap="round" stroke-linejoin="round"/>
<path d="M161.429 76.1421C160.623 83.7929 166.897 89.3144 173.964 89.5763" stroke="#252A33" stroke-width="2" stroke-linecap="round" stroke-linejoin="round"/>
<path d="M174.41 61.3638L173.066 55.54" stroke="#252A33" stroke-width="2" stroke-linecap="round" stroke-linejoin="round"/>
<path d="M188.738 55.5417L187.395 49.7246" stroke="#252A33" stroke-width="2" stroke-linecap="round" stroke-linejoin="round"/>
<path d="M133.262 78.3052C135.613 85.2708 139.71 91.4304 146.595 94.6144C146.716 94.6748 146.837 94.7017 146.958 94.7487C145.735 86.4262 144.634 78.8291 144.634 78.8291C144.634 78.8291 138.367 78.5873 133.262 78.3052Z" fill="#252A33"/>
<path d="M193.542 19.7379C188.216 21.3836 183.01 18.6698 177.972 17.1585C173.559 15.8151 168.884 14.8814 164.256 15.0493C156.323 15.3314 147.967 19.1871 144.568 26.7505C144.218 27.5297 143.99 28.3492 143.674 29.1351C143.123 30.5323 142.694 30.6263 141.572 31.2577C138.213 32.0033 135.224 34.7775 133.787 37.9749C131.167 43.8725 130.428 51.0733 130.395 57.6829C132.572 57.2837 134.773 57.0213 136.984 56.897C138.499 62.0905 141.024 66.9342 144.413 71.1508C145.898 73.0114 149.048 71.4262 148.994 69.2498C148.813 61.1893 153.636 54.1967 154.415 46.2705C154.611 44.3982 154.564 42.5084 154.274 40.6483H155.268C156.544 40.5811 157.814 40.5408 159.09 40.4871C161.636 40.3863 164.188 40.2923 166.727 40.084C171.229 39.8299 175.68 39.0038 179.974 37.6256C187.013 35.1738 193.468 30.633 196.578 23.6741C197.492 21.6993 196.007 18.9855 193.542 19.7379Z" fill="#252A33"/>
<path d="M185.834 167.274C185.78 169.961 186.962 173.051 187.406 175.785C187.97 179.224 188.46 182.683 188.971 186.162C189.777 191.536 191.899 201.612 191.899 201.612" stroke="#252A33" stroke-width="2" stroke-linecap="round" stroke-linejoin="round"/>
<path d="M195.906 190.554C196.062 190.583 196.223 190.579 196.377 190.54C196.531 190.502 196.675 190.431 196.8 190.333" stroke="#252A33" stroke-width="2" stroke-linecap="round" stroke-linejoin="round"/>
<path d="M134.976 68.3632C132.921 67.6915 131.221 67.1609 128.984 67.3221" stroke="#252A33" stroke-width="2" stroke-linecap="round" stroke-linejoin="round"/>
</svg>
