<svg width="379" height="350" viewBox="0 0 379 350" fill="none" xmlns="http://www.w3.org/2000/svg">
<path d="M79.0303 233.963C81.7484 232.15 85.022 231.362 88.2672 231.739C89.3771 231.881 90.4762 232.096 91.5573 232.385C91.5573 232.385 111.317 213.497 122.564 205.472C126.89 202.383 131.039 200.988 135.115 200.97C140.465 196.443 148.648 187.504 153.534 182.015V181.357C151.213 170.536 146.424 160.135 141.464 150.283C138.838 145.043 128.895 129.384 140.678 129.427C145.071 129.427 151.237 135.678 154.844 141.345C150.744 131.157 147.904 121.902 143.652 111.648C141.617 106.743 134.628 86.2221 147.472 86.5328H149.3C148.837 83.7057 149.525 81.1711 153.09 79.7271C160.151 76.8695 163.301 83.9251 166.08 87.7514L166.116 87.7941C166.799 78.5633 178.552 82.7126 181.885 93.2107L181.933 93.4361C183.061 92.9913 184.535 93.0522 186.406 93.9357C186.089 92.4917 183.968 88.6105 183.432 86.2221C182.214 80.8664 183.231 74.1277 189.805 75.9556C201.991 79.3493 207.706 103.849 210.095 113.732C208.084 100.144 207.048 96.1657 204.209 87.5625C202.576 82.609 196.514 74.1947 199.146 68.8695C202.192 62.6974 211.003 67.0417 214.073 70.5451C224.431 82.2556 225.132 100.4 227.782 114.932C227.698 105.832 226.953 96.7496 225.552 87.7575C224.175 78.7888 220.837 67.7301 225.028 63.8124C232.456 56.8726 238.14 67.8398 239.749 73.9997C244.587 92.5283 244.44 114.755 242.411 134.179C244.599 130.688 246.902 127.307 249.351 124.102C253.507 118.667 261.037 105.214 270.067 108.224C278.756 111.118 270.067 124.772 267.715 130.274C263.633 139.791 260.44 149.625 256.352 159.087C254.347 163.742 248.712 172.875 247.268 179.535C247.268 179.535 261.683 198.849 268.879 207.562L269.147 207.635C269.543 206.855 269.89 206.1 270.171 205.387C281.138 214.35 288.9 223.879 298.472 233.165C300.02 234.67 301.238 235.73 302.128 236.705C302.548 236.187 302.963 235.663 303.347 235.139C321.016 212.4 328.833 184.275 329.973 156.412C330.485 141.622 329.446 126.819 326.871 112.245C324.66 99.3036 321.004 86.5633 314.947 74.7248C308.695 62.517 299.513 52.0499 288.224 44.2603C276.806 36.3395 263.274 31.1971 249.644 27.7485C221.05 20.5102 188.605 17.8841 160.078 26.7493C133.087 35.1331 112.06 53.9785 96.3463 75.7728C66.3144 117.412 51.9047 174.679 73.1933 222.575C74.9256 226.477 76.8743 230.278 79.0303 233.963Z" fill="#EFFBF9"/>
<path d="M242.202 270.935C235.299 263.264 227.275 253.674 221.553 244.894C222.272 244.674 222.985 244.443 223.692 244.205C220.244 240.166 201.289 217.665 200.35 210.926C199.205 212.144 198.035 213.284 196.938 214.46C187.129 224.952 180.091 234.182 171.129 245.43L170.27 245.936C169.618 253.698 164.134 258.932 158.541 265.433C153.102 271.566 147.338 277.403 141.273 282.919C156.329 285.588 171.738 285.454 186.97 284.138C202.202 282.822 217.587 280.945 232.509 277.655C236.865 276.693 241.209 275.578 245.499 274.28C244.189 273.049 243.055 271.879 242.202 270.935Z" fill="#EFFBF9"/>
<path d="M2.14453 283.035C3.9724 274.962 13.2702 265.682 19.9236 260.662C22.6289 258.614 27.1315 255.026 30.702 256.64C35.0035 258.578 34.6989 266.821 38.0134 269.874C39.0005 260.515 46.7933 247.489 53.6722 241.237C58.2236 237.106 63.7742 238.063 68.5267 241.81C75.0765 237.813 79.5731 230.703 88.2372 231.745C95.6096 232.634 103.147 237.307 108.624 242.188C116.746 249.42 123.552 255.94 128.225 265.877C131.564 272.981 132.319 280.616 134.007 288.555C136.274 299.199 131.795 305.469 120.438 305.39C120.359 309.386 117.203 314.901 114.955 318.185C111.409 323.345 107.527 322.998 103.22 326.142C100.21 328.341 98.583 332.143 96.3591 335.013C92.9044 339.467 89.011 343.379 86.123 348.162" stroke="#252A33" stroke-width="3" stroke-linecap="round" stroke-linejoin="round"/>
<path d="M112.426 297.615C112.981 296.515 113.759 295.542 114.711 294.758" stroke="#252A33" stroke-width="3" stroke-linecap="round" stroke-linejoin="round"/>
<path d="M91.5508 232.385C91.5508 232.385 111.31 213.497 122.558 205.472C133.214 197.862 142.78 200.513 152.943 208.775C162.765 216.762 168.291 228.936 170.107 241.366C171.636 251.809 165.171 257.737 158.53 265.439C153.449 271.343 139.423 285.545 134.024 288.592" stroke="#252A33" stroke-width="3" stroke-linecap="round" stroke-linejoin="round"/>
<path d="M26.9236 144.61C31.798 156.388 32.1392 161.5 22.75 168.744C31.8894 160.178 38.9632 163.218 45.4034 172.028C39.9503 164.857 39.2374 163.066 40.1209 158.015C40.6022 155.285 45.0378 150.581 47.6273 148.754C42.5885 152.22 33.0165 156.997 26.9236 144.61Z" stroke="#252A33" stroke-width="3" stroke-linecap="round" stroke-linejoin="round"/>
<path d="M135.109 200.97C143.158 194.164 157.623 177.354 157.623 177.354" stroke="#252A33" stroke-width="3" stroke-linecap="round" stroke-linejoin="round"/>
<path d="M171.133 245.43C180.095 234.183 187.133 224.952 196.942 214.46C200.421 210.737 204.619 207.033 206.691 202.694C208.994 197.82 209.25 188.492 209.25 183.075C209.25 161.872 207.288 138.548 199.836 118.491C197.722 112.812 192.373 96.7024 186.432 93.9057C180.638 91.1761 178.603 96.2515 179.273 100.309C181.101 111.313 183.812 122.518 184.964 132.212" stroke="#252A33" stroke-width="3" stroke-linecap="round" stroke-linejoin="round"/>
<path d="M86.6843 76.2541L71.8359 74.542" stroke="#252A33" stroke-width="3" stroke-linecap="round" stroke-linejoin="round"/>
<path d="M102.246 43.1273L93.5391 37.4121" stroke="#252A33" stroke-width="3" stroke-linecap="round" stroke-linejoin="round"/>
<path d="M181.883 93.205C178.026 81.0192 162.849 77.3634 166.687 93.205C168.082 98.9506 168.478 107.066 169.91 112.928C171.232 118.326 172.957 128.196 172.957 128.196" stroke="#252A33" stroke-width="3" stroke-linecap="round" stroke-linejoin="round"/>
<path d="M188.93 209.348C190.648 209.555 193.664 207.636 193.664 207.636" stroke="#252A33" stroke-width="3" stroke-linecap="round" stroke-linejoin="round"/>
<path d="M166.081 87.7462C163.303 83.9198 160.153 76.8642 153.091 79.7218C146.602 82.3478 149.636 88.587 151.83 93.6319C156.058 103.381 161.981 126.741 161.981 126.741" stroke="#252A33" stroke-width="3" stroke-linecap="round" stroke-linejoin="round"/>
<path d="M219.203 207.636C220.696 206.119 222.603 205.449 224.346 205.924" stroke="#252A33" stroke-width="3" stroke-linecap="round" stroke-linejoin="round"/>
<path d="M147.46 86.5269C134.616 86.2162 141.605 106.737 143.64 111.642C147.905 121.896 150.732 131.139 154.832 141.339C155.996 144.227 158.634 151.148 158.634 151.148" stroke="#252A33" stroke-width="3" stroke-linecap="round" stroke-linejoin="round"/>
<path d="M238.02 141.563C241.389 135.483 245.176 129.644 249.352 124.088C253.508 118.653 261.038 105.2 270.068 108.21C278.757 111.104 270.068 124.758 267.716 130.26C263.634 139.777 260.441 149.611 256.353 159.074C253.782 165.032 245.258 178.351 247.214 184.396" stroke="#252A33" stroke-width="3" stroke-linecap="round" stroke-linejoin="round"/>
<path d="M153.514 181.357C151.193 170.536 146.404 160.135 141.444 150.283C138.818 145.043 128.874 129.384 140.658 129.427C145.051 129.427 151.217 135.678 154.824 141.345" stroke="#252A33" stroke-width="3" stroke-linecap="round" stroke-linejoin="round"/>
<path d="M242.411 134.179C244.44 114.755 244.586 92.528 239.748 73.9995C238.14 67.8396 232.437 56.8724 225.028 63.8C220.836 67.7177 224.175 78.7764 225.552 87.7451C226.952 96.7372 227.698 105.819 227.782 114.919C225.131 100.376 224.424 82.2432 214.073 70.5327C211.026 67.0475 202.191 62.685 199.145 68.8571C196.513 74.1823 202.575 82.5966 204.208 87.5501C207.047 96.1533 208.083 100.132 210.094 113.719C207.705 103.843 202.015 79.343 189.805 75.9432C183.23 74.1153 182.219 80.854 183.431 86.2097C183.968 88.5981 186.088 92.4793 186.405 93.9233" stroke="#252A33" stroke-width="3" stroke-linecap="round" stroke-linejoin="round"/>
<path d="M247.246 179.541C247.246 179.541 261.729 198.935 268.9 207.635" stroke="#252A33" stroke-width="3" stroke-linecap="round" stroke-linejoin="round"/>
<path d="M200.352 210.918C201.381 218.333 223.62 244.222 223.62 244.222" stroke="#252A33" stroke-width="3" stroke-linecap="round" stroke-linejoin="round"/>
<path d="M248.032 231.276C239.734 237.015 230.972 242.066 221.559 244.893C227.28 253.673 235.304 263.263 242.207 270.934C245.254 274.298 251.798 280.488 256.337 281.329C261.479 282.292 268.358 278.551 272.264 275.809C280.928 269.716 286.765 264.324 294.405 256.921C297.604 253.819 302.095 247.903 303.27 243.516C304.702 238.209 302.899 237.484 298.451 233.158C288.879 223.873 281.111 214.344 270.149 205.381C267.188 212.851 257.842 224.488 248.032 231.276Z" stroke="#252A33" stroke-width="3" stroke-linecap="round" stroke-linejoin="round"/>
<path d="M256.331 281.329C254.589 287.605 256.008 293.375 258.068 297.743C260.34 302.569 266.598 305.225 268.273 310.167C269.766 314.596 268.511 319.306 271.716 323.431C273.854 326.179 284.913 333.021 288.319 333.302" stroke="#252A33" stroke-width="3" stroke-linecap="round" stroke-linejoin="round"/>
<path d="M303.742 240.269C324.659 242.505 339.824 261.679 350.865 277.819C350.718 271.976 356.464 269.971 360.942 270.349C370.563 271.166 371.574 279.714 376.857 285.776" stroke="#252A33" stroke-width="3" stroke-linecap="round" stroke-linejoin="round"/>
<path d="M346.581 151.088C345.838 155.457 341.402 163.073 338.051 166.217C334.018 169.982 326.365 170.128 321.07 170.482C337.832 170.482 334.426 180.419 333.463 193.159C335.431 183.051 336.144 179.627 339.148 176.178C343.084 171.664 348.659 172.955 353.253 171.024C346.922 171.127 342.859 171.993 342.603 165.053C342.395 160.044 344.997 155.938 346.581 151.088Z" stroke="#252A33" stroke-width="3" stroke-linecap="round" stroke-linejoin="round"/>
<path d="M311.613 62.6846L321.447 55.1172" stroke="#252A33" stroke-width="3" stroke-linecap="round" stroke-linejoin="round"/>
<path d="M304.887 43.1267L312.881 33.9873" stroke="#252A33" stroke-width="3" stroke-linecap="round" stroke-linejoin="round"/>
<path d="M216.348 9.99388L218.632 2" stroke="#252A33" stroke-width="3" stroke-linecap="round" stroke-linejoin="round"/>
<path d="M164.942 22.1441L161.512 12.3955" stroke="#252A33" stroke-width="3" stroke-linecap="round" stroke-linejoin="round"/>
</svg>
