<svg width="127" height="112" viewBox="0 0 127 112" fill="none" xmlns="http://www.w3.org/2000/svg">
<path d="M120.066 35.9091C115.162 24.0748 106.124 14.426 94.6357 8.75908C85.6357 4.22908 69.7557 3.29908 54.0557 4.54908C38.3557 5.79908 24.1657 10.1091 15.7457 19.8591C7.51566 29.4291 5.64566 36.6791 4.17566 48.5991C3.17566 56.7691 6.61566 63.7191 10.1757 71.1991C12.7057 76.5191 17.0157 80.5291 22.6357 83.9291C22.2695 84.9781 21.8387 86.0034 21.3457 86.9991C17.2214 94.9073 11.7223 102.018 5.10565 107.999C12.3757 106.459 17.8957 104.659 24.1057 100.619C27.5257 98.3991 32.7257 95.0991 38.6457 91.1091C49.8357 94.1091 65.1957 93.9591 72.2657 92.9291C81.4257 91.5991 89.0357 90.4491 97.5157 87.0591C103.916 84.4991 113.576 78.1291 116.756 72.9791C120.192 67.4993 122.284 61.284 122.859 54.8413C123.434 48.3985 122.477 41.9111 120.066 35.9091Z" fill="#252A33" stroke="#252A33" stroke-width="7" stroke-linecap="round" stroke-linejoin="round"/>
<path d="M86.6866 53.2093L86.4766 47.9893" stroke="white" stroke-width="7" stroke-linecap="round" stroke-linejoin="round"/>
<path d="M62.3041 53.2288L62.1641 47.9688" stroke="white" stroke-width="7" stroke-linecap="round" stroke-linejoin="round"/>
<path d="M37.8375 53.2994L37.6875 47.8994" stroke="white" stroke-width="7" stroke-linecap="round" stroke-linejoin="round"/>
</svg>
