<svg width="198" height="76" viewBox="0 0 198 76" fill="none" xmlns="http://www.w3.org/2000/svg">
<path d="M95.9609 9.12837C75.2209 8.12837 7.96094 2.52837 3.96094 4.36837C12.9209 15.8184 25.3409 25.9684 37.0209 36.0284C37.0209 36.0284 36.0209 58.9284 38.0209 71.3584C38.0209 71.3584 54.5809 62.0284 62.2209 59.5084C68.6809 65.9084 74.6709 71.9384 74.6709 71.9384C74.6709 71.9384 120.581 54.5384 134.091 46.8784C149.461 38.1784 190.441 16.8784 194.091 12.1384C182.711 10.5784 116.531 10.1184 95.9609 9.12837Z" fill="#C0EDE7" stroke="#C0EDE7" stroke-width="7" stroke-linecap="round" stroke-linejoin="round"/>
<path d="M74.6702 71.9682C74.6702 71.9682 68.6702 65.9682 62.2202 59.5382C57.5002 54.8482 52.5202 49.9482 49.4602 47.0682C45.5602 43.3882 41.3502 39.7282 37.0602 36.0682C25.3402 25.9682 12.9202 15.8082 3.91016 4.36816" stroke="#252A33" stroke-width="7" stroke-linecap="round" stroke-linejoin="round"/>
<path d="M151.949 21.3584C151.949 21.3584 79.8486 32.3584 69.5686 33.5684C62.8686 34.3784 43.5086 36.8384 37.0586 36.0284C37.0586 36.0284 36.0586 58.9284 38.0586 71.3584" stroke="#252A33" stroke-width="7" stroke-linecap="round" stroke-linejoin="round"/>
</svg>
