<svg width="484" height="282" viewBox="0 0 484 282" fill="none" xmlns="http://www.w3.org/2000/svg">
<path d="M193.344 245.155C197.182 240.052 200.849 234.836 204.217 229.385C207.213 224.531 206.523 223.387 205.5 218.112C203.654 208.614 201.902 199.106 200.115 189.588C200.006 189.551 199.901 189.504 199.802 189.446C194.203 186.278 189.451 181.809 185.947 176.419C181.414 176.419 177.933 174.757 178.413 169.325C178.585 167.52 179.241 165.794 180.312 164.329C179.738 162.406 179.292 160.446 178.976 158.463C177.483 149.136 178.594 133.659 187.347 128.077C186.858 121.487 192.634 115.855 199.028 114.159C208.472 111.715 219.041 116.212 227.912 111.314C229.552 110.41 231.701 112.614 230.428 114.144C229.062 115.777 227.677 117.439 226.238 119.067C243.118 118.484 260.018 119.331 276.755 121.599C267.913 129.079 245.066 137.809 245.066 137.809C245.066 137.809 250.089 150.104 251.636 155.007C254.832 165.121 258.181 175.021 260.712 185.345C262.004 190.615 267.052 210.765 267.052 210.765C272.124 216.045 277.332 220.987 282.159 225.787C287.079 230.676 290.971 236.151 295.123 241.68C296.102 240.722 297.07 239.736 298.026 238.722C310.657 225.597 315.586 192.59 315.586 177.206C315.586 161.822 311.616 145.695 307.225 136.314C302.54 126.322 296.895 116.408 289.767 108.234C265.255 80.0668 223.956 82.164 194.274 99.2492C179.23 107.912 165.258 120.978 158.924 138.425C151.796 158.067 157.078 178.472 163.946 197.258C170.418 214.94 179.177 233.159 193.344 245.155Z" fill="white"/>
<path d="M267.04 210.746C267.04 210.746 261.993 190.616 260.701 185.326C258.17 175.002 254.826 165.103 251.624 154.988C250.077 150.1 245.055 137.791 245.055 137.791C245.055 137.791 267.902 129.06 276.743 121.581C258.436 119.09 239.935 118.313 221.482 119.259C210.551 119.84 199.222 122.68 192.922 132.125C189.059 137.908 189.984 143.574 191.429 150.266C191.859 152.221 192.305 154.177 192.75 156.132C185.926 158.601 178.96 162.932 178.397 169.331C177.55 178.937 189.123 176.791 196.956 174.332C197.861 178.35 198.728 182.388 199.506 186.465C201.518 197.029 203.423 207.579 205.494 218.113C206.517 223.388 207.207 224.532 204.211 229.386C198.419 238.767 191.732 247.473 184.815 256.048C180.742 261.098 167.137 276.746 166.324 280.001C166.324 280.001 303.889 279.786 317.597 277.508C310.165 262.535 304.692 253.672 299.023 246.681C293.188 239.486 288.556 232.148 282.138 225.749C277.321 220.949 272.103 216.006 267.031 210.727C260.133 213.816 253.587 216.212 246.606 218.548C240.154 220.714 233.457 221.071 226.618 221.755C221.336 222.283 213.224 224.023 207.936 224.199" stroke="#252A33" stroke-width="2" stroke-linecap="round" stroke-linejoin="round"/>
<path d="M219.098 145.09L221.883 147.705" stroke="#252A33" stroke-width="2" stroke-linecap="round" stroke-linejoin="round"/>
<path d="M228.68 140.768L231.465 143.383" stroke="#252A33" stroke-width="2" stroke-linecap="round" stroke-linejoin="round"/>
<path d="M211.152 229.337C211.152 229.337 217.282 237.53 220.943 240.756C225.349 244.667 231.2 250.44 237.588 249.687C247.634 248.495 251.741 232.954 248.422 225.802C250.023 232.059 262.619 251.266 269.316 235.34C270.614 232.26 270.594 221.217 270.594 221.217" stroke="#252A33" stroke-width="2" stroke-linecap="round" stroke-linejoin="round"/>
<path d="M194.433 165.319C192.054 165.211 189.821 164.629 188.289 166.58" stroke="#252A33" stroke-width="2" stroke-linecap="round" stroke-linejoin="round"/>
<path d="M196.959 174.332C193.533 175.403 189.42 176.41 185.93 176.419C189.433 181.81 194.185 186.278 199.784 189.447C199.884 189.504 199.989 189.552 200.097 189.589L199.51 186.465C198.736 182.388 197.87 178.35 196.959 174.332Z" fill="#252A33"/>
<path d="M227.933 111.315C219.048 116.203 208.478 111.696 199.049 114.16C192.656 115.832 186.894 121.493 187.369 128.078C178.615 133.66 177.504 149.137 178.997 158.464C179.313 160.447 179.76 162.407 180.334 164.33C182.919 160.684 187.716 158.015 192.489 156.255C194.408 158.239 196.406 160.166 198.188 162.556C199.314 164.071 201.375 162.903 201.615 161.417C203.289 151.674 201.267 140.23 195.804 132.086C200.9 133.553 206.574 132.878 211.504 130.776C219.381 127.418 225.099 120.559 230.449 114.155C231.713 112.635 229.573 110.411 227.933 111.315Z" fill="#252A33"/>
<path d="M229.844 171.585C236.825 167.674 244.902 169.37 252.202 172.186" stroke="#252A33" stroke-width="2" stroke-linecap="round" stroke-linejoin="round"/>
<path d="M256.034 168.896C254.595 164.271 253.097 159.661 251.628 155.008C251.57 154.817 251.501 154.612 251.433 154.396C250.13 155.672 249.039 157.202 247.653 158.415C243.737 161.837 238.719 163.606 234 165.498C230.573 166.867 226.529 166.476 229.3 170.788C235.37 180.286 248.99 176.409 256.034 168.896Z" stroke="#252A33" stroke-width="2" stroke-linecap="round" stroke-linejoin="round"/>
<path d="M252.98 246.526C257.205 255.389 259.164 268.182 258.855 278.057" stroke="#252A33" stroke-width="2" stroke-linecap="round" stroke-linejoin="round"/>
<path d="M279.664 267.058C287.159 266.872 296.255 267.83 303.163 269.991" stroke="#252A33" stroke-width="2" stroke-linecap="round" stroke-linejoin="round"/>
<path d="M295.809 263.392C297.132 266.66 297.878 270.134 298.012 273.657" stroke="#252A33" stroke-width="2" stroke-linecap="round" stroke-linejoin="round"/>
<path d="M289.207 262.657C292.727 266.524 291.655 274.038 293.613 278.789" stroke="#252A33" stroke-width="2" stroke-linecap="round" stroke-linejoin="round"/>
<path d="M264.238 270.724H264.973" stroke="#252A33" stroke-width="2" stroke-linecap="round" stroke-linejoin="round"/>
<path d="M260.324 251.657H261.793" stroke="#252A33" stroke-width="2" stroke-linecap="round" stroke-linejoin="round"/>
<path d="M254.723 165.827C253.886 164.087 253.029 162.361 252.182 160.631C252.182 160.592 252.138 160.562 252.113 160.523C253.974 158.983 252.05 155.684 250.077 157.199C244.202 161.716 237.211 164.043 230.225 166.248C228.223 166.878 228.444 170.286 230.744 170.085C233.978 169.759 237.226 169.596 240.477 169.596C244.099 169.65 247.233 170.423 250.689 171.356C252.701 171.899 255.291 171.488 255.653 168.995C255.795 167.846 255.173 166.805 254.723 165.827Z" fill="#252A33"/>
<path d="M106.099 156.479C122.611 153.057 133.274 145.001 144.406 131.357C155.539 117.713 157.517 95.7006 154.173 78.8744C152.717 72.0053 150.631 65.2846 147.941 58.7975C147.75 58.3526 147.417 57.6927 146.962 56.8714C141.841 47.5173 134.664 39.4439 125.969 33.258C117.275 27.072 107.289 22.9344 96.7629 21.1562C94.8733 20.7917 92.9665 20.5225 91.0498 20.3496H90.9078C79.8055 20.7964 68.7518 22.0677 57.8383 24.1528C48.0472 25.9762 35.8377 29.0755 26.9963 33.6414C11.4138 41.6536 3.75224 58.1228 1.62267 74.9245C1.56393 75.4134 1.51008 75.8778 1.46112 76.352C1.42196 76.7137 1.38769 77.0706 1.35342 77.4323C1.35342 77.5839 1.32894 77.7354 1.31425 77.8918V78.0678C1.24572 78.9135 1.18207 79.7592 1.13801 80.6098C1.13801 80.9325 1.10864 81.2551 1.09885 81.5875C1.09885 82.047 1.05969 82.5066 1.0499 82.9661C1.0401 83.4256 1.02052 83.9829 1.01562 84.4962C1.01562 85.2979 1.01562 86.1094 1.01562 86.9404C1.01562 87.1751 1.01562 87.4293 1.01562 87.6444C1.01562 88.275 1.045 88.9056 1.06458 89.5362C1.06458 89.6046 1.06458 89.6682 1.06458 89.7317V90.1668C1.09396 90.9832 1.13312 91.7996 1.17718 92.611L1.20655 93.0657C1.24572 93.7549 1.28978 94.454 1.33873 95.153C1.33873 95.4024 1.373 95.6419 1.39258 95.9059C1.44154 96.6 1.49539 97.2942 1.55414 97.9884C1.55414 98.0617 1.55414 98.135 1.55414 98.2083C1.55414 98.2817 1.55414 98.3941 1.55414 98.487C1.62757 99.3376 1.7059 100.193 1.78423 101.053C1.8136 101.313 1.83808 101.577 1.86256 101.836C1.9262 102.481 1.98984 103.131 2.05838 103.791C2.05838 104.06 2.11223 104.329 2.1416 104.602C2.22483 105.409 2.31295 106.221 2.40107 107.047C2.40107 107.115 2.40107 107.179 2.40107 107.242L2.51856 108.254L2.56262 108.631C2.56262 108.811 2.60179 108.992 2.62626 109.168C2.65074 109.344 2.66053 109.481 2.68011 109.657C2.72417 109.98 2.76334 110.293 2.8074 110.61C2.85146 110.928 2.86615 111.099 2.90042 111.344C2.90042 111.412 2.90042 111.481 2.90042 111.544C2.90242 111.565 2.90242 111.587 2.90042 111.608C2.96406 112.067 3.03259 112.517 3.09624 112.967L3.1403 113.275C3.16967 113.455 3.19415 113.636 3.22352 113.812C3.29206 114.262 3.36549 114.702 3.43403 115.137C3.45851 115.279 3.47809 115.416 3.50257 115.553C3.56132 115.905 3.62496 116.247 3.6886 116.594L3.77672 117.083C3.81099 117.288 3.85015 117.488 3.88932 117.689L4.03618 118.447C4.03618 118.544 4.07045 118.642 4.09004 118.74C4.1341 118.94 4.17326 119.146 4.21242 119.341C4.26628 119.62 4.32502 119.889 4.38377 120.162C4.42293 120.348 4.4621 120.534 4.50616 120.72C4.55022 120.906 4.60407 121.179 4.65792 121.409C4.71177 121.639 4.7901 121.976 4.85374 122.26C4.91738 122.543 4.96634 122.748 5.02019 122.968C5.123 123.384 5.2258 123.8 5.33351 124.215C5.40204 124.484 5.47058 124.748 5.54402 125.012C5.61745 125.276 5.65661 125.452 5.72026 125.667C5.7839 125.882 5.86223 126.205 5.94056 126.474C6.03847 126.825 6.14127 127.182 6.24408 127.534C6.24408 127.578 6.24408 127.622 6.28324 127.661C10.3808 122.079 14.4686 116.178 16.2604 113.363C23.1142 102.608 30.3596 91.1787 35.2013 79.5588C25.9683 88.2359 21.0042 76.8848 24.387 68.1589C27.3929 60.44 38.545 51.4305 43.8811 61.7501C42.8775 48.5512 54.7982 34.8342 68.4568 34.8635C79.1536 34.8977 85.2877 39.2338 92.445 47.0113C97.0126 51.9683 100.958 57.5998 104.723 63.3975L105.164 63.2411C116.487 52.2274 124.227 74.113 117.403 81.3284L116.531 81.788L117.172 82.7265C121.608 89.1109 128.697 102.667 128.697 102.667C128.697 102.667 114.46 98.5603 103.48 96.0916C104.119 96.7585 104.618 97.5463 104.948 98.4088C105.343 99.3539 105.736 100.299 106.128 101.244C106.636 101.996 106.985 102.842 107.156 103.732C107.504 104.583 107.851 105.438 108.204 106.289C108.87 107.892 107.279 108.865 105.913 108.572C105.884 108.616 105.853 108.659 105.82 108.699C104.934 109.721 103.406 109.261 102.74 108.303C101.794 106.932 100.529 105.809 99.054 105.033C99.2697 106.815 99.2186 108.619 98.9023 110.386C98.7639 110.885 98.4325 111.31 97.9808 111.565C97.5291 111.821 96.9942 111.887 96.4937 111.749C94.5535 111.088 92.7705 110.034 91.2554 108.655L90.9715 109.682C90.9715 109.682 84.6072 130.394 84.1471 140.582L83.8093 140.982C85.7568 140.587 87.678 140.071 89.5616 139.438C89.5616 139.438 89.5175 148.726 88.6608 154.993C88.4526 156.469 88.1435 157.929 87.7355 159.363L88.1516 159.29C93.2871 158.469 99.5142 157.53 105.976 156.464L106.099 156.479Z" fill="#252A33"/>
<path d="M88.2753 159.305C93.4107 158.483 99.6868 157.814 106.1 156.479C122.613 153.057 133.275 145.001 144.408 131.357C155.54 117.713 157.518 95.7006 154.174 78.8744C152.718 72.0053 150.632 65.2846 147.942 58.7975C147.751 58.3526 147.419 57.6927 146.963 56.8714C141.843 47.5173 134.665 39.4439 125.971 33.258C117.276 27.072 107.29 22.9344 96.7642 21.1562C94.8241 20.7692 92.8623 20.4998 90.8895 20.3496C79.7937 20.7974 68.7466 22.0687 57.8396 24.1528C48.0485 25.9762 35.839 29.0755 26.9976 33.6414C11.4151 41.6536 3.75354 58.1229 1.62397 74.9245C0.360919 84.9557 1.20295 95.5246 2.48559 107.257C3.76822 118.989 5.81947 127.041 9.4128 136.588C11.7186 142.728 14.2104 147.303 17.7352 152.964C19.1109 155.164 11.8165 186.45 9.66247 190.302C16.3988 181.254 37.0776 164.257 37.0776 164.257C41.8641 164.97 46.7182 165.116 51.5391 164.692C59.23 163.821 62.4317 163.543 76.9959 161.245" stroke="#252A33" stroke-width="2" stroke-linecap="round" stroke-linejoin="round"/>
<path d="M6.08203 126.563C10.4293 122.164 12.9946 118.688 16.3627 113.364C23.2165 102.61 30.4619 91.1805 35.3036 79.5606C26.0706 88.2376 21.1065 76.8866 24.4893 68.1607C27.4952 60.4418 38.6473 51.4323 43.9834 61.7519C42.9798 48.553 54.9005 34.836 68.5591 34.8653C79.2559 34.8995 85.39 39.2356 92.5473 47.0131C102.196 57.4842 109.099 70.9667 117.275 82.7283C121.71 89.1127 128.799 102.668 128.799 102.668C128.799 102.668 105.457 95.9419 95.4994 94.5487C85.5418 93.1554 76.7249 92.1044 69.22 92.036" stroke="#252A33" stroke-width="2" stroke-linecap="round" stroke-linejoin="round"/>
<path d="M31.8594 68.1494C33.2196 68.6856 34.5301 69.3399 35.7758 70.1048" stroke="#252A33" stroke-width="2" stroke-linecap="round" stroke-linejoin="round"/>
<path d="M64.7332 69.6166C65.5556 63.4669 69.7707 55.8653 76.3993 54.4623C82.1271 53.2402 88.2514 57.3954 90.381 62.5381C94.9632 73.63 84.9959 90.0895 72.0031 85.2695C66.5494 83.231 63.9548 74.5784 64.7332 69.6166Z" stroke="#252A33" stroke-width="2" stroke-linecap="round" stroke-linejoin="round"/>
<path d="M79.8333 69.1221L79.3438 72.0552" stroke="#252A33" stroke-width="2" stroke-linecap="round" stroke-linejoin="round"/>
<path d="M105.293 63.2615C116.616 52.2478 124.356 74.1335 117.532 81.3489" stroke="#252A33" stroke-width="2" stroke-linecap="round" stroke-linejoin="round"/>
<path d="M91.2969 65.7891L112.338 69.6119" stroke="#252A33" stroke-width="2" stroke-linecap="round" stroke-linejoin="round"/>
<path d="M52.8164 58.7988L67.5961 61.4826" stroke="#252A33" stroke-width="2" stroke-linecap="round" stroke-linejoin="round"/>
<path d="M69.2235 92.0303C64.5972 95.7651 58.6491 103.763 62.9425 106.769C67.4856 109.937 76.606 101.45 78.3929 97.6227C78.3439 100.522 77.3844 105.879 80.3168 107.766C84.2822 110.318 87.1118 104.393 87.6602 100.996C88.84 106.578 92.7466 113.261 99.3116 111.961C100.183 109.433 100.095 106.617 98.3814 104.506C99.8501 107.439 105.02 111.838 108.173 108.93C111.012 106.3 105.891 99.0892 105.289 96.9872" stroke="#252A33" stroke-width="2" stroke-linecap="round" stroke-linejoin="round"/>
<path d="M59.1268 141.761C61.8438 141.786 66.617 143.228 69.1969 143.125C68.9081 146.547 68.35 151.377 66.6463 154.549C64.1986 153.41 59.4646 153.083 56.8552 153.014C57.7609 150.907 58.696 148.39 58.8135 146.068C58.9946 142.079 58.8526 142.191 58.8526 142.191C58.8526 142.191 48.0041 134.145 43.8135 131.358C39.7893 138.324 38.4284 150.115 37.8164 157.566C43.975 156.73 50.1826 153.953 56.2824 152.814" stroke="#252A33" stroke-width="2" stroke-linecap="round" stroke-linejoin="round"/>
<path d="M15.6055 114.556C27.9276 121.023 42.8688 127.349 56.3365 130.243C61.5062 131.352 72.2177 133.797 84.7552 133.797" stroke="#252A33" stroke-width="2" stroke-linecap="round" stroke-linejoin="round"/>
<path d="M91.0939 109.703C91.0939 109.703 84.7297 130.416 84.2695 140.603" stroke="#252A33" stroke-width="2" stroke-linecap="round" stroke-linejoin="round"/>
<path d="M70.2207 144.438C76.4527 141.901 83.4387 141.623 89.6805 139.452C89.6805 139.452 89.6414 148.74 88.7847 155.007C88.156 159.059 86.8835 162.985 85.0151 166.637L67.9688 154.269" stroke="#252A33" stroke-width="2" stroke-linecap="round" stroke-linejoin="round"/>
<path d="M7.37109 130.795C17.7301 134.96 28.422 139.726 38.6488 143.05" stroke="#252A33" stroke-width="2" stroke-linecap="round" stroke-linejoin="round"/>
<path d="M108.347 106.305C107.994 105.454 107.647 104.599 107.299 103.748C107.128 102.858 106.778 102.011 106.271 101.26C105.879 100.312 105.486 99.3665 105.091 98.4246C104.293 96.5474 103.309 95.3302 101.248 94.9245C95.6329 93.8148 89.626 93.6877 83.9276 93.1451C80.9903 92.8664 78.1019 92.5878 75.1841 92.3385C72.8196 92.1331 70.6851 92.0745 68.6535 93.4677C64.9524 96.0146 63.1411 100.756 62.6907 105.039C62.5683 106.227 64.0565 107.366 65.1727 106.926C69.7501 105.148 73.8177 102.27 77.0151 98.5468C77.1913 98.5468 77.3578 98.5028 77.534 98.4931C78.1559 98.4305 78.7838 98.4668 79.3943 98.6006C79.5258 98.6441 79.6624 98.6704 79.8007 98.6788C79.6134 98.8363 79.4658 99.0356 79.3698 99.2605C78.7498 100.567 78.4492 102.001 78.4926 103.446C78.536 104.891 78.9222 106.304 79.6195 107.571C79.7707 107.829 79.979 108.049 80.2286 108.214C80.4782 108.379 80.7624 108.485 81.0593 108.523C81.3562 108.561 81.658 108.531 81.9413 108.435C82.2247 108.338 82.4822 108.178 82.6939 107.967C84.1087 106.334 85.9886 104.007 87.0999 101.612C87.7167 103.958 88.9074 106.113 90.5652 107.886C92.223 109.658 94.2958 110.991 96.5973 111.765C97.0978 111.903 97.6328 111.837 98.0844 111.581C98.5361 111.326 98.8676 110.901 99.0059 110.401C99.3222 108.634 99.3734 106.83 99.1577 105.048C100.633 105.825 101.898 106.947 102.844 108.319C103.51 109.297 105.037 109.737 105.923 108.715C105.957 108.675 105.988 108.632 106.016 108.588C107.402 108.881 108.993 107.908 108.347 106.305Z" fill="#252A33"/>
<path d="M450.055 41.2637C448.662 42.9507 447.062 44.4552 445.291 45.7415C439.774 49.5741 434.183 52.6343 428.725 52.996L426.008 51.3828C426.444 51.7788 426.874 52.1943 427.286 52.6392C433.579 59.6206 438.394 67.7997 441.443 76.6856C446.29 74.6226 452.527 73.3565 457.036 74.036C461.001 74.6373 464.624 78.0543 464.134 82.5908C463.645 86.9905 458.916 89.4347 454.833 90.5346C452.708 91.1017 449.232 92.2065 446.251 93.1842C447.529 99.9449 448.699 106.75 450.251 113.471C451.802 120.193 456.909 142.841 456.909 142.841C456.909 142.841 467.013 147.515 474.89 151.049C476.002 148.872 476.994 146.637 477.862 144.352C483.247 130.077 483.447 119.826 482.674 104.809C482.184 95.2129 479.859 82.4442 476.246 73.5227C472.07 63.1836 465.304 54.311 457.374 47.0321C455.084 44.9272 452.637 42.9989 450.055 41.2637Z" fill="#252A33"/>
<path d="M392.807 176.156C395.626 172.475 398.124 168.56 400.273 164.453C400.273 164.453 393.87 145.388 390.237 136.437C387.525 129.754 380.407 112.087 380.407 112.087C371.595 115.734 354.573 126.264 354.573 126.264C354.573 126.264 360.071 100.619 363.669 90.1382C368.197 76.9393 373.46 64.4053 384.363 55.1514C393.028 47.8187 407.861 43.1942 419.048 47.2076C416.957 42.5293 417.452 36.0912 418.92 29.9708L418.827 29.9366C413.937 29.2884 409.006 28.9894 404.072 29.042C393.37 29.1251 369.725 34.9082 353.55 47.2663C337.375 59.6243 328.382 82.1015 326.438 100.819C324.436 120.08 329.939 140.416 340.317 156.582C344.611 163.28 349.873 169.908 362.71 178.8C368.937 183.117 376.907 185.952 385.151 187.639C388.646 182.271 391.799 177.525 392.807 176.156Z" fill="#252A33"/>
<path d="M408.816 91.1211L409.795 96.0096" stroke="#252A33" stroke-width="2" stroke-linecap="round" stroke-linejoin="round"/>
<path d="M398.535 95.0312L399.514 99.9197" stroke="#252A33" stroke-width="2" stroke-linecap="round" stroke-linejoin="round"/>
<path d="M410.187 113.3C412.336 112.283 413.026 113.901 412.757 115.905C412.488 113.637 414.877 110.958 417.545 111.74C420.213 112.522 421.373 123.042 417.834 126.562C413.829 130.546 409.722 128.029 407.837 122.813C405.952 117.597 408.038 114.317 410.187 113.3Z" stroke="#252A33" stroke-width="2" stroke-linecap="round" stroke-linejoin="round"/>
<path d="M402.453 123.39C410.712 124.681 422.28 117.695 423.905 110.357" stroke="#252A33" stroke-width="2" stroke-linecap="round" stroke-linejoin="round"/>
<path d="M379.934 59.8398C394.513 69.6168 422.525 80.9874 438.191 70.1057" stroke="#252A33" stroke-width="2" stroke-linecap="round" stroke-linejoin="round"/>
<path d="M418.818 29.9365C413.93 29.2889 409.002 28.99 404.072 29.0419C393.37 29.125 369.725 34.9081 353.55 47.2661C337.375 59.6242 328.382 82.1014 326.438 100.819C324.436 120.08 329.939 140.416 340.317 156.582C344.611 163.279 349.873 169.908 362.71 178.8C375.546 187.692 395.838 190.327 410.285 189.467C421.965 188.773 436.021 186.236 446.321 181.416L446.477 181.538C446.477 181.538 455.98 190.699 460.973 194.761C466.608 199.342 473.183 203.947 479.85 206.787C476.84 199.131 471.802 191.408 467.749 184.187C465.737 180.599 463.02 174.899 461.007 170.5C468.282 163.001 474.407 153.444 477.843 144.337C483.228 130.062 483.429 119.811 482.656 104.794C482.166 95.1976 479.841 82.4289 476.228 73.5075C472.052 63.1683 465.286 54.2958 457.355 47.0168C455.071 44.9178 452.631 42.9944 450.056 41.2631" stroke="#252A33" stroke-width="2" stroke-linecap="round" stroke-linejoin="round"/>
<path d="M474.922 150.952C469.943 148.996 456.891 142.842 456.891 142.842C456.891 142.842 451.819 120.179 450.253 113.447C448.686 106.716 447.531 99.921 446.253 93.1602C449.235 92.1825 452.71 91.0777 454.835 90.5107C458.918 89.4254 463.647 86.9812 464.137 82.5669C464.626 78.0304 461.003 74.6134 457.038 74.0121C452.529 73.3326 446.268 74.5987 441.446 76.6616C438.397 67.7758 433.581 59.5967 427.288 52.6152C416.469 40.8829 395.418 45.7714 384.364 55.1572C373.447 64.4111 368.208 76.9647 363.67 90.144C360.072 100.625 354.574 126.27 354.574 126.27C354.574 126.27 371.576 115.73 380.408 112.093C380.408 112.093 387.526 129.76 390.238 136.443C393.871 145.389 400.274 164.454 400.274 164.454C398.125 168.562 395.628 172.479 392.808 176.162C390.111 179.769 384.315 187.469 384.315 187.469" stroke="#252A33" stroke-width="2" stroke-linecap="round" stroke-linejoin="round"/>
<path d="M448.811 0.463922C438.378 -1.65768 428.47 3.59744 422.947 14.181C419.119 21.5137 413.049 38.0025 417.469 47.9115C417.596 48.1985 417.8 48.4451 418.058 48.6239C418.317 48.8028 418.619 48.907 418.933 48.9252C419.247 48.9434 419.56 48.8748 419.837 48.727C420.114 48.5792 420.345 48.3579 420.505 48.0874L427.251 52.1009C427.075 52.3958 426.992 52.7361 427.011 53.0786C427.037 53.513 427.229 53.921 427.546 54.2191C427.864 54.5172 428.283 54.6828 428.719 54.682H428.827C435.191 54.286 441.477 50.4388 446.255 47.1293C452.091 43.0865 459.375 32.503 460.942 22.4474C462.156 14.836 457.584 2.24822 448.811 0.463922Z" fill="#252A33"/>
<path d="M434.906 171.864C445.676 165.641 454.082 152.867 458.895 142.577" stroke="#252A33" stroke-width="2" stroke-linecap="round" stroke-linejoin="round"/>
<path d="M398.535 165.919C406.407 170.939 417.138 175.994 426.831 174.787" stroke="#252A33" stroke-width="2" stroke-linecap="round" stroke-linejoin="round"/>
<path d="M432.054 169.342C427.08 168.076 424.833 174.968 429.117 176.674C434.502 178.845 437.719 170.579 431.565 169.342H432.054Z" stroke="#252A33" stroke-width="2" stroke-linecap="round" stroke-linejoin="round"/>
<path d="M454.464 81.5833C453.393 81.439 452.303 81.5906 451.312 82.0215C450.321 82.4524 449.467 83.1462 448.844 84.0275" stroke="#252A33" stroke-width="2" stroke-linecap="round" stroke-linejoin="round"/>
<path d="M437.745 67.9591C433.79 57.8351 425.017 49.8473 414.325 47.3884C403.276 44.8513 391.375 48.5128 383.424 56.5054C381.926 56.7156 381.016 59.0914 382.68 60.1962C391.291 65.9523 400.931 69.9987 411.074 72.1143C415.904 73.1416 420.823 73.6951 425.761 73.7666C429.932 73.8008 434.314 73.092 437.236 69.8558C437.481 69.6126 437.657 69.309 437.747 68.9759C437.836 68.6428 437.836 68.292 437.745 67.9591Z" fill="#252A33"/>
</svg>
