<svg width="386" height="647" viewBox="0 0 386 647" fill="none" xmlns="http://www.w3.org/2000/svg">
<path d="M376.67 271.771C370.703 260.519 359.23 250.674 348.404 243.905C351.814 232.415 348.907 212.315 337.399 195.795C325.892 179.275 297.114 173.223 272.087 176.445C247.06 179.667 242.482 183.264 225.911 188.839C217.756 191.584 209.658 194.491 201.617 197.559C194.073 200.432 186.273 203.825 178.133 204.583C169.992 205.342 162.261 203.16 154.504 201.216C146.15 199.128 137.702 197.517 129.059 197.431C95.6352 197.082 65.2208 215.332 37.9944 232.722C24.0659 241.63 9.15699 251.432 2.80644 267.441C-2.12056 279.844 -0.603254 293.917 7.69934 303.814C-1.40453 330.691 7.14527 361.199 26.9811 381.461C37.2784 391.98 50.5847 399.157 65.2805 400.743C74.5745 401.738 83.9632 400.16 92.4216 396.182C96.2234 426.301 101.489 456.159 108.217 485.755C112.159 484.054 116.305 482.874 120.552 482.243L125.427 460.48C132.392 461.895 139.313 463.83 146.738 464.402C159.814 465.39 170.742 466.183 183.818 465.407C201.259 464.376 213.568 460.421 229.21 453.056C229.21 453.056 234.171 467.837 237.197 475.722C240.01 477.128 244.238 479.984 249.216 483.777C250.921 469.286 251.995 454.718 254.399 440.304C255.928 430.47 258.432 420.812 261.875 411.475C263.51 407.185 265.506 403.042 267.842 399.089C269.623 396.08 271.132 393.122 274.866 394.392C280.074 396.191 284.541 398.381 290.209 398.228C295.348 398.049 300.367 396.627 304.837 394.085C311.445 390.413 316.493 384.463 319.038 377.344C345.216 377.83 357.184 371.982 372.562 350.919C389.542 327.775 389.883 296.722 376.67 271.771Z" fill="white"/>
<path d="M12.4492 618.22C18.4588 605.289 22.5845 591.795 29.8642 579.341C38.8402 563.997 46.4438 548.509 57.4316 534.325C72.9712 514.25 93.2333 486.188 120.579 482.242L125.455 460.479C132.419 461.894 139.341 463.829 146.765 464.4C159.842 465.389 170.77 466.182 183.846 465.406C201.286 464.375 213.595 460.42 229.237 453.055C229.237 453.055 234.198 467.836 237.225 475.721C249.039 481.619 285.94 513.73 298.727 527.403C312.783 542.431 327.999 556.53 339.933 573.434C343.803 578.915 349.378 586.45 352.14 592.298" stroke="#252A33" stroke-width="3" stroke-linecap="round" stroke-linejoin="round"/>
<path d="M190.323 505.564C194.057 521.206 186.794 539.482 179.344 548.441C171.894 557.4 161.008 575.207 166.464 582.052C171.919 588.897 185.43 577.586 188.226 590.167C190.605 600.908 180.554 615.067 177.486 625.066C175.142 632.737 178.756 645.234 191.295 645.097" stroke="#252A33" stroke-width="3" stroke-linecap="round" stroke-linejoin="round"/>
<path d="M193.582 610.31C194.584 610.504 195.57 610.774 196.531 611.119" stroke="#252A33" stroke-width="3" stroke-linecap="round" stroke-linejoin="round"/>
<path d="M184.825 564.219C183.376 564.091 181.944 564.014 180.512 564.006" stroke="#252A33" stroke-width="3" stroke-linecap="round" stroke-linejoin="round"/>
<path d="M243.582 582.717C252.609 584.004 262.284 584.584 271.26 586.45C274.508 587.115 284.166 588.351 284.166 588.351" stroke="#252A33" stroke-width="3" stroke-linecap="round" stroke-linejoin="round"/>
<path d="M277.039 580.671V601.155" stroke="#252A33" stroke-width="3" stroke-linecap="round" stroke-linejoin="round"/>
<path d="M264.919 576.4C264.919 576.4 264.066 601.871 264.066 610.71" stroke="#252A33" stroke-width="3" stroke-linecap="round" stroke-linejoin="round"/>
<path d="M127.508 485.029C134.549 494.099 147.966 507.908 161.554 505.564C175.141 503.22 183.878 481.108 186.93 473.675C191.951 484.091 196.102 498.77 208.079 504.234C221.215 510.201 234.691 485.677 237.232 475.721" stroke="#252A33" stroke-width="3" stroke-linecap="round" stroke-linejoin="round"/>
<path d="M127.508 461.178C127.508 446.977 126.323 428.65 126.144 412.752C125.974 398.355 124.09 383.224 121.567 369.031C119.862 359.655 119.317 343.586 112.344 331.593" stroke="#252A33" stroke-width="3" stroke-linecap="round" stroke-linejoin="round"/>
<path d="M227.199 453.157C229.245 417.653 231.589 404.518 233.405 392.209C235.374 378.877 238.093 365.783 241.213 352.75C242.918 345.658 245.305 335.19 249.047 329.394" stroke="#252A33" stroke-width="3" stroke-linecap="round" stroke-linejoin="round"/>
<path d="M118.635 349.699C113.17 362.128 93.2494 355.666 88.0411 353.961C75.1524 349.793 65.9207 339.769 60.9852 327.016C56.6037 315.679 53.9442 290.507 64.0028 280.986C71.2569 274.124 78.5962 282.426 82.8328 288.342C79.0395 268.097 97.0768 245.38 114.909 238.271C122.581 235.202 140.329 231.75 147.787 237.018C153.959 241.382 150.839 248.807 147.941 254.765C149.953 245.124 164.35 239.498 179.745 233.974C195.139 228.451 207.815 225.109 224.071 223.745C233.106 222.987 242.824 225.783 249.047 231.417C254.042 235.969 253.249 246.283 247.921 252.293C259.446 243.351 273.025 244.144 284.576 244.204C297.95 244.272 309.424 254.876 312.791 267.782C315.416 277.823 314.393 287.447 307.071 295.059C298.666 303.813 279.887 312.21 267.502 310.769C276.478 311.519 282.47 316.105 283.297 322.618C284.524 332.387 271.295 335.856 263.691 334.842C263.947 340.016 257.008 350.449 251.314 347.977C245.16 345.326 244.597 337.527 247.231 333.435" stroke="#252A33" stroke-width="3" stroke-linecap="round" stroke-linejoin="round"/>
<path d="M125.457 332.13C127.886 341.899 132.276 350.883 143.187 354.003C158.829 358.47 187.616 350.858 190.923 333.698C192.841 342.223 205.985 344.072 211.16 342.743C216.572 341.345 231.899 337.1 231.848 325.626" stroke="#252A33" stroke-width="3" stroke-linecap="round" stroke-linejoin="round"/>
<path d="M119.316 302.943C119.359 283.337 133.808 292.833 142.477 304.128C136.305 296.405 134.558 283.968 138.402 274.932C142.4 265.556 150.66 264.703 160.13 266.033C173.667 267.943 198.933 295.544 187.936 309.805C179.941 320.17 176.003 297.283 182.438 290.992C193.784 279.911 212.469 286.824 213.535 302.074C212.23 286.423 241.554 260.842 255.193 274.285" stroke="#252A33" stroke-width="3" stroke-linecap="round" stroke-linejoin="round"/>
<path d="M208.746 267.414C207.536 268.727 206.398 270.104 205.336 271.54" stroke="#252A33" stroke-width="3" stroke-linecap="round" stroke-linejoin="round"/>
<path d="M146.151 463.633C147.958 426.689 141.318 407.262 137.746 381.289" stroke="#252A33" stroke-width="3" stroke-linecap="round" stroke-linejoin="round"/>
<path d="M216.952 396.309C214.975 407.671 214.046 419.588 212.852 430.789C212.145 437.498 212.665 459.627 212.665 459.627" stroke="#252A33" stroke-width="3" stroke-linecap="round" stroke-linejoin="round"/>
<path d="M175.135 462.713C175.135 462.713 174.035 424.815 173.43 416.094C172.526 403.146 171.29 390.914 168.656 378.588" stroke="#252A33" stroke-width="3" stroke-linecap="round" stroke-linejoin="round"/>
<path d="M150.996 371.495C155.949 385.841 158.37 404.612 159.606 419.529" stroke="#252A33" stroke-width="3" stroke-linecap="round" stroke-linejoin="round"/>
<path d="M198.513 373.098C196.39 382.773 196.509 394.067 195.87 403.938C195.205 414.116 195.785 435.231 195.785 435.231" stroke="#252A33" stroke-width="3" stroke-linecap="round" stroke-linejoin="round"/>
<path d="M122.46 274.447L119.238 273.398" stroke="#252A33" stroke-width="3" stroke-linecap="round" stroke-linejoin="round"/>
<path d="M141.6 93.8608C139.554 108.974 113.3 116.817 105.509 103.732C96.7883 89.1043 105.662 69.0809 122.83 67.7767C123.554 52.7399 121.236 41.2919 133.545 29.6222C144.626 19.1204 162.86 12.9659 177.538 10.3745C196.726 6.96483 216.306 5.33671 235.878 4.40757C242.109 4.10069 248.963 2.70272 242.919 9.01065C238.191 13.8696 233.114 18.3767 227.729 22.496C223.555 25.6778 219.623 29.1653 215.965 32.9296C210.8 38.3425 213.502 41.2493 216.818 47.0884C223.254 58.4171 228.266 66.3361 234.719 77.6392C240.686 88.1495 245.937 99.2992 240.933 111.395C234.872 126.057 217.858 138.528 201.858 141.068C172.483 145.722 158.384 122.315 145.598 100.373C144.319 98.2252 141.6 93.8608 141.6 93.8608Z" stroke="#252A33" stroke-width="3" stroke-linecap="round" stroke-linejoin="round"/>
<path d="M120.5 91.2775C122.802 89.8795 124.907 87.9104 127.413 86.8193" stroke="#252A33" stroke-width="3" stroke-linecap="round" stroke-linejoin="round"/>
<path d="M167.581 45.4691L164.316 43.1846" stroke="#252A33" stroke-width="3" stroke-linecap="round" stroke-linejoin="round"/>
<path d="M183.709 32.3762L180.973 29.6484" stroke="#252A33" stroke-width="3" stroke-linecap="round" stroke-linejoin="round"/>
<path d="M204.023 78.9781C198.781 71.5108 195.431 66.6435 198.908 62.782C202.386 58.9206 207.433 63.4128 210.365 67.8966C212.769 71.5961 220.031 80.9727 217.909 85.6355C215.087 91.7473 209.257 86.4282 204.023 78.9781Z" stroke="#252A33" stroke-width="3" stroke-linecap="round" stroke-linejoin="round"/>
<path d="M144.061 99.0177C143.571 98.4791 142.905 98.1314 142.183 98.0362C141.461 97.941 140.728 98.1045 140.115 98.4977C139.592 99.5316 138.963 100.509 138.239 101.413C138.222 101.631 138.222 101.851 138.239 102.069C138.12 101.993 134.514 105.164 132.426 106.434C136.747 109.683 141.799 111.822 147.139 112.665C147.71 112.744 148.291 112.7 148.843 112.537C149.458 112.61 150.082 112.53 150.658 112.302C151.234 112.074 151.744 111.707 152.142 111.233C150.028 107.883 148 104.414 146.013 101.055C145.366 100.373 144.726 99.6911 144.061 99.0177Z" fill="#252A33"/>
<path d="M166.814 1.39867C161.393 15.4892 141.446 13.7332 129.589 17.0151C123.502 18.7199 116.666 22.0529 113.896 28.0965C112.242 31.6938 112.915 36.0582 115.481 38.5813C112.276 40.3913 109.765 43.2174 108.345 46.6134C106.925 50.0094 106.676 53.7818 107.639 57.3346C107.733 62.3213 109.122 67.6404 110.844 72.5589C112.773 70.9875 114.963 69.7671 117.314 68.9531C120.366 70.7347 123.588 72.235 126.256 74.5962C127.679 75.8663 130.373 74.6729 129.665 72.61C128.287 68.7077 127.926 64.5181 128.617 60.4375C129.231 57.0278 130.799 53.9846 131.72 50.6857C132.845 46.6112 132.64 42.3661 130.16 39.178C133.009 39.4501 135.883 39.1249 138.599 38.2233C143.568 36.5185 147.353 33.1088 150.908 29.3411C155.306 24.738 159.807 20.169 164.018 15.3954C167.377 11.5851 170.036 7.56169 170.778 2.50682L170.854 1.96127C171.127 -0.519277 167.573 -0.578947 166.814 1.39867Z" fill="#252A33"/>
<path d="M182.49 219.49C182.49 211.375 182.191 169.197 182.191 169.197" stroke="#252A33" stroke-width="3" stroke-linecap="round" stroke-linejoin="round"/>
<path d="M162.807 140.642C162.807 145.867 162.27 185.999 162.27 185.999" stroke="#252A33" stroke-width="3" stroke-linecap="round" stroke-linejoin="round"/>
<path d="M228.504 159.847L228.316 180.637" stroke="#252A33" stroke-width="3" stroke-linecap="round" stroke-linejoin="round"/>
<path d="M212.023 138.938C212.023 143.967 212.023 194.345 212.023 194.345" stroke="#252A33" stroke-width="3" stroke-linecap="round" stroke-linejoin="round"/>
</svg>
