<svg width="117" height="121" viewBox="0 0 117 121" fill="none" xmlns="http://www.w3.org/2000/svg">
<path d="M112.468 40.9521C105.778 20.7621 86.7378 4.37213 65.5578 2.47213C58.6578 1.85213 51.6478 1.58213 44.9478 3.34213C34.2278 6.15213 24.2278 10.9321 16.6778 19.0521C10.9678 25.1921 4.93779 35.0521 3.50779 43.3021C-0.252213 65.0021 2.50778 87.2321 17.6378 103.212C36.9278 123.572 70.3178 124.802 61.4278 97.8121C57.0778 84.6121 78.2478 74.1321 91.7678 75.3021C108.908 76.7921 119.298 61.6721 112.468 40.9521Z" stroke="#252A33" stroke-width="4" stroke-linecap="round" stroke-linejoin="round"/>
<path d="M21.9681 63.9421C26.7399 63.9421 30.6081 60.0738 30.6081 55.3021C30.6081 50.5304 26.7399 46.6621 21.9681 46.6621C17.1964 46.6621 13.3281 50.5304 13.3281 55.3021C13.3281 60.0738 17.1964 63.9421 21.9681 63.9421Z" stroke="#252A33" stroke-width="4" stroke-linecap="round" stroke-linejoin="round"/>
<path d="M38.2962 38.0622C43.068 38.0622 46.9362 34.194 46.9362 29.4222C46.9362 24.6505 43.068 20.7822 38.2962 20.7822C33.5245 20.7822 29.6562 24.6505 29.6562 29.4222C29.6562 34.194 33.5245 38.0622 38.2962 38.0622Z" stroke="#252A33" stroke-width="4" stroke-linecap="round" stroke-linejoin="round"/>
<path d="M68.3392 32.7321C73.111 32.7321 76.9792 28.8639 76.9792 24.0921C76.9792 19.3204 73.111 15.4521 68.3392 15.4521C63.5675 15.4521 59.6992 19.3204 59.6992 24.0921C59.6992 28.8639 63.5675 32.7321 68.3392 32.7321Z" stroke="#252A33" stroke-width="4" stroke-linecap="round" stroke-linejoin="round"/>
<path d="M90.0697 52.5525C94.8414 52.5525 98.7097 48.6842 98.7097 43.9125C98.7097 39.1407 94.8414 35.2725 90.0697 35.2725C85.2979 35.2725 81.4297 39.1407 81.4297 43.9125C81.4297 48.6842 85.2979 52.5525 90.0697 52.5525Z" stroke="#252A33" stroke-width="4" stroke-linecap="round" stroke-linejoin="round"/>
</svg>
