<svg width="501" height="283" viewBox="0 0 501 283" fill="none" xmlns="http://www.w3.org/2000/svg">
<path d="M14.5345 201.226L16.9574 198.323C22.2324 191.958 42.0562 168.39 47.1618 162.488C54.3345 154.186 60.5753 148.719 67.7762 140.744C71.2101 136.949 76.4625 133.651 78.0552 128.709C79.6931 123.626 81.6641 116.205 84.4372 111.844C84.8946 111.832 85.3514 111.887 85.7927 112.008L87.9332 98.6908C87.9332 98.6908 88.8086 91.5746 89.6275 86.6779C87.4362 86.0454 86.8771 82.4759 86.7471 80.1152C86.5777 76.8903 86.4252 73.6597 86.3631 70.4292C80.9864 70.3671 74.418 69.7458 71.0237 65.3462C66.3078 59.2409 70.4589 51.4131 75.3951 48.4028C78.6821 46.3809 83.3867 45.7258 89.1362 45.8839C90.2053 42.2011 91.7227 38.6636 93.6544 35.3508C97.2464 29.2851 103.357 22.8635 110.558 23.8067C111.183 23.611 111.767 23.307 112.286 22.9087C126.157 12.2344 142.016 24.1964 156.802 24.908C158.92 25.0097 160.027 28.0199 157.932 29.1156C155.876 30.1957 153.758 31.1537 151.589 31.9847C155.786 33.679 159.903 35.4694 163.902 37.0225C169.696 39.2816 189.17 49.363 189.17 49.363L158.389 50.4925C158.389 50.4925 157.825 62.1326 157.638 66.6847C157.384 73.2813 156.831 79.5786 156.509 86.164C156.034 96.2283 152.358 125.795 152.358 125.795L152.318 127.72H152.674C154.769 133.735 156.96 141.433 157.599 147.798C157.704 148.94 157.715 150.089 157.633 151.232C165.178 157.705 177.309 174.286 182.952 180.556C190.346 188.931 196.939 197.981 202.645 207.586C204.125 199.679 206.158 191.038 208.463 184.277C210.694 177.737 214.11 169.994 218.346 164.51C219.606 162.872 223.542 159.856 226.524 158.992V158.913C232.093 150.837 237.255 141.309 241.96 132.758C246.619 124.32 251.188 114.685 257.367 106.722C252.719 106.984 248.093 107.55 243.519 108.416C242.43 108.62 241.346 108.845 240.265 109.094C249.508 99.1023 260.223 90.5812 272.04 83.8258C275.129 82.0524 275.824 77.4494 273.169 74.9531C267.793 69.8701 260.852 71.5644 254.803 74.3488C247.461 77.7374 240.169 81.273 232.856 84.7351L226.575 87.7058C247.025 73.2504 268.828 60.8104 291.677 50.5603C294.207 49.4307 295.015 45.8387 293.987 43.5062C292.796 40.7952 290.175 39.7165 287.323 40.2361C263.51 44.6006 240.182 51.2895 217.674 60.2067C220.108 58.3034 222.565 56.434 225.073 54.6267C231.199 50.2101 237.519 46.0684 244.032 42.2015C245.727 41.1962 247.434 40.2116 249.155 39.2478C250.629 38.4175 252.544 37.6664 253.752 36.4577C257.333 32.8714 255.447 27.3592 251.826 24.7555C248.811 22.6037 245.094 22.1914 241.531 21.4742L228.394 18.8479L203.21 13.8271C186.521 10.4949 169.86 6.9198 153.08 4.07896C122.757 -1.05488 90.7232 -3.16151 61.6992 8.89652C49.274 14.0586 37.6565 21.3838 28.6201 31.4482C18.6009 42.6025 12.5069 56.3831 8.89234 70.8133C1.01932 102.238 0.674802 135.763 5.95549 167.588C7.79667 178.647 9.90894 190.626 14.5345 201.226Z" fill="#EFFBF9"/>
<path d="M139.887 160.043C140.276 168.464 139.395 177.986 136.967 186.023C135.351 191.36 134.058 196.884 132.228 202.147C130.805 206.236 127.902 210.111 126.852 214.132C132.748 208.942 148.166 202.904 152.086 214.284C156.406 226.834 142.948 244.105 136.221 252.938C138.735 251.148 143.738 246.065 146.873 248.6C148.567 249.984 148.855 253.254 148.821 255.203C148.759 259.1 146.811 262.183 145.077 265.662C143.343 269.141 139.48 277.088 139.994 281.29" stroke="#252A33" stroke-width="3" stroke-linecap="round" stroke-linejoin="round"/>
<path d="M2 217.221C6.57471 210.506 11.7707 204.564 16.9497 198.324C22.2247 191.959 42.0485 168.39 47.1541 162.488C54.3268 154.186 60.5676 148.719 67.7685 140.744C71.2024 136.949 76.4548 133.651 78.0475 128.709C79.691 123.626 81.6565 116.205 84.4295 111.845C87.0388 111.675 91.6756 114.979 98.1762 117.306C104.677 119.633 115.549 121.44 123.428 123.428C133.028 125.839 142.846 127.279 152.734 127.726C154.829 133.741 157.021 141.439 157.659 147.804C158.489 156.05 153.344 168.232 150.537 168.419C147.73 168.605 143.195 147.985 140.038 141.642C137.101 145.596 130.363 167.521 126.85 167.854C123.337 168.187 117.147 164.075 113.081 161.02C109.014 157.964 93.754 144.98 84.7288 134.419" stroke="#252A33" stroke-width="3" stroke-linecap="round" stroke-linejoin="round"/>
<path d="M157.652 151.221C165.198 157.687 177.341 174.286 182.988 180.561C190.623 189.206 197.402 198.571 203.23 208.523C207.472 215.865 212.741 223.292 213.769 228.567C214.797 233.842 212.182 240.524 207.607 240.693C203.032 240.862 199.791 233.916 200.214 225.557C200.638 217.198 204.066 197.273 208.499 184.283C210.73 177.743 214.147 170 218.383 164.516C220.032 162.369 223.89 157.862 226.572 158.919" stroke="#252A33" stroke-width="3" stroke-linecap="round" stroke-linejoin="round"/>
<path d="M85.7549 112.223L87.9293 98.6685C87.9293 98.6685 89.0589 89.3102 89.9908 84.6733C90.6572 81.2846 92.7582 76.3202 92.4363 73.0389C92.1934 70.5821 93.1648 71.8415 91.0243 70.7797C89.6632 70.119 87.9858 70.3957 86.5061 70.3844C81.1068 70.3336 74.4537 69.7406 71.0311 65.3014C66.3152 59.1961 70.4664 51.3683 75.4025 48.358C80.8865 44.9694 90.2788 45.3929 101.947 47.076C103.331 45.9464 103.946 41.8857 104.969 40.1009C106.358 37.678 107.606 35.6279 109.651 33.6851C113.836 29.7316 117.93 27.9695 123.409 26.9811C137.274 24.4735 151.19 32.0359 163.937 36.9777C169.732 39.2368 189.206 49.3181 189.206 49.3181L158.425 50.4477C158.425 50.4477 157.86 62.0878 157.674 66.6399C157.42 73.2365 156.866 79.5338 156.544 86.1192C156.07 96.1835 152.399 125.75 152.399 125.75" stroke="#252A33" stroke-width="3" stroke-linecap="round" stroke-linejoin="round"/>
<path d="M121.902 61.0093C122.942 63.6468 129.651 69.3341 132.068 66.6571" stroke="#252A33" stroke-width="3" stroke-linecap="round" stroke-linejoin="round"/>
<path d="M139.598 41.061C139.587 42.7228 139.84 44.3757 140.349 45.9577" stroke="#252A33" stroke-width="3" stroke-linecap="round" stroke-linejoin="round"/>
<path d="M146.754 39.9316C147.312 41.1255 147.693 42.3947 147.883 43.6987" stroke="#252A33" stroke-width="3" stroke-linecap="round" stroke-linejoin="round"/>
<path d="M81.9883 58.7497C84.5693 58.3656 87.7603 60.444 90.2736 61.0088" stroke="#252A33" stroke-width="3" stroke-linecap="round" stroke-linejoin="round"/>
<path d="M91.0249 70.8243C89.6638 70.1635 87.9864 70.4402 86.5066 70.4289H86.3711C86.4332 73.6594 86.5857 76.89 86.7551 80.1149C86.885 82.4757 87.4442 86.0451 89.6355 86.6776C89.7598 85.9604 89.8784 85.2883 89.997 84.6952C90.6634 81.3066 92.7644 76.3422 92.4425 73.0608C92.194 70.6096 93.1654 71.8635 91.0249 70.8243Z" fill="#252A33"/>
<path d="M156.822 24.9081C142.037 24.1965 126.178 12.2345 112.307 22.9088C111.789 23.306 111.206 23.6098 110.584 23.8068C103.377 22.8636 97.2665 29.2852 93.6745 35.3509C91.7428 38.6637 90.2254 42.2012 89.1562 45.884C91.9124 45.9574 94.9057 46.2172 98.1024 46.6069C98.0999 46.6294 98.0999 46.6522 98.1024 46.6747C99.2319 50.2271 101.141 53.8587 99.9548 57.6258C99.311 59.6703 102.299 61.6244 103.728 59.8227C109.915 52.1123 113.739 42.7753 114.735 32.9393C119.773 35.701 126.861 35.8818 132.017 35.8027C141.07 35.6462 149.958 33.3551 157.958 29.1157C160.047 28.0201 158.94 25.0098 156.822 24.9081Z" fill="#252A33"/>
<path d="M226.953 158.914C233.603 161.312 239.983 164.404 245.986 168.136C253.618 173.126 260.514 179.158 266.476 186.057C271.65 192.134 272.87 194.32 273.254 202.435C273.638 210.551 273.163 219.831 264.635 223.784C269.577 228.602 273.107 243.981 263.884 246.748C265.319 248.442 267.222 249.843 268.566 251.622C271.819 255.943 274.073 260.523 274.779 265.47" stroke="#252A33" stroke-width="3" stroke-linecap="round" stroke-linejoin="round"/>
<path d="M226.574 158.913C232.143 150.837 237.305 141.309 242.01 132.758C249.098 119.921 255.971 104.327 268.639 96.0025C283.939 85.9494 305.208 88.2763 322.152 93.941C339.66 99.7978 345.844 109.134 337.791 112.579C334.402 114.008 327.625 109.789 323.903 109.043C319.096 108.089 313.929 106.598 309.422 107.292" stroke="#252A33" stroke-width="3" stroke-linecap="round" stroke-linejoin="round"/>
<path d="M239.379 137.819C248.506 139.892 254.628 144.122 261.778 149.493C265.404 152.216 274.994 158.592 275.491 162.856C275.965 166.888 268.369 187.141 268.369 187.141" stroke="#252A33" stroke-width="3" stroke-linecap="round" stroke-linejoin="round"/>
<path d="M277.402 103.565C281.644 102.057 285.541 102.244 290.206 103.847C295.322 105.702 299.906 108.781 303.557 112.816C305.901 115.544 309.205 124.874 302.608 125.462C300.75 125.631 296.995 121.841 295.21 120.977C292.516 119.673 288.37 118.193 285.422 119.001C291.945 121.542 293.967 127.755 289.731 133.685" stroke="#252A33" stroke-width="3" stroke-linecap="round" stroke-linejoin="round"/>
<path d="M277.047 143.1C278.464 148.341 284.112 148.482 288.76 148.748C294.408 149.087 304.337 143.981 305.28 138.13C310.329 141.327 312.159 147.099 313.718 152.509C314.469 155.135 316.401 160.506 320.264 158.558C324.443 156.446 323.539 149.126 322.608 146.099C320.958 140.75 318.722 136.26 312.854 131.578C321.478 135.763 331.582 155.339 336.919 146.494C342.2 137.751 321.467 122.813 315.119 120.802C315.062 120.709 315.032 120.601 315.032 120.492C315.032 120.382 315.062 120.275 315.119 120.181C325.256 122.192 330.56 129.698 338.964 131.584C348.412 133.708 350.479 120.289 337.834 112.545" stroke="#252A33" stroke-width="3" stroke-linecap="round" stroke-linejoin="round"/>
<path d="M281.171 147.985C281.171 151.888 275.981 156.457 275.523 160.789" stroke="#252A33" stroke-width="3" stroke-linecap="round" stroke-linejoin="round"/>
<path d="M284.18 74.6653C292.798 69.3395 305.252 64.7647 314.988 62.5395C325.075 60.2352 335.066 57.4565 345.221 55.5701C353.953 53.9266 374.731 51.6167 390.262 51.6167" stroke="#252A33" stroke-width="3" stroke-linecap="round" stroke-linejoin="round"/>
<path d="M347.078 81.7245C351.094 80.5272 355.55 79.2113 359.548 78.3359C364.377 77.2967 369.246 76.7037 374.097 75.7831C381.547 74.3655 389.256 73.7329 396.779 73.0552" stroke="#252A33" stroke-width="3" stroke-linecap="round" stroke-linejoin="round"/>
<path d="M478.539 50.0634C466.984 49.1767 455.479 47.1378 443.969 45.4717C432.369 43.7774 394.833 37 392.473 37.8246C396.923 44.7432 403.356 51.1421 409.416 57.4112C409.416 57.4112 407.626 70.2373 408.044 77.3253C408.044 77.3253 417.859 72.9708 422.293 71.9712C425.58 75.9246 428.624 79.6296 428.624 79.6296C428.624 79.6296 455.361 72.3044 463.369 68.7519C472.479 64.6912 481.668 61.263 490.953 57.767C494.027 56.6773 496.79 54.8551 499.001 52.4581C492.659 50.967 485.063 50.5604 478.539 50.0634Z" fill="#C0EDE7" stroke="#C0EDE7" stroke-width="3" stroke-linecap="round" stroke-linejoin="round"/>
<path d="M428.612 79.6463C428.612 79.6463 425.568 75.9357 422.281 71.9879C419.881 69.0962 417.345 66.0746 415.781 64.2899C413.787 62.0308 411.618 59.7265 409.404 57.4279C403.356 51.1588 396.923 44.7599 392.461 37.8413" stroke="#252A33" stroke-width="3" stroke-linecap="round" stroke-linejoin="round"/>
<path d="M475.918 55.3613C473.812 56.762 472.129 55.4404 469.858 55.5251C466.571 55.655 464.081 57.6261 460.607 57.3719C454.316 56.9088 433.662 57.6317 427.811 57.7786C424.004 57.869 412.985 58.2135 409.404 57.4058C409.404 57.4058 407.614 70.232 408.032 77.32" stroke="#252A33" stroke-width="3" stroke-linecap="round" stroke-linejoin="round"/>
</svg>
