<svg width="246" height="223" viewBox="0 0 246 223" fill="none" xmlns="http://www.w3.org/2000/svg">
<path d="M98.1832 132.187C102.686 123.265 106.858 114.234 110.597 105.048C114.196 96.5011 116.689 87.5249 118.017 78.335C118.778 72.3568 112.23 65.4037 108.671 73.2556C106.75 77.4915 108.83 81.1146 112.737 83.7001C119.547 88.2173 128.552 83.8859 133.946 80.5392C132.211 84.5484 125.647 90.5253 132.609 94.0028C136.915 96.1496 151.596 90.7011 143.586 87.6249C139.138 85.9494 134.841 92.3117 135.882 96.6862C138.296 106.866 154.653 111.612 161.417 104.164C157.681 92.4257 136.186 111.27 133.039 115.14C126.677 123.001 121.145 132.106 115.598 140.525" stroke="#252A33" stroke-width="4" stroke-linecap="round" stroke-linejoin="round"/>
<path d="M115.433 156.692C115.433 156.692 131.189 148.971 136.589 146.041C143.033 142.558 149.721 139.214 155.479 134.983C165.365 127.763 174.418 117.817 178.548 106.602C182.46 96.0556 180.152 82.984 167.808 71.1514C146.898 51.1123 112.829 44.9064 97.5169 58.9475C88.8666 66.8833 86.8924 77.9261 86.264 89.8972C85.3657 107.023 83.7146 122.157 86.4519 140.15" stroke="#252A33" stroke-width="4" stroke-linecap="round" stroke-linejoin="round"/>
<path d="M80.2109 145.015L113.666 164.33" stroke="#252A33" stroke-width="4" stroke-linecap="round" stroke-linejoin="round"/>
<path d="M78.0959 153.242C87.2705 157.486 97.585 164.49 106.628 169.709" stroke="#252A33" stroke-width="4" stroke-linecap="round" stroke-linejoin="round"/>
<path d="M75.9727 161.458L101.546 176.223" stroke="#252A33" stroke-width="4" stroke-linecap="round" stroke-linejoin="round"/>
<path d="M26.4797 112.688C23.5607 112.166 19.9349 111.365 16.9523 111.934" stroke="#252A33" stroke-width="4" stroke-linecap="round" stroke-linejoin="round"/>
<path d="M46.1382 53.2125C44.1923 51.6081 41.6605 50.4963 39.8867 48.5645" stroke="#252A33" stroke-width="4" stroke-linecap="round" stroke-linejoin="round"/>
<path d="M75.7275 15.7279C74.403 13.7499 73.1155 11.7471 71.7539 9.79395" stroke="#252A33" stroke-width="4" stroke-linecap="round" stroke-linejoin="round"/>
<path d="M229.23 102.28C232.261 101.002 236.188 102.214 239.437 101.853" stroke="#252A33" stroke-width="4" stroke-linecap="round" stroke-linejoin="round"/>
<path d="M217.859 139.245L224.545 143.105" stroke="#252A33" stroke-width="4" stroke-linecap="round" stroke-linejoin="round"/>
<path d="M172.977 187.842C174.332 190.539 176.314 192.824 177.688 195.244" stroke="#252A33" stroke-width="4" stroke-linecap="round" stroke-linejoin="round"/>
</svg>
