<svg width="482" height="452" viewBox="0 0 482 452" fill="none" xmlns="http://www.w3.org/2000/svg">
<path d="M93.7864 233.5C93.4882 214.491 92.4612 196.674 93.7864 177.671C94.8001 162.723 98.3847 138.625 103.911 136.975C103.911 136.975 104.653 127.514 105.521 118.496C87.9225 117.171 70.331 115.587 52.7593 114.037C49.1151 113.712 46.0738 116.853 45.8088 120.318C42.5489 163.651 41.6279 208.236 53.5809 250.429C61.0879 276.933 73.5445 302.263 91.7986 322.87C94.7869 292.556 94.2568 263.946 93.7864 233.5Z" fill="#EFFBF9"/>
<path d="M149.136 135.32C156.789 136.784 160.32 151.705 160.877 165.858C161.685 186.544 167.41 221.654 170.153 242.353C174.076 271.898 183.855 301.27 189.196 330.682C189.302 331.272 189.414 331.868 189.52 332.478C194.927 325.415 202.772 318.491 204.859 310.381C208 298.176 221.642 244.441 221.642 244.441L197.259 247.144C204.057 238.239 221.185 216.665 226.413 210.861C230.892 205.852 235.775 200.922 241.44 197.53L240.778 197.278C237.465 195.906 233.158 194.257 232.045 190.506C231.541 188.81 232.529 186.981 234.496 187.193C237.432 187.478 240.572 187.743 243.435 186.842C246.297 185.941 247.722 183.735 249.716 181.76C254.01 177.633 259.667 175.219 265.618 174.975C270.799 174.869 276.372 177.42 278.419 182.449C279.167 184.286 279.356 186.303 278.962 188.247C281.416 188.072 283.867 188.613 286.019 189.804C291.982 193.117 294.586 199.902 295.189 206.369C295.468 209.366 295.541 212.379 295.408 215.386C303.485 215.028 310.839 217.692 311.714 226.445C312.681 236.112 301.59 238.186 291.074 238.716C289.796 242.585 288.027 246.302 285.184 248.979C285.184 248.88 285.184 248.787 285.184 248.688C285.694 257.739 286.39 270.871 286.556 278.285C286.867 292.1 287.563 317.212 289.504 323.964C291.127 329.616 296.594 337.527 301.219 346.889C308.01 333.565 318.823 315.085 325.774 295.824C337.873 262.211 348.209 227.849 344.744 191.798C343.094 174.69 337.521 141.767 350.17 130.887C350.515 127.826 350.554 120.796 350.561 114.362C305.201 117.443 259.926 122.154 214.44 122.804C192.363 123.115 170.312 122.499 148.281 121.346C148.897 128.74 149.136 135.32 149.136 135.32Z" fill="#EFFBF9"/>
<path d="M467.538 118.344C467.233 115.455 464.026 113.361 461.395 113.169C438.245 111.459 415.015 111.36 391.824 112.148C392.275 117.621 392.599 122.18 392.599 122.18C400.762 122.882 410.807 143.581 403.333 156.363C411.43 156.939 410.622 173.384 409.661 178.526C408.654 184.019 404.162 188.239 404.181 193.295C404.181 199.676 408.501 206.679 409.396 213.259C411.258 226.954 412.503 240.637 412.046 254.504C411.284 278.318 408.733 301.548 404.963 325.069C425.258 301.256 438.225 272.063 447.057 242.088C452.788 222.621 456.996 202.743 461.144 182.892C465.643 161.564 469.823 140.222 467.538 118.344Z" fill="#EFFBF9"/>
<path d="M481.023 43.9901C480.85 41.3795 480.088 35.0187 476.742 32.3882C470.998 27.8827 457.527 26.6768 451.955 26.8027C451.651 26.8062 451.35 26.8696 451.07 26.9893C450.79 27.1091 450.536 27.2828 450.323 27.5006C449.893 27.9405 449.656 28.5332 449.663 29.1482C449.67 29.7633 449.921 30.3503 450.361 30.7803C450.8 31.2102 451.393 31.4478 452.008 31.4408V57.9971H451.842C451.227 58.0181 450.646 58.2827 450.226 58.7325C449.806 59.1823 449.582 59.7806 449.603 60.3956C449.624 61.0107 449.889 61.5921 450.338 62.0121C450.788 62.4321 451.386 62.6562 452.001 62.6351H452.167L454.029 62.5092C461.317 62.0521 473.456 61.2768 478.233 56.3936C481.4 53.2 481.162 46.0904 481.023 43.9901Z" fill="#FF4242"/>
<path d="M386.535 15.4183C388.96 9.6141 407.274 10.1177 401.324 19.1023" stroke="#252A33" stroke-width="3" stroke-linecap="round" stroke-linejoin="round"/>
<path d="M390.624 65.5166C390.432 73.07 384.395 75.1771 381.5 77.0919" stroke="#252A33" stroke-width="3" stroke-linecap="round" stroke-linejoin="round"/>
<path d="M28.075 42.5054C27.6907 40.1135 28.3798 36.9728 26.6305 36.5753C25.8686 35.6344 10.4039 42.2138 8.46253 42.9361C6.26276 43.7577 4.97735 46.8652 7.79995 47.382C12.2724 48.2036 19.3951 49.0252 23.8676 49.8468C25.1927 50.0986 26.7962 49.489 27.1275 47.9982C27.313 47.1832 28.2539 43.5655 28.075 42.5054Z" fill="#252A33"/>
<path d="M125.995 36.4948C119.595 35.5142 110.564 34.3547 107.913 27.2915C107.251 25.4429 107.589 23.1106 106.078 21.6993C107.184 21.6397 108.013 21.6 108.45 21.5867C108.755 21.5763 109.054 21.5059 109.331 21.3798C109.609 21.2536 109.859 21.074 110.067 20.8513C110.274 20.6285 110.437 20.367 110.543 20.0817C110.65 19.7963 110.7 19.4927 110.69 19.1882C110.679 18.8836 110.609 18.5841 110.483 18.3068C110.356 18.0294 110.177 17.7796 109.954 17.5716C109.731 17.3637 109.47 17.2016 109.184 17.0947C108.899 16.9878 108.596 16.9382 108.291 16.9486C106.688 17.0083 100.671 17.3329 93.0516 17.7504C80.7673 18.4129 65.4881 19.2677 62.3806 19.2942C61.8657 19.3005 61.3675 19.4781 60.9647 19.7989C60.5618 20.1197 60.2772 20.5655 60.1557 21.0659C60.0342 21.5663 60.0827 22.093 60.2936 22.5628C60.5045 23.0326 60.8658 23.4188 61.3205 23.6606C62.7173 24.3115 63.8659 25.3972 64.5944 26.7551C65.3229 28.1131 65.5923 29.6704 65.3622 31.1942C65.0111 34.5071 63.1691 36.7135 62.4933 36.899C61.9116 37.0283 61.402 37.3766 61.0703 37.8716C60.7385 38.3666 60.61 38.9702 60.7114 39.5574C60.8129 40.1446 61.1364 40.6702 61.615 41.0252C62.0935 41.3803 62.6904 41.5374 63.2817 41.4642C63.8854 41.3461 64.5095 41.3893 65.0911 41.5894C65.6728 41.7895 66.1914 42.1394 66.5947 42.6038C67.9198 44.141 68.377 47.1094 67.6945 49.6603C66.8663 52.7678 63.507 55.4513 61.0687 57.4126C60.3134 58.0155 59.5978 58.5853 59.0147 59.122C58.678 59.4289 58.4392 59.8281 58.328 60.2698C58.2168 60.7115 58.2381 61.1762 58.3894 61.6059C58.5406 62.0356 58.815 62.4112 59.1784 62.6859C59.5418 62.9606 59.978 63.1222 60.4326 63.1505C60.7639 63.1505 93.7539 65.2244 116.494 65.6551H116.533C117.149 65.6612 117.741 65.4228 118.18 64.9923C118.619 64.5617 118.87 63.9743 118.876 63.3592C118.882 62.7442 118.643 62.1519 118.213 61.7126C117.782 61.2734 117.195 61.0231 116.58 61.017H116.315C116.474 60.9507 116.64 60.9044 116.792 60.8249C118.998 59.7515 119.084 57.6445 120.105 55.6832C122.961 50.0314 130.434 49.3423 135.967 48.8122C137.292 48.6863 138.737 47.6991 138.617 46.1619C138.021 39.2843 131.846 37.3628 125.995 36.4948Z" fill="#FF9F1C"/>
<path d="M346.318 21.2561L347.643 21.2959H347.716C348.331 21.3046 348.924 21.0687 349.365 20.6401C349.807 20.2114 350.059 19.625 350.068 19.0099C350.077 18.3949 349.841 17.8016 349.412 17.3604C348.984 16.9193 348.397 16.6666 347.782 16.6578C309.505 15.4916 218.751 15.3922 158.005 15.9952C157.39 15.9952 156.8 16.2395 156.365 16.6744C155.931 17.1093 155.686 17.6992 155.686 18.3142C155.686 18.9293 155.931 19.5191 156.365 19.954C156.8 20.3889 157.39 20.6333 158.005 20.6333H158.085C153.447 23.2173 149.749 27.3784 148.809 32.8182C148.738 33.2935 148.787 33.7788 148.951 34.2305C149.115 34.6822 149.389 35.0859 149.748 35.4054C150.107 35.7249 150.539 35.95 151.007 36.0605C151.475 36.171 151.962 36.1634 152.426 36.0383C158.397 42.0957 162.208 49.9491 163.273 58.3872C163.309 58.6138 163.369 58.8359 163.452 59.0498C163.385 59.1823 163.326 59.3148 163.253 59.4474C163.078 59.7443 162.967 60.0742 162.926 60.4163C162.885 60.7584 162.915 61.1052 163.014 61.4351L161.49 61.3954C160.875 61.3795 160.279 61.6087 159.833 62.0324C159.387 62.4561 159.128 63.0397 159.112 63.6548C159.096 64.2698 159.325 64.866 159.749 65.312C160.173 65.7581 160.756 66.0176 161.371 66.0334C166.672 66.1659 171.973 66.3161 177.273 66.484C195.269 67.014 213.874 67.5706 232.268 67.2857C252.615 66.9743 304.284 67.3188 345.808 67.5905C346.423 67.5905 347.013 67.3462 347.447 66.9113C347.882 66.4764 348.127 65.8865 348.127 65.2715C348.127 64.6564 347.882 64.0666 347.447 63.6316C347.013 63.1967 346.423 62.9524 345.808 62.9524H345.026C345.192 62.4898 345.231 61.9908 345.138 61.508C344.681 58.9637 346.802 56.9958 348.485 55.4122C350.711 53.3185 353.123 51.4367 355.071 49.0581C359.397 43.6646 358.437 36.8268 355.892 30.7907C355.009 28.6454 353.708 26.6974 352.064 25.0604C350.42 23.4234 348.467 22.1302 346.318 21.2561Z" fill="#FF9F1C"/>
<path d="M418.21 25.7283C418.37 25.1287 418.306 24.4917 418.03 23.9358C417.755 23.38 417.287 22.9432 416.713 22.7069C416.832 22.4328 416.895 22.1377 416.899 21.8389C416.904 21.5344 416.849 21.2318 416.737 20.9484C416.626 20.665 416.459 20.4064 416.247 20.1874C416.036 19.9683 415.783 19.7931 415.504 19.6718C415.224 19.5504 414.924 19.4853 414.619 19.4801C411.737 19.4337 406.39 19.2018 401.215 18.9766C396.637 18.7712 392.31 18.5856 389.779 18.526C389.164 18.5119 388.569 18.7428 388.124 19.1677C387.679 19.5927 387.421 20.177 387.407 20.792C387.393 21.4071 387.624 22.0025 388.049 22.4474C388.474 22.8922 389.058 23.15 389.673 23.1641L391.661 23.2237C391.44 23.5644 391.329 23.9644 391.343 24.37C391.283 24.8054 391.321 25.2485 391.452 25.6678C391.584 26.087 391.807 26.4719 392.105 26.795C393.867 31.6451 397.896 44.327 393.191 44.4661C392.624 44.8991 391.936 45.1434 391.223 45.1648C390.51 45.1862 389.808 44.9836 389.216 44.5854C386.32 45.2016 384.24 47.0436 382.279 49.1638C379.595 52.0726 376.978 54.2723 373.115 55.4583C372.728 55.5729 372.371 55.7732 372.072 56.0444C371.772 56.3157 371.538 56.6509 371.386 57.0252C371.233 57.3994 371.167 57.8032 371.193 58.2064C371.218 58.6096 371.334 59.002 371.532 59.3543C372.295 60.9097 373.453 62.2373 374.891 63.2039H374.719C374.103 63.2039 373.514 63.4483 373.079 63.8832C372.644 64.3181 372.399 64.9079 372.399 65.523C372.399 66.138 372.644 66.7279 373.079 67.1628C373.514 67.5977 374.103 67.842 374.719 67.842C389.05 67.9282 398.929 67.9679 405.303 67.9679C410.2 67.9679 413.029 67.9679 414.202 67.895C414.762 67.8732 415.295 67.6485 415.702 67.2628C416.109 66.877 416.362 66.3566 416.414 65.7982C416.466 65.2399 416.313 64.6817 415.984 64.2277C415.655 63.7736 415.173 63.4545 414.626 63.3298C417.607 59.7718 417.979 53.5634 418.548 49.25C419.533 41.432 419.419 33.5147 418.21 25.7283Z" fill="#FF9F1C"/>
<path d="M249.072 217.539L248.734 220.501" stroke="#252A33" stroke-width="3" stroke-linecap="round" stroke-linejoin="round"/>
<path d="M259.674 219.343L259.336 222.305" stroke="#252A33" stroke-width="3" stroke-linecap="round" stroke-linejoin="round"/>
<path d="M229.826 244.17C233.716 244.832 237.983 246.436 242.091 246.157C247.153 245.839 251.327 242.732 256.005 240.956C262.359 238.551 271.549 239.187 273.331 247.264C277.744 267.241 247.159 271.481 235.385 265.074C231.012 262.715 223.538 245.005 229.826 244.17Z" stroke="#252A33" stroke-width="3" stroke-linecap="round" stroke-linejoin="round"/>
<path d="M270.572 242.373C269.678 245.229 268.77 248.018 267.988 250.987C269.684 252.74 271.235 254.628 272.626 256.632" stroke="#252A33" stroke-width="3" stroke-linecap="round" stroke-linejoin="round"/>
<path d="M233.314 245.169C235.52 247.528 235.792 252.789 236.454 254.531C236.004 256.433 232.79 260.362 232.817 260.117" stroke="#252A33" stroke-width="3" stroke-linecap="round" stroke-linejoin="round"/>
<path d="M204.883 310.381C225.456 323.056 266.503 328.423 288.408 317.06" stroke="#252A33" stroke-width="3" stroke-linecap="round" stroke-linejoin="round"/>
<path d="M205.637 324.878C207.459 334.724 214.436 349.48 222.864 355.529C232.465 362.446 256.086 346.412 254.317 336.46C252.408 343.463 255.509 353.395 261.115 358.007C273.797 368.449 282.112 337.441 281.96 328.694C281.151 327.773 281.847 329.065 281.423 329.317" stroke="#252A33" stroke-width="3" stroke-linecap="round" stroke-linejoin="round"/>
<path d="M251.772 354.74C249.367 359.763 251.395 373.392 250.169 378.593C246.525 394.018 237.454 402.294 233.061 416.937C230.119 426.743 239.024 422.443 246.438 424.378C259.028 427.651 241.35 437.735 243.848 442.102C246.346 446.468 253.064 446.077 255.052 450" stroke="#252A33" stroke-width="3" stroke-linecap="round" stroke-linejoin="round"/>
<path d="M394.597 405.807C395.624 396.484 394.948 386.711 396.061 377.123C397.989 360.559 401.813 344.538 404.509 328.132C408.551 303.616 411.294 279.359 412.089 254.506C412.533 240.638 411.288 226.956 409.439 213.26C408.544 206.681 404.244 199.677 404.224 193.296C404.224 188.241 408.697 184.02 409.704 178.527C410.651 173.386 411.473 156.941 403.376 156.364C410.85 143.583 400.805 122.884 392.642 122.181C384.479 121.479 356.492 125.494 350.237 130.861C337.588 141.741 343.161 174.665 344.811 191.772C348.276 227.837 337.94 262.198 325.841 295.798C315.24 325.343 295.495 352.906 295.057 363.123C294.805 368.854 294.017 380.059 300.649 380.171C312.291 380.363 305.844 357.252 303.856 352.469C298.94 340.648 291.506 330.69 289.571 323.938C287.636 317.186 286.921 292.074 286.623 278.259C286.351 266.167 284.675 238.875 284.675 238.875C296.429 238.703 312.947 238.127 311.774 226.419C310.449 213.379 294.799 213.83 283.767 217.693L282.223 211.484C279.308 197.252 270.032 192.534 256.184 192.978C243.561 193.389 234.318 201.976 226.407 210.868C221.206 216.686 204.078 238.246 197.253 247.151L221.663 244.441C221.663 244.441 208.02 298.177 204.88 310.381C201.739 322.586 185.526 332.107 184.28 343.464C183.617 349.308 186.321 351.607 188.965 345.929C191.191 341.145 190.111 335.599 189.216 330.69C183.856 301.278 174.076 271.905 170.154 242.361C167.411 221.662 161.686 186.551 160.878 165.865C160.321 151.713 156.79 136.791 149.137 135.327C136.21 132.856 115.524 133.505 103.876 136.984C98.3497 138.633 94.7652 162.731 93.7514 177.679C92.466 196.682 93.4731 214.499 93.7514 233.509C94.2417 264.299 94.785 293.207 91.6444 323.905C90.0542 339.469 91.7703 354.523 90.0078 369.981" stroke="#252A33" stroke-width="3" stroke-linecap="round" stroke-linejoin="round"/>
<path d="M350.207 130.86C350.87 124.936 350.406 104.178 350.73 101.607C351.055 99.0359 363.154 97.5054 369.488 95.9351C375.822 94.3647 388.935 91.509 389.836 93.8479C390.737 96.1868 392.619 122.18 392.619 122.18" stroke="#252A33" stroke-width="3" stroke-linecap="round" stroke-linejoin="round"/>
<path d="M149.14 135.319C149.14 135.319 148.351 113.454 146.046 104.482C134.245 100.904 119.31 103.707 107.073 104.807C105.794 112.539 103.879 136.975 103.879 136.975" stroke="#252A33" stroke-width="3" stroke-linecap="round" stroke-linejoin="round"/>
<path d="M352.437 100.057C350.317 87.3484 341.73 71.2676 347.76 58.3737C351.457 50.4691 371.931 35.1038 379.776 44.9034C385.918 52.5761 371.652 57.2274 367.1 57.837C374.091 61.6601 376.231 66.0795 374.389 71.0887" stroke="#252A33" stroke-width="3" stroke-linecap="round" stroke-linejoin="round"/>
<path d="M118.388 65.7745C116.685 50.0779 139.425 46.712 144.971 53.848C139.637 50.6543 132.11 37.0382 140.081 32.864C147.767 28.8355 153.644 40.0331 157.189 44.8634C161.754 51.085 163.152 56.1273 161.449 64.0782C159.514 72.937 152.756 72.2346 148.78 79.3044C146.607 83.1739 143.546 96.293 144.315 104.012" stroke="#252A33" stroke-width="3" stroke-linecap="round" stroke-linejoin="round"/>
<path d="M359.933 45.2158C361.02 37.987 353.97 22.5422 347.715 18.9775" stroke="#252A33" stroke-width="3" stroke-linecap="round" stroke-linejoin="round"/>
<path d="M339.516 17.5515C342.491 9.45478 355.756 7.10924 359.585 16.7432C361.944 9.34877 371.445 12.602 373.698 17.8961C380.536 7.86458 392.005 21.3548 393.682 28.2655C395.312 34.9708 398.817 51.9263 386.393 43.2067C386.195 45.5987 383.856 47.931 381.444 47.6593" stroke="#252A33" stroke-width="3" stroke-linecap="round" stroke-linejoin="round"/>
<path d="M385.641 75.4023C386.919 79.464 387.569 92.9674 387.569 92.9674" stroke="#252A33" stroke-width="3" stroke-linecap="round" stroke-linejoin="round"/>
<path d="M106.171 64.3906C104.574 70.5328 109.636 79.418 116.547 78.7753" stroke="#252A33" stroke-width="3" stroke-linecap="round" stroke-linejoin="round"/>
<path d="M109.633 102.608C110.388 96.2936 109.222 85.1424 112.117 78.5762" stroke="#252A33" stroke-width="3" stroke-linecap="round" stroke-linejoin="round"/>
<path d="M127.086 81.1744C127.571 80.5151 128.256 80.03 129.04 79.7913C129.823 79.5525 130.662 79.5729 131.432 79.8492" stroke="#252A33" stroke-width="3" stroke-linecap="round" stroke-linejoin="round"/>
<path d="M368.66 84.6318C370.118 84.6495 371.567 84.4095 372.94 83.9229" stroke="#252A33" stroke-width="3" stroke-linecap="round" stroke-linejoin="round"/>
<path d="M159.065 16.3662C157.077 19.8912 150.252 32.3808 147.582 32.8711" stroke="#252A33" stroke-width="3" stroke-linecap="round" stroke-linejoin="round"/>
<path d="M136.655 39.861C132.944 40.3049 126.531 40.179 126.246 35.6933C122.8 38.2443 116.38 38.1515 117.553 32.0624C98.3377 37.0847 111.51 -2.13351 124.225 11.2043" stroke="#252A33" stroke-width="3" stroke-linecap="round" stroke-linejoin="round"/>
<path d="M118.203 21.9186C120.496 17.7774 122.695 12.1521 126.28 8.87895C129.54 5.91058 138.286 2.25312 139.492 9.13073C143.308 -3.71674 167.002 2.38564 167.566 14.8621" stroke="#252A33" stroke-width="3" stroke-linecap="round" stroke-linejoin="round"/>
<path d="M290.285 229.307C292.81 228.082 295.679 227.22 297.998 226.279" stroke="#252A33" stroke-width="3" stroke-linecap="round" stroke-linejoin="round"/>
<path d="M287.922 419.469C298.921 416.361 311.669 414.718 321.932 410.809" stroke="#252A33" stroke-width="3" stroke-linecap="round" stroke-linejoin="round"/>
<path d="M312.883 406.123C315.44 410.496 316.196 416.433 316.527 421.548" stroke="#252A33" stroke-width="3" stroke-linecap="round" stroke-linejoin="round"/>
<path d="M304.836 408.204C309.408 414.83 310.547 425.544 311.555 433.588" stroke="#252A33" stroke-width="3" stroke-linecap="round" stroke-linejoin="round"/>
<path d="M416.168 65.5103C427.034 65.2254 444.977 65.7621 448.959 63.1449C453.213 60.3488 454.392 50.6221 453.723 41.1206C453.054 31.6192 451.252 26.5836 447.309 24.8476C444.288 23.5224 430.811 22.8201 418.434 22.1973" stroke="#252A33" stroke-width="3" stroke-linecap="round" stroke-linejoin="round"/>
<path d="M380.418 51.2715L420.498 52.1063" stroke="#252A33" stroke-width="3" stroke-linecap="round" stroke-linejoin="round"/>
<path d="M159.746 49.2374C201.085 49.35 265.382 48.9591 286.419 49.3434C293.965 49.4825 324.252 50.1053 354.135 50.7215" stroke="#252A33" stroke-width="3" stroke-linecap="round" stroke-linejoin="round"/>
<path d="M70.2305 48.4229C70.2305 48.4229 123.277 48.7144 128.538 48.88C131.46 48.9728 135.482 49.0457 140.358 49.0987" stroke="#252A33" stroke-width="3" stroke-linecap="round" stroke-linejoin="round"/>
<path d="M418.898 22.4756C422.118 32.0433 423.602 50.2577 416.168 65.5103" stroke="#252A33" stroke-width="3" stroke-linecap="round" stroke-linejoin="round"/>
<path d="M62.4077 21.5879C62.4077 21.5879 45.1805 28.7835 40.284 30.6388C34.7846 32.7325 2 45.8782 2 45.8782C2 45.8782 27.0059 51.5234 33.0089 53.0407C41.6224 55.2206 60.5458 60.773 60.5458 60.773" stroke="#252A33" stroke-width="3" stroke-linecap="round" stroke-linejoin="round"/>
<path d="M27.1157 36.2236C30.7268 39.6359 28.3017 46.9243 25.4062 51.2576" stroke="#252A33" stroke-width="3" stroke-linecap="round" stroke-linejoin="round"/>
<path d="M295.212 206.356C294.609 199.876 292.005 193.104 286.042 189.792C283.889 188.597 281.435 188.053 278.979 188.228C279.372 186.284 279.183 184.267 278.435 182.43C276.388 177.401 270.816 174.85 265.634 174.956C259.683 175.2 254.027 177.614 249.732 181.741C247.745 183.729 246.26 185.935 243.451 186.823C240.642 187.711 237.448 187.486 234.513 187.174C232.525 186.989 231.558 188.818 232.061 190.487C233.174 194.237 237.508 195.887 240.794 197.259C245.26 199.11 249.956 200.345 254.755 200.93C259.393 201.493 266.111 201.93 270.551 199.326C270.565 201.248 270.853 203.157 271.405 204.998C272.357 208.149 273.481 211.246 274.771 214.274C276.097 217.421 278.919 221.317 277.64 224.836C276.567 227.777 280.662 229.281 282.073 226.618C283.793 223.49 285.258 220.228 286.453 216.865C289.379 216.042 292.388 215.549 295.424 215.394C295.56 212.38 295.489 209.36 295.212 206.356Z" fill="#252A33"/>
<path d="M285.22 248.966C288.062 246.315 289.858 242.572 291.11 238.702C288.884 238.808 286.684 238.855 284.63 238.888C284.61 238.888 284.895 243.108 285.22 248.966Z" fill="#252A33"/>
<path d="M366.219 25.1123C369.147 30.2274 370.473 34.1698 371.758 39.7554" stroke="#252A33" stroke-width="3" stroke-linecap="round" stroke-linejoin="round"/>
<path d="M380.93 25.9873C383.925 31.288 385.422 36.8139 386.23 42.6049" stroke="#252A33" stroke-width="3" stroke-linecap="round" stroke-linejoin="round"/>
<path d="M235.042 253.671C234.707 251.06 234.371 248.449 234.035 245.839C233.81 244.083 232.16 243.593 230.868 244.063C230.587 244.031 230.302 244.059 230.032 244.146C229.762 244.233 229.514 244.376 229.305 244.567C227.019 246.8 227.098 249.543 228.165 252.147C228.225 252.543 228.313 252.935 228.43 253.319C228.609 253.926 228.842 254.516 229.126 255.082C229.294 256.118 229.565 257.134 229.934 258.116C230.55 259.786 232.498 259.826 233.658 258.878C234.255 258.625 234.73 258.15 234.983 257.553L235.586 256.228C235.752 255.795 235.788 255.323 235.692 254.869C235.596 254.415 235.37 253.999 235.042 253.671Z" fill="#252A33"/>
<path d="M273.691 249.185C273.691 249.185 273.691 249.132 273.691 249.105C273.691 249.079 273.691 249.105 273.691 249.145C273.688 249.116 273.688 249.087 273.691 249.059C273.722 248.451 273.523 247.853 273.132 247.386C272.741 246.919 272.188 246.617 271.584 246.541C271.093 246.499 270.601 246.607 270.172 246.849C269.743 247.091 269.397 247.457 269.179 247.899C269.055 248.051 268.964 248.227 268.914 248.416C268.649 249.287 268.582 250.206 268.715 251.106C268.811 251.671 269.107 252.183 269.549 252.549C269.991 252.914 270.55 253.108 271.123 253.096C271.697 253.084 272.246 252.867 272.673 252.483C273.099 252.1 273.373 251.576 273.446 251.007C273.446 250.921 273.446 250.834 273.446 250.748C273.489 250.676 273.526 250.601 273.558 250.523C273.724 250.098 273.77 249.634 273.691 249.185Z" fill="#252A33"/>
</svg>
