<svg width="219" height="32" viewBox="0 0 219 32" fill="none" xmlns="http://www.w3.org/2000/svg">
<path d="M0 0.598145H6.837L18.49 17.3681V0.598145H26.66V30.6981H19.35L7.74 13.9281V30.6981H0V0.598145Z" fill="#252A33"/>
<path d="M41.2699 31.2571C39.6646 31.2571 38.1596 31.0278 36.7549 30.5691C35.3503 30.0818 34.1176 29.3508 33.0569 28.3761C31.9963 27.4015 31.1649 26.1831 30.5629 24.7211C29.9609 23.2305 29.6599 21.4961 29.6599 19.5181V18.6581C29.6599 16.7948 29.9609 15.1608 30.5629 13.7561C31.1649 12.3515 31.9963 11.1761 33.0569 10.2301C34.1176 9.28415 35.3503 8.56748 36.7549 8.08015C38.1596 7.59281 39.6646 7.34914 41.2699 7.34914C42.8753 7.34914 44.3803 7.59281 45.7849 8.08015C47.1896 8.56748 48.4223 9.28415 49.4829 10.2301C50.5436 11.1761 51.3749 12.3515 51.9769 13.7561C52.5789 15.1608 52.8799 16.7948 52.8799 18.6581V19.5181C52.8799 21.4675 52.5789 23.1875 51.9769 24.6781C51.3749 26.1401 50.5436 27.3585 49.4829 28.3331C48.4223 29.3078 47.1896 30.0388 45.7849 30.5261C44.3803 31.0135 42.8753 31.2571 41.2699 31.2571ZM41.2699 25.7531C42.8179 25.7531 44.0076 25.1941 44.8389 24.0761C45.6703 22.9581 46.0859 21.4388 46.0859 19.5181V18.6581C46.0859 16.9381 45.6703 15.5478 44.8389 14.4871C44.0076 13.3978 42.8179 12.8531 41.2699 12.8531C39.7219 12.8531 38.5323 13.3978 37.7009 14.4871C36.8696 15.5478 36.4539 16.9381 36.4539 18.6581V19.5181C36.4539 21.4961 36.8696 23.0298 37.7009 24.1191C38.5323 25.2085 39.7219 25.7531 41.2699 25.7531Z" fill="#252A33"/>
<path d="M55.0131 7.90815H61.1191V11.0041C61.2911 10.6315 61.5491 10.2301 61.8931 9.80015C62.2658 9.37014 62.6958 8.96881 63.1831 8.59615C63.6705 8.22348 64.2151 7.92248 64.8171 7.69315C65.4478 7.46381 66.1215 7.34914 66.8381 7.34914C67.3255 7.34914 67.7125 7.37781 67.9991 7.43515C68.2858 7.49248 68.5438 7.54981 68.7731 7.60715V13.3261C68.6298 13.2401 68.3001 13.1398 67.7841 13.0251C67.2681 12.9105 66.6661 12.8531 65.9781 12.8531C64.4588 12.8531 63.3551 13.2975 62.6671 14.1861C61.9791 15.0748 61.6351 16.1498 61.6351 17.4111V30.6981H55.0131V7.90815Z" fill="#252A33"/>
<path d="M80.9929 30.9561C79.5595 30.9561 78.3268 30.8271 77.2948 30.5691C76.2628 30.2825 75.4172 29.8238 74.7579 29.1931C74.0985 28.5625 73.6112 27.7455 73.2958 26.7421C72.9805 25.7101 72.8228 24.4488 72.8228 22.9581V13.3261H70.0278V7.90815H72.8228V2.74815H79.4448V7.90815H84.6479V13.3261H79.4448V21.8831C79.4448 23.1731 79.6455 24.0905 80.0469 24.6351C80.4769 25.1798 81.2938 25.4521 82.4978 25.4521C83.3578 25.4521 84.2178 25.4091 85.0779 25.3231V30.7411C84.5332 30.7985 83.9598 30.8415 83.3578 30.8701C82.7559 30.9275 81.9675 30.9561 80.9929 30.9561Z" fill="#252A33"/>
<path d="M87.2446 0.598145H93.8666V10.7891C94.096 10.4165 94.4113 10.0295 94.8126 9.62815C95.214 9.22681 95.7013 8.85415 96.2746 8.51015C96.8766 8.16615 97.5646 7.89381 98.3386 7.69315C99.1126 7.46381 99.9726 7.34914 100.919 7.34914C103.642 7.34914 105.692 8.09448 107.068 9.58514C108.472 11.0471 109.175 13.1255 109.175 15.8201V30.6981H102.553V17.3681C102.553 15.8775 102.223 14.7595 101.564 14.0141C100.933 13.2401 99.8866 12.8531 98.4246 12.8531C96.8193 12.8531 95.6583 13.2831 94.9416 14.1431C94.225 15.0031 93.8666 16.0781 93.8666 17.3681V30.6981H87.2446V0.598145Z" fill="#252A33"/>
<path d="M109.85 7.90815H116.988L120.17 21.9261L124.169 7.90815H130.361L134.661 21.7971L138.23 7.90815H144.68L138.316 30.6981H131.694L127.222 15.9061L122.836 30.6981H116.214L109.85 7.90815Z" fill="#252A33"/>
<path d="M156.728 31.2571C155.066 31.2571 153.503 31.0278 152.041 30.5691C150.608 30.0818 149.361 29.3508 148.3 28.3761C147.24 27.4015 146.408 26.1831 145.806 24.7211C145.204 23.2305 144.903 21.4961 144.903 19.5181V18.6581C144.903 16.7661 145.19 15.1178 145.763 13.7131C146.365 12.3085 147.168 11.1331 148.171 10.1871C149.203 9.24114 150.407 8.53881 151.783 8.08015C153.188 7.59281 154.693 7.34914 156.298 7.34914C160.054 7.34914 162.892 8.32381 164.812 10.2731C166.733 12.1938 167.693 14.9888 167.693 18.6581V21.0231H151.697C151.726 21.9118 151.884 22.6715 152.17 23.3021C152.457 23.9041 152.83 24.4058 153.288 24.8071C153.747 25.2085 154.263 25.5095 154.836 25.7101C155.438 25.8821 156.069 25.9681 156.728 25.9681C157.99 25.9681 158.979 25.7818 159.695 25.4091C160.441 25.0078 160.928 24.4775 161.157 23.8181H167.263C166.805 26.3121 165.672 28.1755 163.866 29.4081C162.06 30.6408 159.681 31.2571 156.728 31.2571ZM156.513 12.5951C155.911 12.5951 155.324 12.6668 154.75 12.8101C154.206 12.9535 153.704 13.1971 153.245 13.5411C152.815 13.8565 152.457 14.2721 152.17 14.7881C151.912 15.3041 151.769 15.9348 151.74 16.6801H161.2C161.2 15.8775 161.071 15.2181 160.813 14.7021C160.555 14.1861 160.211 13.7705 159.781 13.4551C159.38 13.1398 158.893 12.9248 158.319 12.8101C157.746 12.6668 157.144 12.5951 156.513 12.5951Z" fill="#252A33"/>
<path d="M179.727 31.2571C177.863 31.2571 176.258 31.0708 174.911 30.6981C173.592 30.2968 172.503 29.7665 171.643 29.1071C170.783 28.4191 170.138 27.6308 169.708 26.7421C169.278 25.8248 169.034 24.8501 168.977 23.8181H175.599C175.771 24.4775 176.143 25.0365 176.717 25.4951C177.29 25.9538 178.293 26.1831 179.727 26.1831C181.189 26.1831 182.235 25.9825 182.866 25.5811C183.525 25.1798 183.855 24.6495 183.855 23.9901C183.855 23.7321 183.783 23.5028 183.64 23.3021C183.496 23.0728 183.224 22.8721 182.823 22.7001C182.45 22.4995 181.934 22.3131 181.275 22.1411C180.615 21.9691 179.77 21.7971 178.738 21.6251C177.476 21.4245 176.287 21.1665 175.169 20.8511C174.051 20.5358 173.076 20.1201 172.245 19.6041C171.442 19.0595 170.797 18.3715 170.31 17.5401C169.851 16.7088 169.622 15.6625 169.622 14.4011C169.622 13.3978 169.851 12.4661 170.31 11.6061C170.768 10.7461 171.428 10.0008 172.288 9.37015C173.176 8.73948 174.237 8.25215 175.47 7.90815C176.731 7.53548 178.15 7.34914 179.727 7.34914C181.504 7.34914 182.995 7.56415 184.199 7.99415C185.431 8.42415 186.435 8.99748 187.209 9.71414C187.983 10.4021 188.556 11.1905 188.929 12.0791C189.301 12.9678 189.531 13.8708 189.617 14.7881H182.995C182.823 14.0428 182.45 13.4695 181.877 13.0681C181.303 12.6381 180.587 12.4231 179.727 12.4231C178.408 12.4231 177.491 12.6238 176.975 13.0251C176.487 13.4265 176.244 13.8995 176.244 14.4441C176.244 15.0461 176.645 15.5191 177.448 15.8631C178.25 16.1785 179.526 16.4508 181.275 16.6801C182.507 16.8521 183.683 17.0958 184.801 17.4111C185.919 17.7265 186.893 18.1708 187.725 18.7441C188.585 19.2888 189.258 19.9911 189.746 20.8511C190.233 21.6825 190.477 22.7001 190.477 23.9041C190.477 26.0828 189.559 27.8601 187.725 29.2361C185.919 30.5835 183.253 31.2571 179.727 31.2571Z" fill="#252A33"/>
<path d="M202.073 30.9561C200.64 30.9561 199.407 30.8271 198.375 30.5691C197.343 30.2825 196.497 29.8238 195.838 29.1931C195.179 28.5625 194.691 27.7455 194.376 26.7421C194.061 25.7101 193.903 24.4488 193.903 22.9581V13.3261H191.108V7.90815H193.903V2.74815H200.525V7.90815H205.728V13.3261H200.525V21.8831C200.525 23.1731 200.726 24.0905 201.127 24.6351C201.557 25.1798 202.374 25.4521 203.578 25.4521C204.438 25.4521 205.298 25.4091 206.158 25.3231V30.7411C205.613 30.7985 205.04 30.8415 204.438 30.8701C203.836 30.9275 203.048 30.9561 202.073 30.9561Z" fill="#252A33"/>
<path fill-rule="evenodd" clip-rule="evenodd" d="M213.77 5.13574H212.113V9.26074H212.863V7.68146H213.757L214.726 9.26074H215.551L214.451 7.59896C214.776 7.5086 215.02 7.36128 215.182 7.15699C215.345 6.94878 215.426 6.70324 215.426 6.42039C215.426 6.23181 215.39 6.05896 215.32 5.90181C215.249 5.74467 215.145 5.60914 215.007 5.49521C214.87 5.38128 214.697 5.29288 214.488 5.23003C214.284 5.16717 214.045 5.13574 213.77 5.13574ZM214.445 6.91539C214.295 7.03324 214.028 7.09217 213.645 7.09217H212.863V5.7486H213.645C214.028 5.7486 214.295 5.80753 214.445 5.92538C214.599 6.04324 214.676 6.20824 214.676 6.42039C214.676 6.63253 214.599 6.79753 214.445 6.91539Z" fill="#252A33"/>
<path fill-rule="evenodd" clip-rule="evenodd" d="M207.988 7.19824C207.988 4.16068 210.451 1.69824 213.488 1.69824C216.526 1.69824 218.988 4.16068 218.988 7.19824C218.988 10.2358 216.526 12.6982 213.488 12.6982C210.451 12.6982 207.988 10.2358 207.988 7.19824ZM213.488 11.9482C210.865 11.9482 208.738 9.82159 208.738 7.19824C208.738 4.57489 210.865 2.44824 213.488 2.44824C216.112 2.44824 218.238 4.57489 218.238 7.19824C218.238 9.82159 216.112 11.9482 213.488 11.9482Z" fill="#252A33"/>
</svg>
