<svg width="169" height="24" viewBox="0 0 169 24" fill="none" xmlns="http://www.w3.org/2000/svg">
<path d="M0 0H5.27621L14.269 12.9417V0H20.5739V23.2286H14.9327L5.97307 10.287V23.2286H0V0Z" fill="white"/>
<path d="M31.8486 23.66C30.6097 23.66 29.4483 23.483 28.3643 23.1291C27.2803 22.753 26.329 22.1889 25.5105 21.4367C24.692 20.6845 24.0504 19.7443 23.5859 18.6161C23.1213 17.4657 22.889 16.1273 22.889 14.6008V13.9372C22.889 12.4992 23.1213 11.2382 23.5859 10.1542C24.0504 9.07022 24.692 8.1632 25.5105 7.43316C26.329 6.70312 27.2803 6.15005 28.3643 5.77397C29.4483 5.39789 30.6097 5.20985 31.8486 5.20985C33.0875 5.20985 34.2489 5.39789 35.3329 5.77397C36.4169 6.15005 37.3682 6.70312 38.1867 7.43316C39.0052 8.1632 39.6468 9.07022 40.1114 10.1542C40.5759 11.2382 40.8082 12.4992 40.8082 13.9372V14.6008C40.8082 16.1052 40.5759 17.4325 40.1114 18.5829C39.6468 19.7111 39.0052 20.6513 38.1867 21.4035C37.3682 22.1557 36.4169 22.7198 35.3329 23.0959C34.2489 23.472 33.0875 23.66 31.8486 23.66ZM31.8486 19.4125C33.0432 19.4125 33.9613 18.9811 34.6029 18.1183C35.2444 17.2555 35.5652 16.083 35.5652 14.6008V13.9372C35.5652 12.6098 35.2444 11.5369 34.6029 10.7183C33.9613 9.87769 33.0432 9.45736 31.8486 9.45736C30.654 9.45736 29.7359 9.87769 29.0944 10.7183C28.4528 11.5369 28.132 12.6098 28.132 13.9372V14.6008C28.132 16.1273 28.4528 17.3108 29.0944 18.1515C29.7359 18.9922 30.654 19.4125 31.8486 19.4125Z" fill="white"/>
<path d="M42.4544 5.64123H47.1665V8.03046C47.2993 7.74287 47.4984 7.43316 47.7638 7.10132C48.0514 6.76948 48.3833 6.45977 48.7593 6.17218C49.1354 5.88458 49.5557 5.6523 50.0203 5.47532C50.507 5.29834 51.0269 5.20985 51.58 5.20985C51.956 5.20985 52.2547 5.23197 52.4759 5.27621C52.6971 5.32046 52.8962 5.3647 53.0732 5.40895V9.82238C52.9626 9.75602 52.7082 9.67859 52.31 9.5901C51.9118 9.50161 51.4472 9.45736 50.9163 9.45736C49.7438 9.45736 48.8921 9.80026 48.3611 10.4861C47.8302 11.1719 47.5647 12.0014 47.5647 12.9748V23.2286H42.4544V5.64123Z" fill="white"/>
<path d="M62.5034 23.4277C61.3972 23.4277 60.446 23.3282 59.6496 23.1291C58.8532 22.9078 58.2005 22.5539 57.6917 22.0672C57.1829 21.5805 56.8068 20.95 56.5635 20.1757C56.3201 19.3793 56.1985 18.4059 56.1985 17.2555V9.82238H54.0415V5.64123H56.1985V1.65919H61.3088V5.64123H65.324V9.82238H61.3088V16.4259C61.3088 17.4215 61.4636 18.1294 61.7733 18.5497C62.1052 18.97 62.7357 19.1802 63.6648 19.1802C64.3285 19.1802 64.9921 19.147 65.6558 19.0806V23.2618C65.2355 23.306 64.793 23.3392 64.3285 23.3613C63.8639 23.4056 63.2555 23.4277 62.5034 23.4277Z" fill="white"/>
<path d="M67.328 0H72.4383V7.86454C72.6152 7.57695 72.8586 7.2783 73.1683 6.96858C73.478 6.65887 73.8541 6.37128 74.2965 6.10581C74.7611 5.84034 75.2921 5.63017 75.8894 5.47532C76.4867 5.29834 77.1504 5.20985 77.8804 5.20985C79.982 5.20985 81.5638 5.78503 82.6257 6.9354C83.7097 8.06365 84.2517 9.66753 84.2517 11.747V23.2286H79.1414V12.9417C79.1414 11.7913 78.887 10.9285 78.3782 10.3533C77.8915 9.75602 77.084 9.45736 75.9557 9.45736C74.7169 9.45736 73.8209 9.7892 73.2679 10.4529C72.7148 11.1165 72.4383 11.9461 72.4383 12.9417V23.2286H67.328V0Z" fill="white"/>
<path d="M84.7728 5.64123H90.2813L92.7369 16.4591L95.8229 5.64123H100.601L103.92 16.3596L106.674 5.64123H111.652L106.74 23.2286H101.63L98.179 11.8134L94.7943 23.2286H89.684L84.7728 5.64123Z" fill="white"/>
<path d="M120.95 23.66C119.666 23.66 118.461 23.483 117.332 23.1291C116.226 22.753 115.264 22.1889 114.445 21.4367C113.627 20.6845 112.985 19.7443 112.521 18.6161C112.056 17.4657 111.824 16.1273 111.824 14.6008V13.9372C111.824 12.4771 112.045 11.205 112.488 10.121C112.952 9.03704 113.572 8.13001 114.346 7.39997C115.142 6.66993 116.071 6.12793 117.133 5.77397C118.217 5.39789 119.379 5.20985 120.618 5.20985C123.516 5.20985 125.706 5.96201 127.188 7.46634C128.67 8.94855 129.411 11.1055 129.411 13.9372V15.7623H117.067C117.089 16.4481 117.211 17.0343 117.432 17.521C117.653 17.9856 117.941 18.3727 118.295 18.6824C118.649 18.9922 119.047 19.2244 119.489 19.3793C119.954 19.512 120.441 19.5784 120.95 19.5784C121.923 19.5784 122.686 19.4346 123.239 19.147C123.814 18.8373 124.19 18.428 124.367 17.9192H129.08C128.726 19.8439 127.852 21.2818 126.458 22.2331C125.064 23.1844 123.228 23.66 120.95 23.66ZM120.784 9.25826C120.319 9.25826 119.865 9.31357 119.423 9.42418C119.003 9.53479 118.616 9.72283 118.262 9.9883C117.93 10.2317 117.653 10.5524 117.432 10.9506C117.233 11.3488 117.122 11.8355 117.1 12.4107H124.401C124.401 11.7913 124.301 11.2825 124.102 10.8843C123.903 10.4861 123.637 10.1653 123.306 9.92194C122.996 9.67859 122.62 9.51267 122.177 9.42418C121.735 9.31357 121.27 9.25826 120.784 9.25826Z" fill="white"/>
<path d="M138.698 23.66C137.26 23.66 136.021 23.5162 134.981 23.2286C133.963 22.9189 133.123 22.5096 132.459 22.0008C131.795 21.4699 131.298 20.8615 130.966 20.1757C130.634 19.4678 130.446 18.7156 130.402 17.9192H135.512C135.645 18.428 135.932 18.8594 136.375 19.2134C136.817 19.5673 137.591 19.7443 138.698 19.7443C139.826 19.7443 140.633 19.5895 141.12 19.2797C141.629 18.97 141.883 18.5608 141.883 18.052C141.883 17.8528 141.828 17.6759 141.717 17.521C141.607 17.344 141.397 17.1892 141.087 17.0564C140.799 16.9016 140.401 16.7578 139.892 16.625C139.383 16.4923 138.731 16.3596 137.934 16.2268C136.961 16.072 136.043 15.8729 135.18 15.6295C134.317 15.3862 133.565 15.0654 132.924 14.6672C132.304 14.2469 131.806 13.7159 131.43 13.0744C131.076 12.4328 130.899 11.6254 130.899 10.652C130.899 9.87769 131.076 9.15871 131.43 8.49504C131.784 7.83136 132.293 7.25618 132.957 6.76948C133.643 6.28279 134.461 5.9067 135.412 5.64123C136.386 5.35364 137.481 5.20985 138.698 5.20985C140.069 5.20985 141.22 5.37576 142.149 5.7076C143.1 6.03944 143.874 6.48189 144.472 7.03495C145.069 7.56589 145.511 8.17426 145.799 8.86006C146.087 9.54585 146.264 10.2427 146.33 10.9506H141.22C141.087 10.3754 140.799 9.933 140.357 9.62328C139.914 9.29145 139.361 9.12553 138.698 9.12553C137.68 9.12553 136.972 9.28038 136.574 9.5901C136.198 9.89981 136.01 10.2648 136.01 10.6852C136.01 11.1497 136.319 11.5148 136.939 11.7802C137.558 12.0236 138.543 12.2337 139.892 12.4107C140.843 12.5435 141.751 12.7315 142.613 12.9748C143.476 13.2182 144.228 13.5611 144.87 14.0035C145.533 14.4239 146.053 14.9659 146.429 15.6295C146.806 16.2711 146.994 17.0564 146.994 17.9856C146.994 19.6669 146.286 21.0385 144.87 22.1004C143.476 23.1401 141.419 23.66 138.698 23.66Z" fill="white"/>
<path d="M155.943 23.4277C154.837 23.4277 153.885 23.3282 153.089 23.1291C152.293 22.9078 151.64 22.5539 151.131 22.0672C150.622 21.5805 150.246 20.95 150.003 20.1757C149.76 19.3793 149.638 18.4059 149.638 17.2555V9.82238H147.481V5.64123H149.638V1.65919H154.748V5.64123H158.763V9.82238H154.748V16.4259C154.748 17.4215 154.903 18.1294 155.213 18.5497C155.545 18.97 156.175 19.1802 157.104 19.1802C157.768 19.1802 158.432 19.147 159.095 19.0806V23.2618C158.675 23.306 158.232 23.3392 157.768 23.3613C157.303 23.4056 156.695 23.4277 155.943 23.4277Z" fill="white"/>
<path fill-rule="evenodd" clip-rule="evenodd" d="M164.969 3.50173H163.691V6.68505H164.27V5.4663H164.959L165.707 6.68505H166.344L165.495 5.40263C165.746 5.3329 165.934 5.21921 166.059 5.06156C166.185 4.90088 166.247 4.71139 166.247 4.49311C166.247 4.34758 166.22 4.21419 166.165 4.09292C166.111 3.97165 166.03 3.86705 165.924 3.77913C165.818 3.69121 165.685 3.623 165.524 3.57449C165.366 3.52598 165.181 3.50173 164.969 3.50173ZM165.49 4.87511C165.374 4.96606 165.168 5.01154 164.873 5.01154H164.27V3.97468H164.873C165.168 3.97468 165.374 4.02016 165.49 4.11111C165.609 4.20206 165.668 4.32939 165.668 4.49311C165.668 4.65682 165.609 4.78415 165.49 4.87511Z" fill="white"/>
<path fill-rule="evenodd" clip-rule="evenodd" d="M160.508 5.09339C160.508 2.74926 162.408 0.848961 164.752 0.848961C167.096 0.848961 168.996 2.74926 168.996 5.09339C168.996 7.43753 167.096 9.33782 164.752 9.33782C162.408 9.33782 160.508 7.43753 160.508 5.09339ZM164.752 8.75904C162.728 8.75904 161.086 7.11787 161.086 5.09339C161.086 3.06891 162.728 1.42775 164.752 1.42775C166.777 1.42775 168.418 3.06891 168.418 5.09339C168.418 7.11787 166.777 8.75904 164.752 8.75904Z" fill="white"/>
</svg>
