<svg width="18" height="18" viewBox="0 0 18 18" fill="none" xmlns="http://www.w3.org/2000/svg">
<path d="M9.18 7.71375V10.8H14.2845C14.0783 12.1237 12.7425 14.6805 9.18 14.6805C6.10875 14.6805 3.60075 12.1387 3.60075 9C3.60075 5.86125 6.1095 3.3195 9.18 3.3195C10.9275 3.3195 12.0983 4.06125 12.7688 4.70625L15.2093 2.35275C13.6418 0.8895 11.6093 0 9.18 0C4.20375 0 0.18 4.02375 0.18 9C0.18 13.9763 4.20375 18 9.18 18C14.3745 18 17.82 14.3483 17.82 9.2055C17.82 8.6145 17.7563 8.163 17.6783 7.71375H9.18V7.71375Z" fill="#FF4242"/>
</svg>
