<svg width="18" height="18" viewBox="0 0 18 18" fill="none" xmlns="http://www.w3.org/2000/svg">
<path d="M9 18C4.03875 18 0 13.9612 0 9C0 4.03875 4.03875 0 9 0C13.9612 0 18 4.03875 18 9C18 13.9612 13.9612 18 9 18ZM16.59 10.2315C16.3275 10.149 14.2125 9.51675 11.802 9.903C12.807 12.666 13.2173 14.916 13.296 15.384C15.021 14.2177 16.248 12.369 16.5922 10.2315H16.59ZM12.0037 16.0875C11.889 15.4125 11.4412 13.0635 10.3612 10.26L10.3117 10.275C5.96925 11.7862 4.41675 14.7938 4.28175 15.075C5.57925 16.0935 7.22175 16.6995 8.99925 16.6995C10.0642 16.6995 11.0767 16.482 11.9992 16.089L12.0037 16.0875ZM3.28875 14.1525C3.46275 13.8525 5.5725 10.3612 9.53775 9.07875C9.639 9.045 9.74025 9.01575 9.8415 8.98875C9.6465 8.55 9.4365 8.1135 9.2175 7.68375C5.3775 8.83125 1.6545 8.7825 1.317 8.775L1.314 9.009C1.314 10.9837 2.0625 12.7868 3.2895 14.1503L3.28875 14.1525ZM1.47375 7.43625C1.81875 7.44225 4.986 7.45575 8.5815 6.50025C7.308 4.23675 5.934 2.33175 5.7315 2.05425C3.5805 3.06675 1.974 5.04675 1.4745 7.43175L1.47375 7.43625ZM7.2 1.539C7.4115 1.824 8.80875 3.7245 10.0665 6.039C12.8002 5.01525 13.959 3.459 14.0963 3.2625C12.7388 2.055 10.9538 1.323 9 1.323C8.38125 1.323 7.7775 1.398 7.2 1.53675V1.539ZM14.9512 4.15125C14.7877 4.36875 13.5 6.021 10.6583 7.18125C10.8383 7.54875 11.0107 7.92 11.1682 8.29575C11.2282 8.43075 11.2808 8.56575 11.3333 8.69325C13.8908 8.37075 16.4332 8.88825 16.6882 8.94075C16.6732 7.12575 16.0282 5.46075 14.9557 4.15575L14.9512 4.15125Z" fill="#FF4242"/>
</svg>
