<svg width="18" height="18" viewBox="0 0 18 18" fill="none" xmlns="http://www.w3.org/2000/svg">
<path d="M7.203 6.135L10.503 1.35C11.1285 0.45 11.9325 0 12.9233 0C13.7273 0 14.4248 0.28575 15.015 0.858C15.6023 1.43175 15.897 2.11425 15.897 2.9115C15.897 3.4995 15.7418 4.02075 15.429 4.47075L12.4538 8.7975L16.0935 13.4122C16.4565 13.8712 16.6388 14.4098 16.6388 15.0248C16.6388 15.8393 16.353 16.5382 15.78 17.1232C15.2085 17.7075 14.5155 18 13.7018 18C12.81 18 12.129 17.7098 11.661 17.13L7.20375 11.5673V14.634C7.20375 15.51 7.05225 16.1895 6.7485 16.6755C6.19575 17.5582 5.39625 18 4.33875 18C3.37725 18 2.63175 17.673 2.1045 17.0258C1.6095 16.4265 1.362 15.6337 1.362 14.6467V3.27375C1.362 2.34 1.614 1.56825 2.115 0.9615C2.6385 0.321 3.366 0 4.2945 0C5.17875 0 5.9145 0.321 6.504 0.9615C6.8325 1.31775 7.04025 1.67625 7.12725 2.0415C7.17975 2.2665 7.206 2.685 7.206 3.3015V6.135H7.203V6.135Z" fill="#FF4242"/>
</svg>
