<svg width="18" height="18" viewBox="0 0 18 18" fill="none" xmlns="http://www.w3.org/2000/svg">
<path d="M9.01276 0C4.04701 0 0.021759 4.02525 0.021759 8.99025C0.021759 12.7995 2.39026 16.053 5.73526 17.3618C5.65651 16.65 5.58601 15.5595 5.76601 14.7825C5.93026 14.0797 6.82051 10.3148 6.82051 10.3148C6.82051 10.3148 6.55126 9.77475 6.55126 8.979C6.55126 7.73175 7.27651 6.79575 8.17726 6.79575C8.94526 6.79575 9.31576 7.3725 9.31576 8.06175C9.31576 8.8335 8.82601 9.987 8.57176 11.0558C8.35801 11.9505 9.02176 12.6795 9.90301 12.6795C11.499 12.6795 12.729 10.9957 12.729 8.56425C12.729 6.4185 11.1818 4.9125 8.97301 4.9125C6.41551 4.9125 4.91626 6.834 4.91626 8.81175C4.91626 9.5865 5.21176 10.419 5.58301 10.8675C5.65726 10.9575 5.66701 11.0363 5.64676 11.1263C5.57926 11.4075 5.42701 12.0255 5.39626 12.1485C5.35651 12.3172 5.26726 12.3518 5.09551 12.2723C3.97426 11.7548 3.27076 10.1138 3.27076 8.78775C3.27076 5.95575 5.33176 3.34875 9.21076 3.34875C12.3293 3.34875 14.7548 5.574 14.7548 8.541C14.7548 11.6422 12.7995 14.1375 10.08 14.1375C9.16951 14.1375 8.31451 13.6658 8.01151 13.1033L7.44976 15.2393C7.24801 16.023 6.69676 17.0033 6.32626 17.5988C7.16851 17.8575 8.05576 18 8.98876 18C13.944 18 17.9775 13.9762 17.9775 9.00975C17.9775 4.0425 13.944 0.0195 8.98876 0.0195L9.01276 0Z" fill="#FF4242"/>
</svg>
