<svg width="103" height="24" viewBox="0 0 103 24" fill="none" xmlns="http://www.w3.org/2000/svg">
<path d="M24 0.791105L15.712 0.727104L12 9.0471L8.512 0.759104H0L7.872 13.4631L7.776 22.8391H15.84L15.68 13.3671L24 0.791105Z" fill="white"/>
<path d="M43.6398 20.9831C45.8158 19.0311 46.3918 17.3991 46.3918 13.7511V0.727104H38.6157L38.6478 12.2791C38.6158 14.5831 38.7438 17.8791 35.6077 17.9111C32.5358 17.9431 32.6317 14.8711 32.5677 12.3751L32.4717 0.727104H24.8237V13.6871C24.8237 17.4311 25.5917 19.0951 27.3517 20.8231C29.3677 22.7751 32.1198 23.2231 35.0638 23.2551C38.9358 23.3191 41.7197 22.6791 43.6398 20.9831Z" fill="white"/>
<path d="M59.1548 10.4231L59.2827 15.0951H63.5067C63.5067 15.0951 63.4427 16.1511 62.3867 17.0471C61.3307 17.9431 58.2907 18.3911 56.8507 16.5671C54.7067 13.9111 55.2507 9.7831 55.9227 8.43911C56.8187 6.67911 58.2588 5.81511 59.7627 5.84711C61.8107 5.84711 62.7388 6.83911 63.2508 9.2071L70.8988 7.4151C70.8988 7.4151 70.7067 5.68711 68.8187 3.60711C66.8988 1.4951 64.0827 0.183105 59.8268 0.183105C53.3948 0.183105 48.5947 3.3831 47.4748 9.3671C47.0588 11.6071 47.1548 14.3591 47.4748 15.6711C48.0828 18.3911 49.4907 20.7271 51.9548 22.2951C54.3867 23.8311 59.6987 24.6951 62.9627 22.4551C65.6827 20.5671 65.8108 17.9431 65.8108 17.9431L66.7387 22.8711L71.6988 22.9031L71.7308 10.4231H59.1548Z" fill="white"/>
<path d="M82.3865 17.2711L82.3225 14.1031L90.0345 14.0711L90.0985 9.0471H82.3545V6.0711L94.2585 6.0391L94.2265 0.759104H73.3625V22.8071H94.2265L94.2585 17.2711H82.3865Z" fill="white"/>
<path d="M102.966 22.8391V16.4071H96.5338V22.8391H102.966Z" fill="white"/>
</svg>
