<svg width="103" height="25" viewBox="0 0 103 25" fill="none" xmlns="http://www.w3.org/2000/svg">
<path d="M24 1.29111L15.712 1.2271L12 9.5471L8.512 1.2591H0L7.872 13.9631L7.776 23.3391H15.84L15.68 13.8671L24 1.29111Z" fill="#252A33"/>
<path d="M43.6398 21.4831C45.8158 19.5311 46.3918 17.8991 46.3918 14.2511V1.2271H38.6157L38.6478 12.7791C38.6158 15.0831 38.7438 18.3791 35.6077 18.4111C32.5358 18.4431 32.6317 15.3711 32.5677 12.8751L32.4717 1.2271H24.8237V14.1871C24.8237 17.9311 25.5917 19.5951 27.3517 21.3231C29.3677 23.2751 32.1198 23.7231 35.0638 23.7551C38.9358 23.8191 41.7197 23.1791 43.6398 21.4831Z" fill="#252A33"/>
<path d="M59.1548 10.9231L59.2827 15.5951H63.5067C63.5067 15.5951 63.4427 16.6511 62.3867 17.5471C61.3307 18.4431 58.2907 18.8911 56.8507 17.0671C54.7067 14.4111 55.2507 10.2831 55.9227 8.93911C56.8187 7.17911 58.2588 6.31511 59.7627 6.34711C61.8107 6.34711 62.7388 7.33911 63.2508 9.7071L70.8988 7.9151C70.8988 7.9151 70.7067 6.18711 68.8187 4.10711C66.8988 1.9951 64.0827 0.683105 59.8268 0.683105C53.3948 0.683105 48.5947 3.8831 47.4748 9.8671C47.0588 12.1071 47.1548 14.8591 47.4748 16.1711C48.0828 18.8911 49.4907 21.2271 51.9548 22.7951C54.3867 24.3311 59.6987 25.1951 62.9627 22.9551C65.6827 21.0671 65.8108 18.4431 65.8108 18.4431L66.7387 23.3711L71.6988 23.4031L71.7308 10.9231H59.1548Z" fill="#252A33"/>
<path d="M82.3865 17.7711L82.3225 14.6031L90.0345 14.5711L90.0985 9.5471H82.3545V6.5711L94.2585 6.5391L94.2265 1.2591H73.3625V23.3071H94.2265L94.2585 17.7711H82.3865Z" fill="#252A33"/>
<path d="M102.966 23.3391V16.9071H96.5338V23.3391H102.966Z" fill="#252A33"/>
</svg>
