<svg width="79" height="18" viewBox="0 0 79 18" fill="none" xmlns="http://www.w3.org/2000/svg">
<path d="M18.2793 0.463075L11.9668 0.414329L9.13964 6.75115L6.48305 0.438701H0L5.9956 10.1145L5.92249 17.2556H12.0643L11.9425 10.0414L18.2793 0.463075Z" fill="white"/>
<path d="M33.2376 15.842C34.895 14.3553 35.3337 13.1123 35.3337 10.3339V0.414329H29.4112L29.4355 9.21275C29.4112 10.9676 29.5087 13.4779 27.1202 13.5023C24.7804 13.5267 24.8535 11.1869 24.8048 9.28587L24.7317 0.414329H18.9067V10.2851C18.9067 13.1367 19.4916 14.4041 20.8321 15.7202C22.3676 17.2069 24.4636 17.5481 26.7058 17.5725C29.6549 17.6212 31.7753 17.1338 33.2376 15.842Z" fill="white"/>
<path d="M45.0544 7.79916L45.1519 11.3575H48.3691C48.3691 11.3575 48.3203 12.1618 47.516 12.8442C46.7117 13.5267 44.3964 13.8679 43.2996 12.4787C41.6667 10.4557 42.081 7.31171 42.5928 6.28807C43.2752 4.94759 44.372 4.28954 45.5175 4.31391C47.0773 4.31391 47.7841 5.06945 48.1741 6.87301L53.9991 5.50815C53.9991 5.50815 53.8528 4.19205 52.4149 2.60784C50.9525 0.999266 48.8078 0 45.5662 0C40.6674 0 37.0115 2.43724 36.1585 6.99487C35.8417 8.70094 35.9148 10.797 36.1585 11.7962C36.6216 13.8679 37.694 15.6471 39.5706 16.8413C41.4229 18.0112 45.4687 18.6692 47.9547 16.9632C50.0264 15.5252 50.1239 13.5267 50.1239 13.5267L50.8307 17.28L54.6084 17.3044L54.6328 7.79916H45.0544Z" fill="white"/>
<path d="M62.7486 13.0148L62.6998 10.602L68.5736 10.5776L68.6223 6.75115H62.7242V4.48451L71.7907 4.46014L71.7663 0.438701H55.8756V17.2313H71.7663L71.7907 13.0148H62.7486Z" fill="white"/>
<path d="M78.4225 17.2556V12.3568H73.5236V17.2556H78.4225Z" fill="white"/>
</svg>
