<svg width="166" height="38" viewBox="0 0 166 38" fill="none" xmlns="http://www.w3.org/2000/svg">
<path d="M38.5896 0.977602L25.2633 0.874695L19.2948 14.2524L13.6864 0.926147H0L12.6574 21.3529L12.503 36.4286H25.4691L25.2119 21.1985L38.5896 0.977602Z" fill="white"/>
<path d="M70.1683 33.4443C73.6671 30.3057 74.5933 27.6816 74.5933 21.816V0.874695H62.0902L62.1417 19.4491C62.0902 23.1537 62.296 28.4534 57.2537 28.5048C52.3142 28.5563 52.4686 23.6168 52.3657 19.6035L52.2113 0.874695H39.9141V21.7131C39.9141 27.733 41.149 30.4086 43.9789 33.187C47.2204 36.3257 51.6453 37.046 56.379 37.0975C62.6048 37.2004 67.0812 36.1713 70.1683 33.4443Z" fill="white"/>
<path d="M95.1149 16.4649L95.3207 23.977H102.112C102.112 23.977 102.01 25.6749 100.312 27.1156C98.6137 28.5563 93.7257 29.2766 91.4103 26.3438C87.9629 22.0732 88.8376 15.4358 89.9181 13.2748C91.3588 10.4449 93.6742 9.05569 96.0925 9.10714C99.3855 9.10714 100.878 10.7022 101.701 14.5097L113.998 11.6283C113.998 11.6283 113.689 8.84988 110.654 5.50545C107.566 2.10956 103.039 0 96.1954 0C85.8534 0 78.1355 5.14528 76.3346 14.7669C75.6657 18.3686 75.8201 22.7936 76.3346 24.9031C77.3122 29.2766 79.5761 33.0327 83.538 35.5539C87.4484 38.0236 95.9896 39.4128 101.238 35.8111C105.611 32.7754 105.817 28.5563 105.817 28.5563L107.309 36.48L115.284 36.5315L115.336 16.4649H95.1149Z" fill="white"/>
<path d="M132.469 27.4758L132.366 22.382L144.766 22.3305L144.869 14.2524H132.418V9.46731L151.558 9.41586L151.507 0.926147H117.96V36.3771H151.507L151.558 27.4758H132.469Z" fill="white"/>
<path d="M165.559 36.4286V26.0866H155.217V36.4286H165.559Z" fill="white"/>
</svg>
